<svg height="266.53" viewBox="0 0 363.64 266.53" width="363.64001" xmlns="http://www.w3.org/2000/svg"><g fill="none" stroke="#010101" stroke-miterlimit="10" stroke-width="5" transform="translate(-10.42)"><path d="m46.28 210.4c0 1.39.1 3 .3 4.84s.52 3.67.97 5.51 1.07 3.55 1.86 5.14 1.74 2.88 2.83 3.87c1.29-3.47 2.9-6.25 4.84-8.34 1.94-2.08 4-3.67 6.18-4.77 2.18-1.09 4.39-1.81 6.63-2.16 2.23-.35 4.24-.52 6.03-.52 3.77 0 7.17.62 10.2 1.86s5.61 2.93 7.74 5.06c2.13 2.14 3.77 4.62 4.91 7.45s1.71 5.88 1.71 9.16c0 7.94-2.81 14.35-8.41 19.21-5.61 4.87-14.42 7.3-26.43 7.3-5.66 0-11.59-1.14-17.8-3.43-6.21-2.28-11.89-5.68-17.05-10.2s-9.43-10.1-12.81-16.75-5.06-14.35-5.06-23.08v-54.21c0-7.94 1.56-15.24 4.69-21.89s7.54-12.41 13.25-17.28c5.71-4.86 12.66-8.64 20.85-11.32s17.35-4.02 27.48-4.02h16.23v19.96h-16.23c-4.17 0-8.22.57-12.14 1.71s-7.42 3.05-10.5 5.73-5.56 6.25-7.45 10.72-2.83 10.03-2.83 16.68v53.76zm40.81 28.59c0-3.18-1.22-5.91-3.65-8.19s-5.39-3.42-8.86-3.42-6.46 1.14-8.94 3.42c-2.48 2.29-3.72 5.01-3.72 8.19s1.24 5.91 3.72 8.19 5.46 3.42 8.94 3.42 6.43-1.14 8.86-3.42 3.65-5.01 3.65-8.19zm51.53-28.59c0 1.39.1 3 .3 4.84s.52 3.67.97 5.51 1.07 3.55 1.86 5.14 1.74 2.88 2.83 3.87c1.29-3.47 2.9-6.25 4.84-8.34 1.94-2.08 4-3.67 6.18-4.77 2.18-1.09 4.39-1.81 6.63-2.16 2.23-.35 4.24-.52 6.03-.52 3.77 0 7.17.62 10.2 1.86s5.61 2.93 7.74 5.06c2.13 2.14 3.77 4.62 4.91 7.45s1.71 5.88 1.71 9.16c0 7.94-2.81 14.35-8.41 19.21-5.61 4.87-14.42 7.3-26.43 7.3-5.66 0-11.59-1.14-17.8-3.43-6.21-2.28-11.89-5.68-17.05-10.2s-9.43-10.1-12.81-16.75-5.06-14.35-5.06-23.08v-54.21c0-7.94 1.56-15.24 4.69-21.89s7.54-12.41 13.25-17.28c5.71-4.86 12.66-8.64 20.85-11.32s17.35-4.02 27.48-4.02h16.23v19.96h-16.23c-4.17 0-8.22.57-12.14 1.71s-7.42 3.05-10.5 5.73-5.56 6.25-7.45 10.72-2.83 10.03-2.83 16.68v53.76zm40.8 28.59c0-3.18-1.22-5.91-3.65-8.19s-5.39-3.42-8.86-3.42-6.46 1.14-8.94 3.42c-2.48 2.29-3.72 5.01-3.72 8.19s1.24 5.91 3.72 8.19 5.46 3.42 8.94 3.42 6.43-1.14 8.86-3.42 3.65-5.01 3.65-8.19z"/><path d="m297.37 264.01c-11.12 0-21.2-1.17-30.23-3.5-9.04-2.33-16.73-5.73-23.08-10.2s-11.27-10-14.74-16.61c-3.48-6.6-5.21-14.17-5.21-22.71 0-6.45.74-12.01 2.23-16.68s3.43-8.79 5.81-12.36 4.96-6.75 7.74-9.53 5.51-5.46 8.19-8.04 5.06-5.21 7.15-7.89c2.08-2.68 3.57-5.76 4.47-9.23-1.39 1.09-2.81 1.99-4.24 2.68-1.44.7-3.5 1.04-6.18 1.04-3.28 0-6.46-.54-9.53-1.64-3.08-1.09-5.76-2.7-8.04-4.84-2.28-2.13-4.12-4.77-5.51-7.89-1.39-3.13-2.08-6.68-2.08-10.65 0-3.67.67-7.12 2.01-10.35s3.28-6.03 5.81-8.41 5.68-4.27 9.46-5.66c3.77-1.39 8.04-2.08 12.81-2.08 5.16 0 9.8.74 13.92 2.23s7.62 3.6 10.5 6.33 5.09 6.01 6.63 9.83 2.31 8.12 2.31 12.88c0 5.86-.65 11.1-1.94 15.71-1.29 4.62-2.9 8.94-4.84 12.96s-4.02 7.84-6.25 11.47-4.32 7.4-6.25 11.32c-1.94 3.92-3.55 8.09-4.84 12.51s-1.94 9.41-1.94 14.97c0 4.67.89 8.96 2.68 12.88s4.19 7.3 7.22 10.13 6.63 5.04 10.8 6.63 8.64 2.38 13.4 2.38c6.85 0 12.71-1.14 17.57-3.42s8.86-5.58 11.99-9.9 5.44-9.61 6.93-15.86 2.23-13.4 2.23-21.45v-89.21h37.23v96.95c0 11.91-2.18 22.02-6.55 30.31s-10.05 15.02-17.05 20.18-14.94 8.91-23.83 11.24-17.8 3.5-26.73 3.5zm-59.87-138.8c0 1.59.32 3.13.97 4.62.64 1.49 1.54 2.81 2.68 3.95s2.46 2.06 3.95 2.75c1.49.7 3.13 1.04 4.91 1.04s3.45-.35 4.99-1.04 2.88-1.61 4.02-2.75 2.03-2.46 2.68-3.95c.64-1.49.97-3.03.97-4.62s-.32-3.13-.97-4.62-1.54-2.8-2.68-3.95c-1.14-1.14-2.48-2.06-4.02-2.75s-3.2-1.04-4.99-1.04-3.43.35-4.91 1.04c-1.49.7-2.81 1.62-3.95 2.75-1.14 1.14-2.04 2.46-2.68 3.95-.65 1.49-.97 3.03-.97 4.62z"/><path d="m271.01 51.05c4.77 0 10.2-.42 16.31-1.27 6.11-.84 12.16-2.63 18.17-5.36s11.59-6.7 16.75-11.91 9.23-12.19 12.21-20.92l25.91 8.79c-2.78 5.86-6.63 11.72-11.54 17.57-4.92 5.86-10.97 11.12-18.17 15.79s-15.54 8.47-25.02 11.39c-9.48 2.93-20.23 4.39-32.24 4.39-3.28 0-7-.15-11.17-.45s-8.54-.72-13.11-1.27c-4.57-.54-9.13-1.24-13.7-2.08s-8.88-1.81-12.96-2.9c2.08-1.09 4.34-2.55 6.78-4.39 2.43-1.84 4.79-3.92 7.07-6.25 2.29-2.33 4.42-4.86 6.4-7.6 1.99-2.73 3.62-5.53 4.91-8.41-2.18 1.09-4.24 1.76-6.18 2.01s-3.7.37-5.29.37c-2.28 0-4.54-.37-6.78-1.12-2.23-.74-4.19-1.81-5.88-3.2s-3.05-3.1-4.1-5.14c-1.04-2.03-1.56-4.39-1.56-7.07 0-2.18.52-4.44 1.56-6.78 1.04-2.33 2.71-4.44 4.99-6.33 2.29-1.89 5.29-3.43 9.01-4.62s8.22-1.79 13.48-1.79c2.88 0 6.08.4 9.61 1.19 3.53.8 6.85 2.14 9.98 4.02 3.13 1.89 5.76 4.39 7.89 7.52 2.14 3.13 3.2 6.98 3.2 11.54s-1.44 8.76-4.32 12.88-6.5 7.72-10.87 10.8c1.49.2 2.96.35 4.39.45 1.44.1 2.86.15 4.24.15zm-40.06-30.98c0 2.29.87 4.22 2.61 5.81s3.85 2.38 6.33 2.38 4.57-.79 6.25-2.38c1.69-1.59 2.53-3.52 2.53-5.81s-.84-4.24-2.53-5.88-3.77-2.46-6.25-2.46-4.59.82-6.33 2.46-2.61 3.6-2.61 5.88z"/></g><path d="m286.88 264.01c-11.12 0-21.2-1.17-30.23-3.5-9.04-2.33-16.73-5.73-23.08-10.2s-11.27-10-14.74-16.6c-3.48-6.6-5.21-14.17-5.21-22.71 0-6.45.74-12.01 2.23-16.68s3.43-8.79 5.81-12.36 4.96-6.75 7.74-9.53 5.51-5.46 8.19-8.04 5.06-5.21 7.15-7.89 3.57-5.76 4.47-9.23c-1.39 1.09-2.81 1.99-4.24 2.68-1.44.7-3.5 1.04-6.18 1.04-3.28 0-6.46-.54-9.53-1.64-3.08-1.09-5.76-2.7-8.04-4.84-2.29-2.13-4.12-4.77-5.51-7.89-1.39-3.13-2.08-6.68-2.08-10.65 0-3.67.67-7.12 2.01-10.35s3.28-6.03 5.81-8.41 5.68-4.27 9.46-5.66c3.77-1.39 8.04-2.08 12.81-2.08 5.16 0 9.8.74 13.92 2.23s7.62 3.6 10.5 6.33 5.09 6.01 6.63 9.83 2.31 8.12 2.31 12.88c0 5.86-.65 11.09-1.94 15.71s-2.9 8.94-4.84 12.96-4.02 7.84-6.25 11.47c-2.23 3.62-4.32 7.4-6.25 11.32-1.94 3.92-3.55 8.09-4.84 12.51s-1.94 9.41-1.94 14.97c0 4.67.89 8.96 2.68 12.88s4.19 7.3 7.22 10.13 6.63 5.04 10.8 6.63 8.64 2.38 13.4 2.38c6.85 0 12.71-1.14 17.57-3.43 4.86-2.28 8.86-5.58 11.99-9.9s5.44-9.61 6.93-15.86 2.23-13.4 2.23-21.45v-89.21h37.23v96.95c0 11.91-2.18 22.02-6.55 30.31s-10.05 15.02-17.05 20.18-14.94 8.91-23.83 11.24-17.8 3.5-26.73 3.5zm-59.87-138.8c0 1.59.32 3.13.97 4.62s1.54 2.81 2.68 3.95 2.46 2.06 3.95 2.76 3.13 1.04 4.91 1.04 3.45-.35 4.99-1.04 2.88-1.61 4.02-2.76c1.14-1.14 2.03-2.46 2.68-3.95s.97-3.03.97-4.62-.32-3.13-.97-4.62-1.54-2.8-2.68-3.95c-1.14-1.14-2.48-2.06-4.02-2.76-1.54-.69-3.2-1.04-4.99-1.04s-3.43.35-4.91 1.04c-1.49.7-2.81 1.61-3.95 2.76s-2.04 2.46-2.68 3.95c-.65 1.49-.97 3.03-.97 4.62z" fill="#010101"/></svg>