<svg xmlns="http://www.w3.org/2000/svg" version="1.1" viewBox="-5.0 -10.0 110.0 135.0">
 <path d="m82 27.441h-4.1094v-1.8398c0-0.48828-0.19531-0.95703-0.53906-1.3008-0.34375-0.34766-0.8125-0.53906-1.3008-0.53906h-51.582c-1.0156 0-1.8398 0.82031-1.8398 1.8398v11c-0.007812 9.5 4.8672 18.34 12.91 23.398 1.1367 0.72656 1.8242 1.9805 1.8203 3.3281 0 0.51562 0.41797 0.93359 0.92969 0.93359h23.941c0.24609 0 0.48047-0.10156 0.65234-0.27344 0.17578-0.17578 0.26953-0.41406 0.26563-0.66016 0.003906-1.3516 0.70312-2.6094 1.8516-3.3281 2.9688-1.8672 5.5547-4.2852 7.6211-7.1211h1.5c4.4258-0.003906 8.6719-1.7656 11.801-4.8945 3.1328-3.1328 4.8945-7.375 4.8984-11.805-0.027343-4.8477-3.9727-8.7578-8.8203-8.7383zm-41.199 25.238c-0.42188 0.44531-1.0039 0.70312-1.6133 0.71875-0.61328 0.015624-1.207-0.21484-1.6484-0.63672-5.3633-5.0664-8.3906-12.133-8.3594-19.512v-0.53125c0-1.2695 1.0312-2.2969 2.3008-2.2969s2.3008 1.0273 2.3008 2.2969v0.53125c-0.023438 6.1211 2.4883 11.98 6.9375 16.18 0.92188 0.875 0.95703 2.332 0.082031 3.25zm35-5.4414c1.3984-3.3516 2.1133-6.9531 2.1094-10.59v-3.6484h4.0898c1.793 0 3.2461 1.4492 3.25 3.2383-0.019531 5.5-4.0352 10.164-9.4688 11z" fill-rule="evenodd"/>
 <path d="m75.922 68.871h-51.453c-1.0039 0-1.9648 0.41406-2.6602 1.1406-0.69531 0.72656-1.0625 1.7031-1.0195 2.707 0.16797 2.0273 1.8867 3.5703 3.9219 3.5195h51.34c1.1055 0 2.1562-0.5 2.8555-1.3555 0.69922-0.85937 0.97656-1.9883 0.75391-3.0742-0.39453-1.7422-1.9531-2.9688-3.7383-2.9375z" fill-rule="evenodd"/>
<text x="0.0" y="117.5" font-size="5.0" font-weight="bold" font-family="Arbeit Regular, Helvetica, Arial-Unicode, Arial, Sans-serif" fill="#000000">Created by susi susanti</text><text x="0.0" y="122.5" font-size="5.0" font-weight="bold" font-family="Arbeit Regular, Helvetica, Arial-Unicode, Arial, Sans-serif" fill="#000000">from Noun Project</text></svg>