<svg viewBox="0 0 70.03 52.48" xmlns="http://www.w3.org/2000/svg"><g fill-rule="evenodd"><path d="m61.21 3.68h-4.11v-1.84c0-.49-.2-.96-.54-1.3-.34-.35-.81-.54-1.3-.54h-51.58c-1.02 0-1.84.82-1.84 1.84v11c0 9.5 4.87 18.34 12.91 23.4 1.14.73 1.82 1.98 1.82 3.33 0 .52.42.93.93.93h23.94c.25 0 .48-.1.65-.27.18-.18.27-.41.27-.66 0-1.35.7-2.61 1.85-3.33 2.97-1.87 5.55-4.29 7.62-7.12h1.5c4.43 0 8.67-1.77 11.8-4.89 3.13-3.13 4.89-7.38 4.9-11.81-.03-4.85-3.97-8.76-8.82-8.74zm-41.19 25.24c-.42.45-1 .7-1.61.72s-1.21-.21-1.65-.64c-5.36-5.07-8.39-12.13-8.36-19.51v-.53c0-1.27 1.03-2.3 2.3-2.3s2.3 1.03 2.3 2.3v.53c-.02 6.12 2.49 11.98 6.94 16.18.92.88.96 2.33.08 3.25zm35-5.44c1.4-3.35 2.11-6.95 2.11-10.59v-3.65h4.09c1.79 0 3.25 1.45 3.25 3.24-.02 5.5-4.04 10.16-9.47 11z"/><path d="m55.14 45.11h-51.46c-1 0-1.96.41-2.66 1.14s-1.06 1.7-1.02 2.71c.17 2.03 1.89 3.57 3.92 3.52h51.34c1.11 0 2.16-.5 2.86-1.36s.98-1.99.75-3.07c-.39-1.74-1.95-2.97-3.74-2.94z"/></g></svg>