<svg height="197.81" viewBox="0 0 195.99 197.81" width="195.99001" xmlns="http://www.w3.org/2000/svg"><path d="m112.77 117.36c.12.61.18 1.15.18 1.63v1.63c0 4-.79 7.66-2.36 10.99-1.58 3.33-3.79 6.24-6.63 8.72-2.85 2.48-6.18 4.39-9.99 5.72s-7.96 2-12.44 2-8.69-.79-12.62-2.36c-3.94-1.57-7.36-3.72-10.26-6.45s-5.21-5.99-6.9-9.81c-1.7-3.81-2.54-7.96-2.54-12.44 0-4.72.91-9.08 2.72-13.08s4.42-7.42 7.81-10.26 7.48-5.09 12.26-6.72 10.2-2.45 16.26-2.45c7.02 0 13.59.97 19.71 2.91 6.11 1.94 11.78 4.6 16.98 7.99 5.21 3.39 9.96 7.39 14.26 11.99s8.08 9.57 11.35 14.89v-38.87c0-9.69-1.61-18.07-4.81-25.16-3.21-7.08-7.45-12.92-12.71-17.53-5.27-4.6-11.23-7.99-17.89-10.17s-13.44-3.27-20.34-3.27c-4.24 0-8.84.7-13.8 2.09-4.97 1.39-9.93 3.75-14.89 7.08-4.97 3.33-9.72 7.72-14.26 13.17s-8.45 12.23-11.72 20.34l-40.14-20.89c5.57-9.81 12.32-17.86 20.25-24.16 7.93-6.29 16.32-11.29 25.16-14.99 8.84-3.69 17.8-6.27 26.88-7.72s17.5-2.18 25.25-2.18c13.8 0 26.7 1.73 38.69 5.18s22.4 8.72 31.24 15.8 15.8 16.05 20.89 26.88c5.09 10.84 7.63 23.64 7.63 38.42v111.53h-45.41v-12.71c0-7.38-1.18-14.62-3.54-21.71s-5.39-13.65-9.08-19.71c-3.7-6.05-7.78-11.35-12.26-15.89s-8.78-8.02-12.9-10.44zm-47.22-1.09c0 4.24 1.51 7.87 4.54 10.9s6.66 4.54 10.9 4.54 7.87-1.51 10.9-4.54 4.54-6.66 4.54-10.9-1.52-7.87-4.54-10.9c-3.03-3.03-6.66-4.54-10.9-4.54s-7.87 1.52-10.9 4.54-4.54 6.66-4.54 10.9z"/></svg>