<svg height="205.74001" viewBox="0 0 661.44433 205.74001" width="661.44434" xmlns="http://www.w3.org/2000/svg"><path d="m116.22434 119.86c.12.61.18 1.15.18 1.63v1.63c0 4-.79 7.66-2.36 10.99-1.58 3.33-3.79 6.24-6.63 8.72-2.85 2.48-6.18 4.39-9.990005 5.72-3.81 1.33-7.96 2-12.44 2s-8.69-.79-12.62-2.36c-3.94-1.57-7.36-3.72-10.26-6.45s-5.21-5.99-6.9-9.81c-1.7-3.81-2.54-7.96-2.54-12.44 0-4.72.91-9.08 2.72-13.08s4.42-7.42 7.81-10.26 7.48-5.09 12.26-6.72 10.2-2.45 16.26-2.45c7.02 0 13.590005.97 19.710005 2.91 6.11 1.94 11.78 4.6 16.98 7.99 5.21 3.39 9.96 7.39 14.26 11.99s8.08 9.57 11.35 14.89v-38.87c0-9.69-1.61-18.07-4.81-25.16-3.21-7.08-7.45-12.92-12.71-17.53-5.27-4.6-11.23-7.99-17.89-10.17s-13.44-3.27-20.340005-3.27c-4.24 0-8.84.7-13.8 2.09-4.97 1.39-9.93 3.75-14.89 7.08-4.97 3.33-9.72 7.72-14.26 13.17s-8.45 12.23-11.72 20.34l-40.14-20.89c5.57-9.81 12.32-17.86 20.25-24.16 7.93-6.29 16.32-11.29 25.16-14.99 8.84-3.69 17.8-6.27 26.88-7.72s17.5-2.18 25.250005-2.18c13.8 0 26.7 1.73 38.69 5.18s22.4 8.72 31.24 15.8 15.8 16.05 20.89 26.88c5.09 10.84 7.63 23.64 7.63 38.42v111.53h-45.41v-12.71c0-7.38-1.18-14.62-3.54-21.71s-5.39-13.65-9.08-19.71c-3.7-6.05-7.78-11.35-12.26-15.89s-8.78-8.02-12.9-10.44zm-47.220005-1.09c0 4.24 1.51 7.87 4.54 10.9s6.66 4.54 10.9 4.54 7.87-1.51 10.9-4.54 4.54-6.66 4.54-10.9-1.52-7.87-4.54-10.9c-3.03-3.03-6.66-4.54-10.9-4.54s-7.87 1.52-10.9 4.54-4.54 6.66-4.54 10.9z"/><g fill="none" stroke="#000" stroke-miterlimit="10" stroke-width="5" transform="translate(-11.785665 -111.14)"><path d="m128.01 231c.12.61.18 1.15.18 1.63v1.63c0 4-.79 7.66-2.36 10.99-1.58 3.33-3.79 6.24-6.63 8.72-2.85 2.48-6.18 4.39-9.99 5.72s-7.96 2-12.44 2-8.69-.79-12.62-2.36c-3.94-1.57-7.36-3.72-10.26-6.45s-5.21-5.99-6.9-9.81c-1.7-3.81-2.54-7.96-2.54-12.44 0-4.72.91-9.08 2.72-13.08s4.42-7.42 7.81-10.26 7.48-5.09 12.26-6.72 10.2-2.45 16.26-2.45c7.02 0 13.59.97 19.71 2.91 6.11 1.94 11.78 4.6 16.98 7.99 5.21 3.39 9.96 7.39 14.26 11.99s8.08 9.57 11.35 14.89v-38.87c0-9.69-1.61-18.07-4.81-25.16-3.21-7.08-7.45-12.92-12.71-17.53-5.27-4.6-11.23-7.99-17.89-10.17s-13.44-3.27-20.34-3.27c-4.24 0-8.84.7-13.8 2.09-4.97 1.39-9.93 3.75-14.89 7.08-4.97 3.33-9.72 7.72-14.26 13.17s-8.45 12.23-11.72 20.34l-40.14-20.89c5.57-9.81 12.32-17.86 20.25-24.16 7.93-6.29 16.32-11.29 25.16-14.99 8.84-3.69 17.8-6.27 26.88-7.72s17.5-2.18 25.25-2.18c13.8 0 26.7 1.73 38.69 5.18s22.4 8.72 31.24 15.8 15.8 16.05 20.89 26.88c5.09 10.84 7.63 23.64 7.63 38.42v111.53h-45.41v-12.71c0-7.38-1.18-14.62-3.54-21.71s-5.39-13.65-9.08-19.71c-3.7-6.05-7.78-11.35-12.26-15.89s-8.78-8.02-12.9-10.44zm-47.22-1.09c0 4.24 1.51 7.87 4.54 10.9s6.66 4.54 10.9 4.54 7.87-1.51 10.9-4.54 4.54-6.66 4.54-10.9-1.52-7.87-4.54-10.9c-3.03-3.03-6.66-4.54-10.9-4.54s-7.87 1.52-10.9 4.54-4.54 6.66-4.54 10.9z"/><path d="m328 195.04c-8.84 0-17.89-.6-27.16-1.82-9.26-1.21-17.71-3.33-25.34-6.36s-13.9-7.17-18.8-12.44-7.36-11.96-7.36-20.07c0-6.9 2.06-12.9 6.18-17.98 4.12-5.09 9.84-9.29 17.17-12.62s15.98-5.84 25.97-7.54c9.99-1.69 20.86-2.54 32.6-2.54 12.83 0 25 1.42 36.51 4.27 11.5 2.85 21.62 7.42 30.33 13.71 8.72 6.3 15.62 14.44 20.71 24.43s7.63 22.13 7.63 36.42v49.59c0 12.23-2.67 22.89-7.99 31.97-5.33 9.08-12.29 16.62-20.89 22.61s-18.41 10.44-29.43 13.35-22.22 4.36-33.6 4.36c-5.57 0-11.51-.39-17.8-1.18-6.3-.79-12.62-2.06-18.98-3.81s-12.44-4.06-18.25-6.9-10.96-6.39-15.44-10.63-8.05-9.23-10.72-14.99c-2.67-5.75-4-12.38-4-19.89s1.6-13.86 4.81-19.44c3.21-5.57 7.48-10.26 12.81-14.08 5.33-3.81 11.44-6.69 18.35-8.63 6.9-1.94 14.11-2.91 21.62-2.91 5.93 0 11.29.85 16.08 2.54 4.78 1.7 8.84 4.03 12.17 6.99 3.33 2.97 5.9 6.42 7.72 10.35 1.82 3.94 2.72 8.15 2.72 12.62 0 3.88-.58 7.66-1.73 11.35-1.15 3.7-2.97 6.99-5.45 9.9s-5.69 5.27-9.63 7.08c-3.94 1.82-8.69 2.72-14.26 2.72-2.91 0-5.81-.27-8.72-.82s-5.72-1.54-8.45-3-5.39-3.42-7.99-5.9c-2.61-2.48-5.12-5.66-7.54-9.54 1.69 8.24 4.75 14.68 9.17 19.34s9.29 8.11 14.62 10.35 10.59 3.6 15.8 4.09 9.38.73 12.53.73c6.78 0 12.62-.82 17.53-2.45s9.11-3.84 12.62-6.63c3.51-2.78 6.36-5.99 8.54-9.63s3.91-7.42 5.18-11.35 2.12-7.87 2.54-11.81c.42-3.93.64-7.66.64-11.17v-41.78c0-4.72-.36-9.56-1.09-14.53-6.9 3.51-14.71 6.66-23.43 9.45s-18.23 4.18-28.52 4.18zm-.91-54.13c-11.51 0-20.1 1.21-25.79 3.63s-8.54 5.57-8.54 9.45c0 2.79.97 5.09 2.91 6.9 1.94 1.82 4.51 3.24 7.72 4.27s6.93 1.73 11.17 2.09 8.66.54 13.26.54c9.08 0 17.07-.94 23.98-2.82 6.9-1.88 13.08-4.27 18.53-7.17-3.88-5.09-9.29-9.17-16.26-12.26-6.96-3.09-15.96-4.63-26.97-4.63zm-28.7 102.81c0 2.18.42 4.21 1.27 6.08.85 1.88 2 3.51 3.45 4.9s3.12 2.48 5 3.27 3.91 1.18 6.08 1.18c4.24 0 7.81-1.51 10.72-4.54s4.36-6.66 4.36-10.9-1.52-7.87-4.54-10.9c-3.03-3.03-6.66-4.54-10.9-4.54s-7.87 1.52-10.9 4.54-4.54 6.66-4.54 10.9z"/><path d="m557.05 262.97c0 9.2-1.48 17.07-4.45 23.61s-6.78 11.87-11.44 15.98c-4.66 4.12-9.9 7.12-15.71 8.99s-11.57 2.82-17.26 2.82c-8.24 0-15.14-1.12-20.71-3.36s-10.05-5.05-13.44-8.45c-3.39-3.39-5.81-7.14-7.27-11.26-1.45-4.12-2.18-7.99-2.18-11.62 0-4.36.85-8.38 2.54-12.08 1.69-3.69 4-6.84 6.9-9.45 2.91-2.6 6.24-4.66 9.99-6.18 3.75-1.51 7.63-2.27 11.62-2.27 2.3 0 5.09.3 8.36.91s5.81 1.7 7.63 3.27v-83.01c-1.82 1.7-4.36 3-7.63 3.91s-6.06 1.36-8.36 1.36c-4.72 0-8.99-.79-12.81-2.36-3.81-1.57-7.08-3.72-9.81-6.45s-4.81-5.99-6.27-9.81-2.18-7.96-2.18-12.44c0-4.72.91-9.02 2.72-12.9 1.82-3.87 4.24-7.17 7.27-9.9 3.03-2.72 6.54-4.84 10.54-6.36 4-1.51 8.23-2.27 12.71-2.27 3.27 0 6.72.33 10.35 1s7.14 2 10.54 4c3.39 2 6.54 4.75 9.45 8.26s5.27 8.17 7.08 13.99c2.42-3.75 5.54-7.29 9.35-10.63 3.81-3.33 8.2-6.2 13.17-8.63 4.96-2.42 10.44-4.36 16.44-5.81s12.38-2.18 19.16-2.18c9.69 0 19.16 1.09 28.43 3.27s17.53 5.63 24.79 10.35 13.11 10.81 17.53 18.25c4.42 7.45 6.63 16.44 6.63 26.97v138.96h-45.41v-138.96c0-5.33-.94-9.99-2.82-13.99s-4.3-7.29-7.27-9.9c-2.97-2.6-6.36-4.54-10.17-5.81s-7.72-1.91-11.72-1.91-7.93.54-12.17 1.63-8.15 2.88-11.72 5.36-6.54 5.75-8.9 9.81-3.54 8.99-3.54 14.8v90.46zm-76.11-118.06c0 2.06.39 4 1.18 5.81.79 1.82 1.88 3.39 3.27 4.72s3 2.39 4.81 3.18c1.82.79 3.81 1.18 5.99 1.18s4.21-.39 6.08-1.18c1.88-.79 3.51-1.84 4.9-3.18 1.39-1.33 2.48-2.91 3.27-4.72.79-1.82 1.18-3.75 1.18-5.81s-.39-4-1.18-5.81c-.79-1.82-1.88-3.39-3.27-4.72s-3.03-2.39-4.9-3.18c-1.88-.79-3.91-1.18-6.08-1.18s-4.18.39-5.99 1.18c-1.82.79-3.42 1.85-4.81 3.18s-2.48 2.91-3.27 4.72c-.79 1.82-1.18 3.75-1.18 5.81zm0 136.23c0 1.94.39 3.81 1.18 5.63s1.88 3.42 3.27 4.81 3 2.51 4.81 3.36c1.82.85 3.81 1.27 5.99 1.27s4.21-.42 6.08-1.27c1.88-.85 3.51-1.97 4.9-3.36s2.48-3 3.27-4.81c.79-1.82 1.18-3.69 1.18-5.63s-.39-3.81-1.18-5.63-1.88-3.42-3.27-4.81-3.03-2.51-4.9-3.36c-1.88-.85-3.91-1.27-6.08-1.27s-4.18.43-5.99 1.27c-1.82.85-3.42 1.97-4.81 3.36s-2.48 3-3.27 4.81c-.79 1.82-1.18 3.7-1.18 5.63z"/></g></svg>