<svg xmlns="http://www.w3.org/2000/svg" xmlns:xlink="http://www.w3.org/1999/xlink" xmlns:serif="http://www.serif.com/" viewBox="0 0 100 125" version="1.1" xml:space="preserve" style="" x="0px" y="0px" fill-rule="evenodd" clip-rule="evenodd" stroke-linejoin="round" stroke-miterlimit="2"><rect serif:id="91 - child" x="0" y="0" width="100" height="100" style="" fill="none"/><g serif:id="91 - child"><g><path d="M78.125,47.586c0,0.277 -0.145,0.533 -0.383,0.676c-2.735,1.641 -19.391,11.635 -25.499,15.299c-1.381,0.829 -3.105,0.829 -4.486,0c-6.108,-3.664 -22.763,-13.658 -25.499,-15.299c-0.238,-0.143 -0.383,-0.399 -0.383,-0.676c0,-2.481 0,-14.461 0,-14.461c0,-7.459 2.963,-14.613 8.238,-19.887c5.274,-5.275 12.428,-8.238 19.887,-8.238c7.459,0 14.613,2.963 19.887,8.238c5.275,5.274 8.238,12.428 8.238,19.887l0,14.461Zm-28.125,-34.737c-11.191,-0 -20.276,9.085 -20.276,20.276c-0,11.191 9.085,20.276 20.276,20.276c11.191,0 20.276,-9.085 20.276,-20.276c0,-11.191 -9.085,-20.276 -20.276,-20.276Zm-22.404,71.029c-0.21,-0.28 -0.292,-0.636 -0.225,-0.979c0.067,-0.344 0.277,-0.643 0.577,-0.823c6.839,-4.105 42.032,-25.221 48.984,-29.392c0.243,-0.146 0.546,-0.15 0.793,-0.01c0.247,0.14 0.4,0.402 0.4,0.686c0,3.703 0,13.515 0,13.515c0,7.459 -2.963,14.613 -8.238,19.887c-5.274,5.275 -12.428,8.238 -19.887,8.238c-7.459,-0 -14.613,-2.963 -19.887,-8.238c-0.909,-0.908 -1.749,-1.872 -2.517,-2.884Zm-5.721,-30.518c0,-0.284 0.153,-0.546 0.4,-0.686c0.247,-0.14 0.55,-0.136 0.794,0.01c4.021,2.413 17.092,10.255 21.876,13.126c0.374,0.224 0.603,0.629 0.603,1.065c0,0.436 -0.229,0.841 -0.603,1.065c-4.298,2.579 -15.171,9.103 -18.736,11.241c-0.299,0.18 -0.661,0.225 -0.995,0.124c-0.335,-0.102 -0.611,-0.34 -0.76,-0.656c-1.682,-3.658 -2.579,-7.67 -2.579,-11.774l0,-13.515Z"/><path d="M35.702,30.553c-0.754,-0.547 -0.922,-1.603 -0.375,-2.357c0.547,-0.753 1.603,-0.921 2.357,-0.374c1.662,1.206 3.324,1.154 4.987,-0.015c0.761,-0.536 1.815,-0.352 2.351,0.41c0.536,0.762 0.352,1.815 -0.41,2.351c-2.97,2.089 -5.94,2.141 -8.91,-0.015Z"/><path d="M50.939,30.553c-0.754,-0.547 -0.922,-1.603 -0.375,-2.357c0.547,-0.753 1.603,-0.921 2.357,-0.374c1.662,1.206 3.325,1.154 4.987,-0.015c0.762,-0.536 1.815,-0.352 2.351,0.41c0.536,0.762 0.352,1.815 -0.41,2.351c-2.97,2.089 -5.94,2.141 -8.91,-0.015Z"/><ellipse cx="47.607" cy="41.899" rx="2.047" ry="2.255"/></g></g><text x="0" y="115" fill="#000000" font-size="5px" font-weight="bold" font-family="'Helvetica Neue', Helvetica, Arial-Unicode, Arial, Sans-serif">Created by Zach Bogart</text><text x="0" y="120" fill="#000000" font-size="5px" font-weight="bold" font-family="'Helvetica Neue', Helvetica, Arial-Unicode, Arial, Sans-serif">from the Noun Project</text></svg>