<svg height="90" viewBox="0 0 56.400002 90" width="56.400002" xmlns="http://www.w3.org/2000/svg"><g transform="translate(-21.8 -5)"><g fill-rule="evenodd"><path d="m78.1 47.6c0 .3-.1.5-.4.7-2.7 1.6-19.4 11.6-25.5 15.3-1.4.8-3.1.8-4.5 0-6.1-3.7-22.8-13.7-25.5-15.3-.2-.1-.4-.4-.4-.7v-14.5c0-7.5 3-14.6 8.2-19.9 5.3-5.3 12.4-8.2 19.9-8.2s14.6 3 19.9 8.2c5.3 5.3 8.2 12.4 8.2 19.9v14.5zm-28.1-34.8c-11.2 0-20.3 9.1-20.3 20.3s9.1 20.3 20.3 20.3 20.3-9.1 20.3-20.3-9.1-20.3-20.3-20.3zm-22.4 71.1c-.2-.3-.3-.6-.2-1 0-.3.3-.6.6-.8 6.8-4.1 42-25.2 49-29.4.2-.1.5-.2.8 0 .2.1.4.4.4.7v13.5c0 7.5-3 14.6-8.2 19.9-5.3 5.3-12.4 8.2-19.9 8.2s-14.6-3-19.9-8.2c-.9-.9-1.7-1.9-2.5-2.9zm-5.7-30.5c0-.3.2-.5.4-.7s.5-.1.8 0c4 2.4 17.1 10.3 21.9 13.1.4.2.6.6.6 1.1s-.2.8-.6 1.1c-4.3 2.6-15.2 9.1-18.7 11.2-.3.2-.7.2-1 .1s-.6-.3-.8-.7c-1.7-3.7-2.6-7.7-2.6-11.8v-13.5z"/><path d="m35.7 30.6c-.8-.5-.9-1.6-.4-2.4s1.6-.9 2.4-.4c1.7 1.2 3.3 1.2 5 0 .8-.5 1.8-.4 2.4.4.5.8.4 1.8-.4 2.4-3 2.1-5.9 2.1-8.9 0z"/><path d="m50.9 30.6c-.8-.5-.9-1.6-.4-2.4s1.6-.9 2.4-.4c1.7 1.2 3.3 1.2 5 0 .8-.5 1.8-.4 2.4.4.5.8.4 1.8-.4 2.4-3 2.1-5.9 2.1-8.9 0z"/></g><ellipse cx="47.599998" cy="41.900002" rx="2" ry="2.3"/></g></svg>