<svg height="200.71001" viewBox="0 0 191.62 200.71001" width="191.62" xmlns="http://www.w3.org/2000/svg"><path d="m45.42 140.22c1.82-1.57 4.36-2.66 7.63-3.27 3.27-.6 6.05-.91 8.36-.91 4 0 7.87.76 11.62 2.27 3.75 1.52 7.08 3.57 9.99 6.18s5.21 5.75 6.9 9.45 2.54 7.72 2.54 12.08c0 3.63-.73 7.51-2.18 11.62-1.45 4.12-3.88 7.87-7.27 11.26s-7.87 6.21-13.44 8.45-12.47 3.36-20.71 3.36c-5.69 0-11.44-.94-17.26-2.82s-11.05-4.87-15.71-8.99-8.48-9.45-11.44-15.98c-2.97-6.54-4.45-14.41-4.45-23.61v-69.93c0-13.08 2.69-24.55 8.08-34.42s12.56-18.13 21.52-24.79 19.22-11.68 30.79-15.08c11.56-3.39 23.52-5.09 35.87-5.09 6.66 0 13.65.58 20.98 1.73s14.53 2.97 21.62 5.45c7.08 2.48 13.8 5.78 20.16 9.9s11.96 9.11 16.8 14.99 8.69 12.71 11.53 20.53c2.84 7.81 4.27 16.74 4.27 26.79v118.43h-45.41v-118.43c0-8.84-1.42-16.53-4.27-23.07s-6.63-11.96-11.35-16.26-10.11-7.51-16.17-9.63-12.23-3.18-18.53-3.18-12.47 1.09-18.53 3.27-11.44 5.45-16.17 9.81-8.54 9.78-11.44 16.26c-2.91 6.48-4.36 14.08-4.36 22.8v60.85zm30.7 27.25c0-1.94-.39-3.81-1.18-5.63s-1.88-3.42-3.27-4.81-3-2.51-4.81-3.36c-1.82-.85-3.81-1.27-5.99-1.27s-4.21.43-6.08 1.27c-1.88.85-3.51 1.97-4.9 3.36s-2.48 3-3.27 4.81c-.79 1.82-1.18 3.7-1.18 5.63s.39 3.81 1.18 5.63 1.88 3.42 3.27 4.81 3.03 2.51 4.9 3.36c1.88.85 3.91 1.27 6.08 1.27s4.18-.42 5.99-1.27c1.82-.85 3.42-1.97 4.81-3.36s2.48-3 3.27-4.81c.79-1.82 1.18-3.69 1.18-5.63z"/></svg>