<?xml version="1.0" encoding="UTF-8" standalone="no"?>
<svg
   height="322.69196"
   viewBox="2 108 595.91997 322.69195"
   width="595.91998"
   version="1.1"
   id="svg5"
   sodipodi:docname="word.svg"
   inkscape:version="1.4 (e7c3feb100, 2024-10-09)"
   xmlns:inkscape="http://www.inkscape.org/namespaces/inkscape"
   xmlns:sodipodi="http://sodipodi.sourceforge.net/DTD/sodipodi-0.dtd"
   xmlns="http://www.w3.org/2000/svg"
   xmlns:svg="http://www.w3.org/2000/svg">
  <defs
     id="defs5" />
  <sodipodi:namedview
     id="namedview5"
     pagecolor="#505050"
     bordercolor="#eeeeee"
     borderopacity="1"
     inkscape:showpageshadow="0"
     inkscape:pageopacity="0"
     inkscape:pagecheckerboard="0"
     inkscape:deskcolor="#505050"
     inkscape:clip-to-page="false"
     inkscape:zoom="0.83810463"
     inkscape:cx="282.18434"
     inkscape:cy="99.032981"
     inkscape:window-width="1280"
     inkscape:window-height="768"
     inkscape:window-x="0"
     inkscape:window-y="0"
     inkscape:window-maximized="1"
     inkscape:current-layer="svg5" />
  <path
     d="m 197.64,367.70197 c 1.82,-1.57 4.36,-2.66 7.63,-3.27 3.27,-0.6 6.05,-0.91 8.36,-0.91 4,0 7.87,0.76 11.62,2.27 3.75,1.52 7.08,3.57 9.99,6.18 2.91,2.61 5.21,5.75 6.9,9.45 1.69,3.7 2.54,7.72 2.54,12.08 0,3.63 -0.73,7.51 -2.18,11.62 -1.45,4.12 -3.88,7.87 -7.27,11.26 -3.39,3.39 -7.87,6.21 -13.44,8.45 -5.57,2.24 -12.47,3.36 -20.71,3.36 -5.69,0 -11.44,-0.94 -17.26,-2.82 -5.82,-1.88 -11.05,-4.87 -15.71,-8.99 -4.66,-4.12 -8.48,-9.45 -11.44,-15.98 -2.97,-6.54 -4.45,-14.41 -4.45,-23.61 v -69.93 c 0,-13.08 2.69,-24.55 8.08,-34.42 5.39,-9.87 12.56,-18.13 21.52,-24.79 8.96,-6.66 19.22,-11.68 30.79,-15.08 11.56,-3.39 23.52,-5.09 35.87,-5.09 6.66,0 13.65,0.58 20.98,1.73 7.33,1.15 14.53,2.97 21.62,5.45 7.08,2.48 13.8,5.78 20.16,9.9 6.36,4.12 11.96,9.11 16.8,14.99 4.84,5.88 8.69,12.71 11.53,20.53 2.84,7.81 4.27,16.74 4.27,26.79 v 118.43 h -45.41 v -118.43 c 0,-8.84 -1.42,-16.53 -4.27,-23.07 -2.85,-6.54 -6.63,-11.96 -11.35,-16.26 -4.72,-4.3 -10.11,-7.51 -16.17,-9.63 -6.06,-2.12 -12.23,-3.18 -18.53,-3.18 -6.3,0 -12.47,1.09 -18.53,3.27 -6.06,2.18 -11.44,5.45 -16.17,9.81 -4.73,4.36 -8.54,9.78 -11.44,16.26 -2.91,6.48 -4.36,14.08 -4.36,22.8 v 60.85 z m 30.7,27.25 c 0,-1.94 -0.39,-3.81 -1.18,-5.63 -0.79,-1.82 -1.88,-3.42 -3.27,-4.81 -1.39,-1.39 -3,-2.51 -4.81,-3.36 -1.82,-0.85 -3.81,-1.27 -5.99,-1.27 -2.18,0 -4.21,0.43 -6.08,1.27 -1.88,0.85 -3.51,1.97 -4.9,3.36 -1.39,1.39 -2.48,3 -3.27,4.81 -0.79,1.82 -1.18,3.7 -1.18,5.63 0,1.93 0.39,3.81 1.18,5.63 0.79,1.82 1.88,3.42 3.27,4.81 1.39,1.39 3.03,2.51 4.9,3.36 1.88,0.85 3.91,1.27 6.08,1.27 2.17,0 4.18,-0.42 5.99,-1.27 1.82,-0.85 3.42,-1.97 4.81,-3.36 1.39,-1.39 2.48,-3 3.27,-4.81 0.79,-1.82 1.18,-3.69 1.18,-5.63 z"
     id="path1" />
  <g
     fill="none"
     stroke="#000000"
     stroke-miterlimit="10"
     stroke-width="5"
     transform="translate(-10.7,108.73197)"
     id="g5">
    <path
       d="m 55.9,254.07 c 0,1.7 0.12,3.66 0.36,5.9 0.24,2.24 0.64,4.48 1.18,6.72 0.54,2.24 1.3,4.33 2.27,6.27 0.97,1.94 2.12,3.51 3.45,4.72 1.57,-4.24 3.54,-7.63 5.9,-10.17 2.36,-2.54 4.87,-4.48 7.54,-5.81 2.66,-1.33 5.36,-2.21 8.08,-2.63 2.72,-0.42 5.18,-0.64 7.36,-0.64 4.6,0 8.75,0.76 12.44,2.27 3.69,1.52 6.84,3.57 9.45,6.18 2.6,2.61 4.6,5.63 5.99,9.08 1.39,3.45 2.09,7.17 2.09,11.17 0,9.69 -3.42,17.5 -10.26,23.43 -6.84,5.93 -17.59,8.9 -32.24,8.9 -6.9,0 -14.14,-1.39 -21.71,-4.18 C 50.23,312.5 43.3,308.35 37,302.84 30.7,297.33 25.49,290.52 21.38,282.41 17.26,274.3 15.2,264.91 15.2,254.26 v -66.12 c 0,-9.69 1.91,-18.59 5.72,-26.7 3.81,-8.11 9.2,-15.14 16.17,-21.07 6.96,-5.93 15.44,-10.54 25.43,-13.8 9.99,-3.26 21.16,-4.9 33.51,-4.9 h 19.8 v 24.34 h -19.8 c -5.09,0 -10.02,0.7 -14.8,2.09 -4.79,1.39 -9.05,3.72 -12.81,6.99 -3.75,3.27 -6.78,7.63 -9.08,13.08 -2.3,5.45 -3.45,12.23 -3.45,20.34 v 65.57 z m 49.77,34.87 c 0,-3.87 -1.48,-7.2 -4.45,-9.99 -2.97,-2.78 -6.57,-4.18 -10.81,-4.18 -4.24,0 -7.87,1.39 -10.9,4.18 -3.03,2.79 -4.54,6.12 -4.54,9.99 0,3.87 1.51,7.21 4.54,9.99 3.03,2.79 6.66,4.18 10.9,4.18 4.24,0 7.84,-1.39 10.81,-4.18 2.97,-2.78 4.45,-6.11 4.45,-9.99 z"
       id="path2" />
    <path
       d="m 208.92,258.97 c 1.82,-1.57 4.36,-2.66 7.63,-3.27 3.27,-0.6 6.05,-0.91 8.36,-0.91 4,0 7.87,0.76 11.62,2.27 3.75,1.52 7.08,3.57 9.99,6.18 2.91,2.61 5.21,5.75 6.9,9.45 1.7,3.7 2.54,7.72 2.54,12.08 0,3.63 -0.73,7.51 -2.18,11.62 -1.45,4.12 -3.88,7.87 -7.27,11.26 -3.39,3.39 -7.87,6.21 -13.44,8.45 -5.57,2.24 -12.47,3.36 -20.71,3.36 -5.69,0 -11.44,-0.94 -17.26,-2.82 -5.82,-1.88 -11.05,-4.87 -15.71,-8.99 -4.66,-4.12 -8.48,-9.45 -11.44,-15.98 -2.97,-6.54 -4.45,-14.41 -4.45,-23.61 v -69.93 c 0,-13.08 2.69,-24.55 8.08,-34.42 5.39,-9.87 12.56,-18.13 21.52,-24.79 8.96,-6.66 19.22,-11.68 30.79,-15.08 11.56,-3.39 23.52,-5.09 35.87,-5.09 6.66,0 13.65,0.58 20.98,1.73 7.32,1.15 14.53,2.97 21.62,5.45 7.08,2.48 13.8,5.78 20.16,9.9 6.36,4.12 11.96,9.11 16.8,14.99 4.84,5.88 8.69,12.71 11.54,20.53 2.84,7.81 4.27,16.74 4.27,26.79 V 316.57 H 309.72 V 198.14 c 0,-8.84 -1.42,-16.53 -4.27,-23.07 -2.85,-6.54 -6.63,-11.96 -11.35,-16.26 -4.72,-4.3 -10.11,-7.51 -16.17,-9.63 -6.06,-2.12 -12.23,-3.18 -18.53,-3.18 -6.3,0 -12.47,1.09 -18.53,3.27 -6.06,2.18 -11.44,5.45 -16.17,9.81 -4.73,4.36 -8.54,9.78 -11.44,16.26 -2.91,6.48 -4.36,14.08 -4.36,22.8 v 60.85 z m 30.7,27.25 c 0,-1.94 -0.39,-3.81 -1.18,-5.63 -0.79,-1.82 -1.88,-3.42 -3.27,-4.81 -1.39,-1.39 -3,-2.51 -4.81,-3.36 -1.82,-0.85 -3.81,-1.27 -5.99,-1.27 -2.18,0 -4.21,0.43 -6.08,1.27 -1.88,0.85 -3.51,1.97 -4.9,3.36 -1.39,1.39 -2.48,3 -3.27,4.81 -0.79,1.82 -1.18,3.7 -1.18,5.63 0,1.93 0.39,3.81 1.18,5.63 0.79,1.82 1.88,3.42 3.27,4.81 1.39,1.39 3.03,2.51 4.9,3.36 1.88,0.85 3.9,1.27 6.08,1.27 2.18,0 4.18,-0.42 5.99,-1.27 1.82,-0.85 3.42,-1.97 4.81,-3.36 1.39,-1.39 2.48,-3 3.27,-4.81 0.79,-1.82 1.18,-3.69 1.18,-5.63 z"
       id="path3" />
    <path
       d="m 253.87,75.33 c 9.93,0 17.98,-1.06 24.16,-3.18 6.18,-2.12 10.99,-4.78 14.44,-7.99 3.45,-3.21 5.78,-6.69 6.99,-10.44 1.21,-3.75 1.82,-7.27 1.82,-10.54 0,-2.3 -0.21,-4.27 -0.64,-5.9 -0.42,-1.63 -1.03,-3.18 -1.82,-4.63 -0.79,-1.45 -1.79,-2.91 -3,-4.36 -1.21,-1.45 -2.6,-3.03 -4.18,-4.72 L 320.88,2.5 c 1.94,1.82 3.97,3.97 6.08,6.45 2.12,2.48 4.09,5.3 5.9,8.45 1.82,3.15 3.3,6.63 4.45,10.44 1.15,3.81 1.73,8.02 1.73,12.62 0,8.24 -2.39,15.71 -7.17,22.43 -4.78,6.72 -11.11,12.47 -18.98,17.26 -7.87,4.79 -16.92,8.51 -27.16,11.17 -10.23,2.67 -20.86,4 -31.88,4 -10.17,0 -20.13,-1.06 -29.88,-3.18 -9.75,-2.12 -18.5,-5.39 -26.25,-9.81 -7.75,-4.42 -13.99,-10.05 -18.71,-16.89 -4.72,-6.84 -7.08,-14.99 -7.08,-24.43 0,-5.33 0.97,-10.2 2.91,-14.62 1.94,-4.42 4.6,-8.2 7.99,-11.35 3.39,-3.15 7.39,-5.57 11.99,-7.27 4.6,-1.69 9.57,-2.54 14.89,-2.54 5.32,0 10.2,0.85 14.62,2.54 4.42,1.7 8.21,3.97 11.35,6.81 3.15,2.85 5.57,6.15 7.27,9.9 1.7,3.75 2.54,7.75 2.54,11.99 0,9.2 -2.27,16.56 -6.81,22.07 -4.54,5.51 -10.75,9.11 -18.62,10.81 4.84,1.7 10.08,3.12 15.71,4.27 5.63,1.15 11.66,1.73 18.07,1.73 z M 193.74,39 c 0,4.24 1.52,7.87 4.54,10.9 3.02,3.03 6.66,4.54 10.9,4.54 4.24,0 7.87,-1.51 10.9,-4.54 3.03,-3.03 4.54,-6.66 4.54,-10.9 0,-4.24 -1.51,-7.87 -4.54,-10.9 -3.03,-3.03 -6.66,-4.54 -10.9,-4.54 -4.24,0 -7.87,1.52 -10.9,4.54 -3.03,3.03 -4.54,6.66 -4.54,10.9 z"
       id="path4" />
    <path
       d="m 492.44,268.05 c 0,9.2 -1.48,17.07 -4.45,23.61 -2.97,6.54 -6.78,11.87 -11.44,15.98 -4.66,4.12 -9.9,7.12 -15.71,8.99 -5.81,1.87 -11.57,2.82 -17.26,2.82 -8.24,0 -15.14,-1.12 -20.71,-3.36 -5.57,-2.24 -10.05,-5.05 -13.44,-8.45 -3.39,-3.39 -5.81,-7.14 -7.27,-11.26 -1.45,-4.12 -2.18,-7.99 -2.18,-11.62 0,-4.36 0.85,-8.38 2.54,-12.08 1.69,-3.69 4,-6.84 6.9,-9.45 2.91,-2.6 6.24,-4.66 9.99,-6.18 3.75,-1.51 7.63,-2.27 11.62,-2.27 2.3,0 5.09,0.3 8.36,0.91 3.27,0.61 5.81,1.7 7.63,3.27 v -83.01 c -1.82,1.7 -4.36,3 -7.63,3.91 -3.27,0.91 -6.06,1.36 -8.36,1.36 -4.72,0 -8.99,-0.79 -12.81,-2.36 -3.81,-1.57 -7.08,-3.72 -9.81,-6.45 -2.73,-2.73 -4.81,-5.99 -6.27,-9.81 -1.46,-3.82 -2.18,-7.96 -2.18,-12.44 0,-4.72 0.91,-9.02 2.72,-12.9 1.82,-3.87 4.24,-7.17 7.27,-9.9 3.03,-2.72 6.54,-4.84 10.54,-6.36 4,-1.51 8.23,-2.27 12.71,-2.27 3.27,0 6.72,0.33 10.35,1 3.63,0.67 7.14,2 10.54,4 3.39,2 6.54,4.75 9.45,8.26 2.91,3.51 5.27,8.17 7.08,13.99 2.42,-3.75 5.54,-7.29 9.35,-10.63 3.81,-3.33 8.2,-6.2 13.17,-8.63 4.96,-2.42 10.44,-4.36 16.44,-5.81 6,-1.45 12.38,-2.18 19.16,-2.18 9.69,0 19.16,1.09 28.43,3.27 9.27,2.18 17.53,5.63 24.79,10.35 7.26,4.72 13.11,10.81 17.53,18.25 4.42,7.45 6.63,16.44 6.63,26.97 V 316.53 H 560.71 V 177.57 c 0,-5.33 -0.94,-9.99 -2.82,-13.99 -1.88,-4 -4.3,-7.29 -7.27,-9.9 -2.97,-2.6 -6.36,-4.54 -10.17,-5.81 -3.81,-1.27 -7.72,-1.91 -11.72,-1.91 -4,0 -7.93,0.54 -12.17,1.63 -4.24,1.09 -8.15,2.88 -11.72,5.36 -3.57,2.48 -6.54,5.75 -8.9,9.81 -2.36,4.06 -3.54,8.99 -3.54,14.8 v 90.46 z M 416.33,149.99 c 0,2.06 0.39,4 1.18,5.81 0.79,1.82 1.88,3.39 3.27,4.72 1.39,1.33 3,2.39 4.81,3.18 1.82,0.79 3.81,1.18 5.99,1.18 2.18,0 4.21,-0.39 6.08,-1.18 1.88,-0.79 3.51,-1.84 4.9,-3.18 1.39,-1.33 2.48,-2.91 3.27,-4.72 0.79,-1.82 1.18,-3.75 1.18,-5.81 0,-2.06 -0.39,-4 -1.18,-5.81 -0.79,-1.82 -1.88,-3.39 -3.27,-4.72 -1.39,-1.33 -3.03,-2.39 -4.9,-3.18 -1.88,-0.79 -3.91,-1.18 -6.08,-1.18 -2.17,0 -4.18,0.39 -5.99,1.18 -1.82,0.79 -3.42,1.85 -4.81,3.18 -1.39,1.33 -2.48,2.91 -3.27,4.72 -0.79,1.82 -1.18,3.75 -1.18,5.81 z m 0,136.23 c 0,1.94 0.39,3.81 1.18,5.63 0.79,1.82 1.88,3.42 3.27,4.81 1.39,1.39 3,2.51 4.81,3.36 1.82,0.85 3.81,1.27 5.99,1.27 2.18,0 4.21,-0.42 6.08,-1.27 1.88,-0.85 3.51,-1.97 4.9,-3.36 1.39,-1.39 2.48,-3 3.27,-4.81 0.79,-1.82 1.18,-3.69 1.18,-5.63 0,-1.94 -0.39,-3.81 -1.18,-5.63 -0.79,-1.82 -1.88,-3.42 -3.27,-4.81 -1.39,-1.39 -3.03,-2.51 -4.9,-3.36 -1.88,-0.85 -3.91,-1.27 -6.08,-1.27 -2.17,0 -4.18,0.43 -5.99,1.27 -1.82,0.85 -3.42,1.97 -4.81,3.36 -1.39,1.39 -2.48,3 -3.27,4.81 -0.79,1.82 -1.18,3.7 -1.18,5.63 z"
       id="path5" />
  </g>
</svg>
