<?xml version="1.0" encoding="UTF-8" standalone="no"?>
<svg
   viewBox="0 0 243.21002 260.84"
   version="1.1"
   id="svg1"
   sodipodi:docname="letter.svg"
   width="243.21001"
   height="260.84"
   inkscape:version="1.4 (e7c3feb100, 2024-10-09)"
   xmlns:inkscape="http://www.inkscape.org/namespaces/inkscape"
   xmlns:sodipodi="http://sodipodi.sourceforge.net/DTD/sodipodi-0.dtd"
   xmlns="http://www.w3.org/2000/svg"
   xmlns:svg="http://www.w3.org/2000/svg">
  <defs
     id="defs1" />
  <sodipodi:namedview
     id="namedview1"
     pagecolor="#505050"
     bordercolor="#eeeeee"
     borderopacity="1"
     inkscape:showpageshadow="0"
     inkscape:pageopacity="0"
     inkscape:pagecheckerboard="0"
     inkscape:deskcolor="#505050"
     inkscape:zoom="1.0212959"
     inkscape:cx="120.92479"
     inkscape:cy="213.45429"
     inkscape:window-width="1280"
     inkscape:window-height="768"
     inkscape:window-x="0"
     inkscape:window-y="0"
     inkscape:window-maximized="1"
     inkscape:current-layer="svg1" />
  <path
     d="m 74.83,260.84 c -25.67,0 -44.56,-5.57 -56.67,-16.71 C 6.05,232.99 0,217.01 0,196.18 c 0,-6.29 0.91,-11.99 2.72,-17.07 1.81,-5.08 4.18,-9.81 7.08,-14.17 2.9,-4.36 6.05,-8.45 9.45,-12.26 3.39,-3.81 6.72,-7.57 9.99,-11.26 3.27,-3.69 6.18,-7.38 8.72,-11.08 2.54,-3.69 4.36,-7.66 5.45,-11.9 -1.7,1.33 -3.42,2.42 -5.18,3.27 -1.76,0.85 -4.27,1.27 -7.54,1.27 -4,0 -7.87,-0.66 -11.62,-2 -3.75,-1.33 -7.02,-3.3 -9.81,-5.9 -2.79,-2.6 -5.03,-5.81 -6.72,-9.63 C 0.84,101.64 0,97.31 0,92.46 0,87.98 0.82,83.77 2.45,79.84 c 1.63,-3.93 4,-7.36 7.08,-10.26 3.08,-2.9 6.93,-5.21 11.53,-6.9 4.6,-1.69 9.81,-2.54 15.62,-2.54 6.29,0 11.96,0.91 16.98,2.72 5.02,1.82 9.29,4.39 12.81,7.72 3.51,3.33 6.2,7.33 8.08,11.99 1.88,4.66 2.82,9.9 2.82,15.71 0,7.15 -0.79,13.53 -2.36,19.16 -1.58,5.63 -3.54,10.9 -5.9,15.8 -2.36,4.9 -4.9,9.57 -7.63,13.99 -2.72,4.42 -5.27,9.02 -7.63,13.8 -2.36,4.79 -4.33,9.87 -5.9,15.26 -1.58,5.39 -2.36,11.47 -2.36,18.25 0,5.45 0.7,10.57 2.09,15.35 1.39,4.79 3.42,8.93 6.08,12.44 2.66,3.51 5.9,6.27 9.72,8.26 3.82,1.99 8.2,3 13.17,3 3.51,0 7.02,-0.54 10.54,-1.63 3.51,-1.09 6.69,-2.91 9.54,-5.45 2.84,-2.54 5.18,-5.93 6.99,-10.17 1.82,-4.24 2.72,-9.56 2.72,-15.98 V 78.3 h 45.41 v 127.69 c 0,3.39 0.48,6.75 1.45,10.08 0.97,3.33 2.42,6.3 4.36,8.9 1.94,2.61 4.42,4.69 7.45,6.27 3.03,1.58 6.66,2.36 10.9,2.36 1.94,0 4.18,-0.42 6.72,-1.27 2.54,-0.85 4.93,-2.45 7.17,-4.81 2.24,-2.36 4.12,-5.72 5.63,-10.08 1.51,-4.36 2.27,-9.99 2.27,-16.89 V 0 h 45.41 v 193.99 c 0,10.66 -1.63,20.13 -4.9,28.43 -3.27,8.3 -7.75,15.29 -13.44,20.98 -5.69,5.69 -12.41,10.02 -20.16,12.99 -7.75,2.97 -16.05,4.45 -24.88,4.45 -4.97,0 -9.93,-0.45 -14.89,-1.36 -4.97,-0.91 -9.75,-2.42 -14.35,-4.54 -4.6,-2.12 -8.93,-4.93 -12.99,-8.45 -4.06,-3.51 -7.66,-7.81 -10.81,-12.9 -3.63,5.21 -7.57,9.57 -11.81,13.08 -4.24,3.51 -8.57,6.3 -12.99,8.36 -4.42,2.06 -8.93,3.54 -13.53,4.45 -4.6,0.91 -9.14,1.36 -13.62,1.36 z M 16.34,91.55 c 0,1.94 0.39,3.81 1.18,5.63 0.79,1.82 1.88,3.42 3.27,4.81 1.39,1.39 3,2.51 4.81,3.36 1.82,0.85 3.81,1.27 5.99,1.27 2.18,0 4.21,-0.42 6.08,-1.27 1.88,-0.85 3.51,-1.97 4.9,-3.36 1.39,-1.39 2.48,-3 3.27,-4.81 0.79,-1.82 1.18,-3.69 1.18,-5.63 0,-1.94 -0.39,-3.81 -1.18,-5.63 -0.79,-1.82 -1.88,-3.42 -3.27,-4.81 -1.39,-1.39 -3.03,-2.51 -4.9,-3.36 -1.88,-0.85 -3.91,-1.27 -6.08,-1.27 -2.17,0 -4.18,0.43 -5.99,1.27 -1.82,0.85 -3.42,1.97 -4.81,3.36 -1.39,1.39 -2.48,3 -3.27,4.81 -0.79,1.82 -1.18,3.7 -1.18,5.63 z"
     id="path1" />
</svg>
