<svg xmlns="http://www.w3.org/2000/svg" version="1.1" viewBox="-5.0 -10.0 110.0 135.0">
 <path d="m50 1.3125c3.5352-0.91016 9.6953 7.1719 11.617 10.102 3.9375 6.2617 5.4531 14.141 4.6445 21.719-0.30469 3.2305-1.2109 6.4648-1.3125 9.6953-0.30469 3.8398 1.5156 8.1836 5.4531 9.0898 8.2812 2.0195 8.7891-10.605 12.121-3.9375 7.2734 14.344 5.9609 33.332-6.5664 44.242-1.0117 1.0117-8.6875 7.375-8.1836 4.1406 0.20312-1.4141 2.0195-4.7461 2.2227-7.8789 0.50391-3.9375-1.1094-9.8984-3.6367-12.324-2.625-2.2227-4.6445 1.5156-7.1719 2.5234-4.1406 1.918-8.3828-1.8164-10.203-5.4531-2.5234-4.8477-2.7266-10.402-1.1094-16.867 0.80859-3.5352 2.3242-7.5742 3.5352-10.91 0.50391-1.4141 0.60547-2.1211 0.40234-2.1211-0.30469 0-0.60547 0.30469-0.91016 0.50391-2.0195 1.6172-6.3633 5.6562-10.305 11.312-7.4766 9.8984-10.605 26.363-4.2422 38.484 1.4141 2.7266 2.5234 4.6445 1.7188 4.9492-1.4141 0.30469-3.7383-1.2109-6.4648-2.8281-14.84-9.6914-17.973-26.965-12.418-42.723 4.9492-15.961 20.305-25.656 26.566-41.012 1.1094-2.5234 1.8164-5.5547 2.5234-8.082 0.50781-1.3125 0.91016-2.2188 1.7188-2.625z"/>
<text x="0.0" y="117.5" font-size="5.0" font-weight="bold" font-family="Arbeit Regular, Helvetica, Arial-Unicode, Arial, Sans-serif" fill="#000000">Created by Michael Appleford</text><text x="0.0" y="122.5" font-size="5.0" font-weight="bold" font-family="Arbeit Regular, Helvetica, Arial-Unicode, Arial, Sans-serif" fill="#000000">from Noun Project</text></svg>