<?xml version="1.0" encoding="UTF-8" standalone="no"?>
<svg
   viewBox="0 0 423.07354 356.91517"
   version="1.1"
   id="svg3"
   sodipodi:docname="word.svg"
   width="423.07355"
   height="356.91516"
   inkscape:version="1.4 (e7c3feb100, 2024-10-09)"
   xmlns:inkscape="http://www.inkscape.org/namespaces/inkscape"
   xmlns:sodipodi="http://sodipodi.sourceforge.net/DTD/sodipodi-0.dtd"
   xmlns="http://www.w3.org/2000/svg"
   xmlns:svg="http://www.w3.org/2000/svg">
  <defs
     id="defs3" />
  <sodipodi:namedview
     id="namedview3"
     pagecolor="#505050"
     bordercolor="#eeeeee"
     borderopacity="1"
     inkscape:showpageshadow="0"
     inkscape:pageopacity="0"
     inkscape:pagecheckerboard="0"
     inkscape:deskcolor="#505050"
     inkscape:zoom="0.95021912"
     inkscape:cx="224.68502"
     inkscape:cy="287.30216"
     inkscape:window-width="1280"
     inkscape:window-height="768"
     inkscape:window-x="0"
     inkscape:window-y="0"
     inkscape:window-maximized="1"
     inkscape:current-layer="svg3" />
  <path
     d="m 250.15356,354.41517 c -25.67,0 -44.56,-5.57 -56.67,-16.71 -12.11,-11.14 -18.16,-27.12 -18.16,-47.95 0,-6.29 0.91,-11.99 2.72,-17.07 1.81,-5.08 4.18,-9.81 7.08,-14.17 2.9,-4.36 6.05,-8.45 9.45,-12.26 3.39,-3.81 6.72,-7.57 9.99,-11.26 3.27,-3.69 6.18,-7.38 8.72,-11.08 2.54,-3.69 4.36,-7.66 5.45,-11.9 -1.7,1.33 -3.42,2.42 -5.18,3.27 -1.76,0.85 -4.27,1.27 -7.54,1.27 -4,0 -7.87,-0.66 -11.62,-2 -3.75,-1.33 -7.02,-3.3 -9.81,-5.9 -2.79,-2.6 -5.03,-5.81 -6.72,-9.63 -1.7,-3.81 -2.54,-8.14 -2.54,-12.99 0,-4.48 0.82,-8.69 2.45,-12.62 1.63,-3.93 4,-7.36 7.08,-10.26 3.08,-2.9 6.93,-5.21 11.53,-6.9 4.6,-1.69 9.81,-2.54 15.62,-2.54 6.29,0 11.96,0.91 16.98,2.72 5.02,1.82 9.29,4.39 12.81,7.72 3.51,3.33 6.2,7.33 8.08,11.99 1.88,4.66 2.82,9.9 2.82,15.71 0,7.15 -0.79,13.53 -2.36,19.16 -1.58,5.63 -3.54,10.9 -5.9,15.8 -2.36,4.9 -4.9,9.57 -7.63,13.99 -2.72,4.42 -5.27,9.02 -7.63,13.8 -2.36,4.79 -4.33,9.87 -5.9,15.26 -1.58,5.39 -2.36,11.47 -2.36,18.25 0,5.45 0.7,10.57 2.09,15.35 1.39,4.79 3.42,8.93 6.08,12.44 2.66,3.51 5.9,6.27 9.72,8.26 3.82,1.99 8.2,3 13.17,3 3.51,0 7.02,-0.54 10.54,-1.63 3.51,-1.09 6.69,-2.91 9.54,-5.45 2.84,-2.54 5.18,-5.93 6.99,-10.17 1.82,-4.24 2.72,-9.56 2.72,-15.98 v -122.06 h 45.41 v 127.69 c 0,3.39 0.48,6.75 1.45,10.08 0.97,3.33 2.42,6.3 4.36,8.9 1.94,2.61 4.42,4.69 7.45,6.27 3.03,1.58 6.66,2.36 10.9,2.36 1.94,0 4.18,-0.42 6.72,-1.27 2.54,-0.85 4.93,-2.45 7.17,-4.81 2.24,-2.36 4.12,-5.72 5.63,-10.08 1.51,-4.36 2.27,-9.99 2.27,-16.89 V 93.575174 h 45.41 V 287.56517 c 0,10.66 -1.63,20.13 -4.9,28.43 -3.27,8.3 -7.75,15.29 -13.44,20.98 -5.69,5.69 -12.41,10.02 -20.16,12.99 -7.75,2.97 -16.05,4.45 -24.88,4.45 -4.97,0 -9.93,-0.45 -14.89,-1.36 -4.97,-0.91 -9.75,-2.42 -14.35,-4.54 -4.6,-2.12 -8.93,-4.93 -12.99,-8.45 -4.06,-3.51 -7.66,-7.81 -10.81,-12.9 -3.63,5.21 -7.57,9.57 -11.81,13.08 -4.24,3.51 -8.57,6.3 -12.99,8.36 -4.42,2.06 -8.93,3.54 -13.53,4.45 -4.6,0.91 -9.14,1.36 -13.62,1.36 z m -58.48,-169.29 c 0,1.94 0.39,3.81 1.18,5.63 0.79,1.82 1.88,3.42 3.27,4.81 1.39,1.39 3,2.51 4.81,3.36 1.82,0.85 3.81,1.27 5.99,1.27 2.18,0 4.21,-0.42 6.08,-1.27 1.88,-0.85 3.51,-1.97 4.9,-3.36 1.39,-1.39 2.48,-3 3.27,-4.81 0.79,-1.82 1.18,-3.69 1.18,-5.63 0,-1.94 -0.39,-3.81 -1.18,-5.63 -0.79,-1.82 -1.88,-3.42 -3.27,-4.81 -1.39,-1.39 -3.03,-2.51 -4.9,-3.36 -1.88,-0.85 -3.91,-1.27 -6.08,-1.27 -2.17,0 -4.18,0.43 -5.99,1.27 -1.82,0.85 -3.42,1.97 -4.81,3.36 -1.39,1.39 -2.48,3 -3.27,4.81 -0.79,1.82 -1.18,3.7 -1.18,5.63 z"
     id="path1" />
  <g
     fill="none"
     stroke="#000000"
     stroke-miterlimit="10"
     stroke-width="5"
     id="g3"
     transform="translate(1.213562,2.9851744)">
    <path
       d="m 81.33,286.04 c 0,1.7 0.12,3.66 0.36,5.9 0.24,2.24 0.64,4.48 1.18,6.72 0.54,2.24 1.3,4.33 2.27,6.27 0.97,1.94 2.12,3.51 3.45,4.72 1.57,-4.24 3.54,-7.63 5.9,-10.17 2.36,-2.54 4.87,-4.48 7.54,-5.81 2.66,-1.33 5.36,-2.21 8.08,-2.63 2.72,-0.42 5.18,-0.64 7.36,-0.64 4.6,0 8.75,0.76 12.44,2.27 3.69,1.52 6.84,3.57 9.45,6.18 2.6,2.61 4.6,5.63 5.99,9.08 1.39,3.45 2.09,7.17 2.09,11.17 0,9.69 -3.42,17.5 -10.26,23.43 -6.84,5.93 -17.59,8.9 -32.24,8.9 -6.9,0 -14.14,-1.39 -21.71,-4.18 -7.57,-2.78 -14.5,-6.93 -20.8,-12.44 -6.3,-5.51 -11.51,-12.32 -15.62,-20.43 -4.12,-8.11 -6.18,-17.5 -6.18,-28.15 v -95.36 c 0,-2.54 0.42,-6.11 1.27,-10.72 0.85,-4.6 2.66,-9.47 5.45,-14.62 2.78,-5.15 6.87,-10.14 12.26,-14.99 5.39,-4.84 12.62,-8.72 21.71,-11.62 -2.42,-3.87 -5.15,-6.63 -8.17,-8.26 -3.03,-1.63 -5.39,-2.45 -7.08,-2.45 -1.94,0 -4.06,0.33 -6.36,1 -2.3,0.67 -4.6,1.63 -6.9,2.91 -2.3,1.27 -4.51,2.91 -6.63,4.9 -2.12,2 -3.97,4.33 -5.54,6.99 0,-10.29 -0.3,-20.13 -0.91,-29.52 C 39.12,105.11 37.85,96.39 35.92,88.33 33.98,80.28 31.17,73.04 27.47,66.62 23.78,60.2 18.78,54.69 12.48,50.09 L 2.49,2.49 c 11.26,7.51 20.77,15.26 28.52,23.25 7.75,7.99 14.14,16.41 19.16,25.25 5.02,8.84 8.96,18.1 11.81,27.79 2.84,9.69 5.05,19.92 6.63,30.7 1.45,-1.45 4.18,-2.93 8.17,-4.45 4,-1.51 8.6,-2.27 13.8,-2.27 2.42,0 5.02,0.64 7.81,1.91 2.78,1.27 5.57,3.24 8.36,5.9 2.78,2.67 5.45,5.99 7.99,9.99 2.54,4 4.84,8.72 6.9,14.17 -7.27,3.15 -13.44,6.3 -18.53,9.45 -5.09,3.15 -9.24,6.66 -12.44,10.54 -3.21,3.88 -5.57,8.3 -7.08,13.26 -1.52,4.97 -2.27,10.78 -2.27,17.44 v 100.63 z m 49.77,34.87 c 0,-3.87 -1.48,-7.2 -4.45,-9.99 -2.97,-2.78 -6.57,-4.18 -10.81,-4.18 -4.24,0 -7.87,1.39 -10.9,4.18 -3.03,2.79 -4.54,6.12 -4.54,9.99 0,3.87 1.51,7.21 4.54,9.99 3.03,2.79 6.66,4.18 10.9,4.18 4.24,0 7.84,-1.39 10.81,-4.18 2.97,-2.78 4.45,-6.11 4.45,-9.99 z"
       id="path2" />
    <path
       d="m 250.98,351.43 c -25.67,0 -44.56,-5.57 -56.67,-16.71 -12.11,-11.14 -18.16,-27.12 -18.16,-47.95 0,-6.29 0.91,-11.99 2.72,-17.07 1.81,-5.08 4.18,-9.81 7.08,-14.17 2.9,-4.36 6.05,-8.45 9.45,-12.26 3.39,-3.81 6.72,-7.57 9.99,-11.26 3.27,-3.69 6.18,-7.38 8.72,-11.08 2.54,-3.69 4.36,-7.66 5.45,-11.9 -1.7,1.33 -3.42,2.42 -5.18,3.27 -1.76,0.85 -4.27,1.27 -7.54,1.27 -4,0 -7.87,-0.66 -11.62,-2 -3.75,-1.33 -7.02,-3.3 -9.81,-5.9 -2.79,-2.6 -5.03,-5.81 -6.72,-9.63 -1.7,-3.81 -2.54,-8.14 -2.54,-12.99 0,-4.48 0.82,-8.69 2.45,-12.62 1.63,-3.93 4,-7.36 7.08,-10.26 3.08,-2.9 6.93,-5.21 11.53,-6.9 4.6,-1.69 9.81,-2.54 15.62,-2.54 6.29,0 11.96,0.91 16.98,2.72 5.02,1.82 9.29,4.39 12.81,7.72 3.51,3.33 6.2,7.33 8.08,11.99 1.88,4.66 2.82,9.9 2.82,15.71 0,7.15 -0.79,13.53 -2.36,19.16 -1.58,5.63 -3.54,10.9 -5.9,15.8 -2.36,4.9 -4.9,9.57 -7.63,13.99 -2.72,4.42 -5.27,9.02 -7.63,13.8 -2.36,4.79 -4.33,9.87 -5.9,15.26 -1.58,5.39 -2.36,11.47 -2.36,18.25 0,5.45 0.7,10.57 2.09,15.35 1.39,4.79 3.42,8.93 6.08,12.44 2.66,3.51 5.9,6.27 9.72,8.26 3.82,1.99 8.2,3 13.17,3 3.51,0 7.02,-0.54 10.54,-1.63 3.51,-1.09 6.69,-2.91 9.54,-5.45 2.84,-2.54 5.18,-5.93 6.99,-10.17 1.82,-4.24 2.72,-9.56 2.72,-15.98 V 168.89 H 328 v 127.69 c 0,3.39 0.48,6.75 1.45,10.08 0.97,3.33 2.42,6.3 4.36,8.9 1.94,2.61 4.42,4.69 7.45,6.27 3.03,1.58 6.66,2.36 10.9,2.36 1.94,0 4.18,-0.42 6.72,-1.27 2.54,-0.85 4.93,-2.45 7.17,-4.81 2.24,-2.36 4.12,-5.72 5.63,-10.08 1.51,-4.36 2.27,-9.99 2.27,-16.89 V 90.59 h 45.41 v 193.99 c 0,10.66 -1.63,20.13 -4.9,28.43 -3.27,8.3 -7.75,15.29 -13.44,20.98 -5.69,5.69 -12.41,10.02 -20.16,12.99 -7.75,2.97 -16.05,4.45 -24.88,4.45 -4.97,0 -9.93,-0.45 -14.89,-1.36 -4.97,-0.91 -9.75,-2.42 -14.35,-4.54 -4.6,-2.12 -8.93,-4.93 -12.99,-8.45 -4.06,-3.51 -7.66,-7.81 -10.81,-12.9 -3.63,5.21 -7.57,9.57 -11.81,13.08 -4.24,3.51 -8.57,6.3 -12.99,8.36 -4.42,2.06 -8.93,3.54 -13.53,4.45 -4.6,0.91 -9.14,1.36 -13.62,1.36 z M 192.49,182.14 c 0,1.94 0.39,3.81 1.18,5.63 0.79,1.82 1.88,3.42 3.27,4.81 1.39,1.39 3,2.51 4.81,3.36 1.82,0.85 3.81,1.27 5.99,1.27 2.18,0 4.21,-0.42 6.08,-1.27 1.88,-0.85 3.51,-1.97 4.9,-3.36 1.39,-1.39 2.48,-3 3.27,-4.81 0.79,-1.82 1.18,-3.69 1.18,-5.63 0,-1.94 -0.39,-3.81 -1.18,-5.63 -0.79,-1.82 -1.88,-3.42 -3.27,-4.81 -1.39,-1.39 -3.03,-2.51 -4.9,-3.36 -1.88,-0.85 -3.91,-1.27 -6.08,-1.27 -2.17,0 -4.18,0.43 -5.99,1.27 -1.82,0.85 -3.42,1.97 -4.81,3.36 -1.39,1.39 -2.48,3 -3.27,4.81 -0.79,1.82 -1.18,3.7 -1.18,5.63 z"
       id="path3" />
  </g>
</svg>
