<svg viewBox="0 0 70.34 97.38" xmlns="http://www.w3.org/2000/svg"><path d="m33.38.07c3.54-.91 9.7 7.17 11.62 10.1 3.94 6.26 5.45 14.14 4.64 21.72-.3 3.23-1.21 6.46-1.31 9.7-.3 3.84 1.52 8.18 5.45 9.09 8.28 2.02 8.79-10.6 12.12-3.94 7.27 14.34 5.96 33.33-6.57 44.24-1.01 1.01-8.69 7.38-8.18 4.14.2-1.41 2.02-4.75 2.22-7.88.5-3.94-1.11-9.9-3.64-12.32-2.62-2.22-4.64 1.52-7.17 2.52-4.14 1.92-8.38-1.82-10.2-5.45-2.52-4.85-2.73-10.4-1.11-16.87.81-3.54 2.32-7.57 3.54-10.91.5-1.41.61-2.12.4-2.12-.3 0-.61.3-.91.5-2.02 1.62-6.36 5.66-10.31 11.31-7.48 9.9-10.6 26.36-4.24 38.48 1.41 2.73 2.52 4.64 1.72 4.95-1.41.3-3.74-1.21-6.46-2.83-14.84-9.68-17.97-26.95-12.42-42.71 4.95-15.96 20.31-25.66 26.57-41.01 1.11-2.52 1.82-5.55 2.52-8.08.51-1.31.91-2.22 1.72-2.62z"/></svg>