<svg viewBox="0 0 86.23 82.59" xmlns="http://www.w3.org/2000/svg"><path d="m39.98 51.39h-18.98v31.19h18.98zm-3.36 17.16h-.25c-.86 0-1.56-.7-1.56-1.56s.7-1.56 1.56-1.56h.25c.86 0 1.56.7 1.56 1.56s-.7 1.56-1.56 1.56z"/><path d="m86.23 35.57-43.12-35.57-43.11 35.57 5.45 6.61 36.67-30.25c.29-.24.64-.36.99-.36s.71.12.99.36l36.66 30.25 5.45-6.61z"/><path d="m75.43 41.82-32.32-26.66-32.31 26.66v40.77h7.07v-32.76c0-.86.7-1.56 1.56-1.56h22.1c.86 0 1.56.7 1.56 1.56v32.76h32.32v-40.76zm-28.85-11.64h-6.95c-.86 0-1.56-.7-1.56-1.56s.7-1.56 1.56-1.56h6.95c.86 0 1.56.7 1.56 1.56s-.7 1.56-1.56 1.56zm21.77 31.24c0 .86-.7 1.56-1.56 1.56h-17.04c-.86 0-1.56-.7-1.56-1.56v-17.04c0-.86.7-1.56 1.56-1.56h17.04c.86 0 1.56.7 1.56 1.56z"/><path d="m65.52 3.43v11l9.91 8.17v-19.17z"/><path d="m51.31 45.94h13.91v13.91h-13.91z"/></svg>