<svg viewBox="0 0 37.93 38.86" xmlns="http://www.w3.org/2000/svg"><path d="m37.91.56c0 .94-.15 2.01-.44 3.22s-.8 2.36-1.51 3.45-1.69 2.01-2.92 2.76-2.78 1.12-4.66 1.12c-1.17 0-2.29-.15-3.36-.44s-2.09-.65-3.08-1.07-1.92-.89-2.81-1.41-1.75-.98-2.58-1.41-1.63-.78-2.39-1.07-1.51-.44-2.23-.44c-.98 0-1.73.23-2.23.69s-.76.98-.76 1.56c0 .94.42 1.71 1.25 2.32s1.93 1.13 3.29 1.56 2.91.83 4.64 1.18 3.5.74 5.31 1.16 3.57.93 5.31 1.53 3.28 1.35 4.64 2.27 2.46 2.04 3.29 3.38 1.25 2.97 1.25 4.89c0 1.59-.29 3.02-.86 4.27s-1.35 2.36-2.34 3.32c-.98.96-2.13 1.79-3.45 2.48-1.31.69-2.71 1.26-4.18 1.71-1.48.45-2.99.77-4.55.97s-3.08.3-4.55.3c-1.12 0-2.36-.06-3.69-.18-1.34-.12-2.67-.33-3.99-.63s-2.61-.73-3.85-1.27-2.34-1.22-3.3-2.04-1.73-1.8-2.3-2.95-.86-2.5-.86-4.04c0-1.43.31-2.68.93-3.76s1.45-1.99 2.48-2.72 2.21-1.29 3.55-1.67c1.34-.37 2.73-.56 4.18-.56 1.15 0 2.19.16 3.11.49.93.33 1.71.78 2.36 1.35.64.57 1.14 1.24 1.49 2s.53 1.58.53 2.44c0 .75-.11 1.48-.33 2.2s-.57 1.35-1.05 1.92-1.1 1.02-1.86 1.37-1.68.53-2.76.53c-.56 0-1.14-.1-1.72-.3-.59-.2-1.15-.46-1.71-.79-.55-.33-1.07-.72-1.56-1.18s-.94-.94-1.34-1.46c.23 1.5.76 2.69 1.58 3.57s1.79 1.55 2.92 2 2.33.76 3.6.9 2.47.21 3.57.21c1.97 0 3.66-.22 5.06-.67 1.41-.44 2.56-1.04 3.46-1.78s1.57-1.58 2-2.51c.43-.94.65-1.91.65-2.92 0-1.59-.42-2.91-1.25-3.96-.83-1.04-1.93-1.92-3.3-2.62s-2.93-1.28-4.68-1.74-3.53-.88-5.34-1.28c-1.82-.4-3.6-.82-5.34-1.27-1.75-.44-3.3-1.01-4.68-1.71-1.37-.69-2.47-1.55-3.3-2.57s-1.25-2.3-1.25-3.85c0-1.29.24-2.4.72-3.32.48-.93 1.15-1.69 2-2.3.86-.61 1.87-1.06 3.04-1.35s2.45-.44 3.83-.44c1.5 0 2.84.15 4.01.44s2.22.67 3.15 1.12 1.76.94 2.51 1.46 1.46 1 2.14 1.46 1.34.83 1.99 1.12c.64.29 1.33.44 2.06.44.42 0 .85-.05 1.28-.14s.83-.33 1.2-.7c.36-.37.66-.93.88-1.65.22-.73.33-1.72.33-2.99h8.79-.02zm-28.44 24.61c0 .42.08.81.25 1.18.16.36.39.68.67.95s.6.48.97.63c.36.15.76.23 1.18.23.82 0 1.51-.29 2.07-.88s.84-1.29.84-2.11-.29-1.52-.88-2.11-1.29-.88-2.11-.88-1.52.29-2.11.88-.88 1.29-.88 2.11z"/></svg>