<svg height="315.44" viewBox="0 0 805.52 315.44" width="805.52002" xmlns="http://www.w3.org/2000/svg"><g stroke="#010101" stroke-miterlimit="10" stroke-width="5"><path d="m43.2 247.54c0 1.7.12 3.66.36 5.9s.64 4.48 1.18 6.72 1.3 4.33 2.27 6.27 2.12 3.51 3.45 4.72c1.57-4.24 3.54-7.63 5.9-10.17s4.87-4.48 7.54-5.81c2.66-1.33 5.36-2.21 8.08-2.63s5.18-.64 7.36-.64c4.6 0 8.75.76 12.44 2.27 3.69 1.52 6.84 3.57 9.45 6.18 2.6 2.61 4.6 5.63 5.99 9.08s2.09 7.17 2.09 11.17c0 9.69-3.42 17.5-10.26 23.43s-17.59 8.9-32.24 8.9c-6.9 0-14.14-1.39-21.71-4.18-7.57-2.78-14.5-6.93-20.8-12.44s-11.51-12.32-15.62-20.43c-4.12-8.11-6.18-17.5-6.18-28.15v-66.12c0-9.69 1.91-18.59 5.72-26.7s9.2-15.14 16.17-21.07c6.96-5.93 15.44-10.54 25.43-13.8s21.16-4.9 33.51-4.9h19.8v24.34h-19.8c-5.09 0-10.02.7-14.8 2.09-4.79 1.39-9.05 3.72-12.81 6.99-3.75 3.27-6.78 7.63-9.08 13.08s-3.45 12.23-3.45 20.34v65.57h.01zm49.77 34.88c0-3.87-1.48-7.2-4.45-9.99-2.97-2.78-6.57-4.18-10.81-4.18s-7.87 1.39-10.9 4.18-4.54 6.12-4.54 9.99 1.51 7.21 4.54 9.99c3.03 2.79 6.66 4.18 10.9 4.18s7.84-1.39 10.81-4.18c2.97-2.78 4.45-6.11 4.45-9.99z" fill="none"/><path d="m343.45 115.13c0 4.84-.76 10.38-2.27 16.62-1.52 6.24-4.12 12.17-7.81 17.8-3.7 5.63-8.72 10.38-15.08 14.26s-14.38 5.81-24.07 5.81c-6.06 0-11.84-.75-17.35-2.27-5.51-1.51-10.81-3.36-15.89-5.54s-9.93-4.6-14.53-7.27c-4.6-2.66-9.05-5.09-13.35-7.27s-8.42-4.02-12.35-5.54c-3.94-1.51-7.78-2.27-11.53-2.27-5.09 0-8.93 1.18-11.53 3.54-2.61 2.36-3.91 5.06-3.91 8.08 0 4.84 2.15 8.84 6.45 11.99s9.96 5.84 16.98 8.08 15.01 4.27 23.98 6.08c8.96 1.82 18.1 3.81 27.43 5.99 9.32 2.18 18.46 4.81 27.43 7.9 8.96 3.09 16.95 6.99 23.98 11.72 7.02 4.72 12.68 10.54 16.98 17.44s6.45 15.32 6.45 25.25c0 8.24-1.48 15.59-4.45 22.07s-6.99 12.2-12.08 17.17-11.02 9.24-17.8 12.81-13.99 6.51-21.62 8.81-15.47 3.96-23.52 5c-8.05 1.03-15.89 1.54-23.52 1.54-5.81 0-12.17-.3-19.07-.91s-13.78-1.7-20.62-3.27-13.47-3.75-19.89-6.54c-6.42-2.78-12.11-6.29-17.07-10.54-4.97-4.24-8.93-9.32-11.9-15.26-2.97-5.93-4.45-12.9-4.45-20.89 0-7.38 1.6-13.86 4.81-19.44 3.21-5.57 7.48-10.26 12.81-14.08 5.33-3.81 11.44-6.69 18.35-8.63 6.9-1.94 14.11-2.91 21.62-2.91 5.93 0 11.29.85 16.08 2.54 4.78 1.7 8.84 4.03 12.17 6.99 3.33 2.97 5.9 6.42 7.72 10.35 1.82 3.94 2.72 8.15 2.72 12.62 0 3.88-.58 7.66-1.73 11.35-1.15 3.7-2.97 6.99-5.45 9.9s-5.69 5.27-9.63 7.08c-3.94 1.82-8.69 2.72-14.26 2.72-2.91 0-5.88-.51-8.9-1.54-3.03-1.03-5.97-2.39-8.81-4.09-2.85-1.69-5.54-3.72-8.08-6.08s-4.84-4.87-6.9-7.54c1.21 7.75 3.93 13.9 8.17 18.44s9.26 7.99 15.08 10.35 12.02 3.91 18.62 4.63c6.6.73 12.74 1.09 18.44 1.09 10.17 0 18.89-1.15 26.16-3.45s13.23-5.36 17.89-9.17 8.11-8.14 10.35-12.99c2.24-4.84 3.36-9.87 3.36-15.08 0-8.23-2.15-15.04-6.45-20.43s-9.99-9.9-17.07-13.53-15.14-6.63-24.16-8.99-18.23-4.57-27.61-6.63c-9.39-2.06-18.59-4.24-27.61-6.54s-17.07-5.24-24.16-8.81c-7.08-3.57-12.78-7.99-17.07-13.26-4.3-5.27-6.45-11.9-6.45-19.89 0-6.66 1.24-12.38 3.72-17.17 2.48-4.78 5.93-8.75 10.35-11.9s9.66-5.48 15.71-6.99 12.65-2.27 19.8-2.27c7.75 0 14.65.76 20.71 2.27 6.05 1.52 11.47 3.45 16.26 5.81 4.78 2.36 9.11 4.88 12.99 7.54 3.87 2.67 7.57 5.18 11.08 7.54s6.93 4.3 10.26 5.81c3.33 1.52 6.87 2.27 10.63 2.27 2.18 0 4.39-.24 6.63-.73 2.24-.48 4.3-1.69 6.18-3.63s3.39-4.78 4.54-8.54c1.15-3.75 1.73-8.9 1.73-15.44h45.41zm-146.94 127.15c0 2.18.42 4.21 1.27 6.08.85 1.88 2 3.51 3.45 4.9s3.12 2.48 5 3.27 3.91 1.18 6.08 1.18c4.24 0 7.81-1.51 10.72-4.54s4.36-6.66 4.36-10.9-1.52-7.87-4.54-10.9c-3.03-3.03-6.66-4.54-10.9-4.54s-7.87 1.52-10.9 4.54-4.54 6.66-4.54 10.9z" fill="#fff"/><path d="m238.83 23.4c-8.84 0-16.35.91-22.52 2.72s-11.17 4.12-14.99 6.9c-3.81 2.79-6.57 5.9-8.26 9.35s-2.54 6.87-2.54 10.26c0 1.82.21 3.75.64 5.81s1.09 4.15 2 6.27 2 4.12 3.27 5.99c1.27 1.88 2.76 3.54 4.45 5l-31.24 19.8c-1.94-2.06-3.91-4.48-5.9-7.27-2-2.78-3.81-5.84-5.45-9.17-1.63-3.33-2.97-6.93-4-10.81-1.03-3.87-1.54-7.99-1.54-12.35 0-7.63 2.15-14.71 6.45-21.25s10.29-12.2 17.98-16.98 16.8-8.51 27.34-11.17 21.98-4 34.33-4 23.98 1.33 34.51 4c10.54 2.67 19.62 6.42 27.25 11.26s13.59 10.66 17.89 17.44 6.45 14.23 6.45 22.34c0 1.82-.12 3.6-.36 5.36s-.54 3.48-.91 5.18c6.54-.6 12.93-1.6 19.16-3 6.24-1.39 12.32-3.3 18.25-5.72l3.27 23.07c-4.24 2.42-8.93 4.45-14.08 6.08s-10.32 2.97-15.53 4-10.14 1.79-14.8 2.27c-4.66.49-8.63.73-11.9.73l-33.42-19.8c3.39-2.42 6.33-5.39 8.81-8.9s3.72-8.05 3.72-13.62c0-3.39-.94-6.87-2.82-10.44s-4.81-6.78-8.81-9.63c-4-2.84-9.02-5.18-15.08-6.99-6.05-1.82-13.26-2.72-21.62-2.72zm-18.71 39.23c0 2.42.49 4.72 1.45 6.9.97 2.18 2.3 4.06 4 5.63 1.7 1.58 3.7 2.82 5.99 3.72 2.3.91 4.72 1.36 7.27 1.36s4.97-.45 7.27-1.36 4.3-2.15 5.99-3.72c1.7-1.57 3.03-3.45 4-5.63s1.45-4.48 1.45-6.9-.48-4.72-1.45-6.9-2.3-4.09-4-5.72c-1.69-1.63-3.69-2.91-5.99-3.81-2.3-.91-4.72-1.36-7.27-1.36s-4.96.45-7.27 1.36c-2.3.91-4.3 2.18-5.99 3.81s-3.03 3.54-4 5.72-1.45 4.48-1.45 6.9z" fill="none"/><path d="m460.25 193.6c-8.84 0-17.89-.6-27.16-1.82-9.26-1.21-17.71-3.33-25.34-6.36s-13.9-7.17-18.8-12.44-7.36-11.96-7.36-20.07c0-6.9 2.06-12.9 6.18-17.98 4.12-5.09 9.84-9.29 17.16-12.62 7.33-3.33 15.98-5.84 25.97-7.54 9.99-1.69 20.86-2.54 32.61-2.54 12.83 0 25 1.42 36.51 4.27 11.5 2.85 21.62 7.42 30.33 13.71 8.72 6.3 15.62 14.44 20.71 24.43s7.63 22.13 7.63 36.42v49.59c0 12.23-2.67 22.89-7.99 31.97-5.33 9.08-12.29 16.62-20.89 22.61s-18.41 10.44-29.43 13.35-22.22 4.36-33.6 4.36c-5.57 0-11.51-.39-17.8-1.18-6.3-.79-12.62-2.06-18.98-3.81s-12.44-4.06-18.25-6.9-10.96-6.39-15.44-10.63-8.05-9.23-10.72-14.99c-2.67-5.75-4-12.38-4-19.89s1.6-13.86 4.81-19.44c3.21-5.57 7.48-10.26 12.81-14.08 5.33-3.81 11.44-6.69 18.35-8.63 6.9-1.94 14.11-2.91 21.62-2.91 5.93 0 11.29.85 16.07 2.54 4.78 1.7 8.84 4.03 12.17 6.99 3.33 2.97 5.9 6.42 7.72 10.35 1.82 3.94 2.72 8.15 2.72 12.62 0 3.88-.58 7.66-1.73 11.35-1.15 3.7-2.97 6.99-5.45 9.9s-5.69 5.27-9.63 7.08c-3.94 1.82-8.69 2.72-14.26 2.72-2.91 0-5.81-.27-8.72-.82s-5.72-1.54-8.45-3-5.39-3.42-7.99-5.9c-2.61-2.48-5.12-5.66-7.54-9.54 1.69 8.24 4.75 14.68 9.17 19.34s9.29 8.11 14.62 10.35 10.59 3.6 15.8 4.09 9.38.73 12.53.73c6.78 0 12.62-.82 17.53-2.45s9.11-3.84 12.62-6.63c3.51-2.78 6.36-5.99 8.54-9.63s3.9-7.42 5.18-11.35c1.27-3.93 2.12-7.87 2.54-11.81.42-3.93.64-7.66.64-11.17v-41.78c0-4.72-.36-9.56-1.09-14.53-6.9 3.51-14.71 6.66-23.43 9.45s-18.23 4.18-28.52 4.18zm-.91-54.13c-11.51 0-20.1 1.21-25.79 3.63s-8.54 5.57-8.54 9.45c0 2.79.97 5.09 2.91 6.9 1.94 1.82 4.51 3.24 7.72 4.27s6.93 1.73 11.17 2.09 8.66.54 13.26.54c9.08 0 17.07-.94 23.98-2.82 6.9-1.88 13.08-4.27 18.53-7.17-3.88-5.09-9.29-9.17-16.26-12.26-6.96-3.09-15.96-4.63-26.97-4.63zm-28.7 102.81c0 2.18.42 4.21 1.27 6.08.85 1.88 2 3.51 3.45 4.9s3.12 2.48 4.99 3.27c1.88.79 3.91 1.18 6.09 1.18 4.24 0 7.81-1.51 10.72-4.54s4.36-6.66 4.36-10.9-1.52-7.87-4.54-10.9c-3.03-3.03-6.66-4.54-10.9-4.54s-7.87 1.52-10.9 4.54c-3.03 3.03-4.54 6.66-4.54 10.9z" fill="none"/><path d="m628.45 285.69c2.18 0 4.21-.39 6.08-1.18 1.88-.79 3.51-1.84 4.9-3.18 1.39-1.33 2.48-2.91 3.27-4.72.79-1.82 1.18-3.75 1.18-5.81v-98.09c-.97.85-2.12 1.54-3.45 2.09-1.33.54-2.72.97-4.18 1.27-1.45.3-2.94.52-4.45.64-1.52.12-2.82.18-3.91.18-4 0-7.87-.75-11.62-2.27-3.75-1.51-7.08-3.57-9.99-6.18-2.91-2.6-5.21-5.75-6.9-9.45-1.7-3.69-2.54-7.72-2.54-12.08 0-3.63.73-7.51 2.18-11.62 1.45-4.12 3.87-7.87 7.27-11.26s7.87-6.2 13.44-8.45c5.57-2.24 12.47-3.36 20.71-3.36 5.69 0 11.44.94 17.26 2.82 5.81 1.88 11.05 4.88 15.71 8.99 4.66 4.12 8.47 9.45 11.44 15.98 2.97 6.54 4.45 14.41 4.45 23.61v90.46c0 5.81 1.18 10.75 3.54 14.8 2.36 4.06 5.33 7.33 8.9 9.81s7.48 4.27 11.72 5.36 8.29 1.63 12.17 1.63 7.9-.64 11.72-1.91 7.2-3.21 10.17-5.81 5.39-5.9 7.27-9.9 2.82-8.66 2.82-13.99v-138.96h45.41v138.96c0 10.54-2.21 19.53-6.63 26.97-4.42 7.45-10.26 13.53-17.53 18.25s-15.53 8.17-24.79 10.35-18.74 3.27-28.43 3.27c-6.78 0-13.17-.73-19.16-2.18s-11.47-3.39-16.44-5.81-9.35-5.3-13.17-8.63c-3.81-3.33-6.93-6.87-9.35-10.63-1.82 5.81-4.18 10.48-7.08 13.99-2.91 3.51-6.06 6.27-9.45 8.26-3.39 2-6.9 3.33-10.54 4-3.63.66-7.08 1-10.35 1h-19.98v-27.25h18.35zm-15.26-140.23c0 1.94.39 3.81 1.18 5.63s1.88 3.42 3.27 4.81 3 2.51 4.81 3.36c1.82.85 3.81 1.27 5.99 1.27s4.21-.42 6.08-1.27c1.88-.85 3.51-1.97 4.9-3.36s2.48-3 3.27-4.81c.79-1.82 1.18-3.69 1.18-5.63s-.39-3.81-1.18-5.63-1.88-3.42-3.27-4.81-3.03-2.51-4.9-3.36c-1.88-.85-3.91-1.27-6.08-1.27s-4.18.43-5.99 1.27c-1.82.85-3.42 1.97-4.81 3.36s-2.48 3-3.27 4.81c-.79 1.82-1.18 3.7-1.18 5.63z" fill="none"/></g><path d="m343.7 115.13c0 4.84-.76 10.38-2.27 16.62-1.52 6.24-4.12 12.17-7.81 17.8-3.7 5.63-8.72 10.38-15.08 14.26s-14.38 5.81-24.07 5.81c-6.06 0-11.84-.75-17.35-2.27-5.51-1.51-10.81-3.36-15.89-5.54s-9.93-4.6-14.53-7.27c-4.6-2.66-9.05-5.09-13.35-7.27s-8.42-4.02-12.35-5.54c-3.94-1.51-7.78-2.27-11.53-2.27-5.09 0-8.93 1.18-11.53 3.54-2.61 2.36-3.91 5.06-3.91 8.08 0 4.84 2.15 8.84 6.45 11.99s9.96 5.84 16.98 8.08 15.01 4.27 23.98 6.08c8.96 1.82 18.1 3.81 27.43 5.99 9.32 2.18 18.46 4.81 27.43 7.9 8.96 3.09 16.95 6.99 23.98 11.72 7.02 4.72 12.68 10.54 16.98 17.44s6.45 15.32 6.45 25.25c0 8.24-1.48 15.59-4.45 22.07s-6.99 12.2-12.08 17.17-11.02 9.24-17.8 12.81-13.99 6.51-21.62 8.81-15.47 3.96-23.52 5c-8.05 1.03-15.89 1.54-23.52 1.54-5.81 0-12.17-.3-19.07-.91s-13.78-1.7-20.62-3.27-13.47-3.75-19.89-6.54c-6.42-2.78-12.11-6.29-17.07-10.54-4.97-4.24-8.93-9.32-11.9-15.26-2.97-5.93-4.45-12.9-4.45-20.89 0-7.38 1.6-13.86 4.81-19.44 3.21-5.57 7.48-10.26 12.81-14.08 5.33-3.81 11.44-6.69 18.35-8.63 6.9-1.94 14.11-2.91 21.62-2.91 5.93 0 11.29.85 16.08 2.54 4.78 1.7 8.84 4.03 12.17 6.99 3.33 2.97 5.9 6.42 7.72 10.35 1.82 3.94 2.72 8.15 2.72 12.62 0 3.88-.58 7.66-1.73 11.35-1.15 3.7-2.97 6.99-5.45 9.9s-5.69 5.27-9.63 7.08c-3.94 1.82-8.69 2.72-14.26 2.72-2.91 0-5.88-.51-8.9-1.54-3.03-1.03-5.97-2.39-8.81-4.09-2.85-1.69-5.54-3.72-8.08-6.08s-4.84-4.87-6.9-7.54c1.21 7.75 3.93 13.9 8.17 18.44s9.26 7.99 15.08 10.35 12.02 3.91 18.62 4.63c6.6.73 12.74 1.09 18.44 1.09 10.17 0 18.89-1.15 26.16-3.45s13.23-5.36 17.89-9.17 8.11-8.14 10.35-12.99c2.24-4.84 3.36-9.87 3.36-15.08 0-8.23-2.15-15.04-6.45-20.43s-9.99-9.9-17.07-13.53-15.14-6.63-24.16-8.99-18.23-4.57-27.61-6.63c-9.39-2.06-18.59-4.24-27.61-6.54s-17.07-5.24-24.16-8.81c-7.08-3.57-12.78-7.99-17.07-13.26-4.3-5.27-6.45-11.9-6.45-19.89 0-6.66 1.24-12.38 3.72-17.17 2.48-4.78 5.93-8.75 10.35-11.9s9.66-5.48 15.71-6.99 12.65-2.27 19.8-2.27c7.75 0 14.65.76 20.71 2.27 6.05 1.52 11.47 3.45 16.26 5.81 4.78 2.36 9.11 4.88 12.99 7.54 3.87 2.67 7.57 5.18 11.08 7.54s6.93 4.3 10.26 5.81c3.33 1.52 6.87 2.27 10.63 2.27 2.18 0 4.39-.24 6.63-.73 2.24-.48 4.3-1.69 6.18-3.63s3.39-4.78 4.54-8.54c1.15-3.75 1.73-8.9 1.73-15.44h45.41zm-146.94 127.15c0 2.18.42 4.21 1.27 6.08.85 1.88 2 3.51 3.45 4.9s3.12 2.48 5 3.27 3.91 1.18 6.08 1.18c4.24 0 7.81-1.51 10.72-4.54s4.36-6.66 4.36-10.9-1.52-7.87-4.54-10.9c-3.03-3.03-6.66-4.54-10.9-4.54s-7.87 1.52-10.9 4.54-4.54 6.66-4.54 10.9z"/></svg>