<svg height="205.75" viewBox="0 0 843.63999 205.75" width="843.64001" xmlns="http://www.w3.org/2000/svg"><g stroke="#000" stroke-miterlimit="10" stroke-width="5" transform="translate(-12.7 -111.12)"><path d="m91.32 176.69c5.21 0 9.75.88 13.62 2.63 3.87 1.76 7.08 4.06 9.63 6.9 2.54 2.85 4.42 6.06 5.63 9.63s1.82 7.17 1.82 10.81-.64 7.42-1.91 10.99-3.21 6.78-5.81 9.63c-2.61 2.85-5.9 5.12-9.9 6.81-4 1.7-8.78 2.54-14.35 2.54-12.23 0-23.25-1.82-33.06-5.45-.73 4-1.09 7.87-1.09 11.62 0 2.18.15 4.66.45 7.45s.75 5.57 1.36 8.36c.6 2.79 1.36 5.42 2.27 7.9s1.97 4.51 3.18 6.08c1.94-3.87 4.12-7.05 6.54-9.54 2.42-2.48 4.93-4.45 7.54-5.9 2.6-1.45 5.18-2.45 7.72-3s4.9-.82 7.08-.82c4.6 0 8.75.76 12.44 2.27 3.69 1.52 6.84 3.57 9.45 6.18 2.6 2.61 4.6 5.63 5.99 9.08s2.09 7.17 2.09 11.17c0 9.69-3.42 17.5-10.26 23.43s-17.59 8.9-32.24 8.9c-6.9 0-14.14-1.39-21.71-4.18-7.57-2.78-14.5-6.93-20.8-12.44s-11.51-12.32-15.62-20.43c-4.12-8.11-6.18-17.5-6.18-28.15 0-7.51 1-14.5 3-20.98s4.81-12.44 8.45-17.89c-3.63-4.72-6.45-9.9-8.45-15.53s-3-11.65-3-18.07c0-11.62 2.66-21.46 7.99-29.52 5.33-8.05 12.44-14.56 21.34-19.53 8.9-4.96 19.13-8.54 30.7-10.72 11.56-2.18 23.64-3.27 36.24-3.27 13.44 0 25.97 1.58 37.6 4.72 11.62 3.15 21.71 7.99 30.24 14.53s15.26 14.8 20.16 24.79 7.36 21.77 7.36 35.33v118.43h-45.41v-118.43c0-7.51-1.21-14.44-3.63-20.8s-5.88-11.87-10.35-16.53c-4.48-4.66-9.9-8.29-16.26-10.9-6.36-2.6-13.53-3.91-21.52-3.91-7.15 0-13.96.82-20.43 2.45-6.48 1.63-12.17 4.24-17.07 7.81s-8.84 8.15-11.81 13.71c-2.97 5.57-4.45 12.29-4.45 20.16 5.45-2.66 11.17-4.72 17.17-6.18s12.08-2.18 18.25-2.18zm0 43.6c4 0 7.38-1.3 10.17-3.91 2.78-2.6 4.18-5.84 4.18-9.72s-1.24-7.27-3.72-9.81-6.03-3.81-10.63-3.81c-5.81 0-10.87 1.52-15.17 4.54-4.3 3.03-7.9 6.9-10.81 11.62 3.15 3.39 6.9 6.08 11.26 8.08s9.26 3 14.71 3zm14.35 63.57c0-3.87-1.48-7.2-4.45-9.99-2.97-2.78-6.57-4.18-10.81-4.18s-7.87 1.39-10.9 4.18-4.54 6.12-4.54 9.99 1.51 7.21 4.54 9.99c3.03 2.79 6.66 4.18 10.9 4.18s7.84-1.39 10.81-4.18c2.97-2.78 4.45-6.11 4.45-9.99z"/><g fill="none"><path d="m424.63 228.46c0 17.32-2.67 31.51-7.99 42.59-5.33 11.08-12.35 19.83-21.07 26.25s-18.62 10.87-29.7 13.35-22.31 3.72-33.69 3.72c-6.66 0-13.41-.54-20.25-1.63s-13.5-2.84-19.98-5.27c-6.48-2.42-12.56-5.48-18.25-9.17s-10.66-8.14-14.89-13.35c-4.24-5.21-7.6-11.2-10.08-17.98s-3.72-14.41-3.72-22.89 1.63-15.68 4.9-21.98c3.27-6.29 7.51-11.56 12.71-15.8 5.21-4.24 10.99-7.42 17.35-9.54s12.62-3.18 18.8-3.18c7.27 0 13.56.85 18.89 2.54 5.33 1.7 9.75 4.03 13.26 6.99 3.51 2.97 6.11 6.42 7.81 10.35 1.69 3.94 2.54 8.15 2.54 12.62 0 3.88-.58 7.66-1.73 11.35-1.15 3.7-2.97 6.99-5.45 9.9s-5.69 5.27-9.63 7.08c-3.94 1.82-8.69 2.72-14.26 2.72-5.93 0-11.9-1.51-17.89-4.54s-10.93-7.93-14.8-14.71c0 9.45 1.69 17.32 5.09 23.61 3.39 6.3 7.66 11.35 12.81 15.17 5.15 3.81 10.72 6.51 16.71 8.08 5.99 1.58 11.65 2.36 16.98 2.36 16.95 0 29.54-4.27 37.78-12.81 8.23-8.54 12.35-20.74 12.35-36.6v-42.32c0-8.47-.94-16.08-2.82-22.8s-4.63-12.44-8.26-17.17-8.02-8.32-13.17-10.81c-5.15-2.48-10.99-3.72-17.53-3.72-10.29 0-19.23 3.36-26.79 10.08-7.57 6.72-13.9 16.02-18.98 27.88l-43.23-25.25c4-6.9 9.05-12.87 15.17-17.89 6.11-5.02 13.02-9.17 20.71-12.44s15.92-5.69 24.7-7.27c8.78-1.57 17.83-2.36 27.16-2.36 15.62 0 29 2.3 40.14 6.9s20.28 10.72 27.43 18.35c7.14 7.63 12.41 16.35 15.8 26.16s5.09 19.92 5.09 30.33v33.06zm-130.6-3.09c0 2.18.42 4.21 1.27 6.08.85 1.88 2 3.51 3.45 4.9s3.12 2.48 5 3.27 3.91 1.18 6.08 1.18c4.24 0 7.81-1.51 10.72-4.54s4.36-6.66 4.36-10.9-1.52-7.87-4.54-10.9c-3.03-3.03-6.66-4.54-10.9-4.54s-7.87 1.52-10.9 4.54-4.54 6.66-4.54 10.9z"/><path d="m624.07 311.47h-45.41v-126.24c0-5.93-.88-11.59-2.63-16.98-1.76-5.39-4.42-10.11-7.99-14.17s-8.08-7.27-13.53-9.63-11.81-3.54-19.07-3.54c-4.48 0-9.29.76-14.44 2.27-5.15 1.52-9.93 4.03-14.35 7.54s-8.08 8.15-10.99 13.9-4.36 12.93-4.36 21.52v3c0 1.03.06 2.03.18 3 1.82-4.12 4-7.54 6.54-10.26s5.27-4.9 8.17-6.54 5.9-2.78 8.99-3.45c3.09-.66 6.08-1 8.99-1 5.57 0 10.32.91 14.26 2.72 3.93 1.82 7.14 4.18 9.63 7.08 2.48 2.91 4.3 6.21 5.45 9.9 1.15 3.7 1.73 7.48 1.73 11.35 0 4.48-.85 8.69-2.54 12.62-1.7 3.94-4.3 7.39-7.81 10.35-3.51 2.97-7.93 5.3-13.26 6.99-5.33 1.7-11.62 2.54-18.89 2.54-6.18 0-12.26-1.3-18.25-3.91-5.99-2.6-11.32-6.29-15.98-11.08-4.66-4.78-8.45-10.54-11.35-17.26s-4.36-14.26-4.36-22.61c0-11.02 2.24-20.64 6.72-28.88 4.48-8.23 10.41-15.1 17.8-20.62 7.38-5.51 15.89-9.63 25.52-12.35s19.53-4.09 29.7-4.09c11.02 0 21.46 1.42 31.33 4.27s18.53 7.57 25.97 14.17c7.45 6.6 13.35 15.29 17.71 26.07s6.54 24.16 6.54 40.14v113.16zm-116.06-108.8c0 4.24 1.51 7.87 4.54 10.9s6.66 4.54 10.9 4.54 7.87-1.51 10.9-4.54 4.54-6.66 4.54-10.9-1.45-7.87-4.36-10.9-6.48-4.54-10.72-4.54c-2.18 0-4.21.39-6.08 1.18-1.88.79-3.54 1.88-5 3.27-1.45 1.39-2.61 3.03-3.45 4.9-.85 1.88-1.27 3.91-1.27 6.08z"/><path d="m738.33 251.35c-6.18 0-12.26-.7-18.25-2.09s-11.72-3.42-17.17-6.08c0 7.87 1.48 14.56 4.45 20.07s6.9 10.05 11.81 13.62c4.9 3.57 10.59 6.18 17.07 7.81s13.29 2.45 20.43 2.45c7.99 0 15.17-1.3 21.52-3.91 6.36-2.6 11.78-6.24 16.26-10.9s7.93-10.17 10.35-16.53 3.63-13.29 3.63-20.8v-118.43h45.41v118.43c0 13.69-2.45 25.49-7.36 35.42-4.9 9.93-11.62 18.16-20.16 24.7s-18.62 11.38-30.24 14.53-24.16 4.72-37.6 4.72c-12.6 0-24.67-1.09-36.24-3.27s-21.8-5.75-30.7-10.72c-8.9-4.96-16.02-11.47-21.34-19.53-5.33-8.05-7.99-17.89-7.99-29.52 0-6.42 1-12.44 3-18.07s4.81-10.75 8.45-15.35c-3.63-5.45-6.45-11.44-8.45-17.98s-3-13.56-3-21.07c0-10.65 2.06-20.04 6.18-28.15s9.32-14.92 15.62-20.43c6.29-5.51 13.23-9.66 20.8-12.44s14.8-4.18 21.71-4.18c7.38 0 13.74.79 19.07 2.36 5.33 1.58 9.72 3.79 13.17 6.63 3.45 2.85 6.02 6.24 7.72 10.17 1.69 3.94 2.54 8.33 2.54 13.17 0 4-.7 7.72-2.09 11.17s-3.39 6.48-5.99 9.08-5.75 4.66-9.45 6.18-7.84 2.27-12.44 2.27c-2.18 0-4.54-.27-7.08-.82s-5.12-1.54-7.72-3c-2.61-1.45-5.12-3.42-7.54-5.9s-4.6-5.66-6.54-9.54c-1.21 1.7-2.27 3.75-3.18 6.18-.91 2.42-1.67 5.03-2.27 7.81-.61 2.79-1.06 5.57-1.36 8.36s-.45 5.27-.45 7.45c0 3.75.36 7.63 1.09 11.62 4.96-1.69 10.17-3.03 15.62-4s11.26-1.45 17.44-1.45c5.57 0 10.35.88 14.35 2.63 4 1.76 7.29 4.03 9.9 6.81 2.6 2.79 4.54 5.97 5.81 9.54s1.91 7.24 1.91 10.99-.61 7.24-1.82 10.81-3.09 6.78-5.63 9.63-5.75 5.15-9.63 6.9c-3.88 1.76-8.42 2.63-13.62 2.63zm0-16.35c4.6 0 8.14-1.27 10.63-3.81 2.48-2.54 3.72-5.81 3.72-9.81s-1.39-7.11-4.18-9.72c-2.79-2.6-6.18-3.91-10.17-3.91-5.45 0-10.35 1.03-14.71 3.09s-8.11 4.79-11.26 8.17c2.91 4.6 6.51 8.42 10.81 11.44 4.3 3.03 9.35 4.54 15.17 4.54zm14.35-90.82c0-3.87-1.48-7.2-4.45-9.99-2.97-2.78-6.57-4.18-10.81-4.18s-7.87 1.39-10.9 4.18-4.54 6.12-4.54 9.99 1.51 7.21 4.54 9.99c3.03 2.79 6.66 4.18 10.9 4.18s7.84-1.39 10.81-4.18c2.97-2.78 4.45-6.11 4.45-9.99z"/></g></g></svg>