<svg height="200.71001" viewBox="0 0 191.63001 200.71001" width="191.63" xmlns="http://www.w3.org/2000/svg"><path d="m76.12 63.04c5.21 0 9.75.88 13.62 2.63 3.87 1.76 7.08 4.06 9.63 6.9 2.54 2.85 4.42 6.06 5.63 9.63s1.82 7.17 1.82 10.81-.64 7.42-1.91 10.99-3.21 6.78-5.81 9.63c-2.61 2.85-5.9 5.12-9.9 6.81-4 1.7-8.78 2.54-14.35 2.54-12.23 0-23.25-1.82-33.06-5.45-.73 4-1.09 7.87-1.09 11.62 0 2.18.15 4.66.45 7.45s.75 5.57 1.36 8.36c.6 2.79 1.36 5.42 2.27 7.9s1.97 4.51 3.18 6.08c1.94-3.87 4.12-7.05 6.54-9.54 2.42-2.48 4.93-4.45 7.54-5.9 2.6-1.45 5.18-2.45 7.72-3s4.9-.82 7.08-.82c4.6 0 8.75.76 12.44 2.27 3.69 1.52 6.84 3.57 9.45 6.18 2.6 2.61 4.6 5.63 5.99 9.08s2.09 7.17 2.09 11.17c0 9.69-3.42 17.5-10.26 23.43s-17.59 8.9-32.24 8.9c-6.9 0-14.14-1.39-21.71-4.18-7.57-2.78-14.5-6.93-20.8-12.44s-11.51-12.32-15.62-20.43c-4.12-8.11-6.18-17.5-6.18-28.15 0-7.51 1-14.5 3-20.98s4.81-12.44 8.45-17.89c-3.63-4.72-6.45-9.9-8.45-15.53s-3-11.65-3-18.07c0-11.62 2.66-21.46 7.99-29.52 5.33-8.05 12.44-14.56 21.34-19.53 8.9-4.96 19.13-8.54 30.7-10.72 11.56-2.18 23.64-3.27 36.24-3.27 13.44 0 25.97 1.58 37.6 4.72 11.62 3.15 21.71 7.99 30.24 14.53s15.26 14.8 20.16 24.79 7.36 21.77 7.36 35.33v118.43h-45.41v-118.43c0-7.51-1.21-14.44-3.63-20.8s-5.88-11.87-10.35-16.53c-4.48-4.66-9.9-8.29-16.26-10.9-6.36-2.6-13.53-3.91-21.52-3.91-7.15 0-13.96.82-20.43 2.45-6.48 1.63-12.17 4.24-17.07 7.81s-8.84 8.15-11.81 13.71c-2.97 5.57-4.45 12.29-4.45 20.16 5.45-2.66 11.17-4.72 17.17-6.18s12.08-2.18 18.25-2.18zm0 43.6c4 0 7.38-1.3 10.17-3.91 2.78-2.6 4.18-5.84 4.18-9.72s-1.24-7.27-3.72-9.81-6.03-3.81-10.63-3.81c-5.81 0-10.87 1.52-15.17 4.54-4.3 3.03-7.9 6.9-10.81 11.62 3.15 3.39 6.9 6.08 11.26 8.08s9.26 3 14.71 3zm14.35 63.57c0-3.87-1.48-7.2-4.45-9.99-2.97-2.78-6.57-4.18-10.81-4.18s-7.87 1.39-10.9 4.18-4.54 6.12-4.54 9.99 1.51 7.21 4.54 9.99c3.03 2.79 6.66 4.18 10.9 4.18s7.84-1.39 10.81-4.18c2.97-2.78 4.45-6.11 4.45-9.99z"/></svg>