<svg xmlns="http://www.w3.org/2000/svg" version="1.1" viewBox="-5.0 -10.0 110.0 135.0">
 <path d="m17.77 38.227c0.11719 0.11719 0.1875 0.27734 0.1875 0.45313 0 0.17578-0.070312 0.33594-0.1875 0.45312-0.11719 0.11719-0.27734 0.1875-0.45312 0.1875-0.17578 0-0.33594-0.070312-0.45312-0.1875-0.11719-0.11719-0.1875-0.27734-0.1875-0.45312 0-0.17578 0.070313-0.33594 0.1875-0.45313 0.11719-0.11719 0.27734-0.1875 0.45312-0.1875 0.17578 0 0.33594 0.070313 0.45312 0.1875zm-4.168-1.4883c0.20313-0.34375 0.46875-0.70312 0.81641-1.0898 0.55859-0.61719 1.1289-1.1992 1.8203-1.6836-0.39844-0.54297-0.75-1.1758-1.0273-1.8672-0.51563-1.2891-0.75781-2.7773-0.52344-4.2383 0.23438-1.4766 0.95312-2.9258 2.3555-4.1094 0.18359-0.15234 0.375-0.30469 0.57812-0.44531-1.1523 0.28906-2.1758 0.78906-3.0195 1.4219-1.4961 1.1211-2.4492 2.6523-2.6328 4.1719-0.15625 1.3047-0.023438 2.6367 0.33203 4.0586 0.29688 1.1875 0.74219 2.4375 1.2969 3.7852zm10.555 0.57031c0.33594 0.48828 0.89844 0.86328 1.8008 0.93359 0.64453-0.35156 1.4336-0.74609 2.3164-1.1836l0.47266-0.23438c0.015625-0.007813 0.027344-0.015625 0.042968-0.019531 3.4453-1.7148 7.9688-4.0547 9.5625-6.793 0.007813-0.019531 0.019532-0.039063 0.03125-0.054688 0.95703-1.6758 1.2656-3.3945 1.043-5.0234-0.1875-1.3672-0.75781-2.6758-1.6406-3.8398 0.0625 2.1758 0.015625 5.1289-2.5977 7.6055-1.0742 1.0195-3.5195 2.4805-5.8945 3.5977-2.0547 0.96875-4.0859 1.6875-5.1992 1.6641 0.007812 0.14453-0.058594 0.29297-0.19141 0.38281-0.085938 0.058594-0.18359 0.48047-0.21094 1.0469-0.015625 0.3125 0.007813 0.65625 0.078125 0.99609 0.070313 0.32422 0.19531 0.64453 0.38281 0.92578zm3.5586 8.6016c-1.6016 2.3555-2.7812 2.3711-4.0234 2.3867-0.92969 0.011719-1.8828 0.023437-3.0352 0.75781-0.71094 0.44922-1.2695 0.82812-1.7383 1.1406-1.9336 1.3047-2.2266 1.5-5.6797 1.5586-0.55078 0.007813-1.1172-0.10156-1.6602-0.29297-0.16016 0.054687-0.32422 0.09375-0.49609 0.09375-0.57422 0-1.1094-0.32031-1.5039-0.90625-0.18359-0.27344-0.32031-0.59375-0.41016-0.91406-0.066407-0.09375-0.12891-0.18359-0.18359-0.27734-0.25-0.44922-0.35156-0.92969-0.23828-1.3867 0.089844-0.36328 0.32031-0.72266 0.72266-1.0664 4.2109-3.5938 4.2695-5.5508 4.3203-7.332 0.03125-1.0781 0.0625-2.082 1.2812-3.4375 0.84375-0.9375 1.7188-1.7852 3.0156-2.2539 1.2109-0.4375 2.8125-0.5625 5.1445-0.16016-0.20312 0.3125-0.37891 0.88281-0.41016 1.5273-0.019531 0.38672 0.007813 0.80859 0.097657 1.2227 0.09375 0.42969 0.25781 0.85156 0.51562 1.2305 0.49219 0.71875 1.3086 1.2578 2.6016 1.3203 0.078125 0.003906 0.16016-0.015625 0.23438-0.054688 0.625-0.34766 1.4375-0.75391 2.3516-1.2031l0.003906 0.015625c0.4375 2.8984 0.82812 5.4766-0.90625 8.0273zm-8.8789-7.2305c0-0.41797-0.17188-0.80078-0.44531-1.0742-0.27344-0.27344-0.65234-0.44531-1.0742-0.44531-0.41797 0-0.80078 0.17188-1.0742 0.44531-0.27344 0.27344-0.44531 0.65234-0.44531 1.0742 0 0.41797 0.17188 0.79687 0.44531 1.0742 0.27344 0.27344 0.65234 0.44531 1.0742 0.44531 0.41797 0 0.79688-0.17188 1.0742-0.44531 0.27344-0.27344 0.44531-0.65234 0.44531-1.0742zm55.613 22.637c0.003906-0.023437 0.007812-0.046875 0.011719-0.066406-0.65234-0.63672-1.543-1.8906-2.4492-3.3516-0.70703 0.42969-1.4336 0.80859-2.1914 1.1328-0.76172 0.32422-1.5508 0.59375-2.3906 0.79688 0.39844 1.2539 1.3008 2.1523 2.2109 3.0547 1.8047 1.7969 3.6328 3.6094 2.3125 8.0781-0.19531 0.66016-0.28516 1.1172-0.35156 1.4648-0.10156 0.51953-0.16016 0.82031-0.42578 1.2109-0.33203 0.48438-0.95312 1.0156-2.4453 2.2852l-0.37891 0.32422c-0.26172 0.22266-0.36719 0.35156-0.36719 0.40625 0 0.03125 0.039063-0.027344 0.10938-0.003906 0.20312 0.070312 0.49609 0.11328 0.84375 0.12891 1.4531 0.0625 3.5781-0.26172 3.793-0.46484 0.36719-0.35156 0.82422-1.3828 1.2461-2.5586 0.58594-1.6328 1.082-3.5078 1.1797-4.293 0.4375-3.5469-0.50391-7.2344-0.66797-7.8828-0.027343-0.11328-0.046875-0.17578-0.035156-0.26172zm-32.531 1.8086c0.13281-0.74609 0.24609-1.3828 0.51953-1.8828-1.2539-0.39063-2.5039-0.91016-3.6484-1.5391-1.1094-0.60938-2.1172-1.3242-2.9336-2.1328 0.17578 2.3672 0.83594 3.9961 1.418 5.4297 0.53906 1.332 1.0156 2.5039 1.0156 3.9609-0.003906 2.2773 0.13672 3.7539 0.23828 4.7891 0.22656 2.3398 0.25391 2.6406-1.707 4.457l-0.003906 0.003907c-0.007812 0.007812-0.73047 0.68359-1.1289 1.2773-0.074219 0.11328-0.13672 0.21875-0.17188 0.30078h0.035156c2.4648-0.027343 3.8203-0.12109 4.7031-0.18359 0.26562-0.019531 0.48438-0.035157 0.71094-0.046875 0.070312-0.042969 0.30078-0.26953 0.53125-0.50781 0.20312-0.21094 0.39453-0.28516 0.42578-0.33984-0.125-0.51563-0.27344-1.2227-0.39844-2.1602-0.13281-0.96875-0.24219-2.1875-0.28516-3.6992-0.007812-0.30469-0.03125-0.69922-0.054687-1.1211-0.085938-1.4805-0.1875-3.332 0.17578-4.3438 0.29688-0.81641 0.43359-1.5938 0.55469-2.2695zm48.758-10.254c-0.015625-0.31641-0.027343-0.62891-0.058593-0.99219-0.027344-0.33203-0.13672-0.58984-0.29688-0.77734-0.16797-0.19922-0.39844-0.33594-0.65625-0.41797-0.27734-0.085938-0.58984-0.10938-0.89453-0.085938-0.36719 0.03125-0.71094 0.14062-0.97656 0.29688-2.5508-2.7773-2.3555-5.7461-2.1484-8.875 0.03125-0.45312 0.0625-0.92188 0.082031-1.3789 0.10156-2.1562-1.1914-4.6641-3.2188-6.2344-1.8711-1.4531-4.0703-1.8906-6.1914-1.2383-0.10156 0.03125-0.18359 0.085937-0.25781 0.15625-3.7656-3.8281-8.9922-3.1562-13.555-2.5664-3.1797 0.41016-6.0508 0.78125-8.0547-0.34375-7.9922-4.4922-10.176-3.1289-14.188-0.62891-0.38672 0.24219-0.78906 0.49219-1.1992 0.73828-1.7148 2.8555-6.1445 5.1953-9.6211 6.9336l0.046875 0.29688c0.46484 3.0742 0.88281 5.8164-1.0508 8.6523-0.44141 0.65234-0.85938 1.1484-1.2578 1.5273 1.8984 3.1367 3.7383 4.1484 5.2305 4.9688 1.168 0.64453 2.1406 1.1797 2.8242 2.4414 0.76562 1.4141 2.2344 2.6367 3.9805 3.5977 1.2695 0.69922 2.6758 1.2539 4.0625 1.6445 0.015625 0.003906 0.027344 0.007812 0.039062 0.011718 0.51953 0.14453 1.0352 0.26562 1.5391 0.35938-0.89062-1.4609-1.4766-2.6367-1.8594-3.918-0.55078-1.8398-0.67578-3.8555-0.67578-7.2148 0-0.24219 0.19531-0.4375 0.4375-0.4375 0.24219 0 0.4375 0.19531 0.4375 0.4375 0 3.2734 0.11719 5.2266 0.64063 6.9648 0.51953 1.7344 1.4609 3.3008 3.0977 5.8008 1.2227 1.8633 1.9805 5.1016 1.875 8.1328-0.089844 2.6172-0.81641 5.0977-2.4375 6.4688-0.37109 0.3125-0.65625 0.625-0.83984 0.97266-0.12109 0.22656-0.20312 0.47266-0.24219 0.75391h5.3945c0.085937-0.39062 0.058594-0.70703 0.03125-0.98047-0.023438-0.26953-0.046875-0.50391 0.015625-0.75781 1.1328-4.8203 1.1289-6.293 1.1172-10.578l-0.003906-1.5312c0-4.1211 0.53906-5.6523 1.0742-7.1641 0.49609-1.4023 0.98828-2.7891 0.98828-6.4922 0-0.24219 0.19531-0.4375 0.4375-0.4375s0.4375 0.19531 0.4375 0.4375c0 3.8438-0.51562 5.3047-1.0391 6.7812-0.32031 0.90625-0.64453 1.8164-0.83984 3.3633 3.6719 0.39844 6.5742-0.45312 9.625-1.3516 1.3555-0.39844 2.7422-0.80469 4.25-1.1211l0.015625-0.003907c0.007812 0 0.011719-0.003906 0.015625-0.003906 0.94141-0.19922 1.8242-0.48438 2.6602-0.84375 0.71484-0.30469 1.4023-0.66797 2.0781-1.0781-0.26562-0.44531-0.53125-0.90234-0.78516-1.3594-1.4766-2.6367-2.7344-5.3789-2.7344-6.2891 0-0.24219 0.19531-0.4375 0.4375-0.4375 0.24219 0 0.4375 0.19531 0.4375 0.4375 0 0.76563 1.2031 3.3359 2.6211 5.8633 0.32031 0.57031 0.64844 1.1406 0.97656 1.6797 0.003906 0.007813 0.007812 0.011719 0.011719 0.019531 0.007812 0.011719 0.011719 0.023438 0.019531 0.035157 1.0469 1.7266 2.0781 3.1875 2.7148 3.6914 4.8516 3.8477 4.207 7.3867 3.4336 11.641-0.13672 0.75-0.27734 1.5234-0.39453 2.3438-0.0625 0.45312-0.33984 0.92578-0.625 1.4062-0.27734 0.46875-0.55859 0.94922-0.57031 1.3047 0.027344 0.019531 0.20703 0.0625 0.46094 0.11719 0.41406 0.085937 0.96484 0.12109 1.5039 0.12109 0.58203 0 1.1328-0.039063 1.4688-0.09375 0.16016-0.023438 0.42969-0.23828 0.67187-0.51953 0.22266-0.25781 0.40234-0.55859 0.43359-0.8125 0.070313-0.55078 0.23438-1.3516 0.39453-2.1367 0.1875-0.92578 0.37109-1.8281 0.38281-2.1914 0.03125-1.0859-0.050781-1.7969-0.13281-2.5117-0.09375-0.82812-0.19141-1.6562-0.11719-3.0586 0.089844-1.7383-0.39844-4.2188-0.85938-6.5703-0.53906-2.7422-1.043-5.3203-0.58984-6.582 1.9062-5.2891 0.69531-8.5703-0.875-12.816-0.20312-0.55469-0.41406-1.125-0.63281-1.7344-0.62891-1.7695-1.3867-3.1797-2.2383-4.3008 1.6055-0.40234 3.2656-0.03125 4.7031 1.082 1.6719 1.2969 2.7812 3.3945 2.6992 5.1055-0.019531 0.44531-0.050781 0.90625-0.082031 1.3516-0.21484 3.1953-0.45312 6.7891 2.6523 10.047-0.13281 0.3125-0.1875 0.61719-0.17578 0.91016 0.023438 0.56641 0.28516 1.1133 0.67969 1.6094 0.41406 0.51953 0.97656 0.97656 1.5742 1.3359 0.82031 0.49609 1.6797 0.80078 2.2734 0.82422-0.52734-1.5859-0.57812-2.6992-0.62891-3.7773z"/>
<text x="0.0" y="117.5" font-size="5.0" font-weight="bold" font-family="Arbeit Regular, Helvetica, Arial-Unicode, Arial, Sans-serif" fill="#000000">Created by Nanik haq</text><text x="0.0" y="122.5" font-size="5.0" font-weight="bold" font-family="Arbeit Regular, Helvetica, Arial-Unicode, Arial, Sans-serif" fill="#000000">from Noun Project</text></svg>