<svg height="200.75999" viewBox="0 0 195.99 200.76" width="195.99001" xmlns="http://www.w3.org/2000/svg"><path d="m150.6 197.86c0-6.54-.58-11.68-1.73-15.44-1.15-3.75-2.67-6.6-4.54-8.54-1.88-1.94-3.94-3.15-6.18-3.63s-4.45-.73-6.63-.73c-3.75 0-7.3.76-10.63 2.27-3.33 1.52-6.75 3.45-10.26 5.81s-7.21 4.88-11.08 7.54c-3.88 2.67-8.21 5.18-12.99 7.54-4.79 2.36-10.2 4.3-16.26 5.81s-12.96 2.27-20.71 2.27c-7.15 0-13.75-.76-19.8-2.27-6.06-1.51-11.29-3.84-15.71-6.99s-7.87-7.11-10.35-11.9c-2.48-4.78-3.72-10.5-3.72-17.17 0-7.99 2.15-14.62 6.45-19.89s9.99-9.69 17.07-13.26 15.14-6.51 24.16-8.81 18.22-4.48 27.61-6.54c9.38-2.06 18.59-4.27 27.61-6.63s17.07-5.36 24.16-8.99 12.77-8.14 17.07-13.53 6.45-12.2 6.45-20.43c0-5.21-1.12-10.23-3.36-15.08-2.24-4.84-5.69-9.17-10.35-12.99-4.66-3.81-10.63-6.87-17.89-9.17-7.27-2.3-15.98-3.45-26.16-3.45-5.69 0-11.84.36-18.44 1.09s-12.81 2.27-18.62 4.63-10.84 5.81-15.08 10.35-6.96 10.69-8.17 18.44c2.06-2.66 4.36-5.18 6.9-7.54s5.24-4.39 8.08-6.08 5.78-3.06 8.81-4.09 5.99-1.54 8.9-1.54c5.57 0 10.32.91 14.26 2.72 3.93 1.82 7.14 4.18 9.63 7.08 2.48 2.91 4.3 6.21 5.45 9.9 1.15 3.7 1.73 7.48 1.73 11.35 0 4.48-.91 8.69-2.72 12.62-1.82 3.94-4.39 7.39-7.72 10.35-3.33 2.97-7.39 5.3-12.17 6.99-4.79 1.7-10.14 2.54-16.08 2.54-7.51 0-14.71-.97-21.62-2.91-6.9-1.94-13.02-4.81-18.35-8.63-5.33-3.81-9.6-8.51-12.81-14.08s-4.81-12.05-4.81-19.44c0-7.99 1.48-14.95 4.45-20.89 2.97-5.93 6.93-11.02 11.9-15.26 4.96-4.24 10.65-7.75 17.07-10.54 6.42-2.78 13.05-4.96 19.89-6.54 6.84-1.57 13.71-2.66 20.62-3.27 6.9-.6 13.26-.91 19.07-.91 7.63 0 15.47.52 23.52 1.54 8.05 1.03 15.89 2.7 23.52 5s14.83 5.24 21.62 8.81c6.78 3.57 12.71 7.84 17.8 12.81s9.11 10.72 12.08 17.26 4.45 13.87 4.45 21.98c0 9.93-2.15 18.35-6.45 25.25s-9.96 12.71-16.98 17.44c-7.02 4.72-15.02 8.63-23.98 11.72s-18.1 5.72-27.43 7.9-18.47 4.18-27.43 5.99c-8.96 1.82-16.96 3.85-23.98 6.08-7.02 2.24-12.69 4.94-16.98 8.08-4.3 3.15-6.45 7.15-6.45 11.99 0 3.03 1.3 5.72 3.91 8.08 2.6 2.36 6.45 3.54 11.53 3.54 3.75 0 7.6-.75 11.53-2.27 3.93-1.51 8.05-3.36 12.35-5.54s8.75-4.6 13.35-7.27c4.6-2.66 9.45-5.09 14.53-7.27s10.38-4.02 15.89-5.54c5.51-1.51 11.29-2.27 17.35-2.27 9.69 0 17.71 1.94 24.07 5.81 6.36 3.88 11.38 8.63 15.08 14.26 3.69 5.63 6.29 11.57 7.81 17.8 1.51 6.24 2.27 11.78 2.27 16.62h-45.41zm-101.53-127.15c0 4.24 1.51 7.87 4.54 10.9s6.66 4.54 10.9 4.54 7.87-1.51 10.9-4.54 4.54-6.66 4.54-10.9-1.45-7.87-4.36-10.9-6.48-4.54-10.72-4.54c-2.18 0-4.21.39-6.08 1.18-1.88.79-3.54 1.88-5 3.27-1.45 1.39-2.61 3.03-3.45 4.9-.85 1.88-1.27 3.91-1.27 6.08z"/></svg>