<svg height="356.91516" viewBox="0 0 373.32355 356.91515" width="373.32355" xmlns="http://www.w3.org/2000/svg"><g stroke="#000" transform="translate(1.213562 2.985174)"><path d="m81.33 286.04c0 1.7.12 3.66.36 5.9s.64 4.48 1.18 6.72 1.3 4.33 2.27 6.27 2.12 3.51 3.45 4.72c1.57-4.24 3.54-7.63 5.9-10.17s4.87-4.48 7.54-5.81c2.66-1.33 5.36-2.21 8.08-2.63s5.18-.64 7.36-.64c4.6 0 8.75.76 12.44 2.27 3.69 1.52 6.84 3.57 9.45 6.18 2.6 2.61 4.6 5.63 5.99 9.08s2.09 7.17 2.09 11.17c0 9.69-3.42 17.5-10.26 23.43s-17.59 8.9-32.24 8.9c-6.9 0-14.14-1.39-21.71-4.18-7.57-2.78-14.5-6.93-20.8-12.44s-11.51-12.32-15.62-20.43c-4.12-8.11-6.18-17.5-6.18-28.15v-95.36c0-2.54.42-6.11 1.27-10.72.85-4.6 2.66-9.47 5.45-14.62 2.78-5.15 6.87-10.14 12.26-14.99 5.39-4.84 12.62-8.72 21.71-11.62-2.42-3.87-5.15-6.63-8.17-8.26-3.03-1.63-5.39-2.45-7.08-2.45-1.94 0-4.06.33-6.36 1s-4.6 1.63-6.9 2.91c-2.3 1.27-4.51 2.91-6.63 4.9-2.12 2-3.97 4.33-5.54 6.99 0-10.29-.3-20.13-.91-29.52-.61-9.38-1.88-18.1-3.81-26.16-1.94-8.05-4.75-15.29-8.45-21.71-3.69-6.42-8.69-11.93-14.99-16.53l-9.99-47.6c11.26 7.51 20.77 15.26 28.52 23.25s14.14 16.41 19.16 25.25 8.96 18.1 11.81 27.79c2.84 9.69 5.05 19.92 6.63 30.7 1.45-1.45 4.18-2.93 8.17-4.45 4-1.51 8.6-2.27 13.8-2.27 2.42 0 5.02.64 7.81 1.91 2.78 1.27 5.57 3.24 8.36 5.9 2.78 2.67 5.45 5.99 7.99 9.99s4.84 8.72 6.9 14.17c-7.27 3.15-13.44 6.3-18.53 9.45s-9.24 6.66-12.44 10.54c-3.21 3.88-5.57 8.3-7.08 13.26-1.52 4.97-2.27 10.78-2.27 17.44v100.63zm49.77 34.87c0-3.87-1.48-7.2-4.45-9.99-2.97-2.78-6.57-4.18-10.81-4.18s-7.87 1.39-10.9 4.18-4.54 6.12-4.54 9.99 1.51 7.21 4.54 9.99c3.03 2.79 6.66 4.18 10.9 4.18s7.84-1.39 10.81-4.18c2.97-2.78 4.45-6.11 4.45-9.99z" fill="none" stroke="#000" stroke-miterlimit="10" stroke-width="5"/><path d="m326.72 348.52c0-6.54-.58-11.68-1.73-15.44-1.15-3.75-2.67-6.6-4.54-8.54-1.88-1.94-3.94-3.15-6.18-3.63s-4.45-.73-6.63-.73c-3.75 0-7.3.76-10.63 2.27-3.33 1.52-6.75 3.45-10.26 5.81s-7.21 4.88-11.08 7.54c-3.88 2.67-8.21 5.18-12.99 7.54-4.79 2.36-10.2 4.3-16.26 5.81s-12.96 2.27-20.71 2.27c-7.15 0-13.75-.76-19.8-2.27-6.06-1.51-11.29-3.84-15.71-6.99s-7.87-7.11-10.35-11.9c-2.48-4.78-3.72-10.5-3.72-17.17 0-7.99 2.15-14.62 6.45-19.89s9.99-9.69 17.07-13.26 15.14-6.51 24.16-8.81 18.22-4.48 27.61-6.54c9.38-2.06 18.59-4.27 27.61-6.63s17.07-5.36 24.16-8.99 12.77-8.14 17.07-13.53 6.45-12.2 6.45-20.43c0-5.21-1.12-10.23-3.36-15.08-2.24-4.84-5.69-9.17-10.35-12.99-4.66-3.81-10.63-6.87-17.89-9.17-7.27-2.3-15.98-3.45-26.16-3.45-5.69 0-11.84.36-18.44 1.09s-12.81 2.27-18.62 4.63-10.84 5.81-15.08 10.35-6.96 10.69-8.17 18.44c2.06-2.66 4.36-5.18 6.9-7.54s5.24-4.39 8.08-6.08 5.78-3.06 8.81-4.09 5.99-1.54 8.9-1.54c5.57 0 10.32.91 14.26 2.72 3.93 1.82 7.14 4.18 9.63 7.08 2.48 2.91 4.3 6.21 5.45 9.9 1.15 3.7 1.73 7.48 1.73 11.35 0 4.48-.91 8.69-2.72 12.62-1.82 3.94-4.39 7.39-7.72 10.35-3.33 2.97-7.39 5.3-12.17 6.99-4.79 1.7-10.14 2.54-16.08 2.54-7.51 0-14.71-.97-21.62-2.91-6.9-1.94-13.02-4.81-18.35-8.63-5.33-3.81-9.6-8.51-12.81-14.08s-4.81-12.05-4.81-19.44c0-7.99 1.48-14.95 4.45-20.89 2.97-5.93 6.93-11.02 11.9-15.26 4.96-4.24 10.65-7.75 17.07-10.54 6.42-2.78 13.05-4.96 19.89-6.54 6.84-1.57 13.71-2.66 20.62-3.27 6.9-.6 13.26-.91 19.07-.91 7.63 0 15.47.52 23.52 1.54 8.05 1.03 15.89 2.7 23.52 5s14.83 5.24 21.62 8.81c6.78 3.57 12.71 7.84 17.8 12.81s9.11 10.72 12.08 17.26 4.45 13.87 4.45 21.98c0 9.93-2.15 18.35-6.45 25.25s-9.96 12.71-16.98 17.44c-7.02 4.72-15.02 8.63-23.98 11.72s-18.1 5.72-27.43 7.9-18.47 4.18-27.43 5.99c-8.96 1.82-16.96 3.85-23.98 6.08-7.02 2.24-12.69 4.94-16.98 8.08-4.3 3.15-6.45 7.15-6.45 11.99 0 3.03 1.3 5.72 3.91 8.08 2.6 2.36 6.45 3.54 11.53 3.54 3.75 0 7.6-.75 11.53-2.27 3.93-1.51 8.05-3.36 12.35-5.54s8.75-4.6 13.35-7.27c4.6-2.66 9.45-5.09 14.53-7.27s10.38-4.02 15.89-5.54c5.51-1.51 11.29-2.27 17.35-2.27 9.69 0 17.71 1.94 24.07 5.81 6.36 3.88 11.38 8.63 15.08 14.26 3.69 5.63 6.29 11.57 7.81 17.8 1.51 6.24 2.27 11.78 2.27 16.62h-45.41zm-101.53-127.15c0 4.24 1.51 7.87 4.54 10.9s6.66 4.54 10.9 4.54 7.87-1.51 10.9-4.54 4.54-6.66 4.54-10.9-1.45-7.87-4.36-10.9-6.48-4.54-10.72-4.54c-2.18 0-4.21.39-6.08 1.18-1.88.79-3.54 1.88-5 3.27-1.45 1.39-2.61 3.03-3.45 4.9-.85 1.88-1.27 3.91-1.27 6.08z" stroke="none"/><path d="m254.07 114.2-6.36-81.74h40.51l-6.72 81.74z" fill="none" stroke="#000" stroke-miterlimit="10" stroke-width="5"/></g></svg>