<svg height="66.150002" viewBox="0 0 96.23 66.15" width="96.230003" xmlns="http://www.w3.org/2000/svg"><path d="m39.16 22.74c-2.23 2.77-3.61 6.4-3.98 10.33h25.86c-.37-3.93-1.75-7.56-3.98-10.33-5.03-6.27-12.86-6.28-17.9 0z"/><path d="m33.57 26.66c.79-2.14 1.88-4.1 3.25-5.8 2.71-3.38 6.16-5.29 9.7-5.73-.72-7.68-5.63-15.13-12.94-15.13s-12.25 7.53-12.94 15.22c5.75.7 10.59 5.16 12.93 11.44z"/><path d="m59.41 20.86c1.36 1.7 2.45 3.66 3.25 5.8 2.34-6.29 7.18-10.75 12.93-11.45-.72-7.65-5.62-15.14-12.94-15.14s-12.19 7.44-12.93 15.05c3.54.45 6.98 2.36 9.69 5.73z"/><path d="m68.25 22.8c-2.22 2.75-3.61 6.36-3.99 10.27h25.85c-.38-3.91-1.77-7.52-3.99-10.27-5.03-6.23-12.83-6.24-17.86 0z"/><path d="m0 36.08h96.23v4.51h-96.23z"/><path d="m27.98 22.8c-5.03-6.23-12.83-6.24-17.86 0-2.22 2.75-3.61 6.36-3.99 10.27h25.85c-.38-3.91-1.77-7.52-3.99-10.27z"/><path d="m10.21 66.15h15.66l3.27-13.88c.16-.68.77-1.16 1.46-1.16h4.95c.7 0 1.3.48 1.46 1.16l3.27 13.88h15.66l3.27-13.88c.16-.68.77-1.16 1.46-1.16h4.95c.7 0 1.3.48 1.46 1.16l3.27 13.88h15.66l5.3-22.56h-86.4l5.31 22.56z"/></svg>