<svg xmlns="http://www.w3.org/2000/svg" version="1.1" viewBox="-5.0 -10.0 110.0 135.0">
 <g>
  <path d="m41.047 39.668c-2.2266 2.7734-3.6133 6.3984-3.9805 10.332h25.863c-0.36719-3.9336-1.7539-7.5586-3.9805-10.332-5.0312-6.2695-12.859-6.2773-17.902 0z"/>
  <path d="m35.457 43.586c0.79297-2.1367 1.8828-4.1016 3.2461-5.8008 2.7148-3.3828 6.1602-5.293 9.7031-5.7305-0.72266-7.6758-5.6328-15.129-12.938-15.129-7.3477 0-12.254 7.5312-12.945 15.215 5.7461 0.69922 10.59 5.1602 12.934 11.445z"/>
  <path d="m61.297 37.785c1.3633 1.6992 2.4531 3.6641 3.2461 5.8008 2.3438-6.2852 7.1836-10.746 12.93-11.449-0.71484-7.6523-5.6133-15.137-12.938-15.137-7.3047 0-12.188 7.4375-12.93 15.051 3.5352 0.44531 6.9766 2.3555 9.6914 5.7344z"/>
  <path d="m70.137 39.727c-2.2227 2.7539-3.6133 6.3594-3.9922 10.273h25.848c-0.37891-3.9141-1.7695-7.5195-3.9922-10.273-5.0273-6.2344-12.828-6.2422-17.863 0z"/>
  <path d="m1.8867 53.008h96.227v4.5117h-96.227z"/>
  <path d="m29.863 39.727c-5.0273-6.2344-12.828-6.2422-17.863 0-2.2227 2.7539-3.6133 6.3594-3.9922 10.273h25.848c-0.37891-3.9141-1.7695-7.5195-3.9922-10.273z"/>
  <path d="m12.098 83.078h15.66l3.2656-13.875c0.16016-0.67969 0.76562-1.1602 1.4648-1.1602h4.9531c0.69922 0 1.3047 0.48047 1.4648 1.1602l3.2656 13.875h15.66l3.2656-13.875c0.16016-0.67969 0.76562-1.1602 1.4648-1.1602h4.9531c0.69922 0 1.3047 0.48047 1.4648 1.1602l3.2656 13.875h15.66l5.3047-22.555h-86.418z"/>
 </g>
<text x="0.0" y="117.5" font-size="5.0" font-weight="bold" font-family="Arbeit Regular, Helvetica, Arial-Unicode, Arial, Sans-serif" fill="#000000">Created by Icogenix</text><text x="0.0" y="122.5" font-size="5.0" font-weight="bold" font-family="Arbeit Regular, Helvetica, Arial-Unicode, Arial, Sans-serif" fill="#000000">from Noun Project</text></svg>