<svg xmlns="http://www.w3.org/2000/svg" version="1.1" viewBox="-5.0 -10.0 110.0 135.0">
 <path d="m48.469 44.156c-0.79688 0-1.5469-0.0625-2.2656-0.1875-0.34375-0.046875-0.6875-0.125-1.0156-0.23438-5.1094-1.2656-7.8906-5.4219-9.0781-8.3125-1.9062-4.6719-5.7344-14.938-20.641-15.625 0 0-10.812 21 1.5156 36.828 0 0 3.5-4.5 8.6719-4.6094 0.82812 17.094 12.203 22.531 18.047 24.844 6.3125 2.5 7.3125 7.2656 11.906 7.2656 7.4688 0 4.1719-4.5156 18.344-11.438 14.156-6.8906 15.828-16.531 15.828-22.016s-3.5625-11.312-6.1875-14.531c-2.4531-3.0156-3.7812-6.5312-3.9375-6.9531 1.4531 1.6406 4.2969 1.8125 5.6562-0.65625 1.7812-3.2188-3.9688-5.7031-3.9688-5.7031l8.4375-3.0312-8.9375-2.3438s-1.6094-5.75-8.7188-4.6875c-8.0625 1.2188-9.8594 10.266-10.078 19.781-0.03125 1.3438-0.25 2.5781-0.64062 3.6875-0.078125 0.26562-0.17188 0.51562-0.28125 0.75-2 4.7031-7 7.1719-12.656 7.1719zm26.406-26.891c0.85938 0 1.6094 0.70312 1.6094 1.5625s-0.65625 1.5625-1.5312 1.5625h-0.078125c-0.85938 0-1.5625-0.70312-1.5625-1.5625s0.70312-1.5625 1.5625-1.5625zm-4.9531 36.703c0-5.25-3.6406-7.2812-3.7969-7.3594-0.75-0.42188-1.0312-1.3594-0.64062-2.1094 0.40625-0.76562 1.3438-1.0625 2.1094-0.65625 0.21875 0.10938 5.4531 2.9219 5.4531 10.125 0 7.5-4.6562 15.5-17.703 15.5-12.938 0-19.453-10.109-19.766-16.938-0.046875-0.85938 0.625-1.5938 1.4844-1.6406 0.84375-0.015625 1.5938 0.625 1.625 1.4844 0.21875 4.375 4.6875 13.969 16.656 13.969 13.531 0 14.578-9.4688 14.578-12.375z"/>
 <path d="m63.641 14.203c1.8438-2.2812 4.4062-3.9844 8.0156-4.5312 0.73438-0.10938 1.4688-0.15625 2.1562-0.15625 3.9219 0 6.5625 1.7656 8.1719 3.6875 0.875-1.0625 1.8594-2.7969 1.2969-4.8438-0.95312-3.3906-4.7656-2.4062-4.7656-2.4062s-0.78125-4.0469-5.1094-4.0469c-3.7188 0-4.5938 3.9375-4.5938 3.9375s-4.4375-2.5625-7.2812 1.1406c-1.9219 2.5312-0.64062 6.3594 2.1094 7.2188z"/>
 <path d="m65.73 84.121c2.418-0.26562 4.8516-4.0352 6.7852-7.6328-4.8672 2.7188-6.9531 4.9336-8.5352 6.6328-0.30078 0.33203-0.61719 0.64844-0.91797 0.94922 0.80078 0.13281 1.6836 0.14844 2.668 0.050782z"/>
 <path d="m55.609 87.25c-0.23438 0-0.46875-0.015625-0.6875-0.015625v6.5156h-5.9648c-0.86328 0-1.5625 0.69922-1.5625 1.5625s0.69922 1.5625 1.5625 1.5625h26c0.86328 0 1.5625-0.69922 1.5625-1.5625s-0.69922-1.5625-1.5625-1.5625h-8.0234v-6.6719c-0.28125 0.0625-0.5625 0.125-0.85938 0.15625-0.5625 0.046875-1.0781 0.078125-1.5625 0.078125-0.23438 0-0.46875 0-0.70312-0.03125v6.4688h-5.7656v-6.6719c-0.71875 0.10938-1.5312 0.17188-2.4375 0.17188z"/>
<text x="0.0" y="117.5" font-size="5.0" font-weight="bold" font-family="Arbeit Regular, Helvetica, Arial-Unicode, Arial, Sans-serif" fill="#000000">Created by blue</text><text x="0.0" y="122.5" font-size="5.0" font-weight="bold" font-family="Arbeit Regular, Helvetica, Arial-Unicode, Arial, Sans-serif" fill="#000000">from Noun Project</text></svg>