<svg viewBox="0 0 78.7 94.97" xmlns="http://www.w3.org/2000/svg"><path d="m37.39 42.25c-.8 0-1.55-.06-2.27-.19-.34-.05-.69-.12-1.02-.23-5.11-1.27-7.89-5.42-9.08-8.31-1.91-4.67-5.73-14.94-20.64-15.62 0 0-10.81 21 1.52 36.83 0 0 3.5-4.5 8.67-4.61.83 17.09 12.2 22.53 18.05 24.84 6.31 2.5 7.31 7.27 11.91 7.27 7.47 0 4.17-4.52 18.34-11.44 14.16-6.89 15.83-16.53 15.83-22.02s-3.56-11.31-6.19-14.53c-2.45-3.02-3.78-6.53-3.94-6.95 1.45 1.64 4.3 1.81 5.66-.66 1.78-3.22-3.97-5.7-3.97-5.7l8.44-3.03-8.94-2.34s-1.61-5.75-8.72-4.69c-8.06 1.22-9.86 10.27-10.08 19.78-.03 1.34-.25 2.58-.64 3.69-.08.27-.17.52-.28.75-2 4.7-7 7.17-12.66 7.17zm26.4-26.89c.86 0 1.61.7 1.61 1.56s-.66 1.56-1.53 1.56h-.08c-.86 0-1.56-.7-1.56-1.56s.7-1.56 1.56-1.56zm-4.95 36.7c0-5.25-3.64-7.28-3.8-7.36-.75-.42-1.03-1.36-.64-2.11.41-.77 1.34-1.06 2.11-.66.22.11 5.45 2.92 5.45 10.12s-4.66 15.5-17.7 15.5-19.45-10.11-19.77-16.94c-.05-.86.62-1.59 1.48-1.64.84-.02 1.59.62 1.62 1.48.22 4.38 4.69 13.97 16.66 13.97 13.53 0 14.58-9.47 14.58-12.38z"/><path d="m52.56 12.3c1.84-2.28 4.41-3.98 8.02-4.53.73-.11 1.47-.16 2.16-.16 3.92 0 6.56 1.77 8.17 3.69.88-1.06 1.86-2.8 1.3-4.84-.95-3.39-4.77-2.41-4.77-2.41s-.78-4.05-5.11-4.05c-3.72 0-4.59 3.94-4.59 3.94s-4.44-2.56-7.28 1.14c-1.92 2.53-.64 6.36 2.11 7.22z"/><path d="m54.65 82.21c2.42-.27 4.85-4.04 6.79-7.63-4.87 2.72-6.95 4.93-8.54 6.63-.3.33-.62.65-.92.95.8.13 1.68.15 2.67.05z"/><path d="m44.53 85.34c-.23 0-.47-.02-.69-.02v6.52h-5.96c-.86 0-1.56.7-1.56 1.56s.7 1.56 1.56 1.56h26c.86 0 1.56-.7 1.56-1.56s-.7-1.56-1.56-1.56h-8.02v-6.67c-.28.06-.56.12-.86.16-.56.05-1.08.08-1.56.08-.23 0-.47 0-.7-.03v6.47h-5.77v-6.67c-.72.11-1.53.17-2.44.17z"/></svg>