<svg height="200.72" viewBox="0 0 206.16001 200.72" width="206.16" xmlns="http://www.w3.org/2000/svg"><path d="m92.48 149.32c0 9.2-1.48 17.07-4.45 23.61s-6.78 11.87-11.44 15.98c-4.66 4.12-9.9 7.12-15.71 8.99s-11.57 2.82-17.26 2.82c-8.24 0-15.14-1.12-20.71-3.36s-10.05-5.05-13.44-8.45c-3.39-3.39-5.81-7.14-7.27-11.26-1.45-4.12-2.18-7.99-2.18-11.62 0-4.36.85-8.38 2.54-12.08 1.69-3.69 4-6.84 6.9-9.45 2.91-2.6 6.24-4.66 9.99-6.18 3.75-1.51 7.63-2.27 11.62-2.27 2.3 0 5.09.3 8.36.91s5.81 1.7 7.63 3.27v-83.01c-1.82 1.7-4.36 3-7.63 3.91s-6.06 1.36-8.36 1.36c-4.72 0-8.99-.79-12.81-2.36-3.81-1.57-7.08-3.72-9.81-6.45s-4.81-5.99-6.27-9.81-2.18-7.96-2.18-12.44c0-4.72.91-9.02 2.72-12.9 1.82-3.87 4.24-7.17 7.27-9.9 3.03-2.72 6.54-4.84 10.54-6.36 4-1.51 8.23-2.27 12.71-2.27 3.27 0 6.72.33 10.35 1s7.14 2 10.54 4c3.39 2 6.54 4.75 9.45 8.26s5.27 8.17 7.08 13.99c2.42-3.75 5.54-7.29 9.35-10.63 3.81-3.33 8.2-6.2 13.17-8.63 4.96-2.42 10.44-4.36 16.44-5.81s12.38-2.18 19.16-2.18c9.69 0 19.16 1.09 28.43 3.27s17.53 5.63 24.79 10.35 13.11 10.81 17.53 18.25c4.42 7.45 6.63 16.44 6.63 26.97v138.96h-45.41v-138.96c0-5.33-.94-9.99-2.82-13.99s-4.3-7.29-7.27-9.9c-2.97-2.6-6.36-4.54-10.17-5.81s-7.72-1.91-11.72-1.91-7.93.54-12.17 1.63-8.15 2.88-11.72 5.36-6.54 5.75-8.9 9.81-3.54 8.99-3.54 14.8v90.46zm-76.11-118.06c0 2.06.39 4 1.18 5.81.79 1.82 1.88 3.39 3.27 4.72s3 2.39 4.81 3.18c1.82.79 3.81 1.18 5.99 1.18s4.21-.39 6.08-1.18c1.88-.79 3.51-1.84 4.9-3.18 1.39-1.33 2.48-2.91 3.27-4.72.79-1.82 1.18-3.75 1.18-5.81s-.39-4-1.18-5.81c-.79-1.82-1.88-3.39-3.27-4.72s-3.03-2.39-4.9-3.18c-1.88-.79-3.91-1.18-6.08-1.18s-4.18.39-5.99 1.18c-1.82.79-3.42 1.85-4.81 3.18s-2.48 2.91-3.27 4.72c-.79 1.82-1.18 3.75-1.18 5.81zm0 136.23c0 1.94.39 3.81 1.18 5.63s1.88 3.42 3.27 4.81 3 2.51 4.81 3.36c1.82.85 3.81 1.27 5.99 1.27s4.21-.42 6.08-1.27c1.88-.85 3.51-1.97 4.9-3.36s2.48-3 3.27-4.81c.79-1.82 1.18-3.69 1.18-5.63s-.39-3.81-1.18-5.63-1.88-3.42-3.27-4.81-3.03-2.51-4.9-3.36c-1.88-.85-3.91-1.27-6.08-1.27s-4.18.43-5.99 1.27c-1.82.85-3.42 1.97-4.81 3.36s-2.48 3-3.27 4.81c-.79 1.82-1.18 3.7-1.18 5.63z"/></svg>