<svg height="356.91516" viewBox="0 0 385.99355 356.91515" width="385.99356" xmlns="http://www.w3.org/2000/svg"><path d="m271.07356 303.00517c0 9.2-1.48 17.07-4.45 23.61s-6.78 11.87-11.44 15.98c-4.66 4.12-9.9 7.12-15.71 8.99s-11.57 2.82-17.26 2.82c-8.24 0-15.14-1.12-20.71-3.36s-10.05-5.05-13.44-8.45c-3.39-3.39-5.81-7.14-7.27-11.26-1.45-4.12-2.18-7.99-2.18-11.62 0-4.36.85-8.38 2.54-12.08 1.69-3.69 4-6.84 6.9-9.45 2.91-2.6 6.24-4.66 9.99-6.18 3.75-1.51 7.63-2.27 11.62-2.27 2.3 0 5.09.3 8.36.91s5.81 1.7 7.63 3.27v-83.01c-1.82 1.7-4.36 3-7.63 3.91s-6.06 1.36-8.36 1.36c-4.72 0-8.99-.79-12.81-2.36-3.81-1.57-7.08-3.72-9.81-6.45s-4.81-5.99-6.27-9.81-2.18-7.96-2.18-12.44c0-4.72.91-9.02 2.72-12.9 1.82-3.87 4.24-7.17 7.27-9.9 3.03-2.72 6.54-4.84 10.54-6.36 4-1.51 8.23-2.27 12.71-2.27 3.27 0 6.72.33 10.35 1s7.14 2 10.54 4c3.39 2 6.54 4.75 9.45 8.26s5.27 8.17 7.08 13.99c2.42-3.75 5.54-7.29 9.35-10.63 3.81-3.33 8.2-6.2 13.17-8.63 4.96-2.42 10.44-4.36 16.44-5.81s12.38-2.18 19.16-2.18c9.69 0 19.16 1.09 28.43 3.27s17.53 5.63 24.79 10.35 13.11 10.81 17.53 18.25c4.42 7.45 6.63 16.44 6.63 26.97v138.96h-45.41v-138.96c0-5.33-.94-9.99-2.82-13.99s-4.3-7.29-7.27-9.9c-2.97-2.6-6.36-4.54-10.17-5.81s-7.72-1.91-11.72-1.91-7.93.54-12.17 1.63-8.15 2.88-11.72 5.36-6.54 5.75-8.9 9.81-3.54 8.99-3.54 14.8v90.46zm-76.1-118.06c0 2.06.39 4 1.18 5.81.79 1.82 1.88 3.39 3.27 4.72s3 2.39 4.81 3.18c1.82.79 3.81 1.18 5.99 1.18s4.21-.39 6.08-1.18c1.88-.79 3.51-1.84 4.9-3.18 1.39-1.33 2.48-2.91 3.27-4.72.79-1.82 1.18-3.75 1.18-5.81s-.39-4-1.18-5.81c-.79-1.82-1.88-3.39-3.27-4.72s-3.03-2.39-4.9-3.18c-1.88-.79-3.91-1.18-6.08-1.18s-4.18.39-5.99 1.18c-1.82.79-3.42 1.85-4.81 3.18s-2.48 2.91-3.27 4.72c-.79 1.82-1.18 3.75-1.18 5.81zm0 136.23c0 1.94.39 3.81 1.18 5.63s1.88 3.42 3.27 4.81 3 2.51 4.81 3.36c1.82.85 3.81 1.27 5.99 1.27s4.21-.42 6.08-1.27c1.88-.85 3.51-1.97 4.9-3.36s2.48-3 3.27-4.81c.79-1.82 1.18-3.69 1.18-5.63s-.39-3.81-1.18-5.63-1.88-3.42-3.27-4.81-3.03-2.51-4.9-3.36c-1.88-.85-3.91-1.27-6.08-1.27s-4.18.43-5.99 1.27c-1.82.85-3.42 1.97-4.81 3.36s-2.48 3-3.27 4.81c-.79 1.82-1.18 3.7-1.18 5.63z"/><g fill="none" stroke="#000" stroke-miterlimit="10" stroke-width="5" transform="translate(1.213562 2.985174)"><path d="m81.33 286.04c0 1.7.12 3.66.36 5.9s.64 4.48 1.18 6.72 1.3 4.33 2.27 6.27 2.12 3.51 3.45 4.72c1.57-4.24 3.54-7.63 5.9-10.17s4.87-4.48 7.54-5.81c2.66-1.33 5.36-2.21 8.08-2.63s5.18-.64 7.36-.64c4.6 0 8.75.76 12.44 2.27 3.69 1.52 6.84 3.57 9.45 6.18 2.6 2.61 4.6 5.63 5.99 9.08s2.09 7.17 2.09 11.17c0 9.69-3.42 17.5-10.26 23.43s-17.59 8.9-32.24 8.9c-6.9 0-14.14-1.39-21.71-4.18-7.57-2.78-14.5-6.93-20.8-12.44s-11.51-12.32-15.62-20.43c-4.12-8.11-6.18-17.5-6.18-28.15v-95.36c0-2.54.42-6.11 1.27-10.72.85-4.6 2.66-9.47 5.45-14.62 2.78-5.15 6.87-10.14 12.26-14.99 5.39-4.84 12.62-8.72 21.71-11.62-2.42-3.87-5.15-6.63-8.17-8.26-3.03-1.63-5.39-2.45-7.08-2.45-1.94 0-4.06.33-6.36 1s-4.6 1.63-6.9 2.91c-2.3 1.27-4.51 2.91-6.63 4.9-2.12 2-3.97 4.33-5.54 6.99 0-10.29-.3-20.13-.91-29.52-.61-9.38-1.88-18.1-3.81-26.16-1.94-8.05-4.75-15.29-8.45-21.71-3.69-6.42-8.69-11.93-14.99-16.53l-9.99-47.6c11.26 7.51 20.77 15.26 28.52 23.25s14.14 16.41 19.16 25.25 8.96 18.1 11.81 27.79c2.84 9.69 5.05 19.92 6.63 30.7 1.45-1.45 4.18-2.93 8.17-4.45 4-1.51 8.6-2.27 13.8-2.27 2.42 0 5.02.64 7.81 1.91 2.78 1.27 5.57 3.24 8.36 5.9 2.78 2.67 5.45 5.99 7.99 9.99s4.84 8.72 6.9 14.17c-7.27 3.15-13.44 6.3-18.53 9.45s-9.24 6.66-12.44 10.54c-3.21 3.88-5.57 8.3-7.08 13.26-1.52 4.97-2.27 10.78-2.27 17.44v100.63zm49.77 34.87c0-3.87-1.48-7.2-4.45-9.99-2.97-2.78-6.57-4.18-10.81-4.18s-7.87 1.39-10.9 4.18-4.54 6.12-4.54 9.99 1.51 7.21 4.54 9.99c3.03 2.79 6.66 4.18 10.9 4.18s7.84-1.39 10.81-4.18c2.97-2.78 4.45-6.11 4.45-9.99z"/><path d="m268.6 300.02c0 9.2-1.48 17.07-4.45 23.61s-6.78 11.87-11.44 15.98c-4.66 4.12-9.9 7.12-15.71 8.99s-11.57 2.82-17.26 2.82c-8.24 0-15.14-1.12-20.71-3.36s-10.05-5.05-13.44-8.45c-3.39-3.39-5.81-7.14-7.27-11.26-1.45-4.12-2.18-7.99-2.18-11.62 0-4.36.85-8.38 2.54-12.08 1.69-3.69 4-6.84 6.9-9.45 2.91-2.6 6.24-4.66 9.99-6.18 3.75-1.51 7.63-2.27 11.62-2.27 2.3 0 5.09.3 8.36.91s5.81 1.7 7.63 3.27v-83.01c-1.82 1.7-4.36 3-7.63 3.91s-6.06 1.36-8.36 1.36c-4.72 0-8.99-.79-12.81-2.36-3.81-1.57-7.08-3.72-9.81-6.45s-4.81-5.99-6.27-9.81-2.18-7.96-2.18-12.44c0-4.72.91-9.02 2.72-12.9 1.82-3.87 4.24-7.17 7.27-9.9 3.03-2.72 6.54-4.84 10.54-6.36 4-1.51 8.23-2.27 12.71-2.27 3.27 0 6.72.33 10.35 1s7.14 2 10.54 4c3.39 2 6.54 4.75 9.45 8.26s5.27 8.17 7.08 13.99c2.42-3.75 5.54-7.29 9.35-10.63 3.81-3.33 8.2-6.2 13.17-8.63 4.96-2.42 10.44-4.36 16.44-5.81s12.38-2.18 19.16-2.18c9.69 0 19.16 1.09 28.43 3.27s17.53 5.63 24.79 10.35 13.11 10.81 17.53 18.25c4.42 7.45 6.63 16.44 6.63 26.97v138.96h-45.41v-138.96c0-5.33-.94-9.99-2.82-13.99s-4.3-7.29-7.27-9.9c-2.97-2.6-6.36-4.54-10.17-5.81s-7.72-1.91-11.72-1.91-7.93.54-12.17 1.63-8.15 2.88-11.72 5.36-6.54 5.75-8.9 9.81-3.54 8.99-3.54 14.8v90.46zm-76.11-118.06c0 2.06.39 4 1.18 5.81.79 1.82 1.88 3.39 3.27 4.72s3 2.39 4.81 3.18c1.82.79 3.81 1.18 5.99 1.18s4.21-.39 6.08-1.18c1.88-.79 3.51-1.84 4.9-3.18 1.39-1.33 2.48-2.91 3.27-4.72.79-1.82 1.18-3.75 1.18-5.81s-.39-4-1.18-5.81c-.79-1.82-1.88-3.39-3.27-4.72s-3.03-2.39-4.9-3.18c-1.88-.79-3.91-1.18-6.08-1.18s-4.18.39-5.99 1.18c-1.82.79-3.42 1.85-4.81 3.18s-2.48 2.91-3.27 4.72c-.79 1.82-1.18 3.75-1.18 5.81zm0 136.23c0 1.94.39 3.81 1.18 5.63s1.88 3.42 3.27 4.81 3 2.51 4.81 3.36c1.82.85 3.81 1.27 5.99 1.27s4.21-.42 6.08-1.27c1.88-.85 3.51-1.97 4.9-3.36s2.48-3 3.27-4.81c.79-1.82 1.18-3.69 1.18-5.63s-.39-3.81-1.18-5.63-1.88-3.42-3.27-4.81-3.03-2.51-4.9-3.36c-1.88-.85-3.91-1.27-6.08-1.27s-4.18.43-5.99 1.27c-1.82.85-3.42 1.97-4.81 3.36s-2.48 3-3.27 4.81c-.79 1.82-1.18 3.7-1.18 5.63z"/><path d="m264.24 114.2-6.36-81.74h40.51l-6.72 81.74z"/></g></svg>