<svg height="377.18198" viewBox="0 0 841.03999 377.18197" width="841.03998" xmlns="http://www.w3.org/2000/svg"><g fill="none" stroke="#000" stroke-miterlimit="10" stroke-width="5" transform="translate(-12.71 -64.068034)"><path d="m318.5 256.56c9.93 0 17.98-1.06 24.16-3.18s10.99-4.78 14.44-7.99 5.78-6.69 6.99-10.44 1.82-7.27 1.82-10.54c0-2.3-.21-4.27-.64-5.9s-1.03-3.18-1.82-4.63-1.79-2.91-3-4.36-2.61-3.03-4.18-4.72l29.24-21.07c1.94 1.82 3.96 3.97 6.08 6.45s4.09 5.3 5.9 8.45c1.82 3.15 3.3 6.63 4.45 10.44s1.73 8.02 1.73 12.62c0 8.24-2.39 15.71-7.17 22.43-4.79 6.72-11.11 12.47-18.98 17.26s-16.92 8.51-27.16 11.17c-10.23 2.67-20.86 4-31.88 4-10.17 0-20.13-1.06-29.88-3.18s-18.5-5.39-26.25-9.81-13.99-10.05-18.71-16.89-7.08-14.99-7.08-24.43c0-5.33.97-10.2 2.91-14.62s4.6-8.2 7.99-11.35 7.38-5.57 11.99-7.27c4.6-1.69 9.56-2.54 14.89-2.54s10.2.85 14.62 2.54c4.42 1.7 8.2 3.97 11.35 6.81 3.15 2.85 5.57 6.15 7.27 9.9 1.69 3.75 2.54 7.75 2.54 11.99 0 9.2-2.27 16.56-6.81 22.07s-10.75 9.11-18.62 10.81c4.84 1.7 10.08 3.12 15.71 4.27s11.65 1.73 18.07 1.73zm0 102.08c9.93 0 17.98-1.06 24.16-3.18s10.99-4.78 14.44-7.99 5.78-6.69 6.99-10.44 1.82-7.27 1.82-10.54c0-2.3-.21-4.27-.64-5.9s-1.03-3.18-1.82-4.63-1.79-2.91-3-4.36-2.61-3.03-4.18-4.72l29.24-21.07c1.94 1.82 3.96 3.97 6.08 6.45s4.09 5.3 5.9 8.45c1.82 3.15 3.3 6.63 4.45 10.44s1.73 8.02 1.73 12.62c0 8.24-2.39 15.71-7.17 22.43-4.79 6.72-11.11 12.47-18.98 17.26s-16.92 8.51-27.16 11.17c-10.23 2.67-20.86 4-31.88 4-10.17 0-20.13-1.06-29.88-3.18s-18.5-5.39-26.25-9.81-13.99-10.05-18.71-16.89-7.08-14.99-7.08-24.43c0-5.33.97-10.2 2.91-14.62s4.6-8.2 7.99-11.35 7.38-5.57 11.99-7.27c4.6-1.69 9.56-2.54 14.89-2.54s10.2.85 14.62 2.54c4.42 1.7 8.2 3.97 11.35 6.81 3.15 2.85 5.57 6.15 7.27 9.9 1.69 3.75 2.54 7.75 2.54 11.99 0 9.2-2.27 16.56-6.81 22.07s-10.75 9.11-18.62 10.81c4.84 1.7 10.08 3.12 15.71 4.27s11.65 1.73 18.07 1.73zm-60.12-138.41c0 4.24 1.51 7.87 4.54 10.9s6.66 4.54 10.9 4.54 7.87-1.51 10.9-4.54 4.54-6.66 4.54-10.9-1.52-7.87-4.54-10.9c-3.03-3.03-6.66-4.54-10.9-4.54s-7.87 1.52-10.9 4.54-4.54 6.66-4.54 10.9zm0 102.08c0 4.24 1.51 7.87 4.54 10.9s6.66 4.54 10.9 4.54 7.87-1.51 10.9-4.54 4.54-6.66 4.54-10.9-1.52-7.87-4.54-10.9c-3.03-3.03-6.66-4.54-10.9-4.54s-7.87 1.52-10.9 4.54-4.54 6.66-4.54 10.9z"/><path d="m517.94 246.57c5.21 0 9.75.88 13.62 2.63 3.87 1.76 7.08 4.06 9.63 6.9 2.54 2.85 4.42 6.06 5.63 9.63s1.82 7.17 1.82 10.81-.64 7.42-1.91 10.99-3.21 6.78-5.81 9.63c-2.61 2.85-5.9 5.12-9.9 6.81-4 1.7-8.78 2.54-14.35 2.54-12.23 0-23.25-1.82-33.06-5.45-.73 4-1.09 7.87-1.09 11.62 0 2.18.15 4.66.45 7.45s.75 5.57 1.36 8.36c.6 2.79 1.36 5.42 2.27 7.9s1.97 4.51 3.18 6.08c1.94-3.87 4.12-7.05 6.54-9.54 2.42-2.48 4.93-4.45 7.54-5.9 2.6-1.45 5.18-2.45 7.72-3s4.9-.82 7.08-.82c4.6 0 8.75.76 12.44 2.27 3.69 1.52 6.84 3.57 9.45 6.18 2.6 2.61 4.6 5.63 5.99 9.08s2.09 7.17 2.09 11.17c0 9.69-3.42 17.5-10.26 23.43s-17.59 8.9-32.24 8.9c-6.9 0-14.14-1.39-21.71-4.18-7.57-2.78-14.5-6.93-20.8-12.44s-11.51-12.32-15.62-20.43c-4.12-8.11-6.18-17.5-6.18-28.15 0-7.51 1-14.5 3-20.98s4.81-12.44 8.45-17.89c-3.63-4.72-6.45-9.9-8.45-15.53s-3-11.65-3-18.07c0-11.62 2.66-21.46 7.99-29.52 5.33-8.05 12.44-14.56 21.34-19.53 8.9-4.96 19.13-8.54 30.7-10.72 11.56-2.18 23.64-3.27 36.24-3.27 13.44 0 25.97 1.58 37.6 4.72 11.62 3.15 21.71 7.99 30.24 14.53s15.26 14.8 20.16 24.79 7.36 21.77 7.36 35.33v118.43h-45.41v-118.43c0-7.51-1.21-14.44-3.63-20.8s-5.88-11.87-10.35-16.53c-4.48-4.66-9.9-8.29-16.26-10.9-6.36-2.6-13.53-3.91-21.52-3.91-7.15 0-13.96.82-20.43 2.45-6.48 1.63-12.17 4.24-17.07 7.81s-8.84 8.15-11.81 13.71c-2.97 5.57-4.45 12.29-4.45 20.16 5.45-2.66 11.17-4.72 17.17-6.18s12.08-2.18 18.25-2.18zm0 43.59c4 0 7.38-1.3 10.17-3.91 2.78-2.6 4.18-5.84 4.18-9.72s-1.24-7.27-3.72-9.81-6.03-3.81-10.63-3.81c-5.81 0-10.87 1.52-15.17 4.54-4.3 3.03-7.9 6.9-10.81 11.62 3.15 3.39 6.9 6.08 11.26 8.08s9.26 3 14.71 3zm14.35 63.58c0-3.87-1.48-7.2-4.45-9.99-2.97-2.78-6.57-4.18-10.81-4.18s-7.87 1.39-10.9 4.18-4.54 6.12-4.54 9.99 1.51 7.21 4.54 9.99c3.03 2.79 6.66 4.18 10.9 4.18s7.84-1.39 10.81-4.18c2.97-2.78 4.45-6.11 4.45-9.99z"/><path d="m528.84 140.13c9.93 0 17.98-1.06 24.16-3.18s10.99-4.78 14.44-7.99 5.78-6.69 6.99-10.44 1.82-7.27 1.82-10.54c0-2.3-.21-4.27-.64-5.9-.42-1.63-1.03-3.18-1.82-4.63s-1.79-2.91-3-4.36-2.6-3.03-4.18-4.72l29.24-21.07c1.94 1.82 3.97 3.97 6.08 6.45 2.12 2.48 4.09 5.3 5.9 8.45 1.82 3.15 3.3 6.63 4.45 10.44s1.73 8.02 1.73 12.62c0 8.24-2.39 15.71-7.17 22.43s-11.11 12.47-18.98 17.26-16.92 8.51-27.16 11.17c-10.23 2.67-20.86 4-31.88 4-10.17 0-20.13-1.06-29.88-3.18s-18.5-5.39-26.25-9.81-13.99-10.05-18.71-16.89-7.08-14.99-7.08-24.43c0-5.33.97-10.2 2.91-14.62s4.6-8.2 7.99-11.35 7.39-5.57 11.99-7.27c4.6-1.69 9.57-2.54 14.89-2.54s10.2.85 14.62 2.54c4.42 1.7 8.21 3.97 11.35 6.81 3.15 2.85 5.57 6.15 7.27 9.9s2.54 7.75 2.54 11.99c0 9.2-2.27 16.56-6.81 22.07s-10.75 9.11-18.62 10.81c4.84 1.7 10.08 3.12 15.71 4.27s11.66 1.73 18.07 1.73zm-60.12-36.33c0 4.24 1.52 7.87 4.54 10.9s6.66 4.54 10.9 4.54 7.87-1.51 10.9-4.54 4.54-6.66 4.54-10.9-1.51-7.87-4.54-10.9-6.66-4.54-10.9-4.54-7.87 1.52-10.9 4.54c-3.03 3.03-4.54 6.66-4.54 10.9z"/><path d="m851.25 357.01c0 10.42-1.7 20.53-5.09 30.33-3.39 9.81-8.66 18.53-15.8 26.16-7.15 7.63-16.29 13.74-27.43 18.35-11.14 4.6-24.52 6.9-40.14 6.9-9.33 0-18.38-.79-27.16-2.36-8.78-1.58-17.01-4-24.7-7.27s-14.59-7.42-20.71-12.44c-6.12-5.03-11.17-10.99-15.17-17.89l43.23-25.25c5.09 11.87 11.41 21.16 18.98 27.88s16.5 10.08 26.79 10.08c6.54 0 12.38-1.24 17.53-3.72s9.54-6.08 13.17-10.81 6.39-10.44 8.26-17.17c1.88-6.72 2.82-14.32 2.82-22.8v-96.81c0-15.86-4.12-28.06-12.35-36.6-8.24-8.54-20.83-12.81-37.78-12.81-5.33 0-10.99.79-16.98 2.36-5.99 1.58-11.57 4.27-16.71 8.08-5.15 3.81-9.42 8.87-12.81 15.17s-5.09 14.17-5.09 23.61c3.87-6.78 8.81-11.68 14.8-14.71s11.96-4.54 17.89-4.54c5.57 0 10.32.91 14.26 2.72 3.93 1.82 7.14 4.18 9.63 7.08 2.48 2.91 4.3 6.21 5.45 9.9 1.15 3.7 1.73 7.48 1.73 11.35 0 4.48-.85 8.69-2.54 12.62-1.7 3.94-4.3 7.39-7.81 10.35-3.51 2.97-7.93 5.3-13.26 6.99-5.33 1.7-11.62 2.54-18.89 2.54-6.18 0-12.44-1.06-18.8-3.18s-12.14-5.3-17.35-9.54-9.45-9.5-12.71-15.8c-3.27-6.29-4.9-13.62-4.9-21.98s1.24-16.1 3.72-22.89c2.48-6.78 5.84-12.77 10.08-17.98s9.2-9.66 14.89-13.35 11.78-6.75 18.25-9.17c6.48-2.42 13.14-4.18 19.98-5.27s13.59-1.63 20.25-1.63c11.38 0 22.61 1.24 33.69 3.72s20.98 6.93 29.7 13.35 15.74 15.17 21.07 26.25 7.99 25.28 7.99 42.59v87.55zm-130.6-84.47c0 4.24 1.51 7.87 4.54 10.9s6.66 4.54 10.9 4.54 7.87-1.51 10.9-4.54 4.54-6.66 4.54-10.9-1.45-7.87-4.36-10.9-6.48-4.54-10.72-4.54c-2.18 0-4.21.39-6.08 1.18-1.88.79-3.54 1.88-5 3.27-1.45 1.39-2.61 3.03-3.45 4.9-.85 1.88-1.27 3.91-1.27 6.08z"/></g><path d="m102.09 143.81197c-10.42 0-19.16.64-26.25 1.91s-12.81 2.88-17.17 4.81c-4.36 1.94-7.51 4.06-9.45 6.36s-2.91 4.42-2.91 6.36c0 3.63 2.15 6.57 6.45 8.81s9.96 4.18 16.98 5.81 15.01 3.18 23.98 4.63c8.96 1.45 18.1 3.21 27.43 5.27 9.32 2.06 18.46 4.6 27.43 7.63 8.96 3.03 16.95 6.99 23.98 11.9 7.02 4.9 12.68 10.93 16.98 18.07 4.3 7.15 6.45 15.8 6.45 25.97 0 8.24-1.48 15.56-4.45 21.98s-6.99 12.05-12.08 16.89-11.02 8.99-17.8 12.44-13.99 6.27-21.62 8.45-15.47 3.75-23.52 4.72-15.89 1.45-23.52 1.45c-5.81 0-12.17-.3-19.07-.91s-13.78-1.7-20.62-3.27-13.47-3.75-19.89-6.54c-6.42-2.78-12.11-6.29-17.07-10.54-4.97-4.24-8.93-9.32-11.9-15.26-2.97-5.93-4.45-12.9-4.45-20.89 0-7.38 1.6-13.86 4.81-19.44 3.21-5.57 7.48-10.26 12.81-14.08 5.33-3.81 11.44-6.69 18.35-8.63 6.9-1.94 14.11-2.91 21.62-2.91 5.93 0 11.29.85 16.08 2.54 4.78 1.7 8.84 4.03 12.17 6.99 3.33 2.97 5.9 6.42 7.72 10.35 1.82 3.94 2.72 8.15 2.72 12.62 0 3.88-.58 7.66-1.73 11.35-1.15 3.7-2.97 6.99-5.45 9.9s-5.69 5.27-9.63 7.08c-3.94 1.82-8.69 2.72-14.26 2.72-2.91 0-5.81-.27-8.72-.82s-5.72-1.54-8.45-3-5.39-3.42-7.99-5.9c-2.61-2.48-5.12-5.66-7.54-9.54.6 7.75 3.03 13.9 7.27 18.44s9.32 7.99 15.26 10.35c5.93 2.36 12.29 3.91 19.07 4.63 6.78.73 13.02 1.09 18.71 1.09 10.17 0 18.89-1.15 26.16-3.45s13.23-5.36 17.89-9.17 8.11-8.14 10.35-12.99c2.24-4.84 3.36-9.87 3.36-15.08 0-8.96-2.15-16.32-6.45-22.07s-9.99-10.41-17.07-13.99c-7.08-3.57-15.14-6.36-24.16-8.36s-18.23-3.78-27.61-5.36c-9.39-1.57-18.59-3.18-27.61-4.81s-17.07-3.93-24.16-6.9c-7.08-2.97-12.78-6.81-17.07-11.53-4.3-4.72-6.45-10.96-6.45-18.71 0-6.66 2.6-12.71 7.81-18.16s12.41-10.14 21.62-14.08c9.2-3.93 20.1-6.99 32.7-9.17 12.59-2.18 26.28-3.27 41.05-3.27 6.78 0 14.47.64 23.07 1.91s17.26 3.63 25.97 7.08 17.07 8.24 25.07 14.35c7.99 6.12 14.77 14.08 20.34 23.89l-23.25 23.43c-3.51-8.96-8.21-16.26-14.08-21.89-5.88-5.63-12.17-10.05-18.89-13.26s-13.56-5.39-20.53-6.54c-6.96-1.15-13.23-1.73-18.8-1.73zm-53.04 102.81c0 2.18.42 4.21 1.27 6.08.85 1.88 2 3.51 3.45 4.9s3.12 2.48 5 3.27 3.91 1.18 6.08 1.18c4.24 0 7.81-1.51 10.72-4.54s4.36-6.66 4.36-10.9-1.52-7.87-4.54-10.9c-3.03-3.03-6.66-4.54-10.9-4.54s-7.87 1.52-10.9 4.54-4.54 6.66-4.54 10.9z"/></svg>