<svg height="75.435677" viewBox="0 0 100.20548 75.435677" width="100.20548" xmlns="http://www.w3.org/2000/svg"><path d="m83.663816 30.435677c-3.6 1.9-9.2 2.4-15.8-.6-6.3-2.8-17-5.1-25-5-8.5 0-11.6.2-14.2-3s-5.6-3.5-7.8-3.5-7.1 1.9-7.7 2.9-.8 3.3-.8 3.3-5.1 3.7-5.5 4.6.7 3.4 1.8 4.6c1.2 1.3 3.4 2.2 5.6 2.5s5.3.4 5.3.4c-.2 4.2-1.3 16.9-1.3 16.9l-7.7 11.6s-10.00000001 5.1-10.40000001 5.7c-.3.6-.2 1.5.4 1.9.60000001.4 9.20000001-.9 10.50000001-1.7s10.5-10.8 12.3-14.1 4-9.9 4-9.9l7.3 7.1-2.9 15.5c-2.8.9-5 2.4-5.7 3.3s-.6 2.4-.6 2.4h9.6s7.7-18.7 7.6-20.5c-.1-1.7-3.1-5.9-3.1-5.9 5.3 0 14.2-2.3 18.4-4.2 0 0-6.7 9.4-7 10.5s-2.7 14-2.7 14-5.5 2.5-6.4 3.5c-1 1-1 2.7-1 2.7h11.4l7.4-18.5c2.3-1.9 7.6-7.8 7.6-7.8s2.6 8.6 3.5 9.5c.9 1 14.5 12.1 14.5 12.1-2.6.7-4.8 1.6-5.2 2.4s-.5 2.3-.5 2.3h10.8l2.3-5.6-14.4-14.8c1.5-5.9 1.6-11.5.9-17.2 0 0 7.7-1.2 14.8-8.1 7.200004-6.9 8.400004-16.9 2.4-24.2000004-6-7.2-18.4-6.39999997-26.8-3.1-6.8 2.7-12.6 7.9000004-13.9 9.9000004-1.7 2.5-.1 5.1 3.4 3.1 3.5-2.1 7.2-7.1000004 17.2-9.2000004 10.1-2.1 16.7.8 18.2 8.1000004 1.5 7.3-3.9 12.6-10.7 16.3z"/></svg>