<svg height="200.77" viewBox="0 0 197.63 200.77" width="197.63" xmlns="http://www.w3.org/2000/svg"><path d="m102.09 27.31c-10.42 0-19.16.64-26.25 1.91s-12.81 2.88-17.17 4.81c-4.36 1.94-7.51 4.06-9.45 6.36s-2.91 4.42-2.91 6.36c0 3.63 2.15 6.57 6.45 8.81s9.96 4.18 16.98 5.81 15.01 3.18 23.98 4.63c8.96 1.45 18.1 3.21 27.43 5.27 9.32 2.06 18.46 4.6 27.43 7.63 8.96 3.03 16.95 6.99 23.98 11.9 7.02 4.9 12.68 10.93 16.98 18.07 4.3 7.15 6.45 15.8 6.45 25.97 0 8.24-1.48 15.56-4.45 21.98s-6.99 12.05-12.08 16.89-11.02 8.99-17.8 12.44-13.99 6.27-21.62 8.45-15.47 3.75-23.52 4.72-15.89 1.45-23.52 1.45c-5.81 0-12.17-.3-19.07-.91s-13.78-1.7-20.62-3.27-13.47-3.75-19.89-6.54c-6.42-2.78-12.11-6.29-17.07-10.54-4.97-4.24-8.93-9.32-11.9-15.26-2.97-5.93-4.45-12.9-4.45-20.89 0-7.38 1.6-13.86 4.81-19.44 3.21-5.57 7.48-10.26 12.81-14.08 5.33-3.81 11.44-6.69 18.35-8.63 6.9-1.94 14.11-2.91 21.62-2.91 5.93 0 11.29.85 16.08 2.54 4.78 1.7 8.84 4.03 12.17 6.99 3.33 2.97 5.9 6.42 7.72 10.35 1.82 3.94 2.72 8.15 2.72 12.62 0 3.88-.58 7.66-1.73 11.35-1.15 3.7-2.97 6.99-5.45 9.9s-5.69 5.27-9.63 7.08c-3.94 1.82-8.69 2.72-14.26 2.72-2.91 0-5.81-.27-8.72-.82s-5.72-1.54-8.45-3-5.39-3.42-7.99-5.9c-2.61-2.48-5.12-5.66-7.54-9.54.6 7.75 3.03 13.9 7.27 18.44s9.32 7.99 15.26 10.35c5.93 2.36 12.29 3.91 19.07 4.63 6.78.73 13.02 1.09 18.71 1.09 10.17 0 18.89-1.15 26.16-3.45s13.23-5.36 17.89-9.17 8.11-8.14 10.35-12.99c2.24-4.84 3.36-9.87 3.36-15.08 0-8.96-2.15-16.32-6.45-22.07s-9.99-10.41-17.07-13.99c-7.08-3.57-15.14-6.36-24.16-8.36s-18.23-3.78-27.61-5.36c-9.39-1.57-18.59-3.18-27.61-4.81s-17.07-3.93-24.16-6.9c-7.08-2.97-12.78-6.81-17.07-11.53-4.3-4.72-6.45-10.96-6.45-18.71 0-6.66 2.6-12.71 7.81-18.16s12.41-10.14 21.62-14.08c9.2-3.93 20.1-6.99 32.7-9.17 12.59-2.18 26.28-3.27 41.05-3.27 6.78 0 14.47.64 23.07 1.91s17.26 3.63 25.97 7.08 17.07 8.24 25.07 14.35c7.99 6.12 14.77 14.08 20.34 23.89l-23.25 23.43c-3.51-8.96-8.21-16.26-14.08-21.89-5.88-5.63-12.17-10.05-18.89-13.26s-13.56-5.39-20.53-6.54c-6.96-1.15-13.23-1.73-18.8-1.73zm-53.04 102.81c0 2.18.42 4.21 1.27 6.08.85 1.88 2 3.51 3.45 4.9s3.12 2.48 5 3.27 3.91 1.18 6.08 1.18c4.24 0 7.81-1.51 10.72-4.54s4.36-6.66 4.36-10.9-1.52-7.87-4.54-10.9c-3.03-3.03-6.66-4.54-10.9-4.54s-7.87 1.52-10.9 4.54-4.54 6.66-4.54 10.9z"/></svg>