<svg height="200.74001" viewBox="0 0 200.91001 200.74001" width="200.91" xmlns="http://www.w3.org/2000/svg"><path d="m97.57 27.26c-4.84 0-9.96.7-15.35 2.09s-10.66 3.75-15.8 7.08c-5.15 3.33-9.99 7.72-14.53 13.17s-8.45 12.23-11.72 20.34l-40.14-20.89c5.57-9.81 12.38-17.86 20.43-24.16 8.05-6.29 16.62-11.29 25.7-14.99 9.08-3.69 18.22-6.27 27.43-7.72 9.2-1.45 17.68-2.18 25.43-2.18 13.68 0 26.67 1.91 38.96 5.72s23.1 9.45 32.42 16.89c9.32 7.45 16.74 16.65 22.25 27.61s8.26 23.58 8.26 37.87v51.4c0 9.93-1.48 18.71-4.45 26.34s-6.99 14.02-12.08 19.16c-5.09 5.15-11.08 9.05-17.98 11.72s-14.29 4-22.16 4c-8.6 0-15.87-1.12-21.8-3.36s-10.87-5.24-14.8-8.99c-3.94-3.75-7.15-7.99-9.63-12.71s-4.63-9.56-6.45-14.53c-1.82-4.96-3.48-9.81-5-14.53s-3.33-8.96-5.45-12.71-4.72-6.75-7.81-8.99-7.12-3.36-12.08-3.36c-5.33 0-9.87.76-13.62 2.27-3.75 1.52-6.81 3.57-9.17 6.18s-4.12 5.66-5.27 9.17-1.73 7.27-1.73 11.26c3.39-3.03 6.84-4.96 10.35-5.81s6.42-1.27 8.72-1.27c4 0 7.78.7 11.35 2.09s6.69 3.33 9.35 5.81 4.75 5.39 6.27 8.72c1.51 3.33 2.27 6.99 2.27 10.99 0 4.24-.64 8.15-1.91 11.72s-3.3 6.72-6.08 9.45c-2.79 2.72-6.36 4.84-10.72 6.36s-9.57 2.27-15.62 2.27c-4.72 0-9.75-.88-15.08-2.63-5.33-1.75-10.23-4.63-14.71-8.63s-8.21-9.23-11.17-15.71c-2.97-6.48-4.45-14.44-4.45-23.89 0-8.23 1.73-15.59 5.18-22.07s8.02-11.93 13.71-16.35 12.17-7.78 19.44-10.08 14.71-3.45 22.34-3.45c8.47 0 15.65 1.09 21.52 3.27s10.78 5.03 14.71 8.54 7.14 7.54 9.63 12.08c2.48 4.54 4.63 9.17 6.45 13.9s3.45 9.35 4.9 13.9 3.18 8.57 5.18 12.08 4.42 6.36 7.27 8.54c2.84 2.18 6.51 3.27 10.99 3.27 1.69 0 3.39-.54 5.09-1.63 1.69-1.09 3.21-2.75 4.54-5 1.33-2.24 2.42-5.05 3.27-8.45.85-3.39 1.27-7.38 1.27-11.99v-57.22c0-11.02-1.61-20.43-4.81-28.25-3.21-7.81-7.51-14.2-12.9-19.16s-11.57-8.63-18.53-10.99-14.2-3.54-21.71-3.54zm-32.34 144.77c0-3.87-1.48-7.2-4.45-9.99-2.97-2.78-6.57-4.18-10.81-4.18s-7.87 1.39-10.9 4.18-4.54 6.12-4.54 9.99 1.51 7.21 4.54 9.99c3.03 2.79 6.66 4.18 10.9 4.18s7.84-1.39 10.81-4.18c2.97-2.78 4.45-6.11 4.45-9.99z"/></svg>