<svg height="369.92999" viewBox="0 0 421.21 369.92999" width="421.20999" xmlns="http://www.w3.org/2000/svg"><g transform="translate(-15.19 -1.44)"><path d="m112.76 140.91c-4.84 0-9.96.7-15.35 2.09s-10.66 3.75-15.8 7.08c-5.15 3.33-9.99 7.72-14.53 13.17s-8.45 12.23-11.72 20.34l-40.14-20.89c5.57-9.81 12.38-17.86 20.43-24.16 8.05-6.29 16.62-11.29 25.7-14.99 9.08-3.69 18.22-6.27 27.43-7.72 9.2-1.45 17.68-2.18 25.43-2.18 13.68 0 26.67 1.91 38.96 5.72s23.1 9.45 32.42 16.89c9.32 7.45 16.74 16.65 22.25 27.61s8.26 23.58 8.26 37.87v51.4c0 9.93-1.48 18.71-4.45 26.34s-6.99 14.02-12.08 19.16c-5.09 5.15-11.08 9.05-17.98 11.72s-14.29 4-22.16 4c-8.6 0-15.87-1.12-21.8-3.36s-10.87-5.24-14.8-8.99c-3.94-3.75-7.15-7.99-9.63-12.71s-4.63-9.56-6.45-14.53c-1.82-4.96-3.48-9.81-5-14.53s-3.33-8.96-5.45-12.71-4.72-6.75-7.81-8.99-7.12-3.36-12.08-3.36c-5.33 0-9.87.76-13.62 2.27-3.75 1.52-6.81 3.57-9.17 6.18s-4.12 5.66-5.27 9.17-1.73 7.27-1.73 11.26c3.39-3.03 6.84-4.96 10.35-5.81s6.42-1.27 8.72-1.27c4 0 7.78.7 11.35 2.09s6.69 3.33 9.35 5.81 4.75 5.39 6.27 8.72c1.51 3.33 2.27 6.99 2.27 10.99 0 4.24-.64 8.15-1.91 11.72s-3.3 6.72-6.08 9.45c-2.79 2.72-6.36 4.84-10.72 6.36s-9.57 2.27-15.62 2.27c-4.72 0-9.75-.88-15.08-2.63s-10.23-4.63-14.71-8.63-8.21-9.23-11.17-15.71c-2.97-6.48-4.45-14.44-4.45-23.89 0-8.23 1.73-15.59 5.18-22.07s8.02-11.93 13.71-16.35 12.17-7.78 19.44-10.08 14.71-3.45 22.34-3.45c8.47 0 15.65 1.09 21.52 3.27s10.78 5.03 14.71 8.54 7.14 7.54 9.63 12.08c2.48 4.54 4.63 9.17 6.45 13.9s3.45 9.35 4.9 13.9 3.18 8.57 5.18 12.08 4.42 6.36 7.27 8.54c2.84 2.18 6.51 3.27 10.99 3.27 1.69 0 3.39-.54 5.09-1.63 1.69-1.09 3.21-2.75 4.54-5 1.33-2.24 2.42-5.05 3.27-8.45.85-3.39 1.27-7.38 1.27-11.99v-57.22c0-11.02-1.61-20.43-4.81-28.25-3.21-7.81-7.51-14.2-12.9-19.16s-11.57-8.63-18.53-10.99-14.2-3.54-21.71-3.54zm-32.34 144.77c0-3.87-1.48-7.2-4.45-9.99-2.97-2.78-6.57-4.18-10.81-4.18s-7.87 1.39-10.9 4.18-4.54 6.12-4.54 9.99 1.51 7.21 4.54 9.99c3.03 2.79 6.66 4.18 10.9 4.18s7.84-1.39 10.81-4.18c2.97-2.78 4.45-6.11 4.45-9.99z" fill="#070808"/><g fill="none" stroke="#000" stroke-miterlimit="10" stroke-width="5"><path d="m111.48 24.84c-8.84 0-16.35.91-22.52 2.72s-11.17 4.12-14.99 6.9c-3.81 2.79-6.57 5.9-8.26 9.35s-2.54 6.87-2.54 10.26c0 1.82.21 3.75.64 5.81s1.09 4.15 2 6.27 2 4.12 3.27 5.99c1.27 1.88 2.76 3.54 4.45 5l-31.24 19.8c-1.94-2.06-3.91-4.48-5.9-7.27-2-2.78-3.81-5.84-5.45-9.17-1.63-3.33-2.97-6.93-4-10.81-1.03-3.87-1.54-7.99-1.54-12.35 0-7.63 2.15-14.71 6.45-21.25s10.29-12.2 17.98-16.98 16.8-8.51 27.34-11.17 21.98-4 34.33-4 23.98 1.33 34.51 4c10.54 2.67 19.62 6.42 27.25 11.26s13.59 10.66 17.89 17.44 6.45 14.23 6.45 22.34c0 3.88-.51 7.66-1.54 11.35-1.03 3.7-2.36 7.15-4 10.35-1.63 3.21-3.45 6.21-5.45 8.99-2 2.79-3.96 5.21-5.9 7.27l-33.42-19.8c3.39-2.42 6.33-5.39 8.81-8.9s3.72-8.05 3.72-13.62c0-3.39-.94-6.87-2.82-10.44s-4.81-6.78-8.81-9.63c-4-2.84-9.02-5.18-15.08-6.99-6.05-1.82-13.26-2.72-21.62-2.72z"/><path d="m433.9 287.13c0 10.42-1.7 20.53-5.09 30.33-3.39 9.81-8.66 18.53-15.8 26.16-7.15 7.63-16.29 13.74-27.43 18.35-11.14 4.6-24.52 6.9-40.14 6.9-9.33 0-18.38-.79-27.16-2.36-8.78-1.58-17.01-4-24.7-7.27s-14.59-7.42-20.71-12.44c-6.12-5.03-11.17-10.99-15.17-17.89l43.23-25.25c5.09 11.87 11.41 21.16 18.98 27.88s16.5 10.08 26.79 10.08c6.54 0 12.38-1.24 17.53-3.72s9.54-6.08 13.17-10.81 6.39-10.44 8.26-17.17c1.88-6.72 2.82-14.32 2.82-22.8v-96.81c0-15.86-4.12-28.06-12.35-36.6-8.24-8.54-20.83-12.81-37.78-12.81-5.33 0-10.99.79-16.98 2.36-5.99 1.58-11.57 4.27-16.71 8.08-5.15 3.81-9.42 8.87-12.81 15.17s-5.09 14.17-5.09 23.61c3.87-6.78 8.81-11.68 14.8-14.71s11.96-4.54 17.89-4.54c5.57 0 10.32.91 14.26 2.72 3.93 1.82 7.14 4.18 9.63 7.08 2.48 2.91 4.3 6.21 5.45 9.9 1.15 3.7 1.73 7.48 1.73 11.35 0 4.48-.85 8.69-2.54 12.62-1.7 3.94-4.3 7.39-7.81 10.35-3.51 2.97-7.93 5.3-13.26 6.99-5.33 1.7-11.62 2.54-18.89 2.54-6.18 0-12.44-1.06-18.8-3.18s-12.14-5.3-17.35-9.54-9.45-9.5-12.71-15.8c-3.27-6.29-4.9-13.62-4.9-21.98s1.24-16.1 3.72-22.89c2.48-6.78 5.84-12.77 10.08-17.98s9.2-9.66 14.89-13.35 11.78-6.75 18.25-9.17c6.48-2.42 13.14-4.18 19.98-5.27s13.59-1.63 20.25-1.63c11.38 0 22.61 1.24 33.69 3.72s20.98 6.93 29.7 13.35 15.74 15.17 21.07 26.25 7.99 25.28 7.99 42.59v87.55zm-130.6-84.46c0 4.24 1.51 7.87 4.54 10.9s6.66 4.54 10.9 4.54 7.87-1.51 10.9-4.54 4.54-6.66 4.54-10.9-1.45-7.87-4.36-10.9-6.48-4.54-10.72-4.54c-2.18 0-4.21.39-6.08 1.18-1.88.79-3.54 1.88-5 3.27-1.45 1.39-2.61 3.03-3.45 4.9-.85 1.88-1.27 3.91-1.27 6.08z"/></g></g></svg>