<svg xmlns="http://www.w3.org/2000/svg" version="1.1" viewBox="-5.0 -10.0 110.0 135.0">
 <path d="m83.566 42.828c-3.5781 1.9336-9.2031 2.3633-15.82-0.59766-6.2578-2.8008-16.973-5.0859-24.988-5.0078-8.4766 0.078125-11.562 0.15234-14.164-3.0391-2.6016-3.1875-5.6133-3.5352-7.8008-3.5234-2.1875 0.007813-7.082 1.9453-7.707 2.9258-0.625 0.98047-0.75781 3.3086-0.75781 3.3086s-5.0508 3.6758-5.4805 4.5938c-0.42969 0.91797 0.67578 3.3711 1.8359 4.625 1.1602 1.2578 3.4453 2.1992 5.6133 2.4609s5.2812 0.35938 5.2812 0.35938c-0.25 4.1953-1.3008 16.914-1.3008 16.914l-7.7344 11.59c0.003906 0-10.027 5.1094-10.363 5.7344-0.33594 0.62891-0.20313 1.4727 0.42969 1.8906 0.63281 0.42188 9.1875-0.87891 10.531-1.6602s10.508-10.828 12.297-14.082c1.7852-3.2578 3.9922-9.8789 3.9922-9.8789l7.2539 7.1484-2.9258 15.488c-2.8125 0.90625-5.0312 2.418-5.7305 3.2852-0.69922 0.86328-0.61719 2.4258-0.61719 2.4258h9.6328s7.7188-18.727 7.6055-20.457c-0.11328-1.7344-3.0742-5.9414-3.0742-5.9414 5.3359-0.050781 14.207-2.3008 18.402-4.25 0 0-6.7109 9.3984-7.0469 10.461-0.33594 1.0625-2.7305 13.984-2.7305 13.984s-5.4844 2.4766-6.4414 3.4844c-0.95703 1.0078-1.0195 2.7227-1.0195 2.7227h11.367l7.4414-18.512c2.3477-1.9023 7.6055-7.7773 7.6055-7.7773s2.6328 8.5625 3.5234 9.5117c0.89453 0.95312 14.488 12.09 14.488 12.09-2.5781 0.73047-4.8086 1.625-5.2305 2.3906-0.42188 0.76172-0.50391 2.3008-0.50391 2.3008h10.801l2.2539-5.6367-14.43-14.836c1.457-5.9141 1.6289-11.547 0.89453-17.23 0 0 7.6602-1.2305 14.82-8.1133 7.1602-6.8789 8.4102-16.945 2.3906-24.191-6.0195-7.2461-18.43-6.4414-26.777-3.1055-6.7539 2.6953-12.555 7.8633-13.926 9.8984-1.6602 2.4531-0.10938 5.1484 3.3555 3.0742 3.4688-2.0703 7.2109-7.0938 17.23-9.2305 10.074-2.1445 16.742 0.84375 18.242 8.0977 1.5 7.2578-3.9141 12.629-10.715 16.305z"/>
<text x="0.0" y="117.5" font-size="5.0" font-weight="bold" font-family="Arbeit Regular, Helvetica, Arial-Unicode, Arial, Sans-serif" fill="#000000">Created by Peleg Red</text><text x="0.0" y="122.5" font-size="5.0" font-weight="bold" font-family="Arbeit Regular, Helvetica, Arial-Unicode, Arial, Sans-serif" fill="#000000">from Noun Project</text></svg>