<svg xmlns="http://www.w3.org/2000/svg" xmlns:xlink="http://www.w3.org/1999/xlink" xml:space="preserve" version="1.1" style="shape-rendering:geometricPrecision;text-rendering:geometricPrecision;image-rendering:optimizeQuality;" viewBox="0 0 846.66 1058.325" x="0px" y="0px" fill-rule="evenodd" clip-rule="evenodd"><defs><style type="text/css">
   
    .fil0 {fill:black}
   
  </style></defs><g><path class="fil0" d="M782.53 719.17c0,0 26.22,-36.24 -34.94,-115.77 -61.17,-79.53 -104.69,-316.48 -119.42,-373.47 -17.31,-67 -74.92,-108.28 -141.92,-123.91l0 -25.59c0,-83.23 -125.84,-83.23 -125.84,0l0 25.59c-66.99,15.62 -124.61,56.91 -141.92,123.91 -14.73,56.99 -58.25,293.94 -119.42,373.47 -61.16,79.53 -34.94,115.77 -34.94,115.77 118.8,146.01 599.6,146.01 718.4,0zm-404.39 -475.69c-33.39,6.56 -43.36,-44.22 -9.97,-50.78 179.33,-35.2 202.99,80.73 229.8,212.05 4.55,22.3 9.22,45.14 15.19,68.52 8.36,32.92 -41.68,45.61 -50.03,12.7 -5.89,-23 -10.86,-47.33 -15.71,-71.1 -21.32,-104.49 -40.15,-196.73 -169.28,-171.39zm-19.74 387.6l129.86 0 0 15.85c0,73.33 -129.86,73.33 -129.86,0l0 -15.85zm64.93 -43.8c164.35,0 297.59,38.49 297.59,85.97 0,47.48 -133.24,85.97 -297.59,85.97 -164.35,0 -297.59,-38.49 -297.59,-85.97 0,-47.48 133.24,-85.97 297.59,-85.97z"/></g><text x="0" y="861.66" fill="#000000" font-size="5px" font-weight="bold" font-family="'Helvetica Neue', Helvetica, Arial-Unicode, Arial, Sans-serif">Created by richad</text><text x="0" y="866.66" fill="#000000" font-size="5px" font-weight="bold" font-family="'Helvetica Neue', Helvetica, Arial-Unicode, Arial, Sans-serif">from the Noun Project</text></svg>