<svg xmlns="http://www.w3.org/2000/svg" version="1.1" viewBox="-5.0 -10.0 110.0 135.0">
 <path d="m87.543 35.84c-0.64062-1.7734-4.5664-2.4609-7.5117-1.8672l-0.003906-0.003906c-2.9609 0.75-5.5234 2.6016-7.1641 5.1758-3.5781 5.6367-1.9727 12.945-0.17578 18.688 0.65234 2.0781 1.2344 3.7383 1.7461 5.2031 1.4453 4.1289 2.2422 6.4023 2.0234 10.762-0.10938 2.1758-1.5117 5.8594-4.9258 7.1055l-0.003906 0.003906c-1.8359 0.60156-3.8281 0.49609-5.5859-0.29688-0.5-0.22656-0.79688-0.74609-0.73828-1.293 0.24609-2.6406 0.16797-5.3008-0.22656-7.9258-0.9375-6.4141-3.4688-12.492-7.3672-17.676-3.4492-4.5742-7.918-8.2812-13.051-10.832-3.7617-1.8828-6.4219-5.418-7.1875-9.5508-0.26562-1.6484-0.70703-3.2656-1.3242-4.8164-0.5625-1.293-1.2656-2.5195-2.0898-3.6602l-0.57812-0.62109c-0.10156-0.10938-0.14844-0.26172-0.12109-0.40625v-0.003906c-0.011718-0.082031 0-0.16406 0.035157-0.23828 0.039062-0.27344 0.066406-0.55859 0.078125-0.84766v-0.003906c0.066406-1.9062-0.48828-3.7852-1.5781-5.3555-0.12891-0.1875-0.34375-0.30469-0.57422-0.30859-0.22656-0.003906-0.44531 0.10547-0.58203 0.28906-0.54688 0.73828-1.0781 1.5078-1.5703 2.2852-0.19141 0.30078-0.375 0.60547-0.55859 0.91016-0.11328 0.19141-0.30859 0.3125-0.52734 0.33203l-0.75 0.0625-2.1992 0.25391-2.6758 0.35938h-0.003907c-1.3984 0.14844-2.6797 0.85938-3.543 1.9766-0.050782 0.070313-0.10156 0.14063-0.15234 0.21484l-0.91406 1.3633c-0.039063 0.054687-0.089844 0.10547-0.14844 0.14062l-1.75 1.0117c-0.35547 0.19922-0.62891 0.51953-0.76953 0.90234-0.14062 0.41406-0.11719 0.86328 0.066406 1.2578 0.042969 0.09375 0.054687 0.19531 0.03125 0.29297-0.17188 0.76172-0.15625 1.5508 0.039063 2.3086 0.39453 1.332 1.3047 2.4492 2.5273 3.1055l3.125 1.4062c0.70703 0.32031 1.3672 0.74219 1.9492 1.2539h0.003906c0.089844 0.082031 0.13672 0.19922 0.13281 0.32031l-0.039063 1.0664-0.51172 6.9453c-0.375 5.0664 0.64844 10.145 2.9609 14.672l3.1953 6.1953c0.10937-0.84375 0.20703-1.6836 0.28516-2.5273l0.93359-9.8047h0.003906c0.023437-0.24609 0.24219-0.42969 0.49219-0.40625 0.25 0.023438 0.42969 0.24609 0.40625 0.49219l-0.93359 9.8047c-0.125 1.3203-0.28906 2.6406-0.48438 3.9609 0 0.011719-0.003906 0.023437-0.003906 0.035156-0.22266 1.4766-0.48438 2.9453-0.78906 4.3984l-1.9961 9.4453c-0.17188 0.83594-0.80859 1.5039-1.6367 1.7227l-2.207 0.58594v-0.003906c-0.50781 0.12891-0.96484 0.41016-1.3086 0.80859-0.79297 0.9375-0.78125 2.3164 0.03125 3.2422l0.011719 0.015625 0.003906-0.003906c0.48438 0.55469 1.1953 0.85938 1.9336 0.83594l3.5742-0.11719c2.125-0.070313 4.0273-1.3398 4.9023-3.2773l4.0781-9.0195c-0.36719-1.5391-0.44141-3.1328-0.21484-4.7031 0.91797-5.7656 5.4531-10.281 11.223-11.176 0.24609-0.039063 0.48047 0.12891 0.51953 0.375 0.042969 0.24609-0.125 0.48047-0.375 0.51953-5.3789 0.82812-9.6094 5.0312-10.473 10.406-0.20703 1.4531-0.14062 2.9336 0.20312 4.3633 0.042969 0.070312 0.0625 0.15625 0.0625 0.23828 0.74609 2.6758 2.4023 5.0039 4.6875 6.582h10.441c0.24609-0.003906 0.45312 0.18359 0.47656 0.42969 0.007812 0.125-0.039063 0.24609-0.125 0.33594-0.085938 0.089843-0.20312 0.14062-0.32812 0.14062h-15.008c-0.75 0-1.4531 0.36328-1.8906 0.96875l-0.14062 0.19531v0.003906c-0.43359 0.58594-0.57812 1.3438-0.38281 2.0469 0.28906 1 1.1992 1.6875 2.2383 1.6875h14.016c3.7461-0.007812 7.457-0.75 10.914-2.1875l1.3711 0.39062c3.375 1.2031 7.0898 1.0469 10.348-0.44141 3.3203-1.7031 5.8867-4.582 7.1953-8.0742 0.03125-0.085937 0.0625-0.17969 0.10156-0.27734 0.64453-1.7656 1.9844-5.4414-1.1602-14.492-3.9023-11.223-5.625-18.457-2.8906-22.227h-0.003906c0.83203-1.3867 2.1758-2.3906 3.7422-2.7969 1.5195-0.19531 3.0664-0.10547 4.5547 0.26953 1.207 0.24609 1.6172-0.14062 1.8594-0.37109 0.035156-0.035156 0.070312-0.066406 0.10156-0.09375 0.64844-0.64062 0.89063-1.5859 0.62891-2.457z"/>
<text x="0.0" y="117.5" font-size="5.0" font-weight="bold" font-family="Arbeit Regular, Helvetica, Arial-Unicode, Arial, Sans-serif" fill="#000000">Created by Leonardo Henrique Martini</text><text x="0.0" y="122.5" font-size="5.0" font-weight="bold" font-family="Arbeit Regular, Helvetica, Arial-Unicode, Arial, Sans-serif" fill="#000000">from Noun Project</text></svg>