<svg viewBox="0 0 72.66 71.53" xmlns="http://www.w3.org/2000/svg"><path d="m72.56 18.77c-.64-1.77-4.57-2.46-7.51-1.87-2.96.75-5.52 2.6-7.16 5.17-3.58 5.64-1.97 12.94-.18 18.69.65 2.08 1.23 3.74 1.75 5.2 1.45 4.13 2.24 6.4 2.02 10.76-.11 2.18-1.51 5.86-4.93 7.11-1.84.61-3.83.5-5.59-.29-.5-.23-.8-.75-.74-1.29.25-2.64.17-5.3-.23-7.93-.94-6.41-3.47-12.49-7.37-17.68-3.45-4.57-7.92-8.28-13.05-10.83-3.76-1.88-6.42-5.42-7.19-9.55-.27-1.65-.71-3.27-1.32-4.82-.56-1.29-1.27-2.52-2.09-3.66l-.58-.62c-.1-.11-.15-.26-.12-.41-.01-.09 0-.17.04-.24.04-.27.07-.56.08-.85.07-1.91-.49-3.79-1.58-5.36-.13-.18-.34-.3-.57-.3s-.45.11-.58.29c-.55.74-1.08 1.51-1.57 2.29-.19.3-.38.61-.56.91-.11.19-.31.31-.53.33l-.75.06-2.2.25-2.68.36c-1.4.15-2.68.86-3.54 1.98-.05.07-.1.14-.15.21l-.91 1.36c-.04.05-.09.11-.15.14l-1.75 1.01c-.36.2-.63.52-.77.9-.14.41-.12.86.07 1.26.04.09.05.2.03.29-.17.76-.16 1.55.04 2.31.39 1.33 1.3 2.45 2.53 3.11l3.12 1.41c.71.32 1.37.74 1.95 1.25.09.08.14.2.13.32l-.04 1.07-.51 6.95c-.38 5.07.65 10.15 2.96 14.67l3.2 6.2c.11-.84.21-1.68.29-2.53l.93-9.8c.02-.25.24-.43.49-.41s.43.25.41.49l-.93 9.8c-.12 1.32-.29 2.64-.48 3.96v.04c-.22 1.48-.48 2.95-.79 4.4l-2 9.45c-.17.84-.81 1.5-1.64 1.72l-2.21.59c-.51.12-.96.41-1.31.8-.79.94-.78 2.32.03 3.24v.02s.02 0 .02 0c.48.55 1.2.86 1.93.84l3.57-.12c2.12-.07 4.03-1.34 4.9-3.28l4.08-9.02c-.37-1.54-.44-3.13-.21-4.7.92-5.77 5.45-10.28 11.22-11.18.25-.04.48.13.52.38s-.12.48-.38.52c-5.38.83-9.61 5.03-10.47 10.41-.21 1.45-.14 2.93.2 4.36.04.07.06.16.06.24.75 2.68 2.4 5 4.69 6.58h10.44c.25 0 .45.18.48.43 0 .12-.04.25-.12.34s-.2.14-.33.14h-15.01c-.75 0-1.45.36-1.89.97l-.14.2c-.43.59-.58 1.35-.38 2.05.29 1 1.2 1.69 2.24 1.69h14.02c3.75 0 7.46-.75 10.91-2.19l1.37.39c3.38 1.2 7.09 1.05 10.35-.44 3.32-1.7 5.89-4.58 7.2-8.07.03-.09.06-.18.1-.28.64-1.77 1.98-5.44-1.16-14.49-3.9-11.22-5.62-18.46-2.89-22.23.83-1.39 2.18-2.39 3.74-2.8 1.52-.2 3.07-.11 4.55.27 1.21.25 1.62-.14 1.86-.37.04-.04.07-.07.1-.09.65-.64.89-1.59.63-2.46z"/></svg>