<svg height="200.71001" viewBox="0 0 206.16001 200.71" width="206.16" xmlns="http://www.w3.org/2000/svg"><path d="m43.579999 0c5.69 0 11.44.94 17.26 2.82 5.81 1.88 11.05 4.88 15.71 8.99 4.66 4.12 8.47 9.45 11.44 15.98 2.97 6.54 4.45 14.409996 4.45 23.609996v90.460004c0 5.81 1.18 10.75 3.54 14.8 2.36 4.06 5.330001 7.33 8.900001 9.81s7.48 4.27 11.72 5.36 8.29 1.63 12.17 1.63 7.9-.64 11.72-1.91 7.2-3.21 10.17-5.81 5.39-5.9 7.27-9.9 2.82-8.66 2.82-13.99v-138.94h45.41v138.96c0 10.54-2.21 19.53-6.63 26.97-4.42 7.45-10.26 13.53-17.53 18.25s-15.53 8.17-24.79 10.35-18.74 3.27-28.43 3.27c-6.78 0-13.17-.73-19.16-2.18s-11.470001-3.39-16.440001-5.81-9.35-5.3-13.17-8.63c-3.81-3.33-6.93-6.87-9.35-10.63-1.82 5.81-4.18 10.48-7.08 13.99-2.91 3.51-6.06 6.27-9.45 8.26-3.39 2-6.9 3.33-10.54 4-3.63.66-7.08 1-10.35 1-4.48 0-8.72-.76-12.71-2.27s-7.51-3.63-10.54-6.36c-3.03-2.72-5.449999-6.02-7.269999-9.9-1.82-3.87-2.72-8.17-2.72-12.9 0-4.48.73-8.63 2.18-12.44s3.54-7.08 6.269999-9.81c2.73-2.73 5.99-4.87 9.81-6.45 3.81-1.57 8.08-2.36 12.81-2.36 2.3 0 5.09.45 8.36 1.36s5.81 2.21 7.63 3.91v-101.170004c0-1.94-.39-3.809996-1.18-5.629996s-1.88-3.42-3.27-4.81-3.03-2.51-4.9-3.36c-1.88-.85-3.91-1.27-6.08-1.27h-19.8v-27.25h31.79zm-27.25 169.47c0 2.06.39 4 1.18 5.81.79 1.82 1.88 3.39 3.27 4.72s3 2.39 4.81 3.18c1.82.79 3.81 1.18 5.99 1.18s4.21-.39 6.08-1.18c1.88-.79 3.51-1.84 4.9-3.18 1.39-1.33 2.48-2.91 3.27-4.72.79-1.82 1.18-3.75 1.18-5.81s-.39-4-1.18-5.81c-.79-1.82-1.88-3.39-3.27-4.72s-3.03-2.39-4.9-3.18c-1.88-.79-3.91-1.18-6.08-1.18s-4.18.39-5.99 1.18c-1.82.79-3.42 1.85-4.81 3.18s-2.48 2.91-3.27 4.72c-.79 1.82-1.18 3.75-1.18 5.81z"/></svg>