<svg height="205.75999" viewBox="0 0 686.55001 205.76" width="686.54999" xmlns="http://www.w3.org/2000/svg"><g transform="translate(-12.7 -111.12)"><path d="m55.9 248.99c0 1.7.12 3.66.36 5.9s.64 4.48 1.18 6.72 1.3 4.33 2.27 6.27 2.12 3.51 3.45 4.72c1.57-4.24 3.54-7.63 5.9-10.17s4.87-4.48 7.54-5.81c2.66-1.33 5.36-2.21 8.08-2.63s5.18-.64 7.36-.64c4.6 0 8.75.76 12.44 2.27 3.69 1.52 6.84 3.57 9.45 6.18 2.6 2.61 4.6 5.63 5.99 9.08s2.09 7.17 2.09 11.17c0 9.69-3.42 17.5-10.26 23.43s-17.59 8.9-32.24 8.9c-6.9 0-14.14-1.39-21.71-4.18-7.57-2.78-14.5-6.93-20.8-12.44s-11.51-12.32-15.62-20.43c-4.12-8.11-6.18-17.5-6.18-28.15v-66.12c0-9.69 1.91-18.59 5.72-26.7s9.2-15.14 16.17-21.07c6.96-5.93 15.44-10.54 25.43-13.8s21.16-4.9 33.51-4.9h19.8v24.34h-19.8c-5.09 0-10.02.7-14.8 2.09-4.79 1.39-9.05 3.72-12.81 6.99-3.75 3.27-6.78 7.63-9.08 13.08s-3.45 12.23-3.45 20.34v65.57zm49.77 34.87c0-3.87-1.48-7.2-4.45-9.99-2.97-2.78-6.57-4.18-10.81-4.18s-7.87 1.39-10.9 4.18-4.54 6.12-4.54 9.99 1.51 7.21 4.54 9.99c3.03 2.79 6.66 4.18 10.9 4.18s7.84-1.39 10.81-4.18c2.97-2.78 4.45-6.11 4.45-9.99zm62.85-34.87c0 1.7.12 3.66.36 5.9s.64 4.48 1.18 6.72 1.3 4.33 2.27 6.27 2.12 3.51 3.45 4.72c1.57-4.24 3.54-7.63 5.9-10.17s4.87-4.48 7.54-5.81c2.66-1.33 5.36-2.21 8.08-2.63s5.18-.64 7.36-.64c4.6 0 8.75.76 12.44 2.27 3.69 1.52 6.84 3.57 9.45 6.18 2.6 2.61 4.6 5.63 5.99 9.08s2.09 7.17 2.09 11.17c0 9.69-3.42 17.5-10.26 23.43s-17.59 8.9-32.24 8.9c-6.9 0-14.14-1.39-21.71-4.18-7.57-2.78-14.5-6.93-20.8-12.44s-11.51-12.32-15.62-20.43c-4.12-8.11-6.18-17.5-6.18-28.15v-66.12c0-9.69 1.91-18.59 5.72-26.7s9.2-15.14 16.17-21.07c6.96-5.93 15.44-10.54 25.43-13.8s21.16-4.9 33.51-4.9h19.8v24.34h-19.8c-5.09 0-10.02.7-14.8 2.09-4.79 1.39-9.05 3.72-12.81 6.99-3.75 3.27-6.78 7.63-9.08 13.08s-3.45 12.23-3.45 20.34v65.57zm49.77 34.87c0-3.87-1.48-7.2-4.45-9.99-2.97-2.78-6.57-4.18-10.81-4.18s-7.87 1.39-10.9 4.18-4.54 6.12-4.54 9.99 1.51 7.21 4.54 9.99c3.03 2.79 6.66 4.18 10.9 4.18s7.84-1.39 10.81-4.18c2.97-2.78 4.45-6.11 4.45-9.99z" fill="none" stroke="#000" stroke-miterlimit="10" stroke-width="5"/><path d="m316.38 113.66c5.69 0 11.44.94 17.26 2.82 5.81 1.88 11.05 4.88 15.71 8.99 4.66 4.12 8.47 9.45 11.44 15.98 2.97 6.54 4.45 14.41 4.45 23.61v90.46c0 5.81 1.18 10.75 3.54 14.8 2.36 4.06 5.33 7.33 8.9 9.81s7.48 4.27 11.72 5.36 8.29 1.63 12.17 1.63 7.9-.64 11.72-1.91 7.2-3.21 10.17-5.81 5.39-5.9 7.27-9.9 2.82-8.66 2.82-13.99v-138.94h45.41v138.96c0 10.54-2.21 19.53-6.63 26.97-4.42 7.45-10.26 13.53-17.53 18.25s-15.53 8.17-24.79 10.35-18.74 3.27-28.43 3.27c-6.78 0-13.17-.73-19.16-2.18s-11.47-3.39-16.44-5.81-9.35-5.3-13.17-8.63c-3.81-3.33-6.93-6.87-9.35-10.63-1.82 5.81-4.18 10.48-7.08 13.99-2.91 3.51-6.06 6.27-9.45 8.26-3.39 2-6.9 3.33-10.54 4-3.63.66-7.08 1-10.35 1-4.48 0-8.72-.76-12.71-2.27s-7.51-3.63-10.54-6.36c-3.03-2.72-5.45-6.02-7.27-9.9-1.82-3.87-2.72-8.17-2.72-12.9 0-4.48.73-8.63 2.18-12.44s3.54-7.08 6.27-9.81 5.99-4.87 9.81-6.45c3.81-1.57 8.08-2.36 12.81-2.36 2.3 0 5.09.45 8.36 1.36s5.81 2.21 7.63 3.91v-101.17c0-1.94-.39-3.81-1.18-5.63s-1.88-3.42-3.27-4.81-3.03-2.51-4.9-3.36c-1.88-.85-3.91-1.27-6.08-1.27h-19.8v-27.25h31.79zm-27.25 169.47c0 2.06.39 4 1.18 5.81.79 1.82 1.88 3.39 3.27 4.72s3 2.39 4.81 3.18c1.82.79 3.81 1.18 5.99 1.18s4.21-.39 6.08-1.18c1.88-.79 3.51-1.84 4.9-3.18 1.39-1.33 2.48-2.91 3.27-4.72.79-1.82 1.18-3.75 1.18-5.81s-.39-4-1.18-5.81c-.79-1.82-1.88-3.39-3.27-4.72s-3.03-2.39-4.9-3.18c-1.88-.79-3.91-1.18-6.08-1.18s-4.18.39-5.99 1.18c-1.82.79-3.42 1.85-4.81 3.18s-2.48 2.91-3.27 4.72c-.79 1.82-1.18 3.75-1.18 5.81z"/><path d="m696.73 228.46c0 17.32-2.67 31.51-7.99 42.59-5.33 11.08-12.35 19.83-21.07 26.25s-18.62 10.87-29.7 13.35-22.31 3.72-33.69 3.72c-6.66 0-13.41-.54-20.25-1.63s-13.5-2.84-19.98-5.27c-6.48-2.42-12.56-5.48-18.25-9.17s-10.66-8.14-14.89-13.35c-4.24-5.21-7.6-11.2-10.08-17.98s-3.72-14.41-3.72-22.89 1.63-15.68 4.9-21.98c3.27-6.29 7.51-11.56 12.71-15.8 5.21-4.24 10.99-7.42 17.35-9.54s12.62-3.18 18.8-3.18c7.27 0 13.56.85 18.89 2.54 5.33 1.7 9.75 4.03 13.26 6.99 3.51 2.97 6.11 6.42 7.81 10.35 1.69 3.94 2.54 8.15 2.54 12.62 0 3.88-.58 7.66-1.73 11.35-1.15 3.7-2.97 6.99-5.45 9.9s-5.69 5.27-9.63 7.08c-3.94 1.82-8.69 2.72-14.26 2.72-5.93 0-11.9-1.51-17.89-4.54s-10.93-7.93-14.8-14.71c0 9.45 1.69 17.32 5.09 23.61 3.39 6.3 7.66 11.35 12.81 15.17 5.15 3.81 10.72 6.51 16.71 8.08 5.99 1.58 11.65 2.36 16.98 2.36 16.95 0 29.54-4.27 37.78-12.81 8.23-8.54 12.35-20.74 12.35-36.6v-42.32c0-8.47-.94-16.08-2.82-22.8s-4.63-12.44-8.26-17.17-8.02-8.32-13.17-10.81c-5.15-2.48-10.99-3.72-17.53-3.72-10.29 0-19.23 3.36-26.79 10.08-7.57 6.72-13.9 16.02-18.98 27.88l-43.23-25.25c4-6.9 9.05-12.87 15.17-17.89 6.11-5.02 13.02-9.17 20.71-12.44s15.92-5.69 24.7-7.27c8.78-1.57 17.83-2.36 27.16-2.36 15.62 0 29 2.3 40.14 6.9s20.28 10.72 27.43 18.35c7.14 7.63 12.41 16.35 15.8 26.16s5.09 19.92 5.09 30.33v33.06zm-130.6-3.09c0 2.18.42 4.21 1.27 6.08.85 1.88 2 3.51 3.45 4.9s3.12 2.48 5 3.27 3.91 1.18 6.08 1.18c4.24 0 7.81-1.51 10.72-4.54s4.36-6.66 4.36-10.9-1.52-7.87-4.54-10.9c-3.03-3.03-6.66-4.54-10.9-4.54s-7.87 1.52-10.9 4.54-4.54 6.66-4.54 10.9z" fill="none" stroke="#000" stroke-miterlimit="10" stroke-width="5"/></g></svg>