<svg viewBox="0 0 88.83 69.84" xmlns="http://www.w3.org/2000/svg"><path d="m88.21 54.56c.18-1.56.52-3.11.61-4.68.11-1.83-.73-3.25-2.36-4.15-2.04-1.11-2.86-2.86-2.84-5.13.03-4.47 0-8.95 0-13.42-.01-3.52-1.62-6.19-4.43-8.21-2.52-1.81-5.36-2.43-8.43-2.43-12.7.04-25.41.03-38.11-.01-1.14 0-2.43-.11-3.39-.64-1.85-1.02-3.54-2.36-5.24-3.63-.34-.26-.49-.79-.82-1.35.56-.03.91-.05 1.25-.06 1.89-.03 3.56-.57 4.87-2.01 1.86-2.05 1.15-4.65-1.52-5.34-1.78-.46-3.53-.29-5.19.6-.12-.08-.15-.09-.17-.11-.16-.2-.31-.41-.48-.61-2.03-2.47-4.64-3.68-7.85-3.32-2.39.27-4.33 1.46-5.83 3.34-.43.55-.84.54-1.5.39-1.21-.27-2.5-.5-3.73-.4-2.76.24-3.86 2.65-2.41 5 1.15 1.84 2.94 2.48 4.97 2.51.95.01 1.2.32 1.19 1.23-.05 3.71.29 7.38 1.34 10.95 3.12 10.65 5.88 21.39 8.33 32.21 1.06 4.67 1.36 9.2-.83 13.65-.09.18-.18.34-.28.46-.14.18-.02.45.21.45h5.09c.21 0 .35-.23.23-.42-.11-.18-.16-.42-.06-.74.35-2.62.59-5.27 1.05-7.87.41-2.32 1.09-4.59 1.61-6.88.13-.57.38-.75.93-.65 1.91.35 3.79.19 5.67-.3.24-.06.75.13.82.32 1.51 3.82 2.29 7.77 1.59 11.86-.23 1.38-.82 2.71-1.34 4.03-.02.07-.07.12-.12.18-.17.18-.05.47.2.47h5.17c.21 0 .34-.23.24-.41-.09-.17-.13-.39-.12-.7.05-4.68.69-9.28 1.82-13.82.38-1.53.66-3.09 1.01-4.72h.95c4.08 0 8.16-.02 12.24.03.5 0 1.02.38 1.5.64.21.12.32.41.52.57 1.2.9 1.82 1.94 1.39 3.55-.23.85.43 1.57 1.29 1.77s1.43-.19 1.82-.93c.2-.37.45-.72.67-1.07.09.05.19.1.28.15 0 .95.11 1.92-.02 2.86-.57 4.05-1.97 7.82-4.09 11.32-.07.11-.14.21-.21.3-.16.18-.03.46.21.46h4.53c.17 0 .24-.06.27-.23.02-.11.04-.21.06-.31.04-.17.09-.34.15-.5 1.07-2.91 2.23-5.8 3.25-8.73.46-1.34.61-2.78.97-4.16.09-.35.44-.62.68-.93.26.23.52.47.77.71.04.04.06.11.09.17.37.77.96 1.14 1.81.93.83-.2 1.25-.77 1.28-1.61.01-.36-.18-.77-.05-1.05.19-.41.52-.81.9-1.06.2-.13.76-.06.9.12.98 1.25 1.99 2.48 2.23 4.14.53 3.71-.27 7.18-1.68 10.6-.12.37-.29.73-.55 1.02-.13.14-.27.27-.43.4-.2.16-.08.49.18.49h5.34c.19 0 .32-.19.26-.37-.03-.09-.05-.18-.06-.27-.03-.22-.01-.45.05-.67.12-1.02.34-2.04.6-3.04 1.09-4.23 2.21-8.46 3.31-12.69.54-2.07.41-3.98-1.36-5.5-.29-.25-.49-.61-.69-.94-1.55-2.54-.74-6.99 1.73-8.63 0 1.11-.02 2.11 0 3.1.04 2.35.66 4.47 2.4 6.17.18.18.23.65.13.92-.51 1.38-.63 2.77-.34 4.2.53 2.6 3.23 5.31 5.68 5.57-.06-.43-.14-.83-.16-1.24-.03-.63-.05-1.28.02-1.91zm-61.37-47.18c-1.04.18-1.89.34-2.84.5.62-1.52 1.7-1.75 2.84-.5zm-23.2-.18c1.18-1.04 2.02-.89 2.87.59-1.09-.06-2.04.11-2.87-.59zm13.27-3.66c2.18.73 3.6 2.48 3.73 4.6.04.64.03 1.3-.02 1.94-.21 2.55.83 4.48 2.96 5.8 1.17.72 1.73 1.55 1.37 2.95-.39 1.51-1.07 2.79-2.66 3.13-.94.2-1.98.07-2.96-.05-.93-.11-1.34-.8-1.43-1.7-.17-1.77.35-3.28 1.83-4.33.61-.43.57-.72.2-1.31-1.01-1.65-2.04-3.3-2.84-5.05-1.13-2.45-2.7-4.16-5.56-4.29-.12 0-.23-.08-.43-.15 1.45-1.66 3.76-2.24 5.84-1.54zm-2.98 6.95c-.59.34-.99.75-1.2.67-.34-.13-.62-.56-.77-.93-.04-.11.53-.65.75-.61.36.06.66.44 1.22.87zm5.7 44.82c-.32-1.57-.61-2.98-.94-4.62 2.17 1.3 2.38 2.42.94 4.62zm10.36-7.99c-.7-.68-1.38-1.35-2.07-2.02-.06.04-.13.08-.19.11.17.59.34 1.19.55 1.89-1.88-.02-3.44-.6-4.92-1.4-3.43-1.86-5.77-4.78-7.12-8.32-1.61-4.22-2.82-8.58-4.18-12.89-.43-1.38-.78-2.77-1.23-4.39.48.17.79.22 1.04.38 1.64 1.03 3.28 2.07 4.89 3.15.2.13.36.66.26.84-1.24 2.21-.66 4.43.06 6.58 1.15 3.43 3.32 6 6.84 7.16 2.25.74 3.65 2.36 4.86 4.24.52.81 1.02 1.66 1.44 2.52.32.67.55 1.41-.22 2.15zm5.09 7.85c-.12-.01-.25-.02-.37-.02-.38-1.46-.75-2.91-1.12-4.38.08-.05.16-.11.23-.16.57.35 1.14.69 1.71 1.05.1.06.23.21.21.29-.21 1.07-.44 2.14-.66 3.21zm33.1-4.61c-2.92 3.11-9.34 2.13-11.21-1.77 2.48-1.4 4.99-2.68 7.88-3.02.29-.04.73.11.9.33.88 1.16 1.71 2.36 2.49 3.57.14.2.11.71-.05.89zm11.68-21.77c-1.28 2.83-2.59 5.65-3.93 8.45-1.3 2.73-1.85 5.57-.86 8.47.48 1.4 1.38 2.68 2.22 3.92.39.57.68 1.04.62 1.74-.06.68.1 1.38-.05 2.03-.11.47-.56.86-.87 1.28-.3-.25-.65-.45-.9-.75-1.76-2.07-3.54-4.13-5.22-6.26-1.98-2.5-3.75-5.13-4.8-8.17-.29-.82-.68-.93-1.44-.64-1.73.68-1.78.66-1.13 2.43.31.84.27 1.23-.73 1.46-2.84.65-5.36 2.04-7.91 3.4-.88.47-1.95.82-2.94.85-3.86.09-7.71.04-11.57.04-.16 0-.31-.04-.54-.06.1-1.42.38-2.64 1.56-3.61 2.33-1.9 3.25-4.38 2.61-7.36-.55-2.57-2.66-4.32-5.3-4.48-.28-.02-.56-.03-.85-.05 0-.11-.03-.2 0-.23 1.5-1.86 1.52-3.89.48-5.91-1.12-2.16-2.99-3.29-5.43-3.33-1.69-.03-3.12-.49-4.16-1.89-.07-.09-.12-.21-.25-.43.88.06 1.64.15 2.4.15 4.02.02 8.04.13 12.06-.02 2.84-.11 4.37 1.43 5.52 3.65 1.05 2.04.93 4.2.45 6.36-.48 2.18-.55 4.31.65 6.3 1.59 2.66 4.88 3.69 7.9 2.5 4.67-1.84 7.76-8.1 5.73-12.79-1-2.31-2.7-3.91-4.83-5.14-.25-.14-.5-.3-.73-.47-.07-.05-.1-.14-.22-.3.32-.03.56-.06.8-.06 4.54 0 9.07-.05 13.61.02 3.24.04 5.91 1.28 7.64 4.16.9 1.5 1.14 3.1.41 4.73z"/><path d="m22.29 19.85c.51-.11 1.09-.43 1.38-.83.38-.52.25-1.06-.59-1.11-.55-.03-1.09-.13-1.45-.17-1.18-.05-1.48.41-1.05 1.29.35.72 1.02.96 1.71.82z"/></svg>