<svg xmlns="http://www.w3.org/2000/svg" version="1.1" viewBox="-5.0 -10.0 110.0 135.0">
 <g>
  <path d="m93.816 69.426c0.18359-1.5625 0.51953-3.1133 0.61328-4.6797 0.10547-1.832-0.72656-3.25-2.3633-4.1484-2.0352-1.1133-2.8633-2.8555-2.8438-5.1328 0.03125-4.4727 0.003906-8.9453-0.007812-13.418-0.011719-3.5234-1.6172-6.1875-4.4258-8.207-2.5195-1.8125-5.3594-2.4336-8.4297-2.4258-12.703 0.035157-25.406 0.03125-38.109-0.011718-1.1406-0.003906-2.4297-0.10547-3.3867-0.63672-1.8516-1.0234-3.5352-2.3594-5.2422-3.6289-0.34375-0.25781-0.48828-0.78516-0.82031-1.3516 0.5625-0.027344 0.90625-0.050781 1.25-0.058594 1.8906-0.027343 3.5586-0.56641 4.875-2.0078 1.8633-2.0469 1.1484-4.6484-1.5234-5.3359-1.7773-0.45703-3.5273-0.28516-5.1875 0.60156-0.11719-0.078125-0.15234-0.089844-0.17188-0.11328-0.16016-0.20312-0.3125-0.41406-0.47656-0.61328-2.0312-2.4883-4.6406-3.6953-7.8555-3.332-2.3906 0.27344-4.332 1.4609-5.8281 3.3398-0.43359 0.54688-0.83594 0.54297-1.4961 0.39453-1.2148-0.26953-2.4961-0.5-3.7266-0.39844-2.7656 0.22656-3.8672 2.6406-2.4102 4.9883 1.1484 1.8438 2.9375 2.4844 4.9688 2.5078 0.94922 0.011719 1.1992 0.32422 1.1875 1.2305-0.046875 3.707 0.29297 7.3828 1.3398 10.949 3.1211 10.648 5.875 21.387 8.3281 32.211 1.0586 4.6719 1.3555 9.2031-0.82812 13.648-0.089844 0.18359-0.17969 0.33984-0.28125 0.46484-0.14453 0.17969-0.015625 0.44531 0.21484 0.44531h5.0898c0.21484 0 0.34766-0.23438 0.23438-0.41797-0.10547-0.17969-0.15625-0.42187-0.0625-0.74219 0.34766-2.625 0.58984-5.2656 1.0547-7.8711 0.41406-2.3164 1.0938-4.5859 1.6133-6.8828 0.12891-0.57422 0.375-0.75 0.93359-0.64844 1.9102 0.34766 3.793 0.1875 5.668-0.30469 0.23828-0.0625 0.74609 0.12891 0.82422 0.32422 1.5078 3.8203 2.2891 7.7695 1.5938 11.863-0.23438 1.3828-0.82422 2.7109-1.3438 4.0273-0.023437 0.066406-0.066406 0.125-0.11719 0.18359-0.17188 0.17578-0.046875 0.46875 0.19531 0.46875h5.168c0.21094 0 0.34375-0.22656 0.24219-0.41016-0.09375-0.16797-0.12891-0.39453-0.125-0.69922 0.050781-4.6797 0.6875-9.2773 1.8164-13.816 0.37891-1.5312 0.66016-3.0859 1.0078-4.7188h0.94922c4.082 0 8.1641-0.023438 12.242 0.027344 0.50391 0.007812 1.0195 0.38281 1.5 0.64453 0.21484 0.11719 0.32031 0.41406 0.52344 0.56641 1.1953 0.89844 1.8242 1.9414 1.3906 3.5469-0.23047 0.85156 0.43359 1.5742 1.293 1.7734 0.85938 0.19922 1.4258-0.1875 1.8203-0.92578 0.19922-0.37109 0.44531-0.71875 0.66797-1.0742 0.09375 0.050781 0.1875 0.10156 0.28125 0.14844 0 0.95312 0.11328 1.9219-0.019531 2.8555-0.57422 4.0508-1.9688 7.8164-4.0859 11.324-0.070312 0.11328-0.14062 0.21484-0.21484 0.30078-0.15625 0.17578-0.03125 0.45703 0.20703 0.45703h4.5312c0.16797 0 0.24219-0.0625 0.27344-0.23047 0.019531-0.10547 0.039063-0.20703 0.0625-0.30859 0.039063-0.17188 0.089844-0.33594 0.15234-0.5 1.0664-2.9141 2.2344-5.7969 3.2461-8.7305 0.46094-1.3398 0.60938-2.7812 0.96875-4.1562 0.089843-0.34766 0.44141-0.625 0.67578-0.93359 0.25781 0.23438 0.51953 0.46875 0.77344 0.70703 0.042968 0.042968 0.058593 0.11328 0.085937 0.17187 0.36719 0.76953 0.95703 1.1367 1.8125 0.92969 0.83203-0.19922 1.25-0.76953 1.2812-1.6133 0.011719-0.35547-0.17578-0.76562-0.050781-1.0469 0.1875-0.41016 0.52344-0.80859 0.90234-1.0625 0.19531-0.13281 0.76172-0.0625 0.90234 0.11719 0.97656 1.2461 1.9922 2.4844 2.2305 4.1406 0.52734 3.707-0.26562 7.1836-1.6797 10.602-0.11719 0.36719-0.29297 0.73438-0.54687 1.0234-0.12891 0.14453-0.27344 0.27344-0.42578 0.39844-0.19922 0.16406-0.082031 0.48828 0.17578 0.48828h5.3398c0.1875 0 0.32031-0.1875 0.25781-0.36719-0.027344-0.085938-0.050782-0.17578-0.0625-0.26563-0.03125-0.22266-0.011719-0.45312 0.054687-0.66797 0.11719-1.0234 0.33984-2.043 0.59766-3.043 1.0859-4.2344 2.2109-8.457 3.3086-12.688 0.53516-2.0703 0.41016-3.9805-1.3594-5.4961-0.28906-0.24609-0.48828-0.60547-0.69141-0.9375-1.5508-2.5352-0.73828-6.9883 1.7344-8.6289 0 1.1133-0.015625 2.1055 0.003906 3.0977 0.039063 2.3477 0.65625 4.4688 2.3984 6.1719 0.17969 0.17578 0.22656 0.65234 0.12891 0.91797-0.51172 1.3789-0.63281 2.7656-0.33984 4.1992 0.52734 2.5977 3.2344 5.3086 5.6836 5.5742-0.058594-0.42578-0.14453-0.83203-0.15625-1.2383-0.03125-0.62891-0.054687-1.2773 0.019531-1.9062zm-61.375-47.184c-1.0391 0.18359-1.8945 0.33594-2.8398 0.5 0.61719-1.5234 1.6953-1.7461 2.8398-0.5zm-23.191-0.17969c1.1758-1.0391 2.0156-0.89453 2.8711 0.58984-1.0859-0.0625-2.0352 0.10938-2.8711-0.58984zm13.27-3.6602c2.1797 0.73438 3.6016 2.4766 3.7266 4.6016 0.035156 0.64453 0.027344 1.2969-0.023438 1.9375-0.21484 2.5547 0.83203 4.4844 2.9609 5.7969 1.1719 0.71875 1.7266 1.5469 1.3672 2.9492-0.38672 1.5078-1.0742 2.7891-2.6641 3.1328-0.94141 0.20313-1.9844 0.066407-2.9648-0.050781-0.92578-0.10938-1.3438-0.80469-1.4297-1.7031-0.17188-1.7734 0.35156-3.2773 1.8281-4.332 0.60547-0.42969 0.56641-0.72266 0.20313-1.3125-1.0117-1.6484-2.0352-3.3047-2.8438-5.0508-1.1289-2.4492-2.7031-4.1562-5.5625-4.2852-0.12109-0.003907-0.23438-0.078126-0.43359-0.14844 1.4453-1.6602 3.7578-2.2383 5.8359-1.5352zm-2.9805 6.9492c-0.58594 0.34375-0.98828 0.75-1.2031 0.66797-0.33594-0.12891-0.625-0.55859-0.76563-0.92578-0.042968-0.10938 0.52734-0.64844 0.75-0.60938 0.35547 0.058594 0.65625 0.44141 1.2188 0.86719zm5.6992 44.824c-0.31641-1.5703-0.60547-2.9844-0.9375-4.625 2.168 1.3008 2.375 2.418 0.9375 4.625zm10.359-7.9961c-0.69531-0.67969-1.3828-1.3516-2.0742-2.0234-0.0625 0.039062-0.12891 0.078125-0.19141 0.11328 0.17188 0.59375 0.34375 1.1875 0.55078 1.8906-1.875-0.019531-3.4375-0.60156-4.918-1.4023-3.4258-1.8594-5.7695-4.7773-7.1172-8.3164-1.6055-4.2188-2.8242-8.582-4.1836-12.891-0.43359-1.375-0.78125-2.7734-1.2305-4.3867 0.48438 0.17188 0.79297 0.22266 1.0352 0.375 1.6445 1.0312 3.2812 2.0664 4.8906 3.1484 0.19531 0.13281 0.35938 0.65625 0.25781 0.84375-1.2422 2.2148-0.66406 4.4258 0.058593 6.5781 1.1484 3.4258 3.3164 6 6.8438 7.1562 2.2539 0.73828 3.6523 2.3633 4.8594 4.2383 0.52344 0.8125 1.0156 1.6562 1.4414 2.5234 0.32031 0.67188 0.55078 1.4062-0.22266 2.1523zm5.0898 7.8555c-0.125-0.011718-0.25-0.019531-0.37109-0.023437-0.375-1.457-0.74609-2.9141-1.1211-4.375 0.078126-0.054688 0.15625-0.10938 0.23438-0.16016 0.57031 0.34766 1.1445 0.69141 1.707 1.0508 0.097656 0.0625 0.23047 0.21094 0.21484 0.29297-0.21094 1.0703-0.44141 2.1406-0.66406 3.2148zm33.102-4.6094c-2.918 3.1133-9.3438 2.1289-11.211-1.7695 2.4766-1.3984 4.9922-2.6758 7.875-3.0195 0.28906-0.035157 0.73438 0.10938 0.89844 0.32812 0.875 1.1562 1.707 2.3555 2.4922 3.5742 0.13672 0.20313 0.10547 0.71484-0.054688 0.88672zm11.672-21.773c-1.2812 2.8281-2.5898 5.6484-3.9297 8.4531-1.3047 2.7305-1.8477 5.5742-0.85547 8.4727 0.48047 1.3984 1.375 2.6797 2.2227 3.918 0.39062 0.56641 0.67969 1.0391 0.61719 1.7422-0.0625 0.67578 0.10156 1.3828-0.046875 2.0273-0.10938 0.46875-0.5625 0.85547-0.86719 1.2773-0.30078-0.24609-0.64844-0.45312-0.89844-0.74609-1.7578-2.0742-3.5352-4.1328-5.2227-6.2617-1.9766-2.4961-3.7461-5.1328-4.7969-8.1719-0.28516-0.82422-0.68359-0.93359-1.4414-0.63672-1.7305 0.67578-1.7812 0.66406-1.1328 2.4336 0.30859 0.83594 0.26562 1.2305-0.73438 1.4648-2.8359 0.65234-5.3633 2.043-7.9102 3.4023-0.88281 0.47266-1.9453 0.82031-2.9375 0.84766-3.8555 0.09375-7.7109 0.039062-11.57 0.035156-0.15625 0-0.3125-0.035156-0.54297-0.0625 0.097657-1.4219 0.38281-2.6445 1.5625-3.6094 2.3281-1.8984 3.2461-4.3828 2.6133-7.3555-0.55078-2.5664-2.6602-4.3242-5.3047-4.4805-0.28125-0.015625-0.5625-0.03125-0.84766-0.046875 0-0.11328-0.027344-0.19531 0.003906-0.23047 1.5-1.8633 1.5195-3.8867 0.47656-5.9062-1.1172-2.1641-2.9922-3.2852-5.4258-3.3281-1.6914-0.03125-3.1172-0.49219-4.1562-1.8867-0.070313-0.09375-0.11719-0.20703-0.24609-0.43359 0.88281 0.058594 1.6406 0.14844 2.4023 0.15234 4.0195 0.019532 8.0391 0.13281 12.055-0.019531 2.8398-0.10938 4.3672 1.4297 5.5156 3.6484 1.0508 2.0352 0.92969 4.1953 0.44922 6.3555-0.48438 2.1797-0.54688 4.3086 0.64844 6.3008 1.5938 2.6602 4.875 3.6914 7.9023 2.4961 4.668-1.8398 7.7578-8.0977 5.7266-12.789-1-2.3086-2.7031-3.9102-4.832-5.1367-0.25391-0.14453-0.49609-0.30469-0.73438-0.46875-0.066406-0.046875-0.10156-0.14062-0.21875-0.30469 0.32031-0.027344 0.5625-0.0625 0.80078-0.0625 4.5352-0.003907 9.0742-0.046876 13.609 0.015624 3.2422 0.042969 5.9141 1.2773 7.6406 4.1641 0.90234 1.5039 1.1445 3.0977 0.40625 4.7305z"/>
  <path d="m27.891 34.715c0.50781-0.10547 1.0859-0.42578 1.3828-0.82812 0.38281-0.51562 0.25391-1.0586-0.58594-1.1094-0.54688-0.03125-1.0938-0.12891-1.4531-0.17188-1.1797-0.050781-1.4844 0.40625-1.0508 1.293 0.35156 0.72266 1.0234 0.95703 1.707 0.81641z"/>
 </g>
<text x="0.0" y="117.5" font-size="5.0" font-weight="bold" font-family="Arbeit Regular, Helvetica, Arial-Unicode, Arial, Sans-serif" fill="#000000">Created by jisangbong</text><text x="0.0" y="122.5" font-size="5.0" font-weight="bold" font-family="Arbeit Regular, Helvetica, Arial-Unicode, Arial, Sans-serif" fill="#000000">from Noun Project</text></svg>