<svg height="378.44" viewBox="0 0 409.33999 378.43999" width="409.34" xmlns="http://www.w3.org/2000/svg"><g stroke="#000" stroke-miterlimit="10" stroke-width="5" transform="translate(-5.82 -.01)"><path d="m194.86 294.21c0 10.42-1.7 20.53-5.09 30.33-3.39 9.81-8.66 18.53-15.8 26.16-7.15 7.63-16.29 13.74-27.43 18.35-11.14 4.6-24.52 6.9-40.14 6.9-9.33 0-18.38-.79-27.16-2.36-8.78-1.58-17.01-4-24.7-7.27s-14.59-7.42-20.71-12.44c-6.12-5.03-11.17-10.99-15.17-17.89l43.23-25.25c5.09 11.87 11.41 21.16 18.98 27.88s16.5 10.08 26.79 10.08c6.54 0 12.38-1.24 17.53-3.72s9.54-6.08 13.17-10.81 6.39-10.44 8.26-17.17c1.88-6.72 2.82-14.32 2.82-22.8v-96.81c0-15.86-4.12-28.06-12.35-36.6-8.24-8.54-20.83-12.81-37.78-12.81-5.33 0-10.99.79-16.98 2.36-5.99 1.58-11.57 4.27-16.71 8.08-5.15 3.81-9.42 8.87-12.81 15.17s-5.09 14.17-5.09 23.61c3.87-6.78 8.81-11.68 14.8-14.71s11.96-4.54 17.89-4.54c5.57 0 10.32.91 14.26 2.72 3.93 1.82 7.14 4.18 9.63 7.08 2.48 2.91 4.3 6.21 5.45 9.9 1.15 3.7 1.73 7.48 1.73 11.35 0 4.48-.85 8.69-2.54 12.62-1.7 3.94-4.3 7.39-7.81 10.35-3.51 2.97-7.93 5.3-13.26 6.99-5.33 1.7-11.62 2.54-18.89 2.54-6.18 0-12.44-1.06-18.8-3.18s-12.14-5.3-17.35-9.54-9.45-9.5-12.71-15.8c-3.27-6.29-4.9-13.62-4.9-21.98s1.24-16.1 3.72-22.89c2.48-6.78 5.84-12.77 10.08-17.98s9.2-9.66 14.89-13.35 11.78-6.75 18.25-9.17c6.48-2.42 13.14-4.18 19.98-5.27s13.59-1.63 20.25-1.63c11.38 0 22.61 1.24 33.69 3.72s20.98 6.93 29.7 13.35 15.74 15.17 21.07 26.25 7.99 25.28 7.99 42.59v87.55zm-130.6-84.46c0 4.24 1.51 7.87 4.54 10.9s6.66 4.54 10.9 4.54 7.87-1.51 10.9-4.54 4.54-6.66 4.54-10.9-1.45-7.87-4.36-10.9-6.48-4.54-10.72-4.54c-2.18 0-4.21.39-6.08 1.18-1.88.79-3.54 1.88-5 3.27-1.45 1.39-2.61 3.03-3.45 4.9-.85 1.88-1.27 3.91-1.27 6.08z"/><g fill="none"><path d="m90.23 22.48c-6.42 0-12.44.58-18.07 1.73s-10.87 2.57-15.71 4.27c7.87 1.7 14.08 5.3 18.62 10.81s6.81 12.87 6.81 22.07c0 4.24-.85 8.24-2.54 11.99s-4.12 7.06-7.27 9.9c-3.15 2.85-6.93 5.12-11.35 6.81-4.42 1.7-9.29 2.54-14.62 2.54s-10.29-.85-14.89-2.54-8.6-4.12-11.99-7.27c-3.39-3.15-6.05-6.93-7.99-11.35s-2.91-9.29-2.91-14.62c0-9.45 2.36-17.59 7.08-24.43s10.96-12.47 18.71-16.89 16.5-7.69 26.25-9.81 19.71-3.18 29.88-3.18c11.02 0 21.65 1.33 31.88 4s19.29 6.39 27.16 11.17c7.87 4.79 14.2 10.57 18.98 17.35 4.79 6.78 7.17 14.23 7.17 22.34 0 4.6-.57 8.81-1.73 12.62-1.15 3.81-2.63 7.3-4.45 10.44-1.82 3.15-3.78 5.97-5.9 8.45s-4.15 4.63-6.08 6.45l-29.24-21.07c1.58-1.69 2.97-3.24 4.18-4.63s2.21-2.82 3-4.27 1.39-3.03 1.82-4.72.64-3.69.64-5.99c0-3.27-.6-6.78-1.82-10.54-1.21-3.75-3.54-7.23-6.99-10.44-3.45-3.21-8.26-5.87-14.44-7.99s-14.23-3.18-24.16-3.18zm-60.12 36.33c0 4.24 1.52 7.87 4.54 10.9s6.66 4.54 10.9 4.54 7.87-1.51 10.9-4.54 4.54-6.66 4.54-10.9-1.51-7.87-4.54-10.9-6.66-4.54-10.9-4.54-7.87 1.52-10.9 4.54c-3.03 3.03-4.54 6.66-4.54 10.9z"/><path d="m412.64 235.54c0 17.32-2.67 31.51-7.99 42.59-5.33 11.08-12.35 19.83-21.07 26.25s-18.62 10.87-29.7 13.35-22.31 3.72-33.69 3.72c-6.66 0-13.41-.54-20.25-1.63s-13.5-2.84-19.98-5.27c-6.48-2.42-12.56-5.48-18.25-9.17s-10.66-8.14-14.89-13.35c-4.24-5.21-7.6-11.2-10.08-17.98s-3.72-14.41-3.72-22.89 1.63-15.68 4.9-21.98c3.27-6.29 7.51-11.56 12.71-15.8 5.21-4.24 10.99-7.42 17.35-9.54s12.62-3.18 18.8-3.18c7.27 0 13.56.85 18.89 2.54 5.33 1.7 9.75 4.03 13.26 6.99 3.51 2.97 6.11 6.42 7.81 10.35 1.69 3.94 2.54 8.15 2.54 12.62 0 3.88-.58 7.66-1.73 11.35-1.15 3.7-2.97 6.99-5.45 9.9s-5.69 5.27-9.63 7.08c-3.94 1.82-8.69 2.72-14.26 2.72-5.93 0-11.9-1.51-17.89-4.54s-10.93-7.93-14.8-14.71c0 9.45 1.69 17.32 5.09 23.61 3.39 6.3 7.66 11.35 12.81 15.17 5.15 3.81 10.72 6.51 16.71 8.08 5.99 1.58 11.65 2.36 16.98 2.36 16.95 0 29.54-4.27 37.78-12.81 8.23-8.54 12.35-20.74 12.35-36.6v-42.32c0-8.47-.94-16.08-2.82-22.8s-4.63-12.44-8.26-17.17-8.02-8.32-13.17-10.81c-5.15-2.48-10.99-3.72-17.53-3.72-10.29 0-19.23 3.36-26.79 10.08-7.57 6.72-13.9 16.02-18.98 27.88l-43.23-25.25c4-6.9 9.05-12.87 15.17-17.89 6.11-5.02 13.02-9.17 20.71-12.44s15.92-5.69 24.7-7.27c8.78-1.57 17.83-2.36 27.16-2.36 15.62 0 29 2.3 40.14 6.9s20.28 10.72 27.43 18.35c7.14 7.63 12.41 16.35 15.8 26.16s5.09 19.92 5.09 30.33v33.06zm-130.6-3.08c0 2.18.42 4.21 1.27 6.08.85 1.88 2 3.51 3.45 4.9s3.12 2.48 5 3.27 3.91 1.18 6.08 1.18c4.24 0 7.81-1.51 10.72-4.54s4.36-6.66 4.36-10.9-1.52-7.87-4.54-10.9c-3.03-3.03-6.66-4.54-10.9-4.54s-7.87 1.52-10.9 4.54-4.54 6.66-4.54 10.9z"/></g></g></svg>