<svg xmlns="http://www.w3.org/2000/svg" version="1.1" viewBox="-5.0 -10.0 110.0 135.0">
 <path d="m58.891 80.98c3.6719 0.46094 7.1719 0.85156 7.1719 0.85156l-2.0781-12.5c8.1992 4.6914 11.691 5.9297 11.691 5.9297l-1.8398-5.4297s-6.7891-19.91-9.8516-26.211c-1.6719-3.4297-4.0703-5.3711-6.1484-6.4609l-1.0586-0.5c-3.2891-0.89062-3.4219-10.18-3.2891-14.27 0.14062-4.0781-0.94922-11.98-9.8008-12.391s-9.8008 6.3984-9.8008 6.3984l-9.5312 2.5898 9.5312 3s4.4883 3.2695 2.8594 6.9414l-5.4492 8.0586c-1.2305 1.8008-2.0195 4.0391-2.5312 6.1914-1.1602 4.9609-0.89844 10.141 0.57031 15.02 1.5508 5.1211 4.6992 11.941 10.93 16.691l-0.070313-0.03125 1.1406 11.32c0 1.0391-0.83984 1.8711-1.8789 1.8711h-1.3281c-1 0-1.9609 0.35938-2.7109 1.0117l-1.0781 0.92969h11.859c0.85156 0 1.2812-1.0195 0.69922-1.6289-0.17969-0.19141-0.44141-0.30078-0.69922-0.30078h-1c-1.2188 0-1.6094-1.1484-1.5195-2.3594 0.17187-2.3711 0.96094-6.4492 1.2695-7.9492 2.0117 0.94922 4.25 1.7109 6.7617 2.1914 0.92187 0.17969 2.3398 0.39063 3.9297 0.60938l0.51953 5.6484c0 1.0391-0.83984 1.8711-1.8789 1.8711h-1.3281c-1 0-1.9609 0.35938-2.7109 1.0117l-1.0781 0.92969h11.859c0.85156 0 1.2812-1.0195 0.69922-1.6289-0.17969-0.19141-0.44141-0.30078-0.69922-0.30078h-1c-1.2188 0-1.6094-1.1484-1.5195-2.3594 0.078125-1.1406 0.21875-3.1211 0.39062-4.7305zm-19.262-62.09c-0.71094 0-1.2812-0.57031-1.2812-1.2812s0.57031-1.2812 1.2812-1.2812c0.71094 0 1.2812 0.57031 1.2812 1.2812s-0.57031 1.2812-1.2812 1.2812z"/>
<text x="0.0" y="117.5" font-size="5.0" font-weight="bold" font-family="Arbeit Regular, Helvetica, Arial-Unicode, Arial, Sans-serif" fill="#000000">Created by Agne Alesiute</text><text x="0.0" y="122.5" font-size="5.0" font-weight="bold" font-family="Arbeit Regular, Helvetica, Arial-Unicode, Arial, Sans-serif" fill="#000000">from Noun Project</text></svg>