<svg viewBox="0 0 51.32 80.03" xmlns="http://www.w3.org/2000/svg"><path d="m34.54 71c3.67.46 7.17.85 7.17.85l-2.08-12.5c8.2 4.69 11.69 5.93 11.69 5.93l-1.84-5.43s-6.79-19.91-9.85-26.21c-1.67-3.43-4.07-5.37-6.15-6.46l-1.06-.5c-3.29-.89-3.42-10.18-3.29-14.27.14-4.08-.95-11.98-9.8-12.39s-9.8 6.4-9.8 6.4l-9.53 2.59 9.53 3s4.49 3.27 2.86 6.94l-5.45 8.06c-1.23 1.8-2.02 4.04-2.53 6.19-1.16 4.96-.9 10.14.57 15.02 1.55 5.12 4.7 11.94 10.93 16.69l-.07-.03 1.14 11.32c0 1.04-.84 1.87-1.88 1.87h-1.33c-1 0-1.96.36-2.71 1.01l-1.08.93h11.86c.85 0 1.28-1.02.7-1.63-.18-.19-.44-.3-.7-.3h-1c-1.22 0-1.61-1.15-1.52-2.36.17-2.37.96-6.45 1.27-7.95 2.01.95 4.25 1.71 6.76 2.19.92.18 2.34.39 3.93.61l.52 5.65c0 1.04-.84 1.87-1.88 1.87h-1.33c-1 0-1.96.36-2.71 1.01l-1.08.93h11.86c.85 0 1.28-1.02.7-1.63-.18-.19-.44-.3-.7-.3h-1c-1.22 0-1.61-1.15-1.52-2.36.08-1.14.22-3.12.39-4.73zm-19.27-62.09c-.71 0-1.28-.57-1.28-1.28s.57-1.28 1.28-1.28 1.28.57 1.28 1.28-.57 1.28-1.28 1.28z"/></svg>