<svg height="200.71001" viewBox="0 0 206.17999 200.71001" width="206.17999" xmlns="http://www.w3.org/2000/svg"><path d="m31.61 173.47c2.18 0 4.21-.39 6.08-1.18 1.88-.79 3.51-1.84 4.9-3.18 1.39-1.33 2.48-2.91 3.27-4.72.79-1.82 1.18-3.75 1.18-5.81v-98.09c-.97.85-2.12 1.54-3.45 2.09-1.33.54-2.72.97-4.18 1.27-1.45.3-2.94.52-4.45.64-1.52.12-2.82.18-3.91.18-4 0-7.87-.75-11.62-2.27-3.75-1.51-7.08-3.57-9.99-6.18-2.91-2.6-5.21-5.75-6.9-9.45-1.7-3.69-2.54-7.72-2.54-12.08 0-3.63.73-7.51 2.18-11.62 1.45-4.12 3.87-7.87 7.27-11.26s7.87-6.2 13.44-8.45c5.57-2.24 12.47-3.36 20.71-3.36 5.69 0 11.44.94 17.26 2.82 5.81 1.88 11.05 4.88 15.71 8.99 4.66 4.12 8.47 9.45 11.44 15.98 2.97 6.54 4.45 14.41 4.45 23.61v90.46c0 5.81 1.18 10.75 3.54 14.8 2.36 4.06 5.33 7.33 8.9 9.81s7.48 4.27 11.72 5.36 8.29 1.63 12.17 1.63 7.9-.64 11.72-1.91 7.2-3.21 10.17-5.81 5.39-5.9 7.27-9.9 2.82-8.66 2.82-13.99v-138.94h45.41v138.96c0 10.54-2.21 19.53-6.63 26.97-4.42 7.45-10.26 13.53-17.53 18.25s-15.53 8.17-24.79 10.35-18.74 3.27-28.43 3.27c-6.78 0-13.17-.73-19.16-2.18s-11.47-3.39-16.44-5.81-9.35-5.3-13.17-8.63c-3.81-3.33-6.93-6.87-9.35-10.63-1.82 5.81-4.18 10.48-7.08 13.99-2.91 3.51-6.06 6.27-9.45 8.26-3.39 2-6.9 3.33-10.54 4-3.63.66-7.08 1-10.35 1h-19.98v-27.25h18.35zm-15.26-140.23c0 1.94.39 3.81 1.18 5.63s1.88 3.42 3.27 4.81 3 2.51 4.81 3.36c1.82.85 3.81 1.27 5.99 1.27s4.21-.42 6.08-1.27c1.88-.85 3.51-1.97 4.9-3.36s2.48-3 3.27-4.81c.79-1.82 1.18-3.69 1.18-5.63s-.39-3.81-1.18-5.63-1.88-3.42-3.27-4.81-3.03-2.51-4.9-3.36c-1.88-.85-3.91-1.27-6.08-1.27s-4.18.43-5.99 1.27c-1.82.85-3.42 1.97-4.81 3.36s-2.48 3-3.27 4.81c-.79 1.82-1.18 3.7-1.18 5.63z"/></svg>