<svg height="323.95001" viewBox="0 0 459.64002 323.95001" width="459.64001" xmlns="http://www.w3.org/2000/svg"><g transform="translate(-15.21 -.01)"><path d="m46.82 294.22c2.18 0 4.21-.39 6.08-1.18 1.88-.79 3.51-1.84 4.9-3.18 1.39-1.33 2.48-2.91 3.27-4.72.79-1.82 1.18-3.75 1.18-5.81v-98.09c-.97.85-2.12 1.54-3.45 2.09-1.33.54-2.72.97-4.18 1.27-1.45.3-2.94.52-4.45.64-1.52.12-2.82.18-3.91.18-4 0-7.87-.75-11.62-2.27-3.75-1.51-7.08-3.57-9.99-6.18-2.91-2.6-5.21-5.75-6.9-9.45-1.7-3.69-2.54-7.72-2.54-12.08 0-3.63.73-7.51 2.18-11.62 1.45-4.12 3.87-7.87 7.27-11.26s7.87-6.2 13.44-8.45c5.57-2.24 12.47-3.36 20.71-3.36 5.69 0 11.44.94 17.26 2.82 5.81 1.88 11.05 4.88 15.71 8.99 4.66 4.12 8.47 9.45 11.44 15.98 2.97 6.54 4.45 14.41 4.45 23.61v90.46c0 5.81 1.18 10.75 3.54 14.8 2.36 4.06 5.33 7.33 8.9 9.81s7.48 4.27 11.72 5.36 8.29 1.63 12.17 1.63 7.9-.64 11.72-1.91 7.2-3.21 10.17-5.81 5.39-5.9 7.27-9.9 2.82-8.66 2.82-13.99v-138.95h45.41v138.96c0 10.54-2.21 19.53-6.63 26.97-4.42 7.45-10.26 13.53-17.53 18.25s-15.53 8.17-24.79 10.35-18.74 3.27-28.43 3.27c-6.78 0-13.17-.73-19.16-2.18s-11.47-3.39-16.44-5.81-9.35-5.3-13.17-8.63c-3.81-3.33-6.93-6.87-9.35-10.63-1.82 5.81-4.18 10.48-7.08 13.99-2.91 3.51-6.06 6.27-9.45 8.26-3.39 2-6.9 3.33-10.54 4-3.63.66-7.08 1-10.35 1h-19.98v-27.25h18.35zm-15.26-140.23c0 1.94.39 3.81 1.18 5.63s1.88 3.42 3.27 4.81 3 2.51 4.81 3.36c1.82.85 3.81 1.27 5.99 1.27s4.21-.42 6.08-1.27c1.88-.85 3.51-1.97 4.9-3.36s2.48-3 3.27-4.81c.79-1.82 1.18-3.69 1.18-5.63s-.39-3.81-1.18-5.63-1.88-3.42-3.27-4.81-3.03-2.51-4.9-3.36c-1.88-.85-3.91-1.27-6.08-1.27s-4.18.43-5.99 1.27c-1.82.85-3.42 1.97-4.81 3.36s-2.48 3-3.27 4.81c-.79 1.82-1.18 3.7-1.18 5.63z"/><g fill="none" stroke="#000" stroke-miterlimit="10" stroke-width="5"><path d="m120.1 22.48c-6.42 0-12.44.58-18.07 1.73s-10.87 2.57-15.71 4.27c7.87 1.7 14.08 5.3 18.62 10.81s6.81 12.87 6.81 22.07c0 4.24-.85 8.24-2.54 11.99s-4.12 7.06-7.27 9.9c-3.15 2.85-6.93 5.12-11.35 6.81-4.42 1.7-9.29 2.54-14.62 2.54s-10.29-.85-14.89-2.54-8.6-4.12-11.99-7.27-6.05-6.93-7.99-11.35-2.91-9.29-2.91-14.62c0-9.45 2.36-17.59 7.08-24.43s10.96-12.47 18.71-16.89 16.5-7.69 26.25-9.81 19.71-3.18 29.88-3.18c11.02 0 21.65 1.33 31.88 4s19.29 6.39 27.16 11.17c7.87 4.79 14.2 10.57 18.98 17.35 4.79 6.78 7.17 14.23 7.17 22.34 0 4.6-.57 8.81-1.73 12.62-1.15 3.81-2.63 7.3-4.45 10.44-1.82 3.15-3.78 5.97-5.9 8.45s-4.15 4.63-6.08 6.45l-29.24-21.07c1.58-1.69 2.97-3.24 4.18-4.63s2.21-2.82 3-4.27 1.39-3.03 1.82-4.72.64-3.69.64-5.99c0-3.27-.6-6.78-1.82-10.54-1.21-3.75-3.54-7.23-6.99-10.44s-8.26-5.87-14.44-7.99-14.23-3.18-24.16-3.18zm-60.12 36.33c0 4.24 1.52 7.87 4.54 10.9s6.66 4.54 10.9 4.54 7.87-1.51 10.9-4.54 4.54-6.66 4.54-10.9-1.51-7.87-4.54-10.9-6.66-4.54-10.9-4.54-7.87 1.52-10.9 4.54c-3.03 3.03-4.54 6.66-4.54 10.9z"/><path d="m358.67 270.06c0 9.2-1.48 17.07-4.45 23.61s-6.78 11.87-11.44 15.98c-4.66 4.12-9.9 7.12-15.71 8.99s-11.57 2.82-17.26 2.82c-8.24 0-15.14-1.12-20.71-3.36s-10.05-5.05-13.44-8.45c-3.39-3.39-5.81-7.14-7.27-11.26-1.45-4.12-2.18-7.99-2.18-11.62 0-4.36.85-8.38 2.54-12.08 1.69-3.69 4-6.84 6.9-9.45 2.91-2.6 6.24-4.66 9.99-6.18 3.75-1.51 7.63-2.27 11.62-2.27 2.3 0 5.09.3 8.36.91s5.81 1.7 7.63 3.27v-83.01c-1.82 1.7-4.36 3-7.63 3.91s-6.06 1.36-8.36 1.36c-4.72 0-8.99-.79-12.81-2.36-3.81-1.57-7.08-3.72-9.81-6.45s-4.81-5.99-6.27-9.81-2.18-7.96-2.18-12.44c0-4.72.91-9.02 2.72-12.9 1.82-3.87 4.24-7.17 7.27-9.9 3.03-2.72 6.54-4.84 10.54-6.36 4-1.51 8.23-2.27 12.71-2.27 3.27 0 6.72.33 10.35 1s7.14 2 10.54 4c3.39 2 6.54 4.75 9.45 8.26s5.27 8.17 7.08 13.99c2.42-3.75 5.54-7.29 9.35-10.63 3.81-3.33 8.2-6.2 13.17-8.63 4.96-2.42 10.44-4.36 16.44-5.81s12.38-2.18 19.16-2.18c9.69 0 19.16 1.09 28.43 3.27s17.53 5.63 24.79 10.35 13.11 10.81 17.53 18.25c4.42 7.45 6.63 16.44 6.63 26.97v138.96h-45.41v-138.96c0-5.33-.94-9.99-2.82-13.99s-4.3-7.29-7.27-9.9c-2.97-2.6-6.36-4.54-10.17-5.81s-7.72-1.91-11.72-1.91-7.93.54-12.17 1.63-8.15 2.88-11.72 5.36-6.54 5.75-8.9 9.81-3.54 8.99-3.54 14.8v90.46zm-76.1-118.07c0 2.06.39 4 1.18 5.81.79 1.82 1.88 3.39 3.27 4.72s3 2.39 4.81 3.18c1.82.79 3.81 1.18 5.99 1.18s4.21-.39 6.08-1.18c1.88-.79 3.51-1.84 4.9-3.18 1.39-1.33 2.48-2.91 3.27-4.72.79-1.82 1.18-3.75 1.18-5.81s-.39-4-1.18-5.81c-.79-1.82-1.88-3.39-3.27-4.72s-3.03-2.39-4.9-3.18c-1.88-.79-3.91-1.18-6.08-1.18s-4.18.39-5.99 1.18c-1.82.79-3.42 1.85-4.81 3.18s-2.48 2.91-3.27 4.72c-.79 1.82-1.18 3.75-1.18 5.81zm0 136.23c0 1.94.39 3.81 1.18 5.63s1.88 3.42 3.27 4.81 3 2.51 4.81 3.36c1.82.85 3.81 1.27 5.99 1.27s4.21-.42 6.08-1.27c1.88-.85 3.51-1.97 4.9-3.36s2.48-3 3.27-4.81c.79-1.82 1.18-3.69 1.18-5.63s-.39-3.81-1.18-5.63-1.88-3.42-3.27-4.81-3.03-2.51-4.9-3.36c-1.88-.85-3.91-1.27-6.08-1.27s-4.18.43-5.99 1.27c-1.82.85-3.42 1.97-4.81 3.36s-2.48 3-3.27 4.81c-.79 1.82-1.18 3.7-1.18 5.63z"/></g></g></svg>