<svg xmlns="http://www.w3.org/2000/svg" version="1.1" viewBox="-5.0 -10.0 110.0 135.0">
 <path d="m44.734 42.602 11.898-2.4375c12.43-7.0625 23.855-20.867 21.438-35.48l-41.461 36.836c2.7461-0.24219 5.6055 0.042969 8.125 1.082z"/>
 <path d="m94.613 81.336h-16.766c-10.766 0-17.828-3.3281-23.012-8.9062-4.3359-4.6953-7.418-11.012-10.277-18.297-0.62109-1.5703-1.1953-3.1211-1.7773-4.6953-0.070312-0.20312-0.15234-0.33594-0.28516-0.46875-0.26562-0.24609-0.70312-0.33594-1.0391-0.26562-0.15234 0.039063-0.33594 0.13281-0.46875 0.26562l-3.0117 2.6836c-0.46875 0.39844-1.1719 0.37891-1.5938-0.09375-0.39844-0.46875-0.35547-1.1719 0.11328-1.5938l2.9883-2.6836c0.41797-0.37891 0.90625-0.62109 1.4375-0.75391 0.53125-0.13281 1.082-0.13281 1.6445 0.019531 0.55078 0.13281 1.0391 0.39844 1.4375 0.75391 0.39844 0.35547 0.70312 0.81641 0.88672 1.3477 0.88672 2.3867 1.7969 4.8477 2.8164 7.3047 0.55078 0.019531 1.1133 0.039063 1.6641 0.070313 0.20312-0.92969 0.30469-1.8789 0.30469-2.8359 0-1.2461-0.17188-2.4805-0.53125-3.6719-0.17188-0.60156 0.17188-1.2148 0.75391-1.3984 0.60156-0.17188 1.2148 0.17187 1.3984 0.75391 0.41797 1.418 0.62109 2.8789 0.62109 4.3164 0 0.94922-0.09375 1.9297-0.26562 2.8789h1.3984c0.24609 0.24609 0.51172 0.55078 0.77734 0.79688 3.1641 2.8789 7.0195 4.918 11.145 6.2656 4.7656 1.5508 9.8359 2.2148 14.57 2.2148h15.082c0.62109 0 1.1328-0.51172 1.1328-1.1328 0-0.62109-0.51172-1.1328-1.1328-1.1328l-15.094 0.003906c-4.5195 0-9.3672-0.62109-13.867-2.1016-3.4609-1.1328-6.7148-2.7656-9.4375-5.0117 0.66406-0.039062 1.3281-0.070312 1.9883-0.11328 0.24609-1.1523 0.35547-2.3281 0.37891-3.5 0-1.5508-0.17188-3.1211-0.57031-4.6523-0.15234-0.60156 0.22266-1.2148 0.81641-1.3789 0.60156-0.15234 1.1953 0.22266 1.3477 0.81641 0.4375 1.7031 0.66406 3.4805 0.64453 5.2227 0 1.082-0.11328 2.1953-0.28516 3.2539 2.4375-0.24609 4.7344-0.62109 6.8867-1.082 0.11328-1.2461 0.17188-2.4609 0.17188-3.6719 0.019531-1.7031-0.039063-3.4062-0.20312-5.1133-0.039063-0.60156 0.39844-1.1523 1.0195-1.2148 0.62109-0.039062 1.1719 0.41797 1.2148 1.0195 0.15234 1.7773 0.24609 3.5625 0.22266 5.3359-0.019531 1.0391-0.070313 2.082-0.13281 3.1016 2.3867-0.64453 4.582-1.4375 6.582-2.3477 0.070312-1.0625 0.09375-2.1523 0.070312-3.2344-0.039062-1.5117-0.20312-3.0117-0.4375-4.5-0.09375-0.62109 0.33594-1.1953 0.92969-1.3047 0.62109-0.09375 1.1953 0.33594 1.2852 0.92969 0.26562 1.5938 0.41797 3.2148 0.46875 4.8047 0.019531 0.73438 0.019531 1.4375 0 2.1523 6.7969-3.7227 10.898-9.0391 12.488-15.152l-46.645 9.5703c-2.8789-1.418-6.9297-1.7227-11.094-0.57031-6.9805 1.9297-11.602 7.2227-10.348 11.805 0.070312 0.26562 0.15234 0.53125 0.26562 0.77734-0.77734-1.5703-2.3867-2.6836-4.2773-2.6836-2.6328 0-4.7656 2.1211-4.7656 4.7656 0 0.46875 0.070312 0.92969 0.17188 1.3477l-9.6328 5.5625c-0.53125 0.30469-0.70312 1-0.39844 1.5312s0.98047 0.73438 1.5312 0.41797l9.6328-5.582c0.86719 0.92969 2.082 1.4805 3.4609 1.4805 2.6133 0 4.7656-2.1211 4.7656-4.7656 0-0.66406-0.13281-1.2852-0.37891-1.8555 0.55078 1.1523 1.4805 2.1211 2.6836 2.8555l-2.8555 10.184-8.9062 8.3047h-3.082c-0.62109 0-1.1328 0.51172-1.1328 1.1328 0 0.62109 0.51172 1.1328 1.1328 1.1328h3.5195c0.26562 0 0.53125-0.11328 0.75391-0.30469l9.4375-8.7969c0.15234-0.15234 0.28516-0.33594 0.33594-0.55078l2.8555-10.121c0.60156 0.20313 1.2461 0.35547 1.8789 0.48828l-0.33594 11.254-5.6953 11.867-8.5938 6.6641h-4.5195c-0.62109 0-1.1133 0.51172-1.1133 1.1328 0 0.62109 0.48828 1.1133 1.1133 1.1133h4.8984c0.24609 0 0.48828-0.070313 0.68359-0.22266l9.1211-7.0625c0.13281-0.11328 0.24609-0.24609 0.30469-0.41797l5.8867-12.266c0.070312-0.15234 0.13281-0.30469 0.13281-0.48828l0.33594-11.316c0.83594 0.019532 1.7031 0 2.5938-0.11328 3.4805 9.2344 6.3164 15.836 9.8555 20.797 4.5195 6.3359 10.051 9.9492 19.246 12.848 0.60156 0.17188 1.2148-0.15234 1.418-0.75391 0.17188-0.57031-0.15234-1.2148-0.75391-1.3984-8.6836-2.7227-13.887-6.1133-18.094-12-4.5-6.3359-7.4883-14.684-10.234-22.039-0.77734-2.082-1.4609-3.9688-2.1523-5.8281-0.070313-0.20312-0.17188-0.35547-0.28516-0.46875-0.13281-0.11328-0.30469-0.20312-0.48828-0.24609-0.20312-0.039062-0.39844-0.070312-0.55078-0.019531-0.17188 0.039062-0.33594 0.13281-0.48828 0.26562l-2.9883 2.6836c-0.46875 0.39844-1.1719 0.37891-1.5938-0.09375-0.39844-0.46875-0.37891-1.1719 0.09375-1.5938l3.0117-2.6836c0.41797-0.37891 0.90625-0.62109 1.4375-0.75391 0.53125-0.13281 1.082-0.13281 1.6133 0 0.55078 0.15234 1.0391 0.39844 1.4375 0.77734 0.39844 0.35547 0.70313 0.81641 0.90625 1.3477 0.73438 2.0195 1.4609 4.0117 2.1523 5.8047 0.28516 0.77734 0.57031 1.5508 0.86719 2.3477 1.7031-0.60156 3.2539-1.3984 4.5625-2.3281 2.5938 6.1133 5.4883 11.469 9.3672 15.664 5.6016 6.0508 13.172 9.6328 24.652 9.6328h16.766c0.62109 0 1.1328-0.51172 1.1328-1.1328 0.019532-0.58984-0.49219-1.1016-1.1133-1.1016z"/>
 <path d="m53.949 5.6133-17.562 33.07 19.645-17.43c0.24609-4.7656-0.51172-10.02-2.082-15.641z"/>
<text x="0.0" y="117.5" font-size="5.0" font-weight="bold" font-family="Arbeit Regular, Helvetica, Arial-Unicode, Arial, Sans-serif" fill="#000000">Created by Arjuna</text><text x="0.0" y="122.5" font-size="5.0" font-weight="bold" font-family="Arbeit Regular, Helvetica, Arial-Unicode, Arial, Sans-serif" fill="#000000">from Noun Project</text></svg>