<svg height="349.95279" viewBox="0 0 421.13 349.95279" width="421.13" xmlns="http://www.w3.org/2000/svg"><g stroke="#000" stroke-miterlimit="10" stroke-width="5" transform="translate(-12.7 -111.13)"><path d="m91.32 251.35c-6.18 0-12.26-.7-18.25-2.09s-11.72-3.42-17.17-6.08c0 7.87 1.48 14.56 4.45 20.07s6.9 10.05 11.81 13.62c4.9 3.57 10.59 6.18 17.07 7.81s13.29 2.45 20.43 2.45c7.99 0 15.17-1.3 21.52-3.91 6.36-2.6 11.78-6.24 16.26-10.9s7.93-10.17 10.35-16.53 3.63-13.29 3.63-20.8v-118.43h45.41v118.43c0 13.69-2.45 25.49-7.36 35.42-4.9 9.93-11.62 18.16-20.16 24.7s-18.62 11.38-30.24 14.53-24.16 4.72-37.6 4.72c-12.6 0-24.67-1.09-36.24-3.27s-21.8-5.75-30.7-10.72c-8.9-4.96-16.02-11.47-21.34-19.53-5.33-8.05-7.99-17.89-7.99-29.52 0-6.42 1-12.44 3-18.07s4.81-10.75 8.45-15.35c-3.63-5.45-6.45-11.44-8.45-17.98s-3-13.56-3-21.07c0-10.65 2.06-20.04 6.18-28.15s9.32-14.92 15.62-20.43c6.29-5.51 13.23-9.66 20.8-12.44s14.8-4.18 21.71-4.18c7.38 0 13.74.79 19.07 2.36 5.33 1.58 9.72 3.79 13.17 6.63 3.45 2.85 6.02 6.24 7.72 10.17 1.69 3.94 2.54 8.33 2.54 13.17 0 4-.7 7.72-2.09 11.17s-3.39 6.48-5.99 9.08-5.75 4.66-9.45 6.18-7.84 2.27-12.44 2.27c-2.18 0-4.54-.27-7.08-.82s-5.12-1.54-7.72-3c-2.61-1.45-5.12-3.42-7.54-5.9s-4.6-5.66-6.54-9.54c-1.21 1.7-2.27 3.75-3.18 6.18-.91 2.42-1.67 5.03-2.27 7.81-.61 2.79-1.06 5.57-1.36 8.36s-.45 5.27-.45 7.45c0 3.75.36 7.63 1.09 11.62 4.96-1.69 10.17-3.03 15.62-4s11.26-1.45 17.44-1.45c5.57 0 10.35.88 14.35 2.63 4 1.76 7.29 4.03 9.9 6.81 2.6 2.79 4.54 5.97 5.81 9.54s1.91 7.24 1.91 10.99-.61 7.24-1.82 10.81-3.09 6.78-5.63 9.63-5.75 5.15-9.63 6.9c-3.88 1.76-8.42 2.63-13.62 2.63zm0-16.35c4.6 0 8.14-1.27 10.63-3.81 2.48-2.54 3.72-5.81 3.72-9.81s-1.39-7.11-4.18-9.72c-2.79-2.6-6.18-3.91-10.17-3.91-5.45 0-10.35 1.03-14.71 3.09s-8.11 4.79-11.26 8.17c2.91 4.6 6.51 8.42 10.81 11.44 4.3 3.03 9.35 4.54 15.17 4.54zm14.35-90.82c0-3.87-1.48-7.2-4.45-9.99-2.97-2.78-6.57-4.18-10.81-4.18s-7.87 1.39-10.9 4.18-4.54 6.12-4.54 9.99 1.51 7.21 4.54 9.99c3.03 2.79 6.66 4.18 10.9 4.18s7.84-1.39 10.81-4.18c2.97-2.78 4.45-6.11 4.45-9.99z"/><g fill="none"><path d="m93.22 405.2c-4.48 0-8.6-.7-12.35-2.09s-6.99-3.33-9.72-5.81c-2.72-2.48-4.84-5.36-6.36-8.63-1.51-3.27-2.27-6.78-2.27-10.54s.82-7.63 2.45-11.26 4.09-6.87 7.36-9.72 7.36-5.12 12.26-6.81c4.9-1.7 10.63-2.54 17.17-2.54s12.35.97 18.16 2.91 10.96 4.78 15.44 8.54c4.48 3.75 8.05 8.42 10.72 13.99s4 11.93 4 19.07c0 6.18-.85 11.93-2.54 17.26s-3.87 10.29-6.54 14.89c-2.66 4.6-5.63 8.78-8.9 12.53s-6.42 7.02-9.45 9.81c-3.03 2.78-5.81 5.11-8.36 6.99-2.54 1.88-4.42 3.24-5.63 4.09l-17.98-16.53c5.57-4.24 10.11-8.24 13.62-11.99s6.3-7.39 8.36-10.9 3.48-6.87 4.27-10.08 1.18-6.39 1.18-9.54c0-2.06-.18-4-.54-5.81-2.91 4.24-6.51 7.33-10.81 9.26-4.3 1.94-8.81 2.91-13.53 2.91zm-14.35-29.07c0 3.51 1.33 6.51 4 8.99s5.81 3.72 9.45 3.72 6.75-1.24 9.35-3.72c2.61-2.48 3.91-5.48 3.91-8.99s-1.15-6.48-3.45-8.9-5.57-3.63-9.81-3.63c-3.63 0-6.78 1.21-9.45 3.63-2.66 2.42-4 5.39-4 8.9z"/><path d="m431.33 287.13c0 10.42-1.7 20.53-5.09 30.33-3.39 9.81-8.66 18.53-15.8 26.16-7.15 7.63-16.29 13.74-27.43 18.35-11.14 4.6-24.52 6.9-40.14 6.9-9.33 0-18.38-.79-27.16-2.36-8.78-1.58-17.01-4-24.7-7.27s-14.59-7.42-20.71-12.44c-6.12-5.03-11.17-10.99-15.17-17.89l43.23-25.25c5.09 11.87 11.41 21.16 18.98 27.88s16.5 10.08 26.79 10.08c6.54 0 12.38-1.24 17.53-3.72s9.54-6.08 13.17-10.81 6.39-10.44 8.26-17.17c1.88-6.72 2.82-14.32 2.82-22.8v-96.81c0-15.86-4.12-28.06-12.35-36.6-8.24-8.54-20.83-12.81-37.78-12.81-5.33 0-10.99.79-16.98 2.36-5.99 1.58-11.57 4.27-16.71 8.08-5.15 3.81-9.42 8.87-12.81 15.17s-5.09 14.17-5.09 23.61c3.87-6.78 8.81-11.68 14.8-14.71s11.96-4.54 17.89-4.54c5.57 0 10.32.91 14.26 2.72 3.93 1.82 7.14 4.18 9.63 7.08 2.48 2.91 4.3 6.21 5.45 9.9 1.15 3.7 1.73 7.48 1.73 11.35 0 4.48-.85 8.69-2.54 12.62-1.7 3.94-4.3 7.39-7.81 10.35-3.51 2.97-7.93 5.3-13.26 6.99-5.33 1.7-11.62 2.54-18.89 2.54-6.18 0-12.44-1.06-18.8-3.18s-12.14-5.3-17.35-9.54-9.45-9.5-12.71-15.8c-3.27-6.29-4.9-13.62-4.9-21.98s1.24-16.1 3.72-22.89c2.48-6.78 5.84-12.77 10.08-17.98s9.2-9.66 14.89-13.35 11.78-6.75 18.25-9.17c6.48-2.42 13.14-4.18 19.98-5.27s13.59-1.63 20.25-1.63c11.38 0 22.61 1.24 33.69 3.72s20.98 6.93 29.7 13.35 15.74 15.17 21.07 26.25 7.99 25.28 7.99 42.59v87.55zm-130.6-84.46c0 4.24 1.51 7.87 4.54 10.9s6.66 4.54 10.9 4.54 7.87-1.51 10.9-4.54 4.54-6.66 4.54-10.9-1.45-7.87-4.36-10.9-6.48-4.54-10.72-4.54c-2.18 0-4.21.39-6.08 1.18-1.88.79-3.54 1.88-5 3.27-1.45 1.39-2.61 3.03-3.45 4.9-.85 1.88-1.27 3.91-1.27 6.08z"/></g></g></svg>