<svg viewBox="0 0 91.52 90.62" xmlns="http://www.w3.org/2000/svg"><path d="m40.5 37.92 11.9-2.44c12.43-7.06 23.85-20.87 21.44-35.48l-41.46 36.84c2.75-.24 5.61.04 8.12 1.08z"/><path d="m90.37 76.65h-16.77c-10.77 0-17.83-3.33-23.01-8.91-4.34-4.7-7.42-11.01-10.28-18.3-.62-1.57-1.2-3.12-1.78-4.7-.07-.2-.15-.34-.29-.47-.27-.25-.7-.34-1.04-.27-.15.04-.34.13-.47.27l-3.01 2.68c-.47.4-1.17.38-1.59-.09-.4-.47-.36-1.17.11-1.59l2.99-2.68c.42-.38.91-.62 1.44-.75s1.08-.13 1.64.02c.55.13 1.04.4 1.44.75.4.36.7.82.89 1.35.89 2.39 1.8 4.85 2.82 7.3.55.02 1.11.04 1.66.07.2-.93.3-1.88.3-2.84 0-1.25-.17-2.48-.53-3.67-.17-.6.17-1.21.75-1.4.6-.17 1.21.17 1.4.75.42 1.42.62 2.88.62 4.32 0 .95-.09 1.93-.27 2.88h1.4c.25.25.51.55.78.8 3.16 2.88 7.02 4.92 11.14 6.27 4.77 1.55 9.84 2.21 14.57 2.21h15.08c.62 0 1.13-.51 1.13-1.13s-.51-1.13-1.13-1.13h-15.09c-4.52 0-9.37-.62-13.87-2.1-3.46-1.13-6.71-2.77-9.44-5.01.66-.04 1.33-.07 1.99-.11.25-1.15.36-2.33.38-3.5 0-1.55-.17-3.12-.57-4.65-.15-.6.22-1.21.82-1.38.6-.15 1.2.22 1.35.82.44 1.7.66 3.48.64 5.22 0 1.08-.11 2.2-.29 3.25 2.44-.25 4.73-.62 6.89-1.08.11-1.25.17-2.46.17-3.67.02-1.7-.04-3.41-.2-5.11-.04-.6.4-1.15 1.02-1.21.62-.04 1.17.42 1.21 1.02.15 1.78.25 3.56.22 5.34-.02 1.04-.07 2.08-.13 3.1 2.39-.64 4.58-1.44 6.58-2.35.07-1.06.09-2.15.07-3.23-.04-1.51-.2-3.01-.44-4.5-.09-.62.34-1.2.93-1.3.62-.09 1.2.34 1.29.93.27 1.59.42 3.21.47 4.8.02.73.02 1.44 0 2.15 6.8-3.72 10.9-9.04 12.49-15.15l-46.65 9.57c-2.88-1.42-6.93-1.72-11.09-.57-6.98 1.93-11.6 7.22-10.35 11.81.07.27.15.53.27.78-.78-1.57-2.39-2.68-4.28-2.68-2.63 0-4.77 2.12-4.77 4.77 0 .47.07.93.17 1.35l-9.6 5.53c-.53.3-.7 1-.4 1.53s.98.73 1.53.42l9.63-5.58c.87.93 2.08 1.48 3.46 1.48 2.61 0 4.77-2.12 4.77-4.77 0-.66-.13-1.29-.38-1.86.55 1.15 1.48 2.12 2.68 2.86l-2.86 10.18-8.91 8.3h-3.08c-.62 0-1.13.51-1.13 1.13s.51 1.13 1.13 1.13h3.52c.27 0 .53-.11.75-.3l9.44-8.8c.15-.15.29-.34.34-.55l2.86-10.12c.6.2 1.25.36 1.88.49l-.34 11.25-5.7 11.87-8.59 6.66h-4.52c-.62 0-1.11.51-1.11 1.13s.49 1.11 1.11 1.11h4.9c.25 0 .49-.07.68-.22l9.12-7.06c.13-.11.25-.25.3-.42l5.89-12.27c.07-.15.13-.3.13-.49l.34-11.32c.84.02 1.7 0 2.59-.11 3.48 9.23 6.32 15.84 9.86 20.8 4.52 6.34 10.05 9.95 19.25 12.85.6.17 1.21-.15 1.42-.75.17-.57-.15-1.21-.75-1.4-8.68-2.72-13.89-6.11-18.09-12-4.5-6.34-7.49-14.68-10.23-22.04-.78-2.08-1.46-3.97-2.15-5.83-.07-.2-.17-.36-.29-.47-.13-.11-.3-.2-.49-.25-.2-.04-.4-.07-.55-.02-.17.04-.34.13-.49.27l-2.99 2.68c-.47.4-1.17.38-1.59-.09-.4-.47-.38-1.17.09-1.59l3.01-2.68c.42-.38.91-.62 1.44-.75s1.08-.13 1.61 0c.55.15 1.04.4 1.44.78.4.36.7.82.91 1.35.73 2.02 1.46 4.01 2.15 5.8.29.78.57 1.55.87 2.35 1.7-.6 3.25-1.4 4.56-2.33 2.59 6.11 5.49 11.47 9.37 15.66 5.6 6.05 13.17 9.63 24.65 9.63h16.77c.62 0 1.13-.51 1.13-1.13.02-.59-.49-1.1-1.11-1.1z"/><path d="m49.71.93-17.56 33.07 19.65-17.43c.25-4.77-.51-10.02-2.08-15.64z"/></svg>