<svg height="200.71001" viewBox="0 0 177.09999 200.71001" width="177.09999" xmlns="http://www.w3.org/2000/svg"><path d="m78.659996 81.37c-8.839996 0-17.889996-.6-27.159996-1.82-9.26-1.21-17.71-3.33-25.34-6.36s-13.9-7.17-18.8-12.44-7.36-11.96-7.36-20.07c0-6.9 2.06-12.9 6.18-17.98 4.12-5.09 9.84-9.29 17.17-12.62s15.98-5.84 25.97-7.54c9.99-1.69 20.86-2.54 32.599996-2.54 12.83 0 25.000004 1.42 36.510004 4.27 11.5 2.85 21.62 7.42 30.33 13.71 8.72 6.3 15.62 14.44 20.71 24.43s7.63 22.13 7.63 36.42v49.59c0 12.23-2.67 22.89-7.99 31.97-5.33 9.08-12.29 16.62-20.89 22.61s-18.41 10.44-29.43 13.35-22.220004 4.36-33.600004 4.36c-5.57 0-11.509996-.39-17.799996-1.18-6.3-.79-12.62-2.06-18.98-3.81s-12.44-4.06-18.25-6.9c-5.81-2.84-10.96-6.39-15.44-10.63s-8.05-9.23-10.72-14.99c-2.67-5.75-4-12.38-4-19.89s1.6-13.86 4.81-19.44c3.21-5.57 7.48-10.26 12.81-14.08 5.33-3.81 11.44-6.69 18.35-8.63 6.9-1.94 14.11-2.91 21.62-2.91 5.93 0 11.29.85 16.08 2.54 4.779996 1.7 8.839996 4.03 12.169996 6.99 3.33 2.97 5.9 6.42 7.72 10.35 1.82 3.94 2.72 8.15 2.72 12.62 0 3.88-.58 7.66-1.73 11.35-1.15 3.7-2.97 6.99-5.45 9.9s-5.69 5.27-9.63 7.08c-3.939996 1.82-8.689996 2.72-14.259996 2.72-2.91 0-5.81-.27-8.72-.82s-5.72-1.54-8.45-3-5.39-3.42-7.99-5.9c-2.61-2.48-5.12-5.66-7.54-9.54 1.69 8.24 4.75 14.68 9.17 19.34s9.29 8.11 14.62 10.35 10.59 3.6 15.8 4.09 9.379996.73 12.529996.73c6.78 0 12.62-.82 17.530004-2.45 4.91-1.63 9.11-3.84 12.62-6.63 3.51-2.78 6.36-5.99 8.54-9.63s3.91-7.42 5.18-11.35 2.12-7.87 2.54-11.81c.42-3.93.64-7.66.64-11.17v-41.78c0-4.72-.36-9.56-1.09-14.53-6.9 3.51-14.71 6.66-23.43 9.45-8.720004 2.79-18.230004 4.18-28.520004 4.18zm-.91-54.13c-11.509996 0-20.099996 1.21-25.789996 3.63s-8.54 5.57-8.54 9.45c0 2.79.97 5.09 2.91 6.9 1.94 1.82 4.51 3.24 7.72 4.27s6.93 1.73 11.17 2.09 8.66.54 13.259996.54c9.08 0 17.07-.94 23.980004-2.82 6.9-1.88 13.08-4.27 18.53-7.17-3.88-5.09-9.29-9.17-16.26-12.26-6.960004-3.09-15.960004-4.63-26.970004-4.63zm-28.699996 102.81c0 2.18.42 4.21 1.27 6.08.85 1.88 2 3.51 3.45 4.9s3.12 2.48 5 3.27 3.91 1.18 6.08 1.18c4.24 0 7.81-1.51 10.72-4.54 2.909996-3.03 4.359996-6.66 4.359996-10.9s-1.52-7.87-4.539996-10.9c-3.03-3.03-6.66-4.54-10.9-4.54s-7.87 1.52-10.9 4.54-4.54 6.66-4.54 10.9z"/></svg>