<svg height="297.09" viewBox="0 0 346.8034 297.09" width="346.80341" xmlns="http://www.w3.org/2000/svg"><path d="m247.02341 175.25c-8.84 0-17.89-.6-27.16-1.82-9.26-1.21-17.71-3.33-25.34-6.36s-13.9-7.17-18.8-12.44-7.36-11.96-7.36-20.07c0-6.9 2.06-12.9 6.18-17.98 4.12-5.09 9.84-9.29 17.17-12.62s15.98-5.84 25.97-7.54c9.99-1.69 20.86-2.54 32.6-2.54 12.83 0 25 1.42 36.51 4.27 11.5 2.85 21.62 7.42 30.33 13.71 8.72 6.3 15.62 14.44 20.71 24.43s7.63 22.13 7.63 36.42v49.59c0 12.23-2.67 22.89-7.99 31.97-5.33 9.08-12.29 16.62-20.89 22.61s-18.41 10.44-29.43 13.35-22.22 4.36-33.6 4.36c-5.57 0-11.51-.39-17.8-1.18-6.3-.79-12.62-2.06-18.98-3.81s-12.44-4.06-18.25-6.9-10.96-6.39-15.44-10.63-8.05-9.23-10.72-14.99c-2.67-5.75-4-12.38-4-19.89s1.6-13.86 4.81-19.44c3.21-5.57 7.48-10.26 12.81-14.08 5.33-3.81 11.44-6.69 18.35-8.63 6.9-1.94 14.11-2.91 21.62-2.91 5.93 0 11.29.85 16.08 2.54 4.78 1.7 8.84 4.03 12.17 6.99 3.33 2.97 5.9 6.42 7.72 10.35 1.82 3.94 2.72 8.15 2.72 12.62 0 3.88-.58 7.66-1.73 11.35-1.15 3.7-2.97 6.99-5.45 9.9s-5.69 5.27-9.63 7.08c-3.94 1.82-8.69 2.72-14.26 2.72-2.91 0-5.81-.27-8.72-.82s-5.72-1.54-8.45-3-5.39-3.42-7.99-5.9c-2.61-2.48-5.12-5.66-7.54-9.54 1.69 8.24 4.75 14.68 9.17 19.34s9.29 8.11 14.62 10.35 10.59 3.6 15.8 4.09 9.38.73 12.53.73c6.78 0 12.62-.82 17.53-2.45s9.11-3.84 12.62-6.63c3.51-2.78 6.36-5.99 8.54-9.63s3.91-7.42 5.18-11.35 2.12-7.87 2.54-11.81c.42-3.93.64-7.66.64-11.17v-41.78c0-4.72-.36-9.56-1.09-14.53-6.9 3.51-14.71 6.66-23.43 9.45s-18.23 4.18-28.52 4.18zm-.9-54.13c-11.51 0-20.1 1.21-25.79 3.63s-8.54 5.57-8.54 9.45c0 2.79.97 5.09 2.91 6.9 1.94 1.82 4.51 3.24 7.72 4.27s6.93 1.73 11.17 2.09 8.66.54 13.26.54c9.08 0 17.07-.94 23.98-2.82 6.9-1.88 13.08-4.27 18.53-7.17-3.88-5.09-9.29-9.17-16.26-12.26-6.96-3.09-15.96-4.63-26.97-4.63zm-28.7 102.81c0 2.18.42 4.21 1.27 6.08.85 1.88 2 3.51 3.45 4.9s3.12 2.48 5 3.27 3.91 1.18 6.08 1.18c4.24 0 7.81-1.51 10.72-4.54s4.36-6.66 4.36-10.9-1.52-7.87-4.54-10.9c-3.03-3.03-6.66-4.54-10.9-4.54s-7.87 1.52-10.9 4.54-4.54 6.66-4.54 10.9z"/><g fill="none" stroke="#010101" stroke-miterlimit="10" stroke-width="5" transform="translate(.143414 -19.79)"><path d="m65.17 248.99c0 1.7.12 3.66.36 5.9s.64 4.48 1.18 6.72 1.3 4.33 2.27 6.27 2.12 3.51 3.45 4.72c1.57-4.24 3.54-7.63 5.9-10.17s4.87-4.48 7.54-5.81c2.66-1.33 5.36-2.21 8.08-2.63s5.18-.64 7.36-.64c4.6 0 8.75.76 12.44 2.27 3.69 1.52 6.84 3.57 9.45 6.18 2.6 2.61 4.6 5.63 5.99 9.08s2.09 7.17 2.09 11.17c0 9.69-3.42 17.5-10.26 23.43s-17.59 8.9-32.24 8.9c-6.9 0-14.14-1.39-21.71-4.18-7.57-2.78-14.5-6.93-20.8-12.44s-11.51-12.32-15.62-20.43c-4.12-8.11-6.18-17.5-6.18-28.15v-66.12c0-8.84 1.57-17.01 4.72-24.52s7.69-14.14 13.62-19.89 13.11-10.47 21.52-14.17c8.42-3.69 17.89-6.08 28.43-7.17-5.93-5.09-11.05-9.35-15.35-12.81-4.3-3.45-8.36-6.24-12.17-8.36s-7.66-3.6-11.53-4.45c-3.88-.85-8.3-1.27-13.26-1.27-2.18 0-4.9.18-8.17.54s-6.66.76-10.17 1.18c-3.51.43-6.99.91-10.44 1.45s-6.51 1-9.17 1.36c.49-10.05 2.48-19.5 5.99-28.34s8.11-16.53 13.8-23.07 12.17-11.72 19.44-15.53 14.89-5.72 22.89-5.72c7.38 0 13.56.64 18.53 1.91 4.96 1.27 9.54 2.88 13.71 4.81 4.18 1.94 8.29 4 12.35 6.18s8.87 4.24 14.44 6.18 12.32 3.54 20.25 4.81 17.83 1.91 29.7 1.91l-16.71 36.33c-5.93 0-11.42-.88-16.44-2.63-5.03-1.75-9.87-3.93-14.53-6.54-4.66-2.6-9.24-5.39-13.71-8.36-4.48-2.97-9.08-5.75-13.8-8.36-4.72-2.6-9.66-4.75-14.8-6.45-5.15-1.69-10.75-2.54-16.8-2.54-3.63 0-6.81.61-9.54 1.82-2.72 1.21-5.06 2.72-6.99 4.54-1.94 1.82-3.45 3.81-4.54 5.99s-1.82 4.18-2.18 5.99c.48-.24 1-.39 1.54-.45s1-.09 1.36-.09c6.9 0 13.83 1.36 20.8 4.09 6.96 2.72 13.77 6.36 20.43 10.9s13.14 9.78 19.44 15.71c6.29 5.93 12.29 12.11 17.98 18.53v24.34h-19.8c-5.09 0-10.02.7-14.8 2.09-4.79 1.39-9.05 3.72-12.81 6.99-3.75 3.27-6.78 7.63-9.08 13.08s-3.45 12.23-3.45 20.34v65.57zm49.77 34.87c0-3.87-1.48-7.2-4.45-9.99-2.97-2.78-6.57-4.18-10.81-4.18s-7.87 1.39-10.9 4.18-4.54 6.12-4.54 9.99 1.51 7.21 4.54 9.99c3.03 2.79 6.66 4.18 10.9 4.18s7.84-1.39 10.81-4.18c2.97-2.78 4.45-6.11 4.45-9.99z"/><path d="m245.72 195.04c-8.84 0-17.89-.6-27.16-1.82-9.26-1.21-17.71-3.33-25.34-6.36s-13.9-7.17-18.8-12.44-7.36-11.96-7.36-20.07c0-6.9 2.06-12.9 6.18-17.98 4.12-5.09 9.84-9.29 17.17-12.62s15.98-5.84 25.97-7.54c9.99-1.69 20.86-2.54 32.6-2.54 12.83 0 25 1.42 36.51 4.27 11.5 2.85 21.62 7.42 30.33 13.71 8.72 6.3 15.62 14.44 20.71 24.43s7.63 22.13 7.63 36.42v49.59c0 12.23-2.67 22.89-7.99 31.97-5.33 9.08-12.29 16.62-20.89 22.61s-18.41 10.44-29.43 13.35-22.22 4.36-33.6 4.36c-5.57 0-11.51-.39-17.8-1.18-6.3-.79-12.62-2.06-18.98-3.81s-12.44-4.06-18.25-6.9-10.96-6.39-15.44-10.63-8.05-9.23-10.72-14.99c-2.67-5.75-4-12.38-4-19.89s1.6-13.86 4.81-19.44c3.21-5.57 7.48-10.26 12.81-14.08 5.33-3.81 11.44-6.69 18.35-8.63 6.9-1.94 14.11-2.91 21.62-2.91 5.93 0 11.29.85 16.08 2.54 4.78 1.7 8.84 4.03 12.17 6.99 3.33 2.97 5.9 6.42 7.72 10.35 1.82 3.94 2.72 8.15 2.72 12.62 0 3.88-.58 7.66-1.73 11.35-1.15 3.7-2.97 6.99-5.45 9.9s-5.69 5.27-9.63 7.08c-3.94 1.82-8.69 2.72-14.26 2.72-2.91 0-5.81-.27-8.72-.82s-5.72-1.54-8.45-3-5.39-3.42-7.99-5.9c-2.61-2.48-5.12-5.66-7.54-9.54 1.69 8.24 4.75 14.68 9.17 19.34s9.29 8.11 14.62 10.35 10.59 3.6 15.8 4.09 9.38.73 12.53.73c6.78 0 12.62-.82 17.53-2.45s9.11-3.84 12.62-6.63c3.51-2.78 6.36-5.99 8.54-9.63s3.91-7.42 5.18-11.35 2.12-7.87 2.54-11.81c.42-3.93.64-7.66.64-11.17v-41.78c0-4.72-.36-9.56-1.09-14.53-6.9 3.51-14.71 6.66-23.43 9.45s-18.23 4.18-28.52 4.18zm-.91-54.13c-11.51 0-20.1 1.21-25.79 3.63s-8.54 5.57-8.54 9.45c0 2.79.97 5.09 2.91 6.9 1.94 1.82 4.51 3.24 7.72 4.27s6.93 1.73 11.17 2.09 8.66.54 13.26.54c9.08 0 17.07-.94 23.98-2.82 6.9-1.88 13.08-4.27 18.53-7.17-3.88-5.09-9.29-9.17-16.26-12.26-6.96-3.09-15.96-4.63-26.97-4.63zm-28.7 102.81c0 2.18.42 4.21 1.27 6.08.85 1.88 2 3.51 3.45 4.9s3.12 2.48 5 3.27 3.91 1.18 6.08 1.18c4.24 0 7.81-1.51 10.72-4.54s4.36-6.66 4.36-10.9-1.52-7.87-4.54-10.9c-3.03-3.03-6.66-4.54-10.9-4.54s-7.87 1.52-10.9 4.54-4.54 6.66-4.54 10.9z"/></g></svg>