<svg xmlns="http://www.w3.org/2000/svg" version="1.1" viewBox="-5.0 -10.0 110.0 135.0">
 <path d="m48.75 96.234zm-15.246-20.766c2.8008 4.9375 7.0391 9.1016 12.355 10.586 0.35938 0.097656 0.67969 0.33594 0.87109 0.6875l3.2734 5.8516 3.2617-5.8281c0.85938-1.5547 7.4023-1 13.238-11.297-10.215 5.6406-22.789 5.6367-33 0zm21.02-61.348c0.003906 0.070312-0.003907 0.13672-0.015626 0.20312 0.95313 0.38281 2.0078-0.33984 1.9688-1.3828-0.03125-0.83203-0.003906-1.6367 0.078126-2.4141 6.582 3.0195 10.23 10.352 7.8164 17.426-0.43359 1.2695-1.0508 2.4648-1.8203 3.5547-0.011719 0.007813-6.9297 1.2344-9.7109 6.1211-1.8633 0.33594-3.8242 0.33594-5.6836 0-2.7812-4.8906-9.6992-6.1172-9.7109-6.1211-0.76953-1.0898-1.3867-2.2852-1.8203-3.5586-1.7773-5.207-0.27344-10.848 3.6562-14.609l0.003906 0.003906c1.1992-1.1484 2.6055-2.1055 4.1562-2.8164 0.11328 1.0508-0.35938 4.7617 2.0469 3.7969-0.011719-0.066407-0.015625-0.13281-0.015625-0.20312 0.15625-4.125-1.8555-7.9883-6.0273-8.3555-1.3164-0.11719-1.1367-2.1094 0.17188-1.9961 3.4805 0.30469 5.9961 2.5508 7.1484 5.6641 2.1172-0.4375 4.3359-0.4375 6.4492 0 1.1523-3.1133 3.6719-5.3594 7.1484-5.6641 1.3125-0.11328 1.4883 1.8789 0.17188 1.9961-4.1602 0.36719-6.168 4.2422-6.0117 8.3555zm-12.145 42.984c-0.078125-0.015625-0.15625-0.039063-0.23047-0.066407-1.6055 2.1992-3.4375 4.332-5.3867 6.2734 8.3633 3.4844 18.121 3.4844 26.484 0-1.9453-1.9414-3.7812-4.0742-5.3867-6.2734-1.3125 0.50781-6.2188 0.84375-7.8555 0.84375zm1.5117-2.6328c3.9961 0.70703 8.2266 0.70703 12.223 0-3.0469-4.8281-4.8359-9.8047-4.2773-13.801h-3.6719c0.5625 4-1.2266 8.9727-4.2734 13.801zm-13.305 14.055c1.3281-0.92188 2.6562-1.9766 3.957-3.1289 0.10547 0.09375 0.23047 0.17187 0.36328 0.23047 7.1484 3.1602 15.172 3.9766 22.848 2.3672 1.5469-0.32422 6.7891-1.793 7.7109-2.6016 1.3008 1.1523 2.6289 2.2031 3.957 3.1289-0.20703 0.70312-0.43359 1.3945-0.67969 2.0664-2.6289 1.9883-5.6016 3.5664-8.8125 4.6328-6.3789 2.1211-13.473 2.1211-19.852 0-3.207-1.0664-6.1797-2.6445-8.8125-4.6328-0.24609-0.66797-0.47266-1.3594-0.67969-2.0625zm13.359-30.438c-9.8047-10.297-31.035 0.16406-28.93 24.531 0.8125 9.3867 6.9922 8.2969 13.727 3.6875 7.3203-5.0078 19.484-19.012 16.113-26.891-0.23047-0.48828-0.53125-0.92969-0.91016-1.3281zm19.414-3.7969c-2.9648 0.44141-6.8398 2.3125-8.2812 5.2852-1.5938 3.668 0.71875 9.5352 4.6406 15.113 3.168 4.5039 7.3867 8.7656 11.547 11.613 6.7344 4.6094 12.914 5.6992 13.727-3.6875 0.96484-11.125-3.0781-21.797-12.055-26.516-3.1172-1.6328-6.4648-2.2695-9.5781-1.8086z" fill-rule="evenodd"/>
<text x="0.0" y="117.5" font-size="5.0" font-weight="bold" font-family="Arbeit Regular, Helvetica, Arial-Unicode, Arial, Sans-serif" fill="#000000">Created by Win Ningsih</text><text x="0.0" y="122.5" font-size="5.0" font-weight="bold" font-family="Arbeit Regular, Helvetica, Arial-Unicode, Arial, Sans-serif" fill="#000000">from Noun Project</text></svg>