<svg viewBox="0 0 897.95 574.62" xmlns="http://www.w3.org/2000/svg"><path d="m55.9 321.46c0 1.7.12 3.66.36 5.9s.64 4.48 1.18 6.72 1.3 4.33 2.27 6.27 2.12 3.51 3.45 4.72c1.57-4.24 3.54-7.63 5.9-10.17s4.87-4.48 7.54-5.81c2.66-1.33 5.36-2.21 8.08-2.63s5.18-.64 7.36-.64c4.6 0 8.75.76 12.44 2.27 3.69 1.52 6.84 3.57 9.45 6.18 2.6 2.61 4.6 5.63 5.99 9.08s2.09 7.17 2.09 11.17c0 9.69-3.42 17.5-10.26 23.43s-17.59 8.9-32.24 8.9c-6.9 0-14.14-1.39-21.71-4.18-7.57-2.78-14.5-6.93-20.8-12.44s-11.51-12.32-15.62-20.43c-4.12-8.11-6.18-17.5-6.18-28.15v-66.12c0-9.69 1.91-18.59 5.72-26.7s9.2-15.14 16.17-21.07c6.96-5.93 15.44-10.54 25.43-13.8s21.16-4.9 33.51-4.9h19.8v24.34h-19.8c-5.09 0-10.02.7-14.8 2.09-4.79 1.39-9.05 3.72-12.81 6.99-3.75 3.27-6.78 7.63-9.08 13.08s-3.45 12.23-3.45 20.34v65.57zm49.77 34.88c0-3.87-1.48-7.2-4.45-9.99-2.97-2.78-6.57-4.18-10.81-4.18s-7.87 1.39-10.9 4.18-4.54 6.12-4.54 9.99 1.51 7.21 4.54 9.99c3.03 2.79 6.66 4.18 10.9 4.18s7.84-1.39 10.81-4.18c2.97-2.78 4.45-6.11 4.45-9.99z" fill="none" stroke="#000" stroke-miterlimit="10" stroke-width="5"/><path d="m262.97 353.79c-2.42 7.51-5.54 13.47-9.35 17.89s-7.87 7.75-12.17 9.99-8.51 3.66-12.62 4.27c-4.12.6-7.69.91-10.72.91-7.99 0-15.53-1.42-22.61-4.27s-13.23-6.93-18.44-12.26-9.33-11.81-12.35-19.44c-3.03-7.63-4.54-16.23-4.54-25.79v-87.55c0-9.2 1.51-17.07 4.54-23.61s6.93-11.87 11.72-15.98c4.78-4.12 10.17-7.11 16.17-8.99 5.99-1.88 11.96-2.82 17.89-2.82 8.72 0 15.8 1.12 21.25 3.36s9.72 5.06 12.81 8.45 5.21 7.15 6.36 11.26c1.15 4.12 1.73 7.99 1.73 11.62 0 4.36-.85 8.39-2.54 12.08-1.7 3.7-4 6.84-6.9 9.45-2.91 2.61-6.24 4.66-9.99 6.18s-7.63 2.27-11.62 2.27c-1.09 0-2.39-.06-3.91-.18s-3-.33-4.45-.64c-1.45-.3-2.88-.73-4.27-1.27s-2.51-1.24-3.36-2.09v85.55c0 5.33.54 9.75 1.63 13.26s2.51 6.3 4.27 8.36c1.75 2.06 3.75 3.54 5.99 4.45s4.45 1.36 6.63 1.36c3.15 0 5.78-.79 7.9-2.36s3.78-3.66 5-6.27c1.21-2.6 2.06-5.54 2.54-8.81s.73-6.6.73-9.99v-42.5h45.41v42.5c0 3.39.24 6.72.73 9.99.48 3.27 1.33 6.21 2.54 8.81 1.21 2.61 2.88 4.69 5 6.27s4.75 2.36 7.9 2.36c2.18 0 4.39-.45 6.63-1.36s4.24-2.39 5.99-4.45 3.18-4.84 4.27-8.36c1.09-3.51 1.63-7.93 1.63-13.26v-85.55c-.97.85-2.12 1.54-3.45 2.09-1.33.54-2.72.97-4.18 1.27-1.45.3-2.94.52-4.45.64-1.52.12-2.82.18-3.91.18-4 0-7.87-.75-11.62-2.27-3.75-1.51-7.08-3.57-9.99-6.18-2.91-2.6-5.21-5.75-6.9-9.45-1.7-3.69-2.54-7.72-2.54-12.08 0-3.63.57-7.51 1.73-11.62 1.15-4.12 3.27-7.87 6.36-11.26s7.36-6.2 12.81-8.45c5.45-2.24 12.53-3.36 21.25-3.36 4 0 8.05.43 12.17 1.27 4.12.85 8.05 2.21 11.81 4.09 3.75 1.88 7.27 4.24 10.54 7.08 3.27 2.85 6.11 6.27 8.54 10.26 2.91-2.06 5.42-4.45 7.54-7.17s3.18-5.66 3.18-8.81c0-1.94-.36-3.84-1.09-5.72s-1.67-3.69-2.82-5.45c-1.15-1.75-2.39-3.42-3.72-5-1.33-1.57-2.61-3.03-3.81-4.36l21.43-15.08c4.36 6.06 7.42 11.69 9.17 16.89 1.75 5.21 2.63 10.35 2.63 15.44 0 7.51-2.48 14.2-7.45 20.07-4.97 5.88-11.2 11.29-18.71 16.26.24 1.82.45 3.7.64 5.63.18 1.94.27 3.94.27 5.99v87.55c0 9.57-1.52 18.16-4.54 25.79-3.03 7.63-7.15 14.11-12.35 19.44-5.21 5.33-11.35 9.42-18.44 12.26s-14.62 4.27-22.61 4.27c-3.03 0-6.6-.3-10.72-.91s-8.33-2.03-12.62-4.27c-4.3-2.24-8.36-5.57-12.17-9.99s-6.93-10.38-9.35-17.89zm-26.7-134.41c0-1.94-.39-3.81-1.18-5.63s-1.88-3.42-3.27-4.81-3-2.51-4.81-3.36c-1.82-.85-3.81-1.27-5.99-1.27s-4.21.43-6.08 1.27c-1.88.85-3.51 1.97-4.9 3.36s-2.48 3-3.27 4.81c-.79 1.82-1.18 3.7-1.18 5.63s.39 3.81 1.18 5.63 1.88 3.42 3.27 4.81 3.03 2.51 4.9 3.36c1.88.85 3.91 1.27 6.08 1.27s4.18-.42 5.99-1.27c1.82-.85 3.42-1.97 4.81-3.36s2.48-3 3.27-4.81c.79-1.82 1.18-3.69 1.18-5.63zm53.4 0c0 1.94.39 3.81 1.18 5.63s1.88 3.42 3.27 4.81 3 2.51 4.81 3.36c1.82.85 3.81 1.27 5.99 1.27s4.21-.42 6.08-1.27c1.88-.85 3.51-1.97 4.9-3.36s2.48-3 3.27-4.81c.79-1.82 1.18-3.69 1.18-5.63s-.39-3.81-1.18-5.63-1.88-3.42-3.27-4.81-3.03-2.51-4.9-3.36c-1.88-.85-3.91-1.27-6.08-1.27s-4.18.43-5.99 1.27c-1.82.85-3.42 1.97-4.81 3.36s-2.48 3-3.27 4.81c-.79 1.82-1.18 3.7-1.18 5.63z"/><g fill="none" stroke="#000" stroke-miterlimit="10" stroke-width="5"><path d="m266.24 97.32c-8.84 0-16.35.91-22.52 2.72s-11.17 4.12-14.99 6.9c-3.81 2.79-6.57 5.9-8.26 9.35s-2.54 6.87-2.54 10.26c0 1.82.21 3.75.64 5.81s1.09 4.15 2 6.27 2 4.12 3.27 5.99c1.27 1.88 2.76 3.54 4.45 5l-31.24 19.8c-1.94-2.06-3.91-4.48-5.9-7.27-2-2.78-3.81-5.84-5.45-9.17-1.63-3.33-2.97-6.93-4-10.81-1.03-3.87-1.54-7.99-1.54-12.35 0-7.63 2.15-14.71 6.45-21.25s10.29-12.2 17.98-16.98 16.8-8.51 27.34-11.17 21.98-4 34.33-4 23.98 1.33 34.51 4c10.54 2.67 19.62 6.42 27.25 11.26s13.59 10.66 17.89 17.44 6.45 14.23 6.45 22.34c0 3.88-.51 7.66-1.54 11.35-1.03 3.7-2.36 7.15-4 10.35-1.63 3.21-3.45 6.21-5.45 8.99-2 2.79-3.96 5.21-5.9 7.27l-33.42-19.8c3.39-2.42 6.33-5.39 8.81-8.9s3.72-8.05 3.72-13.62c0-3.39-.94-6.87-2.82-10.44s-4.81-6.78-8.81-9.63c-4-2.84-9.02-5.18-15.08-6.99-6.05-1.82-13.26-2.72-21.62-2.72zm-62.66-33.97c2.06-.73 4.54-1.6 7.45-2.63s5.84-2.39 8.81-4.09c2.97-1.69 5.84-3.87 8.63-6.54 2.79-2.66 5.15-6.05 7.08-10.17-2.91 1.94-5.51 3.21-7.81 3.81-2.3.61-4.78.91-7.45.91s-5.42-.45-7.9-1.36-4.66-2.21-6.54-3.91c-1.88-1.69-3.36-3.69-4.45-5.99s-1.63-4.84-1.63-7.63c0-2.18.49-4.63 1.45-7.36.97-2.72 2.63-5.27 5-7.63s5.51-4.33 9.45-5.9 8.93-2.36 14.99-2.36c2.79 0 5.9.33 9.35 1s6.66 1.94 9.63 3.81c2.97 1.88 5.48 4.45 7.54 7.72s3.09 7.45 3.09 12.53c0 3.03-.82 5.97-2.45 8.81-1.63 2.85-3.45 5.36-5.45 7.54s-3.87 3.94-5.63 5.27c-1.75 1.33-2.82 2-3.18 2 .97.12 2.06.21 3.27.27s2.61.09 4.18.09c3.75 0 8.26-.36 13.53-1.09s10.87-2.36 16.8-4.9 11.93-6.24 17.98-11.08c6.06-4.84 11.75-11.32 17.07-19.44l29.06 10.54c-4.36 6.78-10.23 12.81-17.62 18.07-7.38 5.27-15.71 9.69-24.98 13.26-9.26 3.57-19.13 6.3-29.61 8.17-10.47 1.88-20.98 2.82-31.51 2.82-6.66 0-13.2-.36-19.62-1.09s-12.59-1.88-18.53-3.45zm10.35-39.42c0 2.79 1.06 5.15 3.18 7.08 2.12 1.94 4.69 2.91 7.72 2.91s5.57-.97 7.63-2.91 3.09-4.3 3.09-7.08-1.03-5.18-3.09-7.17c-2.06-2-4.6-3-7.63-3s-5.6 1-7.72 3-3.18 4.39-3.18 7.17z"/><path d="m588.65 359.61c0 10.42-1.7 20.53-5.09 30.33-3.39 9.81-8.66 18.53-15.8 26.16-7.15 7.63-16.29 13.74-27.43 18.35-11.14 4.6-24.52 6.9-40.14 6.9-9.33 0-18.38-.79-27.16-2.36-8.78-1.58-17.01-4-24.7-7.27s-14.59-7.42-20.71-12.44c-6.12-5.03-11.17-10.99-15.17-17.89l43.23-25.25c5.09 11.87 11.41 21.16 18.98 27.88s16.5 10.08 26.79 10.08c6.54 0 12.38-1.24 17.53-3.72s9.54-6.08 13.17-10.81 6.39-10.44 8.26-17.17c1.88-6.72 2.82-14.32 2.82-22.8v-96.81c0-15.86-4.12-28.06-12.35-36.6-8.24-8.54-20.83-12.81-37.78-12.81-5.33 0-10.99.79-16.98 2.36-5.99 1.58-11.57 4.27-16.71 8.08-5.15 3.81-9.42 8.87-12.81 15.17s-5.09 14.17-5.09 23.61c3.87-6.78 8.81-11.68 14.8-14.71s11.96-4.54 17.89-4.54c5.57 0 10.32.91 14.26 2.72 3.93 1.82 7.14 4.18 9.63 7.08 2.48 2.91 4.3 6.21 5.45 9.9 1.15 3.7 1.73 7.48 1.73 11.35 0 4.48-.85 8.69-2.54 12.62-1.7 3.94-4.3 7.39-7.81 10.35-3.51 2.97-7.93 5.3-13.26 6.99-5.33 1.7-11.62 2.54-18.89 2.54-6.18 0-12.44-1.06-18.8-3.18s-12.14-5.3-17.35-9.54-9.45-9.5-12.71-15.8c-3.27-6.29-4.9-13.62-4.9-21.98s1.24-16.1 3.72-22.89c2.48-6.78 5.84-12.77 10.08-17.98s9.2-9.66 14.89-13.35 11.78-6.75 18.25-9.17c6.48-2.42 13.14-4.18 19.98-5.27s13.59-1.63 20.25-1.63c11.38 0 22.61 1.24 33.69 3.72s20.98 6.93 29.7 13.35 15.74 15.17 21.07 26.25 7.99 25.28 7.99 42.59v87.55zm-130.6-84.47c0 4.24 1.51 7.87 4.54 10.9s6.66 4.54 10.9 4.54 7.87-1.51 10.9-4.54 4.54-6.66 4.54-10.9-1.45-7.87-4.36-10.9-6.48-4.54-10.72-4.54c-2.18 0-4.21.39-6.08 1.18-1.88.79-3.54 1.88-5 3.27-1.45 1.39-2.61 3.03-3.45 4.9-.85 1.88-1.27 3.91-1.27 6.08z"/><path d="m701.63 386.85c-25.67 0-44.56-5.57-56.67-16.71s-18.16-27.12-18.16-47.95c0-6.29.91-11.99 2.72-17.07s4.18-9.81 7.08-14.17 6.05-8.45 9.45-12.26c3.39-3.81 6.72-7.57 9.99-11.26s6.18-7.38 8.72-11.08c2.54-3.69 4.36-7.66 5.45-11.9-1.7 1.33-3.42 2.42-5.18 3.27s-4.27 1.27-7.54 1.27c-4 0-7.87-.66-11.62-2-3.75-1.33-7.02-3.3-9.81-5.9s-5.03-5.81-6.72-9.63c-1.7-3.81-2.54-8.14-2.54-12.99 0-4.48.82-8.69 2.45-12.62s4-7.36 7.08-10.26 6.93-5.21 11.53-6.9 9.81-2.54 15.62-2.54c6.29 0 11.96.91 16.98 2.72 5.02 1.82 9.29 4.39 12.81 7.72 3.51 3.33 6.2 7.33 8.08 11.99s2.82 9.9 2.82 15.71c0 7.15-.79 13.53-2.36 19.16-1.58 5.63-3.54 10.9-5.9 15.8s-4.9 9.57-7.63 13.99c-2.72 4.42-5.27 9.02-7.63 13.8-2.36 4.79-4.33 9.87-5.9 15.26-1.58 5.39-2.36 11.47-2.36 18.25 0 5.45.7 10.57 2.09 15.35 1.39 4.79 3.42 8.93 6.08 12.44s5.9 6.27 9.72 8.26 8.2 3 13.17 3c3.51 0 7.02-.54 10.54-1.63 3.51-1.09 6.69-2.91 9.54-5.45 2.84-2.54 5.18-5.93 6.99-10.17 1.82-4.24 2.72-9.56 2.72-15.98v-122.06h45.41v127.69c0 3.39.48 6.75 1.45 10.08s2.42 6.3 4.36 8.9c1.94 2.61 4.42 4.69 7.45 6.27s6.66 2.36 10.9 2.36c1.94 0 4.18-.42 6.72-1.27s4.93-2.45 7.17-4.81 4.12-5.72 5.63-10.08 2.27-9.99 2.27-16.89v-137.5h45.41v130.96c0 10.66-1.63 20.13-4.9 28.43s-7.75 15.29-13.44 20.98-12.41 10.02-20.16 12.99-16.05 4.45-24.88 4.45c-4.97 0-9.93-.45-14.89-1.36-4.97-.91-9.75-2.42-14.35-4.54s-8.93-4.93-12.99-8.45c-4.06-3.51-7.66-7.81-10.81-12.9-3.63 5.21-7.57 9.57-11.81 13.08s-8.57 6.3-12.99 8.36-8.93 3.54-13.53 4.45-9.14 1.36-13.62 1.36zm-58.48-169.29c0 1.94.39 3.81 1.18 5.63s1.88 3.42 3.27 4.81 3 2.51 4.81 3.36c1.82.85 3.81 1.27 5.99 1.27s4.21-.42 6.08-1.27c1.88-.85 3.51-1.97 4.9-3.36s2.48-3 3.27-4.81c.79-1.82 1.18-3.69 1.18-5.63s-.39-3.81-1.18-5.63-1.88-3.42-3.27-4.81-3.03-2.51-4.9-3.36c-1.88-.85-3.91-1.27-6.08-1.27s-4.18.43-5.99 1.27c-1.82.85-3.42 1.97-4.81 3.36s-2.48 3-3.27 4.81c-.79 1.82-1.18 3.7-1.18 5.63z"/><path d="m765.39 485.3c0 5.57 1.15 9.93 3.45 13.08s5.03 4.72 8.17 4.72c1.09 0 2.27-.18 3.54-.54s2.48-1.18 3.63-2.45 2.12-3.06 2.91-5.36 1.18-5.45 1.18-9.45v-65.03h35.42v60.85c0 6.9-.88 13.35-2.63 19.34s-4.54 11.17-8.36 15.53-8.66 7.81-14.53 10.35-12.99 3.81-21.34 3.81-15.47-1.52-21.34-4.54c-5.87-3.03-10.63-6.9-14.26-11.62s-6.27-9.99-7.9-15.8-2.45-11.57-2.45-17.26v-12.9c-1.45 4.12-4.33 7.36-8.63 9.72s-9.17 3.54-14.62 3.54c-4 0-7.87-.64-11.62-1.91s-7.02-3.15-9.81-5.63c-2.78-2.48-5.02-5.54-6.72-9.17-1.69-3.63-2.54-7.81-2.54-12.53 0-4.97 1.03-9.42 3.09-13.35 2.06-3.94 4.88-7.27 8.45-9.99s7.75-4.81 12.53-6.27c4.79-1.45 9.9-2.18 15.35-2.18 6.78 0 13.14.85 19.07 2.54s11.14 4.24 15.62 7.63 7.99 7.6 10.54 12.62c2.54 5.02 3.81 10.87 3.81 17.53v24.7zm-72.11-34.87c0 1.69.36 3.36 1.09 5s1.7 3.09 2.91 4.36 2.63 2.3 4.27 3.09c1.63.79 3.36 1.18 5.18 1.18s3.54-.39 5.18-1.18c1.63-.79 3.03-1.82 4.18-3.09s2.09-2.72 2.82-4.36 1.09-3.3 1.09-5-.36-3.36-1.09-5-1.69-3.09-2.91-4.36c-1.21-1.27-2.63-2.27-4.27-3s-3.36-1.09-5.18-1.09-3.54.36-5.18 1.09-3.03 1.73-4.18 3-2.09 2.72-2.82 4.36-1.09 3.3-1.09 5z"/></g></svg>