<svg viewBox="0 0 70.26 88.83" xmlns="http://www.w3.org/2000/svg"><path d="m18.64 71.7c2.8 4.94 7.04 9.1 12.35 10.59.36.1.68.34.87.69l3.27 5.85 3.26-5.83c.86-1.55 7.4-1 13.24-11.3-10.22 5.64-22.79 5.64-33 0zm21.02-61.34c0 .07 0 .14-.02.2.95.38 2.01-.34 1.97-1.38-.03-.83 0-1.64.08-2.41 6.58 3.02 10.23 10.35 7.82 17.43-.43 1.27-1.05 2.46-1.82 3.55-.01 0-6.93 1.23-9.71 6.12-1.86.34-3.82.34-5.68 0-2.78-4.89-9.7-6.12-9.71-6.12-.77-1.09-1.39-2.29-1.82-3.56-1.78-5.21-.27-10.85 3.66-14.61 1.2-1.14 2.61-2.1 4.16-2.81.11 1.05-.36 4.76 2.05 3.8-.01-.07-.02-.13-.02-.2.16-4.12-1.86-7.99-6.03-8.36-1.32-.12-1.14-2.11.17-2 3.48.3 6 2.55 7.15 5.66 2.12-.44 4.34-.44 6.45 0 1.14-3.11 3.66-5.36 7.13-5.67 1.31-.11 1.49 1.88.17 2-4.16.37-6.17 4.24-6.01 8.36zm-12.15 42.98c-.08-.02-.16-.04-.23-.07-1.61 2.2-3.44 4.33-5.39 6.27 8.36 3.48 18.12 3.48 26.48 0-1.95-1.94-3.78-4.07-5.39-6.27-1.31.51-6.22.84-7.86.84l-7.62-.78zm1.51-2.63c4 .71 8.23.71 12.22 0-3.05-4.83-4.84-9.8-4.28-13.8h-3.67c.56 4-1.23 8.97-4.27 13.8zm-13.3 14.05c1.33-.92 2.66-1.98 3.96-3.13.11.09.23.17.36.23 7.15 3.16 15.17 3.98 22.85 2.37 1.55-.32 6.79-1.79 7.71-2.6 1.3 1.15 2.63 2.2 3.96 3.13-.21.7-.43 1.39-.68 2.07-2.63 1.99-5.6 3.57-8.81 4.63-6.38 2.12-13.47 2.12-19.85 0-3.21-1.07-6.18-2.64-8.81-4.63-.25-.67-.47-1.36-.68-2.06zm13.36-30.44c-9.8-10.3-31.03.16-28.93 24.53.81 9.39 6.99 8.3 13.73 3.69 7.32-5.01 19.48-19.01 16.11-26.89-.23-.49-.53-.93-.91-1.33zm19.41-3.79c-2.96.44-6.84 2.31-8.28 5.29-1.59 3.67.72 9.54 4.64 15.11 3.17 4.5 7.39 8.77 11.55 11.61 6.73 4.61 12.91 5.7 13.73-3.69.96-11.12-3.08-21.8-12.06-26.52-3.12-1.63-6.46-2.27-9.58-1.81z" fill-rule="evenodd"/></svg>