<svg height="200.72" viewBox="0 0 243.21002 200.72001" width="243.21001" xmlns="http://www.w3.org/2000/svg"><path d="m74.83 200.7c-25.67 0-44.56-5.57-56.67-16.71s-18.16-27.12-18.16-47.95c0-6.29.91-11.99 2.72-17.07s4.18-9.81 7.08-14.17 6.05-8.45 9.45-12.26c3.39-3.81 6.72-7.57 9.99-11.26s6.18-7.38 8.72-11.08c2.54-3.69 4.36-7.66 5.45-11.9-1.7 1.33-3.42 2.42-5.18 3.27s-4.27 1.27-7.54 1.27c-4 0-7.87-.66-11.62-2-3.75-1.33-7.02-3.3-9.81-5.9-2.79-2.6-5.03-5.81-6.72-9.63-1.7-3.81-2.54-8.14-2.54-12.99 0-4.48.82-8.69 2.45-12.62s4-7.36 7.08-10.26 6.93-5.21 11.53-6.9 9.81-2.54 15.62-2.54c6.29 0 11.96.91 16.98 2.72 5.02 1.82 9.29 4.39 12.81 7.72 3.51 3.33 6.2 7.33 8.08 11.99s2.82 9.9 2.82 15.71c0 7.15-.79 13.53-2.36 19.16-1.58 5.63-3.54 10.9-5.9 15.8s-4.9 9.57-7.63 13.99c-2.72 4.42-5.27 9.02-7.63 13.8-2.36 4.79-4.33 9.87-5.9 15.26-1.58 5.39-2.36 11.47-2.36 18.25 0 5.45.7 10.57 2.09 15.35 1.39 4.79 3.42 8.93 6.08 12.44s5.9 6.27 9.72 8.26 8.2 3 13.17 3c3.51 0 7.02-.54 10.54-1.63 3.51-1.09 6.69-2.91 9.54-5.45 2.84-2.54 5.18-5.93 6.99-10.17 1.82-4.24 2.72-9.56 2.72-15.98v-122.06h45.41v127.69c0 3.39.48 6.75 1.45 10.08s2.42 6.3 4.36 8.9c1.94 2.61 4.42 4.69 7.45 6.27s6.66 2.36 10.9 2.36c1.94 0 4.18-.42 6.72-1.27s4.93-2.45 7.17-4.81 4.12-5.72 5.63-10.08 2.27-9.99 2.27-16.89v-137.5h45.41v130.96c0 10.66-1.63 20.13-4.9 28.43s-7.75 15.29-13.44 20.98-12.41 10.02-20.16 12.99-16.05 4.45-24.88 4.45c-4.97 0-9.93-.45-14.89-1.36-4.97-.91-9.75-2.42-14.35-4.54s-8.93-4.93-12.99-8.45c-4.06-3.51-7.66-7.81-10.81-12.9-3.63 5.21-7.57 9.57-11.81 13.08s-8.57 6.3-12.99 8.36-8.93 3.54-13.53 4.45-9.14 1.36-13.62 1.36zm-58.49-169.29c0 1.94.39 3.81 1.18 5.63s1.88 3.42 3.27 4.81 3 2.51 4.81 3.36c1.82.85 3.81 1.27 5.99 1.27s4.21-.42 6.08-1.27c1.88-.85 3.51-1.97 4.9-3.36s2.48-3 3.27-4.81c.79-1.82 1.18-3.69 1.18-5.63s-.39-3.81-1.18-5.63-1.88-3.42-3.27-4.81-3.03-2.51-4.9-3.36c-1.88-.85-3.91-1.27-6.08-1.27s-4.18.43-5.99 1.27c-1.82.85-3.42 1.97-4.81 3.36s-2.48 3-3.27 4.81c-.79 1.82-1.18 3.7-1.18 5.63z"/></svg>