<svg height="229.60001" viewBox="0 0 230.90001 229.60001" width="230.89999" xmlns="http://www.w3.org/2000/svg"><path d="m102.8 196.54c-2.42 7.51-5.54 13.47-9.35 17.89s-7.87 7.75-12.17 9.99-8.51 3.66-12.62 4.27c-4.12.6-7.69.91-10.72.91-7.99 0-15.53-1.42-22.61-4.27s-13.23-6.93-18.44-12.26-9.33-11.81-12.35-19.44c-3.03-7.63-4.54-16.23-4.54-25.79v-87.55c0-9.2 1.51-17.07 4.54-23.61s6.93-11.87 11.72-15.98c4.78-4.12 10.17-7.11 16.17-8.99 5.99-1.88 11.96-2.82 17.89-2.82 8.72 0 15.8 1.12 21.25 3.36s9.72 5.06 12.81 8.45 5.21 7.15 6.36 11.26c1.15 4.12 1.73 7.99 1.73 11.62 0 4.36-.85 8.39-2.54 12.08-1.7 3.7-4 6.84-6.9 9.45-2.91 2.61-6.24 4.66-9.99 6.18s-7.63 2.27-11.62 2.27c-1.09 0-2.39-.06-3.91-.18s-3-.33-4.45-.64c-1.45-.3-2.88-.73-4.27-1.27s-2.51-1.24-3.36-2.09v85.55c0 5.33.54 9.75 1.63 13.26s2.51 6.3 4.27 8.36c1.75 2.06 3.75 3.54 5.99 4.45s4.45 1.36 6.63 1.36c3.15 0 5.78-.79 7.9-2.36s3.78-3.66 5-6.27c1.21-2.6 2.06-5.54 2.54-8.81s.73-6.6.73-9.99v-42.5h45.41v42.5c0 3.39.24 6.72.73 9.99.48 3.27 1.33 6.21 2.54 8.81 1.21 2.61 2.88 4.69 5 6.27s4.75 2.36 7.9 2.36c2.18 0 4.39-.45 6.63-1.36s4.24-2.39 5.99-4.45 3.18-4.84 4.27-8.36c1.09-3.51 1.63-7.93 1.63-13.26v-85.55c-.97.85-2.12 1.54-3.45 2.09-1.33.54-2.72.97-4.18 1.27-1.45.3-2.94.52-4.45.64-1.52.12-2.82.18-3.91.18-4 0-7.87-.75-11.62-2.27-3.75-1.51-7.08-3.57-9.99-6.18-2.91-2.6-5.21-5.75-6.9-9.45-1.7-3.69-2.54-7.72-2.54-12.08 0-3.63.57-7.51 1.73-11.62 1.15-4.12 3.27-7.87 6.36-11.26s7.36-6.2 12.81-8.45c5.45-2.24 12.53-3.36 21.25-3.36 4 0 8.05.43 12.17 1.27 4.12.85 8.05 2.21 11.81 4.09 3.75 1.88 7.27 4.24 10.54 7.08 3.27 2.85 6.11 6.27 8.54 10.26 2.91-2.06 5.42-4.45 7.54-7.17s3.18-5.66 3.18-8.81c0-1.94-.36-3.84-1.09-5.72s-1.67-3.69-2.82-5.45c-1.15-1.75-2.39-3.42-3.72-5-1.33-1.57-2.61-3.03-3.81-4.36l21.43-15.08c4.36 6.06 7.42 11.69 9.17 16.89 1.75 5.21 2.63 10.35 2.63 15.44 0 7.51-2.48 14.2-7.45 20.07-4.97 5.88-11.2 11.29-18.71 16.26.24 1.82.45 3.7.64 5.63.18 1.94.27 3.94.27 5.99v87.55c0 9.57-1.52 18.16-4.54 25.79-3.03 7.63-7.15 14.11-12.35 19.44-5.21 5.33-11.35 9.42-18.44 12.26s-14.62 4.27-22.61 4.27c-3.03 0-6.6-.3-10.72-.91s-8.33-2.03-12.62-4.27c-4.3-2.24-8.36-5.57-12.17-9.99s-6.93-10.38-9.35-17.89zm-26.7-134.42c0-1.94-.39-3.81-1.18-5.63s-1.88-3.42-3.27-4.81-3-2.51-4.81-3.36c-1.82-.85-3.81-1.27-5.99-1.27s-4.21.43-6.08 1.27c-1.88.85-3.51 1.97-4.9 3.36s-2.48 3-3.27 4.81c-.79 1.82-1.18 3.7-1.18 5.63s.39 3.81 1.18 5.63 1.88 3.42 3.27 4.81 3.03 2.51 4.9 3.36c1.88.85 3.91 1.27 6.08 1.27s4.18-.42 5.99-1.27c1.82-.85 3.42-1.97 4.81-3.36s2.48-3 3.27-4.81c.79-1.82 1.18-3.69 1.18-5.63zm53.41 0c0 1.94.39 3.81 1.18 5.63s1.88 3.42 3.27 4.81 3 2.51 4.81 3.36c1.82.85 3.81 1.27 5.99 1.27s4.21-.42 6.08-1.27c1.88-.85 3.51-1.97 4.9-3.36s2.48-3 3.27-4.81c.79-1.82 1.18-3.69 1.18-5.63s-.39-3.81-1.18-5.63-1.88-3.42-3.27-4.81-3.03-2.51-4.9-3.36c-1.88-.85-3.91-1.27-6.08-1.27s-4.18.43-5.99 1.27c-1.82.85-3.42 1.97-4.81 3.36s-2.48 3-3.27 4.81c-.79 1.82-1.18 3.7-1.18 5.63z"/></svg>