<svg xmlns="http://www.w3.org/2000/svg" version="1.1" viewBox="-5.0 -10.0 110.0 135.0">
 <path d="m74.113 40.789c-10.375-8.7422-24.129-12.363-37.465-9.8594 2.3242 3.6953 3.9727 7.7734 4.875 12.047l5.8594-3.2969c1.3711-0.76172 3.043-0.74609 4.4023 0.042968 1.3555 0.78906 2.1992 2.2305 2.2227 3.8008v17.016-0.003906c-0.019531 1.5703-0.86328 3.0156-2.2188 3.8086-1.3594 0.78906-3.0312 0.80859-4.4062 0.050781l-5.8594-3.2969c-0.91016 4.2656-2.5625 8.3359-4.875 12.031 13.336 2.457 27.074-1.1641 37.465-9.875 0 0 0.035157-18.43 0-22.465z"/>
 <path d="m93.566 75.551c-0.046875-0.10938-4.9219-9.8906-1.5938-16.516 2.3516-4.3789 2.3516-9.6484 0-14.027-3.3281-6.625 1.5469-16.406 1.5938-16.5 0.34375-0.69531 0.12109-1.5391-0.51562-1.9766-0.64062-0.44141-1.5039-0.34375-2.0312 0.22656l-11.328 12.484c-0.63281 0.85156-1.4766 1.5195-2.4531 1.9375 0 0-0.003906 16.48 0 21.684 0.99219 0.44141 1.8555 1.1289 2.5 2l11.281 12.438c0.52734 0.56641 1.3906 0.66016 2.0273 0.22266 0.63672-0.44141 0.85547-1.2773 0.51953-1.9727z"/>
 <path d="m46.555 58.191c-1.4609-0.41797-2.8945-0.92578-4.2969-1.5156-0.03125 0.39062-0.09375 0.78125-0.14062 1.1719l6.7969 3.8281c0.41406 0.22656 0.91797 0.22266 1.3281-0.015625 0.39844-0.23047 0.64453-0.66016 0.64062-1.125v-17.012c-0.007812-0.46484-0.26172-0.89453-0.66406-1.125-0.40625-0.23047-0.89844-0.23047-1.3047 0l-6.7969 3.8281c0.046874 0.375 0.09375 0.76563 0.14062 1.1562l3.7344-1.4062c0.80078-0.29297 1.6875 0.11719 1.9922 0.91406s-0.089844 1.6914-0.88281 2.0078l-4.6094 1.7344c0.03125 0.92188 0.03125 1.8594 0 2.7969l4.6094 1.7461c0.69531 0.27344 1.0977 1 0.96484 1.7344-0.13281 0.73438-0.76562 1.2695-1.5117 1.2812z"/>
 <path d="m33.414 31.648c-8.0234 2.0781-15.312 6.3516-21.043 12.344-2.168 2.2148-4.1328 4.6211-5.875 7.1875-0.32812 0.51172-0.32812 1.1719 0 1.6836 1.7344 2.5781 3.6992 4.9883 5.875 7.2031 5.7305 5.9922 13.02 10.266 21.043 12.344 2.6641-4.0039 4.4727-8.5156 5.3125-13.25 1.8477-9.5117-0.054687-19.371-5.3125-27.512zm-12.043 19.594c-1.5039-0.015626-2.7148-1.2344-2.7148-2.7344 0-1.5039 1.2109-2.7227 2.7148-2.7344 1.5 0.011718 2.7109 1.2305 2.7109 2.7344 0 1.5-1.2109 2.7188-2.7109 2.7344z"/>
 <path d="m75.113 75.379c-2.8945-0.64453-5.5508-2.082-7.6719-4.1562-6.2109 3.2969-13.078 5.1758-20.105 5.5 6.707 7.7539 17.465 8.3828 28.293 1.5312 0.53906-0.34375 0.81641-0.98047 0.70312-1.6094-0.11328-0.62891-0.59375-1.1289-1.2188-1.2656z"/>
 <path d="m65.738 31.961c-0.75-5.2812 1.3438-12.875 1.3594-12.969 0.12891-0.45703 0.039063-0.95313-0.24609-1.3359-0.28516-0.38672-0.72656-0.61719-1.207-0.63281-4.0938-0.14453-8.1875 0.30469-12.152 1.3281-5.6758 1.5625-10.742 4.8086-14.531 9.3125 1.5586-0.20703 3.1289-0.32422 4.7031-0.35937 7.625-0.22266 15.191 1.375 22.074 4.6562z"/>
<text x="0.0" y="117.5" font-size="5.0" font-weight="bold" font-family="Arbeit Regular, Helvetica, Arial-Unicode, Arial, Sans-serif" fill="#000000">Created by metami septiana</text><text x="0.0" y="122.5" font-size="5.0" font-weight="bold" font-family="Arbeit Regular, Helvetica, Arial-Unicode, Arial, Sans-serif" fill="#000000">from Noun Project</text></svg>