<?xml version="1.0" encoding="UTF-8"?>
<svg id="Layer_1" data-name="Layer 1" xmlns="http://www.w3.org/2000/svg" viewBox="0 0 87.49 66">
  <path d="M67.86,23.79c-10.38-8.74-24.13-12.36-37.47-9.86,2.32,3.7,3.97,7.77,4.88,12.05l5.86-3.3c1.37-.76,3.04-.75,4.4.04,1.36.79,2.2,2.23,2.22,3.8v17.02h0c-.02,1.57-.86,3.01-2.22,3.8-1.36.79-3.03.81-4.41.05l-5.86-3.3c-.91,4.27-2.56,8.34-4.88,12.03,13.34,2.46,27.07-1.16,37.47-9.88,0,0,.04-18.43,0-22.47h0Z"/>
  <path d="M87.32,58.55c-.05-.11-4.92-9.89-1.59-16.52,2.35-4.38,2.35-9.65,0-14.03-3.33-6.62,1.55-16.41,1.59-16.5.34-.7.12-1.54-.52-1.98-.64-.44-1.5-.34-2.03.23l-11.33,12.48c-.63.85-1.48,1.52-2.45,1.94,0,0,0,16.48,0,21.68.99.44,1.86,1.13,2.5,2l11.28,12.44c.53.57,1.39.66,2.03.22.64-.44.86-1.28.52-1.97h0Z"/>
  <path d="M40.31,41.19c-1.46-.42-2.89-.93-4.3-1.52-.03.39-.09.78-.14,1.17l6.8,3.83c.41.23.92.22,1.33-.02.4-.23.64-.66.64-1.12v-17.01c0-.46-.26-.89-.66-1.12-.41-.23-.9-.23-1.3,0l-6.8,3.83c.05.38.09.77.14,1.16l3.73-1.41c.8-.29,1.69.12,1.99.91s-.09,1.69-.88,2.01l-4.61,1.73c.03.92.03,1.86,0,2.8l4.61,1.75c.7.27,1.1,1,.96,1.73-.13.73-.77,1.27-1.51,1.28h0Z"/>
  <path d="M27.16,14.65c-8.02,2.08-15.31,6.35-21.04,12.34-2.17,2.21-4.13,4.62-5.88,7.19-.33.51-.33,1.17,0,1.68,1.73,2.58,3.7,4.99,5.88,7.2,5.73,5.99,13.02,10.27,21.04,12.34,2.66-4,4.47-8.52,5.31-13.25,1.85-9.51-.05-19.37-5.31-27.51h0ZM15.12,34.25c-1.5-.02-2.71-1.23-2.71-2.73s1.21-2.72,2.71-2.73c1.5.01,2.71,1.23,2.71,2.73s-1.21,2.72-2.71,2.73Z"/>
  <path d="M68.86,58.38c-2.89-.64-5.55-2.08-7.67-4.16-6.21,3.3-13.08,5.18-20.1,5.5,6.71,7.75,17.47,8.38,28.29,1.53.54-.34.82-.98.7-1.61-.11-.63-.59-1.13-1.22-1.27h0Z"/>
  <path d="M59.49,14.96c-.75-5.28,1.34-12.88,1.36-12.97.13-.46.04-.95-.25-1.34-.29-.39-.73-.62-1.21-.63-4.09-.14-8.19.3-12.15,1.33-5.68,1.56-10.74,4.81-14.53,9.31,1.56-.21,3.13-.32,4.7-.36,7.62-.22,15.19,1.38,22.07,4.66h0Z"/>
</svg>