<?xml version="1.0" encoding="UTF-8" standalone="no"?>
<svg
   id="Layer_1"
   data-name="Layer 1"
   viewBox="0 0 179.82001 260.84"
   version="1.1"
   sodipodi:docname="poh pah.svg"
   width="179.82001"
   height="260.84"
   inkscape:version="1.4 (e7c3feb100, 2024-10-09)"
   xmlns:inkscape="http://www.inkscape.org/namespaces/inkscape"
   xmlns:sodipodi="http://sodipodi.sourceforge.net/DTD/sodipodi-0.dtd"
   xmlns="http://www.w3.org/2000/svg"
   xmlns:svg="http://www.w3.org/2000/svg">
  <defs
     id="defs1" />
  <sodipodi:namedview
     id="namedview1"
     pagecolor="#505050"
     bordercolor="#eeeeee"
     borderopacity="1"
     inkscape:showpageshadow="0"
     inkscape:pageopacity="0"
     inkscape:pagecheckerboard="0"
     inkscape:deskcolor="#505050"
     inkscape:zoom="1.0861913"
     inkscape:cx="96.20773"
     inkscape:cy="197.93935"
     inkscape:window-width="1280"
     inkscape:window-height="768"
     inkscape:window-x="0"
     inkscape:window-y="0"
     inkscape:window-maximized="1"
     inkscape:current-layer="Layer_1" />
  <path
     d="M 89.36,260.84 C 75.8,260.84 63.5,259.42 52.49,256.57 41.47,253.73 32.08,249.58 24.34,244.13 16.59,238.68 10.59,231.93 6.36,223.88 2.12,215.83 0,206.6 0,196.18 c 0,-7.87 0.91,-14.65 2.72,-20.34 1.82,-5.69 4.18,-10.72 7.08,-15.08 2.9,-4.36 6.05,-8.23 9.45,-11.62 3.4,-3.39 6.72,-6.66 9.99,-9.81 3.27,-3.15 6.18,-6.36 8.72,-9.63 2.54,-3.27 4.36,-7.02 5.45,-11.26 -1.7,1.33 -3.42,2.42 -5.18,3.27 -1.76,0.85 -4.27,1.27 -7.54,1.27 -4,0 -7.87,-0.66 -11.62,-2 -3.75,-1.33 -7.02,-3.3 -9.81,-5.9 -2.79,-2.6 -5.03,-5.81 -6.72,-9.63 C 0.84,101.64 0,97.31 0,92.46 0,87.98 0.82,83.77 2.45,79.84 c 1.63,-3.93 4,-7.36 7.08,-10.26 3.08,-2.9 6.93,-5.21 11.53,-6.9 4.6,-1.69 9.81,-2.54 15.62,-2.54 6.29,0 11.96,0.91 16.98,2.72 5.02,1.82 9.29,4.39 12.81,7.72 3.51,3.33 6.2,7.33 8.08,11.99 1.88,4.66 2.82,9.9 2.82,15.71 0,7.15 -0.79,13.53 -2.36,19.16 -1.58,5.63 -3.54,10.9 -5.9,15.8 -2.36,4.9 -4.9,9.57 -7.63,13.99 -2.72,4.42 -5.27,9.02 -7.63,13.8 -2.36,4.79 -4.33,9.87 -5.9,15.26 -1.58,5.39 -2.36,11.47 -2.36,18.25 0,5.69 1.09,10.93 3.27,15.71 2.18,4.79 5.11,8.9 8.81,12.35 3.69,3.45 8.08,6.15 13.17,8.08 5.09,1.94 10.54,2.91 16.35,2.91 8.36,0 15.5,-1.39 21.43,-4.18 5.93,-2.78 10.81,-6.81 14.62,-12.08 3.81,-5.27 6.63,-11.72 8.45,-19.34 1.82,-7.62 2.72,-16.35 2.72,-26.16 V 0 h 45.41 v 181.28 c 0,14.53 -2.67,26.85 -7.99,36.96 -5.33,10.11 -12.26,18.32 -20.8,24.61 -8.54,6.3 -18.23,10.87 -29.06,13.71 -10.84,2.84 -21.71,4.27 -32.6,4.27 z M 16.34,91.55 c 0,1.94 0.39,3.81 1.18,5.63 0.79,1.82 1.88,3.42 3.27,4.81 1.39,1.39 3,2.51 4.81,3.36 1.82,0.85 3.81,1.27 5.99,1.27 2.18,0 4.21,-0.42 6.08,-1.27 1.88,-0.85 3.51,-1.97 4.9,-3.36 1.39,-1.39 2.48,-3 3.27,-4.81 0.79,-1.82 1.18,-3.69 1.18,-5.63 0,-1.94 -0.39,-3.81 -1.18,-5.63 -0.79,-1.82 -1.88,-3.42 -3.27,-4.81 -1.39,-1.39 -3.03,-2.51 -4.9,-3.36 -1.88,-0.85 -3.91,-1.27 -6.08,-1.27 -2.17,0 -4.18,0.43 -5.99,1.27 -1.82,0.85 -3.42,1.97 -4.81,3.36 -1.39,1.39 -2.48,3 -3.27,4.81 -0.79,1.82 -1.18,3.7 -1.18,5.63 z"
     id="path1" />
</svg>
