<?xml version="1.0" encoding="UTF-8" standalone="no"?>
<svg
   id="Layer_1"
   data-name="Layer 1"
   viewBox="0 0 387.63 265.84"
   version="1.1"
   sodipodi:docname="pah word.svg"
   width="387.63"
   height="265.84"
   inkscape:version="1.4 (e7c3feb100, 2024-10-09)"
   xmlns:inkscape="http://www.inkscape.org/namespaces/inkscape"
   xmlns:sodipodi="http://sodipodi.sourceforge.net/DTD/sodipodi-0.dtd"
   xmlns="http://www.w3.org/2000/svg"
   xmlns:svg="http://www.w3.org/2000/svg">
  <sodipodi:namedview
     id="namedview3"
     pagecolor="#505050"
     bordercolor="#eeeeee"
     borderopacity="1"
     inkscape:showpageshadow="0"
     inkscape:pageopacity="0"
     inkscape:pagecheckerboard="0"
     inkscape:deskcolor="#505050"
     inkscape:zoom="1.0753759"
     inkscape:cx="199.46514"
     inkscape:cy="199.93009"
     inkscape:window-width="1280"
     inkscape:window-height="768"
     inkscape:window-x="0"
     inkscape:window-y="0"
     inkscape:window-maximized="1"
     inkscape:current-layer="Layer_1" />
  <defs
     id="defs1">
    <style
       id="style1">
      .cls-1 {
        fill: none;
        stroke: #000;
        stroke-miterlimit: 10;
        stroke-width: 5px;
      }
    </style>
  </defs>
  <g
     id="g3"
     transform="translate(-12.72,-51.04)">
    <path
       class="cls-1"
       d="m 104.58,314.38 c -13.56,0 -25.86,-1.42 -36.87,-4.27 -11.02,-2.84 -20.41,-6.99 -28.15,-12.44 -7.75,-5.45 -13.75,-12.2 -17.98,-20.25 -4.24,-8.05 -6.36,-17.28 -6.36,-27.7 0,-7.87 0.91,-14.65 2.72,-20.34 1.82,-5.69 4.18,-10.72 7.08,-15.08 2.9,-4.36 6.05,-8.23 9.45,-11.62 3.4,-3.39 6.72,-6.66 9.99,-9.81 3.27,-3.15 6.18,-6.36 8.72,-9.63 2.54,-3.27 4.36,-7.02 5.45,-11.26 -1.7,1.33 -3.42,2.42 -5.18,3.27 -1.76,0.85 -4.27,1.27 -7.54,1.27 -4,0 -7.87,-0.66 -11.62,-2 -3.75,-1.33 -7.02,-3.3 -9.81,-5.9 -2.79,-2.6 -5.03,-5.81 -6.72,-9.63 -1.7,-3.81 -2.54,-8.14 -2.54,-12.99 0,-4.48 0.82,-8.69 2.45,-12.62 1.63,-3.93 4,-7.36 7.08,-10.26 3.08,-2.9 6.93,-5.21 11.53,-6.9 4.6,-1.69 9.81,-2.54 15.62,-2.54 6.29,0 11.96,0.91 16.98,2.72 5.02,1.82 9.29,4.39 12.81,7.72 3.51,3.33 6.2,7.33 8.08,11.99 1.88,4.66 2.82,9.9 2.82,15.71 0,7.15 -0.79,13.53 -2.36,19.16 -1.58,5.63 -3.54,10.9 -5.9,15.8 -2.36,4.9 -4.9,9.57 -7.63,13.99 -2.72,4.42 -5.27,9.02 -7.63,13.8 -2.36,4.79 -4.33,9.87 -5.9,15.26 -1.58,5.39 -2.36,11.47 -2.36,18.25 0,5.69 1.09,10.93 3.27,15.71 2.18,4.79 5.11,8.9 8.81,12.35 3.69,3.45 8.08,6.15 13.17,8.08 5.09,1.94 10.54,2.91 16.35,2.91 8.36,0 15.5,-1.39 21.43,-4.18 5.93,-2.78 10.81,-6.81 14.62,-12.08 3.81,-5.27 6.63,-11.72 8.45,-19.34 1.82,-7.62 2.72,-16.35 2.72,-26.16 V 53.54 h 45.41 v 181.28 c 0,14.53 -2.67,26.85 -7.99,36.96 -5.33,10.11 -12.26,18.32 -20.8,24.61 -8.54,6.3 -18.23,10.87 -29.06,13.71 -10.84,2.84 -21.71,4.27 -32.6,4.27 z M 31.56,145.09 c 0,1.94 0.39,3.81 1.18,5.63 0.79,1.82 1.88,3.42 3.27,4.81 1.39,1.39 3,2.51 4.81,3.36 1.82,0.85 3.81,1.27 5.99,1.27 2.18,0 4.21,-0.42 6.08,-1.27 1.88,-0.85 3.51,-1.97 4.9,-3.36 1.39,-1.39 2.48,-3 3.27,-4.81 0.79,-1.82 1.18,-3.69 1.18,-5.63 0,-1.94 -0.39,-3.81 -1.18,-5.63 -0.79,-1.82 -1.88,-3.42 -3.27,-4.81 -1.39,-1.39 -3.03,-2.51 -4.9,-3.36 -1.88,-0.85 -3.91,-1.27 -6.08,-1.27 -2.17,0 -4.18,0.43 -5.99,1.27 -1.82,0.85 -3.42,1.97 -4.81,3.36 -1.39,1.39 -2.48,3 -3.27,4.81 -0.79,1.82 -1.18,3.7 -1.18,5.63 z"
       id="path2"
       style="stroke:none;fill:#000000;fill-opacity:1" />
    <path
       class="cls-1"
       d="M 397.83,311.47 H 352.42 V 185.23 c 0,-5.93 -0.88,-11.59 -2.63,-16.98 -1.76,-5.39 -4.42,-10.11 -7.99,-14.17 -3.57,-4.06 -8.08,-7.27 -13.53,-9.63 -5.45,-2.36 -11.81,-3.54 -19.07,-3.54 -4.48,0 -9.29,0.76 -14.44,2.27 -5.15,1.52 -9.93,4.03 -14.35,7.54 -4.42,3.51 -8.08,8.15 -10.99,13.9 -2.91,5.75 -4.36,12.93 -4.36,21.52 v 3 c 0,1.03 0.06,2.03 0.18,3 1.82,-4.12 4,-7.54 6.54,-10.26 2.54,-2.72 5.27,-4.9 8.17,-6.54 2.9,-1.64 5.9,-2.78 8.99,-3.45 3.09,-0.66 6.08,-1 8.99,-1 5.57,0 10.32,0.91 14.26,2.72 3.93,1.82 7.14,4.18 9.63,7.08 2.48,2.91 4.3,6.21 5.45,9.9 1.15,3.7 1.73,7.48 1.73,11.35 0,4.48 -0.85,8.69 -2.54,12.62 -1.7,3.94 -4.3,7.39 -7.81,10.35 -3.51,2.97 -7.93,5.3 -13.26,6.99 -5.33,1.7 -11.62,2.54 -18.89,2.54 -6.18,0 -12.26,-1.3 -18.25,-3.91 -5.99,-2.6 -11.32,-6.29 -15.98,-11.08 -4.66,-4.78 -8.45,-10.54 -11.35,-17.26 -2.9,-6.72 -4.36,-14.26 -4.36,-22.61 0,-11.02 2.24,-20.64 6.72,-28.88 4.48,-8.23 10.41,-15.1 17.8,-20.62 7.38,-5.51 15.89,-9.63 25.52,-12.35 9.63,-2.72 19.53,-4.09 29.7,-4.09 11.02,0 21.46,1.42 31.33,4.27 9.87,2.85 18.53,7.57 25.97,14.17 7.45,6.6 13.35,15.29 17.71,26.07 4.36,10.78 6.54,24.16 6.54,40.14 V 311.45 Z M 281.76,202.67 c 0,4.24 1.51,7.87 4.54,10.9 3.03,3.03 6.66,4.54 10.9,4.54 4.24,0 7.87,-1.51 10.9,-4.54 3.03,-3.03 4.54,-6.66 4.54,-10.9 0,-4.24 -1.45,-7.87 -4.36,-10.9 -2.91,-3.03 -6.48,-4.54 -10.72,-4.54 -2.18,0 -4.21,0.39 -6.08,1.18 -1.88,0.79 -3.54,1.88 -5,3.27 -1.45,1.39 -2.61,3.03 -3.45,4.9 -0.85,1.88 -1.27,3.91 -1.27,6.08 z"
       id="path3" />
  </g>
</svg>
