<svg height="315.44" viewBox="0 0 568.27004 315.44001" width="568.27002" xmlns="http://www.w3.org/2000/svg"><g transform="translate(-12.7 -1.44)"><path d="m55.9 248.99c0 1.7.12 3.66.36 5.9s.64 4.48 1.18 6.72 1.3 4.33 2.27 6.27 2.12 3.51 3.45 4.72c1.57-4.24 3.54-7.63 5.9-10.17s4.87-4.48 7.54-5.81c2.66-1.33 5.36-2.21 8.08-2.63s5.18-.64 7.36-.64c4.6 0 8.75.76 12.44 2.27 3.69 1.52 6.84 3.57 9.45 6.18 2.6 2.61 4.6 5.63 5.99 9.08s2.09 7.17 2.09 11.17c0 9.69-3.42 17.5-10.26 23.43s-17.59 8.9-32.24 8.9c-6.9 0-14.14-1.39-21.71-4.18-7.57-2.78-14.5-6.93-20.8-12.44s-11.51-12.32-15.62-20.43c-4.12-8.11-6.18-17.5-6.18-28.15v-66.12c0-9.69 1.91-18.59 5.72-26.7s9.2-15.14 16.17-21.07c6.96-5.93 15.44-10.54 25.43-13.8s21.16-4.9 33.51-4.9h19.8v24.34h-19.8c-5.09 0-10.02.7-14.8 2.09-4.79 1.39-9.05 3.72-12.81 6.99-3.75 3.27-6.78 7.63-9.08 13.08s-3.45 12.23-3.45 20.34v65.57zm49.77 34.87c0-3.87-1.48-7.2-4.45-9.99-2.97-2.78-6.57-4.18-10.81-4.18s-7.87 1.39-10.9 4.18-4.54 6.12-4.54 9.99 1.51 7.21 4.54 9.99c3.03 2.79 6.66 4.18 10.9 4.18s7.84-1.39 10.81-4.18c2.97-2.78 4.45-6.11 4.45-9.99z" fill="none" stroke="#000" stroke-miterlimit="10" stroke-width="5"/><path d="m361.06 253.16c0 9.93-1.48 18.71-4.45 26.34s-6.99 14.02-12.08 19.16c-5.09 5.15-11.08 9.05-17.98 11.72s-14.29 4-22.16 4c-8.6 0-15.87-1.12-21.8-3.36s-10.87-5.24-14.8-8.99c-3.94-3.75-7.15-7.99-9.63-12.71s-4.63-9.56-6.45-14.53c-1.82-4.96-3.48-9.81-5-14.53s-3.33-8.96-5.45-12.71-4.72-6.75-7.81-8.99-7.12-3.36-12.08-3.36c-5.33 0-9.87.76-13.62 2.27-3.75 1.52-6.81 3.57-9.17 6.18s-4.12 5.66-5.27 9.17-1.73 7.27-1.73 11.26c3.39-3.03 6.84-4.96 10.35-5.81s6.42-1.27 8.72-1.27c4 0 7.78.7 11.35 2.09s6.69 3.33 9.35 5.81 4.75 5.39 6.27 8.72c1.51 3.33 2.27 6.99 2.27 10.99 0 4.24-.64 8.15-1.91 11.72s-3.3 6.72-6.08 9.45c-2.79 2.72-6.36 4.84-10.72 6.36s-9.57 2.27-15.62 2.27c-4.72 0-9.75-.88-15.08-2.63s-10.23-4.63-14.71-8.63-8.21-9.23-11.17-15.71c-2.97-6.48-4.45-14.44-4.45-23.89 0-8.23 1.73-15.59 5.18-22.07s8.02-11.93 13.71-16.35 12.17-7.78 19.44-10.08 14.71-3.45 22.34-3.45c8.47 0 15.65 1.09 21.52 3.27s10.78 5.03 14.71 8.54 7.14 7.54 9.63 12.08c2.48 4.54 4.63 9.17 6.45 13.9s3.45 9.35 4.9 13.9 3.18 8.57 5.18 12.08 4.42 6.36 7.27 8.54c2.84 2.18 6.51 3.27 10.99 3.27 1.69 0 3.39-.54 5.09-1.63 1.69-1.09 3.21-2.75 4.54-5 1.33-2.24 2.42-5.05 3.27-8.45.85-3.39 1.27-7.38 1.27-11.99v-57.22c0-4-.24-7.81-.73-11.44s-1.15-7.02-2-10.17c-9.93 4.6-20.43 8.05-31.51 10.35s-22.01 3.45-32.79 3.45c-6.54 0-13.26-.24-20.16-.73-6.9-.48-13.62-1.33-20.16-2.54s-12.75-2.82-18.62-4.81c-5.88-2-10.99-4.51-15.35-7.54s-7.81-6.6-10.35-10.72-3.81-8.9-3.81-14.35c0-6.9 2.09-12.9 6.27-17.98s10.14-9.29 17.89-12.62 17.1-5.84 28.06-7.54c10.96-1.69 23.16-2.54 36.6-2.54 12.35 0 24.79 1.73 37.33 5.18s24.13 8.57 34.78 15.35c1.82-4.12 2.72-8.72 2.72-13.8s-.76-8.63-2.27-11.35c-1.52-2.72-3.48-5.18-5.9-7.36l32.88-17.62c1.09.85 2.48 2.33 4.18 4.45 1.69 2.12 3.33 4.66 4.9 7.63s2.91 6.21 4 9.72 1.63 7.08 1.63 10.72c0 7.99-1.48 15.41-4.45 22.25s-7.06 13.11-12.26 18.8c4.48 6.18 8.02 12.93 10.63 20.25 2.6 7.33 3.91 15.29 3.91 23.89v51.4zm-135.69 32.52c0-3.87-1.48-7.2-4.45-9.99-2.97-2.78-6.57-4.18-10.81-4.18s-7.87 1.39-10.9 4.18-4.54 6.12-4.54 9.99 1.51 7.21 4.54 9.99c3.03 2.79 6.66 4.18 10.9 4.18s7.84-1.39 10.81-4.18c2.97-2.78 4.45-6.11 4.45-9.99zm20.71-144.77c-7.75 0-14.32.3-19.71.91s-9.78 1.48-13.17 2.63-5.84 2.54-7.36 4.18c-1.52 1.63-2.27 3.42-2.27 5.36 0 2.79 1.06 5.09 3.18 6.9 2.12 1.82 5.15 3.24 9.08 4.27s8.63 1.73 14.08 2.09 11.44.54 17.98.54c3.63 0 7.57-.21 11.81-.64 4.24-.42 8.57-1.06 12.99-1.91s8.81-1.97 13.17-3.36 8.54-3.12 12.53-5.18c-6.18-5.45-13.65-9.45-22.43-11.99s-18.74-3.81-29.88-3.81z"/><g fill="none" stroke="#000" stroke-miterlimit="10" stroke-width="5"><path d="m258.61 24.84c-8.84 0-16.35.91-22.52 2.72s-11.17 4.12-14.99 6.9c-3.81 2.79-6.57 5.9-8.26 9.35s-2.54 6.87-2.54 10.26c0 1.82.21 3.75.64 5.81s1.09 4.15 2 6.27 2 4.12 3.27 5.99c1.27 1.88 2.76 3.54 4.45 5l-31.24 19.8c-1.94-2.06-3.91-4.48-5.9-7.27-2-2.78-3.81-5.84-5.45-9.17-1.63-3.33-2.97-6.93-4-10.81-1.03-3.87-1.54-7.99-1.54-12.35 0-7.63 2.15-14.71 6.45-21.25s10.29-12.2 17.98-16.98 16.8-8.51 27.34-11.17 21.98-4 34.33-4 23.98 1.33 34.51 4c10.54 2.67 19.62 6.42 27.25 11.26s13.59 10.66 17.89 17.44 6.45 14.23 6.45 22.34c0 1.82-.12 3.6-.36 5.36s-.54 3.48-.91 5.18c6.54-.6 12.93-1.6 19.16-3 6.24-1.39 12.32-3.3 18.25-5.72l3.27 23.07c-4.24 2.42-8.93 4.45-14.08 6.08s-10.32 2.97-15.53 4-10.14 1.79-14.8 2.27c-4.66.49-8.63.73-11.9.73l-33.42-19.8c3.39-2.42 6.33-5.39 8.81-8.9s3.72-8.05 3.72-13.62c0-3.39-.94-6.87-2.82-10.44s-4.81-6.78-8.81-9.63c-4-2.84-9.02-5.18-15.08-6.99-6.05-1.82-13.26-2.72-21.62-2.72zm-18.71 39.24c0 2.42.49 4.72 1.45 6.9.97 2.18 2.3 4.06 4 5.63 1.7 1.58 3.7 2.82 5.99 3.72 2.3.91 4.72 1.36 7.27 1.36s4.97-.45 7.27-1.36 4.3-2.15 5.99-3.72c1.7-1.57 3.03-3.45 4-5.63s1.45-4.48 1.45-6.9-.48-4.72-1.45-6.9-2.3-4.09-4-5.72c-1.69-1.63-3.69-2.91-5.99-3.81-2.3-.91-4.72-1.36-7.27-1.36s-4.96.45-7.27 1.36c-2.3.91-4.3 2.18-5.99 3.81s-3.03 3.54-4 5.72-1.45 4.48-1.45 6.9z"/><path d="m480.03 195.04c-8.84 0-17.89-.6-27.16-1.82-9.26-1.21-17.71-3.33-25.34-6.36s-13.9-7.17-18.8-12.44-7.36-11.96-7.36-20.07c0-6.9 2.06-12.9 6.18-17.98 4.12-5.09 9.84-9.29 17.17-12.62s15.98-5.84 25.97-7.54c9.99-1.69 20.86-2.54 32.6-2.54 12.83 0 25 1.42 36.51 4.27 11.5 2.85 21.62 7.42 30.33 13.71 8.72 6.3 15.62 14.44 20.71 24.43s7.63 22.13 7.63 36.42v49.59c0 12.23-2.67 22.89-7.99 31.97-5.33 9.08-12.29 16.62-20.89 22.61s-18.41 10.44-29.43 13.35-22.22 4.36-33.6 4.36c-5.57 0-11.51-.39-17.8-1.18-6.3-.79-12.62-2.06-18.98-3.81s-12.44-4.06-18.25-6.9-10.96-6.39-15.44-10.63-8.05-9.23-10.72-14.99c-2.67-5.75-4-12.38-4-19.89s1.6-13.86 4.81-19.44c3.21-5.57 7.48-10.26 12.81-14.08 5.33-3.81 11.44-6.69 18.35-8.63 6.9-1.94 14.11-2.91 21.62-2.91 5.93 0 11.29.85 16.08 2.54 4.78 1.7 8.84 4.03 12.17 6.99 3.33 2.97 5.9 6.42 7.72 10.35 1.82 3.94 2.72 8.15 2.72 12.62 0 3.88-.58 7.66-1.73 11.35-1.15 3.7-2.97 6.99-5.45 9.9s-5.69 5.27-9.63 7.08c-3.94 1.82-8.69 2.72-14.26 2.72-2.91 0-5.81-.27-8.72-.82s-5.72-1.54-8.45-3-5.39-3.42-7.99-5.9c-2.61-2.48-5.12-5.66-7.54-9.54 1.69 8.24 4.75 14.68 9.17 19.34s9.29 8.11 14.62 10.35 10.59 3.6 15.8 4.09 9.38.73 12.53.73c6.78 0 12.62-.82 17.53-2.45s9.11-3.84 12.62-6.63c3.51-2.78 6.36-5.99 8.54-9.63s3.91-7.42 5.18-11.35 2.12-7.87 2.54-11.81c.42-3.93.64-7.66.64-11.17v-41.78c0-4.72-.36-9.56-1.09-14.53-6.9 3.51-14.71 6.66-23.43 9.45s-18.23 4.18-28.52 4.18zm-.91-54.13c-11.51 0-20.1 1.21-25.79 3.63s-8.54 5.57-8.54 9.45c0 2.79.97 5.09 2.91 6.9 1.94 1.82 4.51 3.24 7.72 4.27s6.93 1.73 11.17 2.09 8.66.54 13.26.54c9.08 0 17.07-.94 23.98-2.82 6.9-1.88 13.08-4.27 18.53-7.17-3.88-5.09-9.29-9.17-16.26-12.26-6.96-3.09-15.96-4.63-26.97-4.63zm-28.69 102.81c0 2.18.42 4.21 1.27 6.08.85 1.88 2 3.51 3.45 4.9s3.12 2.48 5 3.27 3.91 1.18 6.08 1.18c4.24 0 7.81-1.51 10.72-4.54s4.36-6.66 4.36-10.9-1.52-7.87-4.54-10.9c-3.03-3.03-6.66-4.54-10.9-4.54s-7.87 1.52-10.9 4.54-4.54 6.66-4.54 10.9z"/></g></g></svg>