<svg height="230.3" viewBox="0 0 203.08 230.30001" width="203.08" xmlns="http://www.w3.org/2000/svg"><path d="m200.91 169.05c0 9.93-1.48 18.71-4.45 26.34s-6.99 14.02-12.08 19.16c-5.09 5.15-11.08 9.05-17.98 11.72s-14.29 4-22.16 4c-8.6 0-15.87-1.12-21.8-3.36s-10.87-5.24-14.8-8.99c-3.94-3.75-7.15-7.99-9.63-12.71s-4.63-9.56-6.45-14.53c-1.82-4.96-3.48-9.81-5-14.53s-3.33-8.96-5.45-12.71-4.72-6.75-7.81-8.99-7.12-3.36-12.08-3.36c-5.33 0-9.87.76-13.62 2.27-3.75 1.52-6.81 3.57-9.17 6.18s-4.12 5.66-5.27 9.17-1.73 7.27-1.73 11.26c3.39-3.03 6.84-4.96 10.35-5.81s6.42-1.27 8.72-1.27c4 0 7.78.7 11.35 2.09s6.69 3.33 9.35 5.81 4.75 5.39 6.27 8.72c1.51 3.33 2.27 6.99 2.27 10.99 0 4.24-.64 8.15-1.91 11.72s-3.3 6.72-6.08 9.45c-2.79 2.72-6.36 4.84-10.72 6.36s-9.57 2.27-15.62 2.27c-4.72 0-9.75-.88-15.08-2.63s-10.23-4.63-14.71-8.63-8.21-9.23-11.17-15.71c-2.97-6.48-4.45-14.44-4.45-23.89 0-8.23 1.73-15.59 5.18-22.07s8.02-11.93 13.71-16.35 12.17-7.78 19.44-10.08 14.71-3.45 22.34-3.45c8.47 0 15.65 1.09 21.52 3.27s10.78 5.03 14.71 8.54 7.14 7.54 9.63 12.08c2.48 4.54 4.63 9.17 6.45 13.9s3.45 9.35 4.9 13.9 3.18 8.57 5.18 12.08 4.42 6.36 7.27 8.54c2.84 2.18 6.51 3.27 10.99 3.27 1.69 0 3.39-.54 5.09-1.63 1.69-1.09 3.21-2.75 4.54-5 1.33-2.24 2.42-5.05 3.27-8.45.85-3.39 1.27-7.38 1.27-11.99v-57.22c0-4-.24-7.81-.73-11.44s-1.15-7.02-2-10.17c-9.93 4.6-20.43 8.05-31.51 10.35s-22.01 3.45-32.79 3.45c-6.54 0-13.26-.24-20.16-.73-6.9-.48-13.62-1.33-20.16-2.54s-12.75-2.82-18.62-4.81c-5.88-2-10.99-4.51-15.35-7.54-4.36-3.03-7.81-6.6-10.35-10.72s-3.81-8.9-3.81-14.35c0-6.9 2.09-12.9 6.27-17.98s10.14-9.29 17.89-12.62 17.1-5.84 28.06-7.54c10.96-1.69 23.16-2.54 36.6-2.54 12.35 0 24.79 1.73 37.33 5.18s24.13 8.57 34.78 15.35c1.82-4.12 2.72-8.72 2.72-13.8s-.76-8.63-2.27-11.35c-1.52-2.72-3.48-5.18-5.9-7.36l32.88-17.62c1.09.85 2.48 2.33 4.18 4.45 1.69 2.12 3.33 4.66 4.9 7.63s2.91 6.21 4 9.72 1.63 7.08 1.63 10.72c0 7.99-1.48 15.41-4.45 22.25s-7.06 13.11-12.26 18.8c4.48 6.18 8.02 12.93 10.63 20.25 2.6 7.33 3.91 15.29 3.91 23.89v51.4zm-135.69 32.52c0-3.87-1.48-7.2-4.45-9.99-2.97-2.78-6.57-4.18-10.81-4.18s-7.87 1.39-10.9 4.18-4.54 6.12-4.54 9.99 1.51 7.21 4.54 9.99c3.03 2.79 6.66 4.18 10.9 4.18s7.84-1.39 10.81-4.18c2.97-2.78 4.45-6.11 4.45-9.99zm20.71-144.77c-7.75 0-14.32.3-19.71.91s-9.78 1.48-13.17 2.63-5.84 2.54-7.36 4.18c-1.52 1.63-2.27 3.42-2.27 5.36 0 2.79 1.06 5.09 3.18 6.9 2.12 1.82 5.15 3.24 9.08 4.27s8.63 1.73 14.08 2.09 11.44.54 17.98.54c3.63 0 7.57-.21 11.81-.64 4.24-.42 8.57-1.06 12.99-1.91s8.81-1.97 13.17-3.36 8.54-3.12 12.53-5.18c-6.18-5.45-13.65-9.45-22.43-11.99s-18.74-3.81-29.88-3.81z"/></svg>