<svg xmlns="http://www.w3.org/2000/svg" xmlns:xlink="http://www.w3.org/1999/xlink" version="1.1" x="0px" y="0px" viewBox="0 0 100 125" enable-background="new 0 0 100 100" xml:space="preserve"><path fill="none" d="M65.6,44c1.4-0.6,2.1-1.7,2.5-3.2c-0.9,0-1.6-0.1-2,0.9c-0.5,1.1-1.5,1.4-2.7,1c-0.3-0.1-0.7-0.3-1-0.4  c-0.2,0.4-0.4,0.8-0.6,1.1C62.9,44.3,64.2,44.5,65.6,44z"/><path fill="none" d="M36.9,42.5c-1.4,0.6-2.7,0.4-3.4-1.2c-0.3-0.7-1-0.6-1.7-0.6c0.6,3.2,3.8,4.6,6.4,2.6c-0.2-0.4-0.4-0.7-0.6-1.1  C37.2,42.4,37,42.4,36.9,42.5z"/><path fill="none" d="M52.8,77.1c-1.7-0.8-3.4-1-5.2-0.2c-3.1,1.4-6.3,2.7-9.9,2.8c3.2,4.3,7.4,6.3,12.7,6.2  c5.1-0.1,10.1-3.4,11.6-6.3c-0.7-0.1-1.4-0.1-2.1-0.2C57.4,79.2,55.1,78.2,52.8,77.1z"/><path d="M96,46.8C94,39.5,90.7,33,86.2,27c-0.6-0.7-0.7-1.4-0.3-2.3c0.4-0.9,0.8-1.9,1.3-2.8c0.9-1.8,2-3.4,2.8-5.3  c1.5-3.7,1.3-7.3-1.2-10.5c-2.5-3.1-6-4.1-9.9-3.5c-3.7,0.6-6.5,2.6-9.1,5.1c-1.9,1.9-1.5,1.7-3.7,0.5c-10.7-6.1-21.5-6-32.2,0  C31.6,9.5,32,9.7,30,7.8c-2.6-2.5-5.6-4.5-9.3-5.2C16.4,1.9,12,3.9,10.1,7.5c-1.8,3.5-1.5,7,0.3,10.4c1.2,2.2,2.3,4.4,3.5,6.6  c0.5,0.9,0.4,1.7-0.3,2.5C7.6,34.7,4,43.2,2.8,52.8c-0.8,6-0.4,11.9,1.4,17.8c2.6,8.3,7.3,15.2,13.6,21.1c1.2,1.2,2.6,2.3,3.9,3.4  c0.1,0,0.1-0.1,0.2-0.1c-1.4-2.5-2.9-5-4.4-7.6c2.9,1.9,5.7,3.8,8.6,5.5c2.9,1.8,5.9,3.4,9,4.6c0.1-0.1,0.2-0.2,0.2-0.3  c-7-8.1-14-16.2-21-24.3c4.1,1.4,8.2,2.9,12.4,4.4c0-0.1,0.1-0.1,0.1-0.2c-0.2-0.2-0.5-0.4-0.7-0.6c-4-3-7.9-6-11.9-8.9  c-4.2-3-6.1-7.1-5.9-12.1c0.1-2.4,0.3-4.8,0.7-7.2c1.5-7.8,4.4-15,9.1-21.3c0.5-0.6,0.6-1.2,0.2-1.8c-1.3-2.4-2.5-4.8-3.8-7.2  c-0.5-0.9-1-1.7-1.4-2.6c-0.2-0.5-0.2-1.1-0.3-1.6c0.6,0.9,1,1.8,1.7,2.5c1.4,1.5,3,2.9,3.6,5.1c0.8-2.1,0.2-4-1.1-5.7  c1.4,0.7,3,1.1,3.8,2.9c0.3-1.1,0.1-2-0.4-2.7c-0.5-0.7-1.1-1.3-1.6-2c0-0.1,0.1-0.1,0.1-0.2c2.1,0.7,4.1,1.4,6.3,2.2  c-0.9-1.8-2.2-3.3-4-4.4c1,0.1,2,0.2,3,0.3c0-0.1,0.1-0.1,0.1-0.2c-1-0.7-1.9-1.5-3-2.1c-1.2-0.7-2.6-1.2-3.9-1.8  c-0.4-0.2-0.8-0.4-1.3-0.7c2.2-0.7,4.1-0.7,6.1,0c3.7,1.3,6.2,3.9,8,7.2c0.6,1.1,0.8,1.2,1.8,0.5c2.3-1.6,4.8-2.7,7.4-3.6  c5.4-1.8,11-2,16.6-1.2c4.2,0.7,8.2,2.1,11.7,4.6c1.4,0.9,1.4,0.9,2.2-0.5c1.7-3.1,4-5.5,7.4-6.9c2.1-0.8,4.3-1,6.5,0  c-1.4,0.7-2.8,1.3-4.2,2c-1.9,0.9-3.3,2-3.7,2.8c1-0.1,2.1-0.2,3.1-0.3c-1.8,1.2-3.3,2.4-4,4.5c1.9-1,3.9-1.7,6.3-2  c-1.5,1.3-2.6,2.5-2.2,4.4c0.9-1.5,2.4-2.1,3.9-2.7c-1.3,1.8-1.8,3.6-1.2,5.7c0.6-1.1,1.1-2.4,2-3.3c1.2-1.4,2.7-2.5,3.3-4.3  c0,0.5,0,1-0.1,1.4c-0.4,0.8-0.9,1.7-1.3,2.5c-1.3,2.3-2.5,4.7-3.8,7c-0.5,1-0.6,2,0.4,2.8c0.2,0.2,0.4,0.5,0.6,0.8  c5.1,7.8,8.3,16.3,9.1,25.6c0.5,5.7-1.2,10.5-6.1,13.9c-3.7,2.5-7.2,5.3-10.9,8c-0.6,0.4-1.2,0.9-1.8,1.3c0,0.1,0.1,0.1,0.1,0.2  c4.2-1.5,8.3-2.9,12.6-4.5C78.5,80.9,71.3,89,64.6,97.5c6.3-2.5,12-6.1,17.5-10c-0.7,1.3-1.4,2.6-2.1,3.8c-0.7,1.2-1.4,2.4-2.1,3.6  c3.9-2.9,7.3-6.2,10.2-10.1C96.9,73.4,99.7,60.8,96,46.8z"/><path d="M71.4,70.5c2.8-1.6,5.8-3,8.4-4.9c3.7-2.5,5.9-5.9,6.4-10.5c0.3-3.5,0-6.9-0.6-10.3c-0.9-5.2-2.6-10.1-5.4-14.6  c-0.2-0.4-0.5-0.7-0.8-1c-0.1,0.4,0,0.7,0.1,1c1.9,5.7,3,11.6,2.7,17.6c-0.2,3.6-1.1,6.9-3.9,9.5c-2.3,2.2-4.3,4.8-6.5,7.2  c-0.5,0.6-0.9,1.2-1.5,1.9c-1.9-6.1-5-11.4-8.3-16.7c-0.3-0.4-0.5-0.9-0.7-1.3c-0.7-1.9,0-2.9,2-2.8c2.5,0.1,4.5-0.8,5.7-3.1  c0.4-0.8,0.7-1.6,1.1-2.4c0.1-0.2,0.3-0.4,0.5-0.5c0.8-0.3,1.7-0.5,2.6-0.8c0.6,3.9-1.3,7-3.1,10.2c4.4-1.1,8-7.9,7.5-14.2  c-0.4-5.7-5.5-12.3-10-12.7c0.3,0.3,0.5,0.4,0.7,0.6c1.8,1.8,3.1,3.8,4,6.2c1.3,3.7,0,5.9-3.9,6.6c-1,0.2-2,0.3-3.2,0.5  c1.9,1,3.9,1,5.8,1.5c-2.1,0.3-4,0.6-5.9,1c-5.4,1-7.8,3.9-7.2,9.3c0.4,3.4,1.5,6.8,2.3,10.2c0.1,0,0.2,0,0.4,0  c0.2-1.8,0.3-3.6,0.5-5.4c0.1,0,0.1-0.1,0.2-0.1c0.7,1.7,1.6,3.4,2.1,5.2c0.3,1.1,0.5,2.4,0.4,3.6c-0.3,3.4-2.3,5.5-5.5,6.6  c-0.8,0.3-1.7,0.5-2.7,0.8c4.6,1.1,8.2-0.6,10.5-4.8c0.8,2.1,0.3,4.6-1.5,6c-0.9,0.7-1.9,1.2-3,1.6c-2.2,0.7-4.5,0.6-6.8,0.6  c-0.3,0-0.6,0-0.9,0c0,0.1,0,0.2,0,0.3c1.5,0.3,3,0.8,4.5,1c3.2,0.4,6.4,0.6,8.5-2.8c0.1,2.6-1.4,4.7-3.9,5.5  c-2.1,0.7-4.2,0.3-6.2-0.3c-1.6-0.4-3.1-0.7-4.4-1.8c-1.5-1.3-2.2-3.6-1.1-5c1.6-2.1,3.1-4.4,6-5c0.2,0,0.4-0.2,0.6-0.3  c0.7-0.4,1.1-0.9,1.1-1.8c-0.1-0.8-0.6-1.4-1.3-1.7c-1.2-0.5-2.2,0.1-3.1,0.7c-2.6,1.7-6.6,1.7-9.1,0.1c-0.5-0.3-1-0.6-1.5-0.8  c-0.8-0.3-1.7-0.2-2.4,0.4c-0.6,0.5-0.7,1.1-0.6,1.8c0.2,0.9,0.9,1.4,1.7,1.5c1.8,0.4,3,1.5,4.1,2.8c0.4,0.5,1,1,1.3,1.5  c0.4,0.7,0.8,1.5,0.9,2.2c0.2,2-0.9,3.4-2.6,4.2c-2.5,1.2-5.1,1.9-7.9,1.7c-3.3-0.2-5.5-2.5-5.6-5.6c0,0,0.1,0,0.1,0  c0.1,0.1,0.2,0.2,0.2,0.3c0.8,1.3,2,2.1,3.5,2.3c1.4,0.2,2.8,0.2,4.1,0.1c1.7-0.2,3.4-0.7,5.1-1.1c0-0.1,0-0.2-0.1-0.3  c-1.2,0-2.3,0-3.5,0c-1.9,0-3.8-0.3-5.6-1.1c-2.9-1.3-4.2-4.2-3.1-7.2c0.7,2.2,2,3.7,4,4.5c2,0.8,4,0.9,6.1,0.4  c-0.4-0.2-0.9-0.3-1.3-0.4c-5.2-1.2-7.7-5.2-6.2-10.3c0.5-1.9,1.4-3.7,2.2-5.5c0.1,0,0.1,0.1,0.2,0.1c0.2,1.8,0.4,3.7,0.5,5.5  c0.1,0,0.2,0,0.3,0c0.1-0.4,0.2-0.8,0.3-1.2c0.7-3,1.6-6,2.1-9c0.6-3.9-1.2-7.8-5.7-9c-1.1-0.3-2.2-0.5-3.3-0.7  c-1.2-0.2-2.5-0.4-3.7-0.6c1.7-0.5,3.4-0.5,5.1-1.5c-0.4-0.1-0.6-0.2-0.9-0.2c-1-0.2-2.1-0.3-3.1-0.5c-2.6-0.6-3.7-2.4-3.2-5  c0.6-3,2.3-5.3,4.4-7.5c0.1-0.1,0.2-0.2,0.3-0.3c0.1-0.1,0.2-0.2,0.4-0.5c-2.7,1-4.9,2.5-6.6,4.5c-3.1,3.7-3.9,7.9-3.3,12.5  c0.5,3.6,2.2,6.6,5,8.9c0.6,0.5,1.4,0.9,2.1,1.3c-1.8-3.3-3.6-6.4-3-10.3c0.6,0.2,1.1,0.4,1.7,0.5c1,0.2,1.5,0.6,1.7,1.7  c0.6,2.3,2,4,4.4,4.5c0.8,0.2,1.7,0.1,2.6,0.1c0.9,0,1.5,0.4,1.5,1.3c0,0.7-0.1,1.4-0.3,2c-0.3,0.8-0.9,1.6-1.3,2.4  c-2.6,4.1-5,8.4-6.7,13c-0.2,0.7-0.5,1.3-0.6,1.9c-2.7-3-5.3-6.1-8.1-9C19,54.8,18,52,17.6,48.8c-0.5-4.6,0.1-9.1,1.2-13.5  c0.5-2.1,1.2-4.1,1.8-6.3c-0.2,0.2-0.3,0.4-0.5,0.5c-0.4,0.6-0.9,1.2-1.2,1.8c-3.9,6.8-5.3,14.2-5.3,21.9c0.1,5.9,2.7,10.2,7.6,13.2  c2.3,1.4,4.8,2.7,7.2,3.9c0.5,0.3,0.7,0.5,0.7,1.1c0,2.4,0.6,4.8,1.5,7c1.5,3.7,4,6.7,6.7,9.5c2.5,2.6,5,5.2,6.9,8.3  c0.1,0.1,0.2,0.1,0.3,0.3c0.3-2,0.5-3.9,0.7-5.9c3.1,0.8,6,0.8,9.1,0c0.2,2,0.5,3.9,0.7,5.9c1.1-1.5,2.1-2.9,3.2-4.2  c2-2.3,4.1-4.4,6.1-6.7c3.6-4.1,6-8.7,6.2-14.3C70.8,71,71.1,70.6,71.4,70.5z M62.2,42.2c0.4,0.1,0.7,0.3,1,0.4  c1.2,0.4,2.2,0.1,2.7-1c0.4-1,1.1-0.9,2-0.9c-0.4,1.5-1,2.7-2.5,3.2c-1.4,0.5-2.7,0.3-3.9-0.6C61.8,43,62,42.6,62.2,42.2z   M31.8,40.7c0.7,0,1.4-0.1,1.7,0.6c0.7,1.6,1.9,1.7,3.4,1.2c0.2-0.1,0.4-0.1,0.6-0.3c0.2,0.4,0.4,0.7,0.6,1.1  C35.6,45.3,32.4,44,31.8,40.7z M50.4,86c-5.3,0.1-9.5-2-12.7-6.2c3.6-0.1,6.7-1.4,9.9-2.8c1.7-0.8,3.5-0.7,5.2,0.2  c2.3,1.1,4.6,2.1,7.1,2.4c0.7,0.1,1.4,0.1,2.1,0.2C60.5,82.6,55.6,85.9,50.4,86z"/><path d="M74.5,22.6c-0.3-0.2-0.5-0.4-0.8-0.6c-3.9-3.7-8.3-6.5-13.3-8.3c-2.3-0.8-4.7-1.4-7.2-1.4c-0.9,0-1.8,0.3-2,1.2  C51,14.8,51,16.1,51,17.5c8.8-1.9,16.2,1.2,23.3,5.3C74.3,22.8,74.4,22.7,74.5,22.6z"/><path d="M46.8,12.3c-1.9,0.2-3.8,0.4-5.6,0.9c-6.1,1.7-11.1,5.1-15.5,9.6c7.2-4.2,14.6-7.1,23.2-5.3c0-0.4,0.1-0.6,0.1-0.9  c0-0.7,0-1.5,0-2.2C48.9,12.9,48.2,12.2,46.8,12.3z"/><path d="M79.4,40.4c-0.3,1.3-0.4,2.7-0.9,4c-1.3,3.9-3.6,6.7-7.7,7.9c-1.1,0.3-2,0.1-2.8-0.6c-0.2-0.1-0.3-0.3-0.7-0.5  c0.2,1,0.4,1.7,0.6,2.4c0.4,1.4,1.3,1.9,2.7,1.6c0.8-0.1,1.5-0.4,2.4-0.6c-0.6,1.7-1.8,2.8-3.1,4.2C76.5,57.8,82.5,45.8,79.4,40.4z"/><path d="M31.6,54.2c0.3-0.9,0.6-1.8,0.8-2.7c-0.1-0.1-0.2-0.1-0.3-0.2c-1.5,1.6-3.1,1.3-4.8,0.5C23.9,50,21.9,47,21,43.3  c-0.2-1-0.4-2-0.6-3.1c-2.6,6.6,3.1,17.9,9.3,18.5c-0.6-0.7-1.2-1.3-1.7-2c-0.5-0.7-0.9-1.4-1.4-2.2c1.1,0.2,1.9,0.5,2.8,0.6  C30.4,55.3,31.2,55.1,31.6,54.2z"/><path d="M66.6,24.6c-2.7-2.7-6-4.4-9.7-5.1c-1.2-0.2-2.4-0.3-3.7-0.3c-1.2,0-2,0.6-2.1,1.5c-0.1,1.2,0,2.5,0,3.9  c5.7-1.4,11.1-1.3,16.3,1.3c0-0.1,0.1-0.1,0.1-0.2c-0.1-0.1-0.2-0.2-0.3-0.3C67,25,66.9,24.8,66.6,24.6z"/><path d="M46.3,19.2c-5,0.1-9.2,2-12.8,5.4c-0.3,0.3-0.6,0.7-0.9,1c5.3-2.4,10.6-2.4,16.2-1c0-1,0-1.8,0-2.7  C48.9,19.9,48.2,19.1,46.3,19.2z"/><path d="M32.9,33.8c0.5,0.5,1.1,0.9,1.7,1.4c2.8,2.2,5.9,4.2,7.1,7.9c0.7-1.5,0.8-2.3,0.1-3.6c-0.4-0.8-0.8-1.6-1.3-2.3  c-1.1-1.5-2.3-3-3.5-4.5c-1.1-1.4-1.2-2.5-0.3-4c0.3-0.5,0.7-1,1-1.5c-1.9,0.1-4.2,1.3-5.2,2.6C31.6,31.1,31.7,32.6,32.9,33.8z"/><path d="M61.7,33.8c-1.2,1.8-2.5,3.6-3.6,5.5c-0.7,1.2-0.6,2.4,0,3.7c0.2-0.5,0.4-1,0.6-1.4c1-2.2,2.8-3.6,4.6-5  c1-0.8,2.1-1.6,3.2-2.4c1.3-1,1.7-2.2,1.3-3.4C67.2,29,64,27,62,27.2c0.2,0.3,0.4,0.6,0.6,0.9c1.3,1.9,1.3,3.1-0.2,4.9  C62.2,33.3,61.9,33.5,61.7,33.8z"/><path d="M44,31.8c0.1,0.2,0.1,0.3,0.2,0.3c2,2.2,3.6,4.6,4.6,7.4c0.2,0.4,0.7,0.8,1.1,0.9c0.6,0.2,1-0.3,1.3-0.9  c0.6-1.2,1.1-2.4,1.7-3.5c0.9-1.5,2-2.8,3-4.2c-2.5,0.8-4.3,2.4-6,4.3C48.3,34.3,46.5,32.7,44,31.8z"/><path d="M47.5,26c-2.1,0-4,0.5-5.7,1.6c-0.2,0.1-0.3,0.3-0.6,0.5c3,0,5.4,1.4,7.9,3.1c0-1.4,0-2.5,0-3.6C49,26.5,48.6,26,47.5,26z"/><path d="M50.9,31.2c2.5-1.6,4.9-3,8-3.1c-2.2-1.6-4.4-2.2-6.7-2.1c-0.7,0-1.2,0.4-1.3,1.2C50.9,28.5,50.9,29.7,50.9,31.2z"/><text x="0" y="115" fill="#000000" font-size="5px" font-weight="bold" font-family="'Helvetica Neue', Helvetica, Arial-Unicode, Arial, Sans-serif">Created by 일 하자</text><text x="0" y="120" fill="#000000" font-size="5px" font-weight="bold" font-family="'Helvetica Neue', Helvetica, Arial-Unicode, Arial, Sans-serif">from the Noun Project</text></svg>