<svg height="378.44" viewBox="0 0 625.78005 378.43999" width="625.78003" xmlns="http://www.w3.org/2000/svg"><g transform="translate(-15.2 -.01)"><path d="m211.21 370.69h-45.41v-52.13c0-6.54-.58-11.68-1.73-15.44-1.15-3.75-2.67-6.6-4.54-8.54-1.88-1.94-3.94-3.15-6.18-3.63s-4.45-.73-6.63-.73c-3.75 0-7.3.76-10.63 2.27-3.33 1.52-6.75 3.45-10.26 5.81s-7.21 4.88-11.08 7.54c-3.88 2.67-8.21 5.18-12.99 7.54-4.79 2.36-10.2 4.3-16.26 5.81s-12.96 2.27-20.71 2.27c-7.15 0-13.75-.76-19.8-2.27-6.06-1.51-11.29-3.84-15.71-6.99s-7.87-7.11-10.35-11.9c-2.48-4.78-3.72-10.5-3.72-17.17 0-7.99 2.15-14.62 6.45-19.89s9.99-9.69 17.07-13.26 15.14-6.51 24.16-8.81 18.22-4.48 27.61-6.54c9.38-2.06 18.59-4.27 27.61-6.63s17.07-5.36 24.16-8.99 12.77-8.14 17.07-13.53 6.45-12.2 6.45-20.43c0-5.21-1.12-10.23-3.36-15.08-2.24-4.84-5.69-9.17-10.35-12.99-4.66-3.81-10.63-6.87-17.89-9.17-7.27-2.3-15.98-3.45-26.16-3.45-5.69 0-11.84.36-18.44 1.09s-12.81 2.27-18.62 4.63-10.84 5.81-15.08 10.35-6.96 10.69-8.17 18.44c2.06-2.66 4.36-5.18 6.9-7.54s5.24-4.39 8.08-6.08 5.78-3.06 8.81-4.09 5.99-1.54 8.9-1.54c5.57 0 10.32.91 14.26 2.72 3.93 1.82 7.14 4.18 9.63 7.08 2.48 2.91 4.3 6.21 5.45 9.9 1.15 3.7 1.73 7.48 1.73 11.35 0 4.48-.91 8.69-2.72 12.62-1.82 3.94-4.39 7.39-7.72 10.35-3.33 2.97-7.39 5.3-12.17 6.99-4.79 1.7-10.14 2.54-16.08 2.54-7.51 0-14.71-.97-21.62-2.91-6.9-1.94-13.02-4.81-18.35-8.63-5.33-3.81-9.6-8.51-12.81-14.08s-4.81-12.05-4.81-19.44c0-7.99 1.48-14.95 4.45-20.89 2.97-5.93 6.93-11.02 11.9-15.26 4.96-4.24 10.65-7.75 17.07-10.54 6.42-2.78 13.05-4.96 19.89-6.54 6.84-1.57 13.71-2.66 20.62-3.27 6.9-.6 13.26-.91 19.07-.91 7.63 0 15.47.52 23.52 1.54 8.05 1.03 15.89 2.7 23.52 5s14.83 5.24 21.62 8.81c6.78 3.57 12.71 7.84 17.8 12.81s9.11 10.72 12.08 17.26 4.45 13.87 4.45 21.98c0 9.93-2.15 18.35-6.45 25.25s-9.96 12.71-16.98 17.44c-7.02 4.72-15.02 8.63-23.98 11.72s-18.1 5.72-27.43 7.9-18.47 4.18-27.43 5.99c-8.96 1.82-16.96 3.85-23.98 6.08-7.02 2.24-12.69 4.94-16.98 8.08-4.3 3.15-6.45 7.15-6.45 11.99 0 3.03 1.3 5.72 3.91 8.08 2.6 2.36 6.45 3.54 11.53 3.54 3.75 0 7.6-.75 11.53-2.27 3.93-1.51 8.05-3.36 12.35-5.54s8.75-4.6 13.35-7.27c4.6-2.66 9.45-5.09 14.53-7.27s10.38-4.02 15.89-5.54c5.51-1.51 11.29-2.27 17.35-2.27 9.69 0 17.71 1.94 24.07 5.81 6.36 3.88 11.38 8.63 15.08 14.26 3.69 5.63 6.29 11.57 7.81 17.8 1.51 6.24 2.27 11.78 2.27 16.62v52.13zm-146.95-179.28c0 4.24 1.51 7.87 4.54 10.9s6.66 4.54 10.9 4.54 7.87-1.51 10.9-4.54 4.54-6.66 4.54-10.9-1.45-7.87-4.36-10.9-6.48-4.54-10.72-4.54c-2.18 0-4.21.39-6.08 1.18-1.88.79-3.54 1.88-5 3.27-1.45 1.39-2.61 3.03-3.45 4.9-.85 1.88-1.27 3.91-1.27 6.08z"/><g fill="none" stroke="#000" stroke-miterlimit="10" stroke-width="5"><path d="m91.95 61.71c5.81 0 12.44-.51 19.89-1.54s14.83-3.21 22.16-6.54 14.14-8.17 20.43-14.53c6.3-6.36 11.26-14.86 14.89-25.52l31.61 10.72c-3.39 7.15-8.08 14.29-14.08 21.43-5.99 7.15-13.38 13.56-22.16 19.25s-18.95 10.33-30.52 13.9c-11.56 3.57-24.67 5.36-39.33 5.36-4 0-8.54-.18-13.62-.54s-10.41-.88-15.98-1.54-11.14-1.51-16.71-2.54-10.84-2.21-15.8-3.54c2.54-1.33 5.3-3.12 8.26-5.36 2.97-2.24 5.84-4.78 8.63-7.63 2.79-2.84 5.39-5.93 7.81-9.26s4.42-6.75 5.99-10.26c-2.66 1.33-5.18 2.15-7.54 2.45s-4.51.45-6.45.45c-2.78 0-5.54-.45-8.26-1.36s-5.11-2.21-7.17-3.91c-2.06-1.69-3.72-3.78-5-6.27-1.27-2.48-1.91-5.36-1.91-8.63 0-2.66.64-5.42 1.91-8.26s3.3-5.42 6.08-7.72c2.79-2.3 6.45-4.18 10.99-5.63s10.02-2.18 16.44-2.18c3.51 0 7.42.49 11.72 1.45 4.3.97 8.36 2.61 12.17 4.9 3.81 2.3 7.02 5.36 9.63 9.17s3.91 8.51 3.91 14.08-1.75 10.69-5.27 15.71c-3.51 5.03-7.93 9.42-13.26 13.17 1.82.24 3.6.43 5.36.54 1.76.12 3.48.18 5.18.18zm-48.87-37.78c0 2.79 1.06 5.15 3.18 7.08 2.12 1.94 4.69 2.91 7.72 2.91s5.57-.97 7.63-2.91 3.09-4.3 3.09-7.08-1.03-5.18-3.09-7.17c-2.06-2-4.6-3-7.63-3s-5.6 1-7.72 3-3.18 4.39-3.18 7.17z"/><path d="m417.34 318.55h-45.41v-126.24c0-5.93-.88-11.59-2.63-16.98-1.76-5.39-4.42-10.11-7.99-14.17s-8.08-7.27-13.53-9.63-11.81-3.54-19.07-3.54c-4.48 0-9.29.76-14.44 2.27-5.15 1.52-9.93 4.03-14.35 7.54s-8.08 8.15-10.99 13.9-4.36 12.93-4.36 21.52v3c0 1.03.06 2.03.18 3 1.82-4.12 4-7.54 6.54-10.26s5.27-4.9 8.17-6.54 5.9-2.78 8.99-3.45c3.09-.66 6.08-1 8.99-1 5.57 0 10.32.91 14.26 2.72 3.93 1.82 7.14 4.18 9.63 7.08 2.48 2.91 4.3 6.21 5.45 9.9 1.15 3.7 1.73 7.48 1.73 11.35 0 4.48-.85 8.69-2.54 12.62-1.7 3.94-4.3 7.39-7.81 10.35-3.51 2.97-7.93 5.3-13.26 6.99-5.33 1.7-11.62 2.54-18.89 2.54-6.18 0-12.26-1.3-18.25-3.91-5.99-2.6-11.32-6.29-15.98-11.08-4.66-4.78-8.45-10.54-11.35-17.26s-4.36-14.26-4.36-22.61c0-11.02 2.24-20.64 6.72-28.88 4.48-8.23 10.41-15.1 17.8-20.62 7.38-5.51 15.89-9.63 25.52-12.35s19.53-4.09 29.7-4.09c11.02 0 21.46 1.42 31.33 4.27s18.53 7.57 25.97 14.17c7.45 6.6 13.35 15.29 17.71 26.07s6.54 24.16 6.54 40.14v113.16zm-116.07-108.8c0 4.24 1.51 7.87 4.54 10.9s6.66 4.54 10.9 4.54 7.87-1.51 10.9-4.54 4.54-6.66 4.54-10.9-1.45-7.87-4.36-10.9-6.48-4.54-10.72-4.54c-2.18 0-4.21.39-6.08 1.18-1.88.79-3.54 1.88-5 3.27-1.45 1.39-2.61 3.03-3.45 4.9-.85 1.88-1.27 3.91-1.27 6.08z"/><path d="m638.48 294.21c0 10.42-1.7 20.53-5.09 30.33-3.39 9.81-8.66 18.53-15.8 26.16-7.15 7.63-16.29 13.74-27.43 18.35-11.14 4.6-24.52 6.9-40.14 6.9-9.33 0-18.38-.79-27.16-2.36-8.78-1.58-17.01-4-24.7-7.27s-14.59-7.42-20.71-12.44c-6.12-5.03-11.17-10.99-15.17-17.89l43.23-25.25c5.09 11.87 11.41 21.16 18.98 27.88s16.5 10.08 26.79 10.08c6.54 0 12.38-1.24 17.53-3.72s9.54-6.08 13.17-10.81 6.39-10.44 8.26-17.17c1.88-6.72 2.82-14.32 2.82-22.8v-96.81c0-15.86-4.12-28.06-12.35-36.6-8.24-8.54-20.83-12.81-37.78-12.81-5.33 0-10.99.79-16.98 2.36-5.99 1.58-11.57 4.27-16.71 8.08-5.15 3.81-9.42 8.87-12.81 15.17s-5.09 14.17-5.09 23.61c3.87-6.78 8.81-11.68 14.8-14.71s11.96-4.54 17.89-4.54c5.57 0 10.32.91 14.26 2.72 3.93 1.82 7.14 4.18 9.63 7.08 2.48 2.91 4.3 6.21 5.45 9.9 1.15 3.7 1.73 7.48 1.73 11.35 0 4.48-.85 8.69-2.54 12.62-1.7 3.94-4.3 7.39-7.81 10.35-3.51 2.97-7.93 5.3-13.26 6.99-5.33 1.7-11.62 2.54-18.89 2.54-6.18 0-12.44-1.06-18.8-3.18s-12.14-5.3-17.35-9.54-9.45-9.5-12.71-15.8c-3.27-6.29-4.9-13.62-4.9-21.98s1.24-16.1 3.72-22.89c2.48-6.78 5.84-12.77 10.08-17.98s9.2-9.66 14.89-13.35 11.78-6.75 18.25-9.17c6.48-2.42 13.14-4.18 19.98-5.27s13.59-1.63 20.25-1.63c11.38 0 22.61 1.24 33.69 3.72s20.98 6.93 29.7 13.35 15.74 15.17 21.07 26.25 7.99 25.28 7.99 42.59v87.55zm-130.6-84.46c0 4.24 1.51 7.87 4.54 10.9s6.66 4.54 10.9 4.54 7.87-1.51 10.9-4.54 4.54-6.66 4.54-10.9-1.45-7.87-4.36-10.9-6.48-4.54-10.72-4.54c-2.18 0-4.21.39-6.08 1.18-1.88.79-3.54 1.88-5 3.27-1.45 1.39-2.61 3.03-3.45 4.9-.85 1.88-1.27 3.91-1.27 6.08z"/></g></g></svg>