<svg xmlns="http://www.w3.org/2000/svg" version="1.1" viewBox="-5.0 -10.0 110.0 135.0">
 <g>
  <path d="m85.551 63.727c0.007813-0.046874 0.019531-0.078124 0.035157-0.10547 0.042968-0.019532 0.078124-0.046875 0.10547-0.089844 0.074219-0.019531 0.22266-0.015625 0.49219 0.09375 0.58594 0.23438 0.99219 0.48828 1.3398 0.70312 0.10937 0.070313 0.21484 0.13281 0.31641 0.19531 0.085937 0.046874 0.17188 0.09375 0.25781 0.13281-0.14844 0.27734-0.11719 0.64062 0.15234 0.88281l0.066406 0.058594c0.11719 0.10547 0.14453 0.26172 0.10938 0.37109-0.019531 0.050781-0.046875 0.078125-0.066406 0.089844-0.019531 0.011718-0.050781 0.023437-0.12109 0.003906-0.22266-0.070312-0.42578-0.14453-0.58984-0.21484-0.03125-0.027344-0.066407-0.050781-0.10938-0.0625-0.039062-0.011718-0.074218-0.023437-0.11328-0.035156-0.66406-0.21094-1.2383-0.57812-1.7266-1.0156-0.054688-0.15234-0.10547-0.32812-0.13672-0.50391-0.03125-0.19922-0.039062-0.375-0.011719-0.50391z"/>
  <path d="m23.715 37.711c-0.19531 1.5703-0.42969 3.5352-0.60156 5.7734-1.0039-0.11719-1.7227-1.0156-2.3086-2.0273-0.15234-0.26562-0.29297-0.53125-0.42578-0.78516l-0.054687-0.10547c-0.10938-0.21484-0.21484-0.41797-0.31641-0.59766-0.11719-0.20312-0.23437-0.39453-0.35547-0.53125-0.11328-0.12891-0.27734-0.27344-0.49219-0.27344-0.03125 0-0.12109-0.019531-0.27734-0.10937-0.14453-0.082032-0.32422-0.20703-0.52344-0.37109-0.40234-0.33203-0.875-0.80469-1.3398-1.3633-0.92969-1.1289-1.7891-2.5742-1.9805-3.8984-0.16016-1.1133-0.45703-1.8438-0.78906-2.3086-0.097656-0.13672-0.19531-0.36719-0.23438-0.60156-0.042969-0.24609-0.007813-0.41797 0.054687-0.49219l10.258-12.453c0.058594-0.074218 0.14844-0.10547 0.23828-0.089844l6.0508 1.1992c-0.16406 0.085938-0.32422 0.17578-0.47656 0.27734-1.8672 1.2461-2.582 3.2148-3.0312 5.0117-0.10156 0.39844-0.1875 0.79297-0.26953 1.1719l-0.035156 0.14453c-0.09375 0.42188-0.18359 0.82031-0.28516 1.1836-0.20312 0.74219-0.4375 1.3047-0.78516 1.6523-0.8125 0.8125-1.2422 1.4492-1.457 2.3555-0.20312 0.87109-0.20312 1.9883-0.20312 3.7383v0.042968c0 0.57031-0.12891 1.6016-0.30469 3.0117z"/>
  <path d="m42.527 19.238c2.2969-1.5312 5.9609-2.9453 10.074-2.7109 4.1094 0.23047 8.6875 2.1094 12.832 7.1992 1.0195 1.25 2.0117 2.6992 2.9688 4.3633 0.054687 0.09375 0.035156 0.21484-0.042969 0.29688l-2.0156 2.0156c-0.097656 0.097656-0.16406 0.21484-0.19922 0.34375-0.43359 1.5859-1.9414 4.8398-4.8359 6.3789-0.15625 0.082031-0.28125 0.21484-0.35156 0.37891-1.5039 3.4453-3.9961 4.375-5.1367 4.4375-0.12109 0.007813-0.25 0.039063-0.37109 0.10938l-3.6914 2.2188c-0.15625 0.089844-0.26953 0.23438-0.32812 0.40625l-0.66016 1.9844c-0.023437 0.074219-0.078125 0.125-0.14062 0.14844-2.8594 1.0352-4.7656-0.54297-5.4062-1.5156l-0.28906-6.2305c0.82031-1.8945 1.4531-3.8984 1.832-5.375 0.039063-0.16406 0.023437-0.33594-0.042969-0.48828l-1.5195-3.418c-0.27344-0.61719-0.16406-1.2578 0.24219-1.9219 0.41406-0.67188 1.1172-1.3398 1.9805-1.9727 1.7227-1.2617 4.0039-2.3281 5.582-2.918 0.12891-0.046875 0.19141-0.19141 0.14453-0.32031-0.046875-0.12891-0.19141-0.19531-0.32031-0.14844-1.6016 0.60156-3.9297 1.6836-5.6992 2.9805-0.88672 0.65234-1.6523 1.3672-2.1133 2.1172-0.46484 0.75781-0.63281 1.5742-0.27344 2.3867l1.5195 3.418c0.023437 0.050781 0.027344 0.10938 0.015625 0.16016-0.37891 1.4688-1.0117 3.4727-1.8281 5.3555-0.62891 1.4492-1.3633 2.8164-2.1641 3.8164-0.80859 1.0117-1.6484 1.5938-2.4766 1.5938-0.91797 0-1.4648-0.30078-1.7852-0.73047-0.375-0.49219-0.49219-1.207-0.44141-1.9766 0.046874-0.76172 0.25391-1.5391 0.47266-2.1172 0.050781-0.12891-0.011719-0.27344-0.14062-0.32031-0.12891-0.050782-0.27344 0.011718-0.32422 0.14062-0.23828 0.61328-0.45703 1.4414-0.50781 2.2656-0.046876 0.75781 0.046874 1.5469 0.4375 2.1641l-1.2031 1.8359c-0.10547-0.15234-0.26172-0.28125-0.49609-0.33984-0.46875-0.12109-1.1445 0.066406-2.1094 0.70703-0.5625 0.37891-1.0391 0.87891-1.5117 1.375-0.046875 0.054688-0.097656 0.10547-0.14844 0.15625-0.52734 0.55469-1.0625 1.0898-1.75 1.4922-1.332 0.77734-3.293 1.0977-6.9219-0.20703 0.011719-1.1719 0.050782-2.3047 0.10938-3.3867 0.03125-0.55469 0.066406-1.0938 0.10156-1.6211 0.17188-2.3242 0.41797-4.3672 0.61719-5.9961l0.058593-0.46094c0.17188-1.3867 0.30469-2.4492 0.30469-3.0547 0-1.8008 0-2.8594 0.19141-3.668 0.18359-0.78125 0.54688-1.3359 1.3242-2.1133 0.44531-0.44922 0.70703-1.125 0.91406-1.875 0.10547-0.37891 0.19531-0.78516 0.28906-1.207l0.035156-0.14453c0.082031-0.37891 0.16797-0.76562 0.26562-1.1602 0.44531-1.7734 1.1211-3.582 2.8242-4.7188 0.33203-0.21875 0.71094-0.39844 1.1328-0.53906 1.4805-0.50391 3.4336-0.55078 5.3477-0.38281 1.9102 0.16797 3.7578 0.55078 5.0039 0.89453 0.21484 0.058594 0.4375 0.019531 0.625-0.10156zm-4.5781 14.414c0.24219-0.074219 0.47656 0.035156 0.60938 0.21094 0.10938 0.14062 0.23438 0.35156 0.28906 0.58203 0.042969 0.18359-0.023437 0.35938-0.11719 0.48047-0.21484 0.27734-0.45312 0.44141-0.70703 0.48047-0.25781 0.039062-0.48047-0.054688-0.64063-0.19531-0.15625-0.14063-0.26172-0.33594-0.29687-0.53516-0.035157-0.19531-0.003907-0.42969 0.16797-0.60156 0.23828-0.23828 0.49609-0.36328 0.69531-0.42188z" fill-rule="evenodd"/>
  <path d="m30.32 66.805-1.4531 5.1484c-4.207-6.8789-5.3984-14.895-5.4805-21.816 3.3203 1.5625 5.8672 2.0742 7.7969 1.9219-0.25391 2.0039-0.53906 5.1133-0.72656 7.9922-0.10156 1.5156-0.17188 2.9688-0.19922 4.1641-0.027343 1.1445-0.015624 2.0703 0.0625 2.5898z"/>
  <path d="m44.727 45.383 0.59375 13.055c-0.48828 0.30469-0.98047 0.78125-1.4727 1.375-0.61328 0.73438-1.2383 1.6719-1.8594 2.7344-1.2422 2.125-2.4688 4.7656-3.5273 7.3555-1.0586 2.5859-1.9531 5.125-2.5234 7.0469-0.28125 0.96094-0.48828 1.7695-0.58984 2.3594-0.050781 0.28906-0.082031 0.53906-0.078125 0.72656 0 0.09375 0.011719 0.1875 0.035157 0.26953 0.027343 0.078124 0.082031 0.19531 0.21094 0.24609 0.085937 0.035157 0.17578 0.125 0.26172 0.3125 0.085937 0.18359 0.14844 0.42578 0.19531 0.71094 0.085938 0.56641 0.089844 1.25 0.054688 1.8086-0.003906 0.125-0.12109 0.22656-0.26562 0.21484-1.4336-0.12109-4.1562-0.23438-6.6992 0.050782-2.3008 0.25391-4.1797-0.35156-5.1719-0.85547-0.10938-0.054688-0.14844-0.21094-0.023437-0.32812l3.3047-3.0547c0.10156-0.09375 0.17188-0.21484 0.21094-0.34766l1.7031-6.0352c0.046874 0 0.097656-0.011719 0.14062-0.042969 0.11328-0.074219 0.14844-0.23047 0.074219-0.34375-0.027343-0.039063-0.050781-0.078125-0.074219-0.11719l1.5859-5.6328 0.003906-0.007813 5.0312-17.848c0.44531-0.92578 0.62891-1.9219 0.64062-2.793l1.3672-2.0859c0.44141 0.42578 1.082 0.67188 1.957 0.67188 1.0664 0 2.0312-0.73828 2.8672-1.7773 0.66016-0.82422 1.2656-1.8672 1.8008-2.9883z"/>
  <path d="m45.262 46.133c0.98047 1.0273 2.9023 2.1016 5.5391 1.1445 0.21094-0.074219 0.37109-0.25 0.44141-0.45703l0.66406-1.9883c0.019531-0.054687 0.054688-0.10547 0.10938-0.13281l3.6914-2.2188c0.039063-0.023438 0.085938-0.035157 0.14453-0.039063 1.332-0.074218 3.9844-1.1211 5.5625-4.7383 0.023438-0.058594 0.070313-0.10938 0.12891-0.13672 3.0664-1.6289 4.6367-5.0391 5.0859-6.6875 0.011719-0.050781 0.035156-0.089844 0.066406-0.12109l2.0195-2.0195c0.23438-0.23438 0.28906-0.60156 0.12109-0.89844-0.85938-1.4961-1.75-2.8203-2.6641-3.9883 6.7266 0.5 11.66 4.2852 15.125 8.9062 3.5625 4.75 5.5508 10.363 6.2969 14.117 0.011719 0.042969 0.007812 0.085938-0.011719 0.12891-1.0977 2.9219-2.7305 7.8281-3.6953 12.215-0.21094 0.96484-0.39453 1.9062-0.52734 2.7969-0.29688 1.9336-0.38281 3.6523-0.10547 4.8594 0.92188 3.9961 0.41406 8.8359 0.023438 10.887-0.023438 0.12891-0.015625 0.25781 0.027344 0.38281l1.043 3.125c0.03125 0.097657 0 0.20312-0.078125 0.26562-3.5508 2.8555-6.4766 2.125-7.793 1.2539-0.082031-0.054687-0.11328-0.18359-0.023437-0.29687l1.5625-1.8711c0.11328-0.13672 0.17188-0.30469 0.17188-0.48047v-7.2852c0-0.082031-0.011719-0.16016-0.039062-0.23438l-1.9141-5.7539c-0.042969-0.125-0.11719-0.23828-0.21094-0.32422-0.69141-0.63281-1.1914-1.3789-1.5352-2.2031-1.0859-2.6094-0.60156-6.0508 0.53516-9.4062 1.1367-3.3438 2.9062-6.543 4.3125-8.625 0.078124-0.11719 0.046874-0.27344-0.066407-0.34766-0.11328-0.078126-0.26953-0.046876-0.34766 0.066406-1.4258 2.1133-3.2188 5.3516-4.3711 8.7461-1.1172 3.293-1.6562 6.7891-0.61328 9.5391-0.83594 0.46875-1.875 1.6641-2.668 3.8203-0.86719 2.3594-1.4453 5.9023-1.125 11.004v2.0664c0 0.10156-0.054687 0.17188-0.12109 0.19922-0.8125 0.30469-2.0625 0.40625-3.4336 0.38281-1.3594-0.019531-2.8008-0.16016-3.9766-0.31641-0.10156-0.011719-0.19141-0.097656-0.23438-0.24609-0.039062-0.15234-0.007812-0.30859 0.082032-0.40234 0.60547-0.66016 1.2227-1.625 1.4258-2.8398 0.31641-1.8867 0.91016-8.0156 1.1797-10.984 0.015625-0.15234-0.015625-0.30469-0.10156-0.44531-0.375-0.58984-1.0195-1.2344-1.7969-1.8906-0.77734-0.66016-1.7109-1.3398-2.6758-1.9883-1.8594-1.2539-3.8672-2.4102-5.2227-3.1367 0.69922-3.6797 1.6875-8.0781 3.0547-13.305 0.035156-0.13281-0.046875-0.26953-0.17969-0.30469-0.13281-0.035156-0.26953 0.042969-0.30469 0.17969-1.3906 5.3203-2.3906 9.7891-3.0938 13.52-0.97266 5.1641-1.3789 8.9102-1.4531 11.523-0.039063 1.3047 0 2.332 0.09375 3.1133 0.09375 0.77344 0.23828 1.3281 0.42188 1.6719 0.035156 0.070312 0.050781 0.12891 0.050781 0.17578v4.082c0 0.12891 0.03125 0.25391 0.09375 0.36328l1.6016 2.8828c0.082031 0.14844-0.003907 0.32031-0.15625 0.34766-3.5742 0.67969-7.7773 0.32812-10.012-0.023437-0.15625-0.023438-0.24609-0.19531-0.16797-0.34766l1.5039-2.8555c0.0625-0.11719 0.089844-0.25 0.085938-0.38281l-0.97656-21.449c0.015625-0.007812 0.027344-0.015624 0.039063-0.019531 0.12891-0.058593 0.18359-0.20703 0.125-0.33203-0.035156-0.078125-0.10547-0.12891-0.1875-0.14453z"/>
  <path d="m83.863 62.027c0.058594-0.37891 0.125-0.76953 0.19922-1.1641 0.042969 0.25781 0.10156 0.51562 0.16406 0.77344 0.10938 0.41797 0.25 0.82812 0.42969 1.1719 0.125 0.24219 0.27734 0.46094 0.46484 0.62891-0.027344 0.058594-0.046875 0.125-0.058594 0.1875-0.03125 0.13281-0.035156 0.27734-0.023438 0.42188-0.60156-0.73047-0.99609-1.5078-1.1758-2.0195z"/>
  <path d="m22.883 49.691v0.050782-0.875c-2.9062 4.0195-6.9492 4.6875-9.6523 4.3984-0.67969-0.074219-1.2695-0.20703-1.7305-0.35938-0.47266-0.15625-0.78516-0.32812-0.93359-0.46094-0.011718-0.007812-0.019531-0.015624-0.027344-0.023437 0.058594-0.023437 0.16016-0.046875 0.30859-0.058594 0.1875-0.015625 0.43359-0.015625 0.75 0.011719 2.1523 0.16406 4.582-0.97266 6.7109-2.4062 1.8594-1.2539 3.5312-2.7617 4.6484-3.9258l0.039063-0.77344c-1.0742 1.1797-2.9023 2.8945-4.9648 4.2852-2.1133 1.4219-4.4219 2.4727-6.3984 2.3203-0.32812-0.027344-0.60547-0.027344-0.82422-0.007812-0.21875 0.015624-0.40234 0.054687-0.53906 0.125-0.14453 0.074218-0.28125 0.21094-0.26953 0.42187 0.011719 0.17188 0.125 0.30859 0.23047 0.40625 0.22656 0.19922 0.61719 0.39844 1.1094 0.55859 0.5 0.16797 1.125 0.30859 1.8398 0.38281 2.7031 0.28906 6.6992-0.33984 9.7031-4.0703z"/>
  <path d="m30.305 48.98c-1.332 0.77734-3.293 1.0977-6.9219-0.20703l-0.5 0.09375v0.875l0.50391 0.39453c3.3203 1.5625 5.8672 2.0742 7.7969 1.9219l0.51172-0.058594c1.4531-0.21875 2.5156-0.83594 3.2617-1.6445l0.89062-1.3203c0.44531-0.92578 0.62891-1.9219 0.64062-2.793l-0.16797-0.65234c-0.10547-0.15234-0.26172-0.28125-0.49609-0.33984-0.46875-0.12109-1.1445 0.066406-2.1094 0.70703-0.5625 0.37891-1.0391 0.87891-1.5117 1.375-0.046875 0.054688-0.097656 0.10547-0.14844 0.15625-0.52734 0.55469-1.0625 1.0898-1.75 1.4922zm-6.9219 0.60156c3.5742 1.7109 6.1836 2.1758 8.0586 1.9492 2.1016-0.25781 3.3086-1.3906 3.9453-2.6953 0.42969-0.87891 0.60156-1.8398 0.60156-2.668 0-0.20703-0.085937-0.38281-0.28906-0.43359-0.24609-0.0625-0.76172 0.011719-1.707 0.64062-0.51172 0.34375-0.95313 0.80469-1.4297 1.3047l-0.14453 0.15625c-0.52734 0.55078-1.1094 1.1328-1.8594 1.5742-1.4844 0.87109-3.5703 1.1602-7.1758-0.10938v0.28125z" fill-rule="evenodd"/>
  <path d="m38.09 34.129c0.007812 0 0.019531 0 0.03125 0.003906 0.011718 0.003907 0.023437 0.011719 0.039062 0.03125 0.085938 0.11719 0.16797 0.26172 0.19922 0.39063v0.023437c-0.003906 0.011719-0.011719 0.027344-0.023437 0.042969-0.16797 0.21094-0.30469 0.27734-0.39063 0.28906-0.082031 0.015625-0.16016-0.011718-0.22656-0.074218-0.070312-0.0625-0.125-0.15625-0.14062-0.24609-0.015625-0.09375 0.007813-0.14062 0.027344-0.16016 0.17578-0.17578 0.35938-0.26172 0.48438-0.30078z"/>
 </g>
<text x="0.0" y="117.5" font-size="5.0" font-weight="bold" font-family="Arbeit Regular, Helvetica, Arial-Unicode, Arial, Sans-serif" fill="#000000">Created by ddo</text><text x="0.0" y="122.5" font-size="5.0" font-weight="bold" font-family="Arbeit Regular, Helvetica, Arial-Unicode, Arial, Sans-serif" fill="#000000">from Noun Project</text></svg>