<svg viewBox="0 0 78.44 67.67" xmlns="http://www.w3.org/2000/svg"><path d="m75.55 47.23s.02-.08.04-.11c.04-.02.08-.05.11-.09.07-.02.22-.02.49.09.59.23.99.49 1.34.7.11.07.21.13.32.2.09.05.17.09.26.13-.15.28-.12.64.15.88l.07.06c.12.11.14.26.11.37-.02.05-.05.08-.07.09s-.05.02-.12 0c-.22-.07-.43-.14-.59-.21-.03-.03-.07-.05-.11-.06s-.07-.02-.11-.04c-.66-.21-1.24-.58-1.73-1.02-.05-.15-.11-.33-.14-.5-.03-.2-.04-.38-.01-.5z"/><path d="m13.72 21.21c-.2 1.57-.43 3.54-.6 5.77-1-.12-1.72-1.02-2.31-2.03-.15-.27-.29-.53-.43-.79l-.05-.11c-.11-.21-.21-.42-.32-.6-.12-.2-.23-.39-.36-.53-.11-.13-.28-.27-.49-.27-.03 0-.12-.02-.28-.11-.14-.08-.32-.21-.52-.37-.4-.33-.88-.8-1.34-1.36-.93-1.13-1.79-2.57-1.98-3.9-.16-1.11-.46-1.84-.79-2.31-.1-.14-.2-.37-.23-.6-.04-.25 0-.42.05-.49l10.26-12.44c.06-.07.15-.11.24-.09l6.05 1.2c-.16.09-.32.18-.48.28-1.87 1.25-2.58 3.21-3.03 5.01-.1.4-.19.79-.27 1.17l-.04.14c-.09.42-.18.82-.29 1.18-.2.74-.44 1.3-.79 1.65-.81.81-1.24 1.45-1.46 2.36-.2.87-.2 1.99-.2 3.74v.04c0 .57-.13 1.6-.3 3.01l-.05.45z"/><path d="m32.53 2.74c2.29-1.53 5.96-2.95 10.07-2.71 4.11.23 8.69 2.11 12.83 7.2 1.02 1.25 2.01 2.7 2.97 4.36.05.09.04.21-.04.3l-2.02 2.02c-.1.1-.16.21-.2.34-.43 1.59-1.94 4.84-4.84 6.38-.16.08-.28.21-.35.38-1.5 3.45-4 4.38-5.14 4.44-.12 0-.25.04-.37.11l-3.69 2.22c-.16.09-.27.23-.33.41l-.66 1.98c-.02.07-.08.12-.14.15-2.86 1.04-4.77-.54-5.41-1.52l-.29-6.23c.82-1.89 1.45-3.9 1.83-5.38.04-.16.02-.34-.04-.49l-1.52-3.42c-.27-.62-.16-1.26.24-1.92.41-.67 1.12-1.34 1.98-1.97 1.72-1.26 4-2.33 5.58-2.92.13-.05.19-.19.14-.32s-.19-.2-.32-.15c-1.6.6-3.93 1.68-5.7 2.98-.89.65-1.65 1.37-2.11 2.12-.46.76-.63 1.57-.27 2.39l1.52 3.42c.02.05.03.11.02.16-.38 1.47-1.01 3.47-1.83 5.36-.63 1.45-1.36 2.82-2.16 3.82-.81 1.01-1.65 1.59-2.48 1.59-.92 0-1.46-.3-1.79-.73-.38-.49-.49-1.21-.44-1.98.05-.76.25-1.54.47-2.12.05-.13-.01-.27-.14-.32s-.27.01-.32.14c-.24.61-.46 1.44-.51 2.27-.05.76.05 1.55.44 2.16l-1.2 1.84c-.11-.15-.26-.28-.5-.34-.47-.12-1.14.07-2.11.71-.56.38-1.04.88-1.51 1.38-.05.05-.1.11-.15.16-.53.55-1.06 1.09-1.75 1.49-1.33.78-3.29 1.1-6.92-.21.01-1.17.05-2.3.11-3.39.03-.55.07-1.09.1-1.62.17-2.32.42-4.37.62-6l.06-.46c.17-1.39.3-2.45.3-3.05 0-1.8 0-2.86.19-3.67.18-.78.55-1.34 1.32-2.11.45-.45.71-1.12.91-1.88.11-.38.2-.79.29-1.21l.04-.14c.08-.38.17-.77.27-1.16.45-1.77 1.12-3.58 2.82-4.72.33-.22.71-.4 1.13-.54 1.48-.5 3.43-.55 5.35-.38 1.91.17 3.76.55 5 .89.21.06.44.02.62-.1zm-4.58 14.41c.24-.07.48.04.61.21.11.14.23.35.29.58.04.18-.02.36-.12.48-.21.28-.45.44-.71.48s-.48-.05-.64-.2c-.16-.14-.26-.34-.3-.54s0-.43.17-.6c.24-.24.5-.36.7-.42z" fill-rule="evenodd"/><path d="m20.32 50.3-1.45 5.15c-4.21-6.88-5.4-14.9-5.48-21.82 3.32 1.56 5.87 2.07 7.8 1.92-.25 2-.54 5.11-.73 7.99-.1 1.52-.17 2.97-.2 4.16-.03 1.14-.02 2.07.06 2.59z"/><path d="m34.73 28.88.59 13.06c-.49.3-.98.78-1.47 1.38-.61.73-1.24 1.67-1.86 2.73-1.24 2.12-2.47 4.77-3.53 7.36s-1.95 5.12-2.52 7.05c-.28.96-.49 1.77-.59 2.36-.05.29-.08.54-.08.73 0 .09.01.19.04.27s.08.2.21.25c.09.04.18.12.26.31.09.18.15.43.2.71.09.57.09 1.25.05 1.81 0 .12-.12.23-.27.21-1.43-.12-4.16-.23-6.7.05-2.3.25-4.18-.35-5.17-.86-.11-.05-.15-.21-.02-.33l3.3-3.05c.1-.09.17-.21.21-.35l1.7-6.04s.1-.01.14-.04c.11-.07.15-.23.07-.34-.03-.04-.05-.08-.07-.12l1.59-5.63s5.03-17.86 5.03-17.86c.45-.93.63-1.92.64-2.79l1.37-2.09c.44.43 1.08.67 1.96.67 1.07 0 2.03-.74 2.87-1.78.66-.82 1.27-1.87 1.8-2.99z"/><path d="m35.26 29.63c.98 1.03 2.9 2.1 5.54 1.14.21-.07.37-.25.44-.46l.66-1.99c.02-.05.05-.11.11-.13l3.69-2.22s.09-.04.14-.04c1.33-.07 3.98-1.12 5.56-4.74.02-.06.07-.11.13-.14 3.07-1.63 4.64-5.04 5.09-6.69.01-.05.04-.09.07-.12l2.02-2.02c.23-.23.29-.6.12-.9-.86-1.5-1.75-2.82-2.66-3.99 6.73.5 11.66 4.29 15.12 8.91 3.56 4.75 5.55 10.36 6.3 14.12.01.04 0 .09-.01.13-1.1 2.92-2.73 7.83-3.7 12.22-.21.96-.39 1.91-.53 2.8-.3 1.93-.38 3.65-.11 4.86.92 4 .41 8.84.02 10.89-.02.13-.02.26.03.38l1.04 3.12c.03.1 0 .2-.08.27-3.55 2.86-6.48 2.12-7.79 1.25-.08-.05-.11-.18-.02-.3l1.56-1.87c.11-.14.17-.3.17-.48v-7.29c0-.08-.01-.16-.04-.23l-1.91-5.75c-.04-.12-.12-.24-.21-.32-.69-.63-1.19-1.38-1.54-2.2-1.09-2.61-.6-6.05.54-9.41 1.14-3.34 2.91-6.54 4.31-8.62.08-.12.05-.27-.07-.35-.11-.08-.27-.05-.35.07-1.43 2.11-3.22 5.35-4.37 8.75-1.12 3.29-1.66 6.79-.61 9.54-.84.47-1.88 1.66-2.67 3.82-.87 2.36-1.45 5.9-1.12 11v2.07c0 .1-.05.17-.12.2-.81.3-2.06.41-3.43.38-1.36-.02-2.8-.16-3.98-.32-.1-.01-.19-.1-.23-.25s0-.31.08-.4c.61-.66 1.22-1.62 1.43-2.84.32-1.89.91-8.02 1.18-10.98.02-.15-.02-.3-.1-.45-.38-.59-1.02-1.23-1.8-1.89s-1.71-1.34-2.68-1.99c-1.86-1.25-3.87-2.41-5.22-3.14.7-3.68 1.69-8.08 3.05-13.31.04-.13-.05-.27-.18-.3-.13-.04-.27.04-.3.18-1.39 5.32-2.39 9.79-3.09 13.52-.97 5.16-1.38 8.91-1.45 11.52-.04 1.3 0 2.33.09 3.11.09.77.24 1.33.42 1.67.04.07.05.13.05.18v4.08c0 .13.03.25.09.36l1.6 2.88c.08.15 0 .32-.16.35-3.57.68-7.78.33-10.01-.02-.16-.02-.25-.2-.17-.35l1.5-2.86c.06-.12.09-.25.09-.38l-.98-21.45s.03-.02.04-.02c.13-.06.18-.21.12-.33-.04-.08-.11-.13-.19-.14l-.55-12.1z"/><path d="m73.86 45.53c.06-.38.12-.77.2-1.16.04.26.1.52.16.77.11.42.25.83.43 1.17.12.24.28.46.46.63-.03.06-.05.12-.06.19-.03.13-.04.28-.02.42-.6-.73-1-1.51-1.18-2.02z"/><path d="m12.88 33.19v.05-.88c-2.91 4.02-6.95 4.69-9.65 4.4-.68-.07-1.27-.21-1.73-.36-.47-.16-.79-.33-.93-.46-.01 0-.02-.02-.03-.02.06-.02.16-.05.31-.06.19-.02.43-.02.75.01 2.15.16 4.58-.97 6.71-2.41 1.86-1.25 3.53-2.76 4.65-3.93l.04-.77c-1.07 1.18-2.9 2.89-4.96 4.29-2.11 1.42-4.42 2.47-6.4 2.32-.33-.03-.61-.03-.82 0-.22.02-.4.05-.54.12s-.28.21-.27.42c.01.17.12.31.23.41.23.2.62.4 1.11.56.5.17 1.12.31 1.84.38 2.7.29 6.7-.34 9.7-4.07z"/><path d="m20.31 32.48c-1.33.78-3.29 1.1-6.92-.21l-.5.09v.88l.5.39c3.32 1.56 5.87 2.07 7.8 1.92l.51-.06c1.45-.22 2.52-.84 3.26-1.64l.89-1.32c.45-.93.63-1.92.64-2.79l-.17-.65c-.11-.15-.26-.28-.5-.34-.47-.12-1.14.07-2.11.71-.56.38-1.04.88-1.51 1.38-.05.05-.1.11-.15.16-.53.55-1.06 1.09-1.75 1.49zm-6.93.6c3.57 1.71 6.18 2.18 8.06 1.95 2.1-.26 3.31-1.39 3.95-2.7.43-.88.6-1.84.6-2.67 0-.21-.09-.38-.29-.43-.25-.06-.76.01-1.71.64-.51.34-.95.8-1.43 1.3l-.14.16c-.53.55-1.11 1.13-1.86 1.57-1.48.87-3.57 1.16-7.18-.11v.28z" fill-rule="evenodd"/><path d="m28.09 17.63s.02 0 .03 0 .02.01.04.03c.09.12.17.26.2.39v.02s-.01.03-.02.04c-.17.21-.3.28-.39.29-.08.02-.16-.01-.23-.07s-.12-.16-.14-.25 0-.14.03-.16c.18-.18.36-.26.48-.3z"/></svg>