<svg height="378.44" viewBox="0 0 435.66 378.43999" width="435.66" xmlns="http://www.w3.org/2000/svg"><g stroke="#000" stroke-miterlimit="10" stroke-width="5" transform="translate(-12.7 -.01)"><path d="m62.26 177.96c-1.82 1.7-4.36 3-7.63 3.91s-6.06 1.36-8.36 1.36c-4.72 0-8.99-.79-12.81-2.36-3.81-1.57-7.08-3.72-9.81-6.45s-4.81-5.99-6.27-9.81-2.18-7.96-2.18-12.44c0-4.72.91-9.02 2.72-12.9 1.82-3.87 4.24-7.17 7.27-9.9 3.03-2.72 6.54-4.84 10.54-6.36 4-1.51 8.23-2.27 12.71-2.27 3.27 0 6.72.33 10.35 1s7.14 2 10.54 4c3.39 2 6.54 4.75 9.45 8.26s5.27 8.17 7.08 13.99c2.42-3.75 5.54-7.29 9.35-10.63 3.81-3.33 8.2-6.2 13.17-8.63 4.96-2.42 10.44-4.36 16.44-5.81s12.38-2.18 19.16-2.18c9.69 0 19.16 1.09 28.43 3.27s17.53 5.63 24.79 10.35 13.11 10.81 17.53 18.25c4.42 7.45 6.63 16.44 6.63 26.97v191.09h-45.41v-191.09c0-5.33-.94-9.99-2.82-13.99s-4.3-7.29-7.27-9.9c-2.97-2.6-6.36-4.54-10.17-5.81s-7.72-1.91-11.72-1.91-7.93.54-12.17 1.63-8.15 2.88-11.72 5.36-6.54 5.75-8.9 9.81-3.54 8.99-3.54 14.8v81.38c1.82-1.57 4.36-2.66 7.63-3.27 3.27-.6 6.05-.91 8.36-.91 4 0 7.87.76 11.62 2.27 3.75 1.52 7.08 3.57 9.99 6.18s5.21 5.75 6.9 9.45 2.54 7.72 2.54 12.08c0 3.63-.73 7.51-2.18 11.62-1.45 4.12-3.88 7.87-7.27 11.26s-7.87 6.21-13.44 8.45-12.47 3.36-20.71 3.36c-5.69 0-11.44-.94-17.26-2.82s-11.05-4.87-15.71-8.99-8.48-9.45-11.44-15.98c-2.97-6.54-4.45-14.41-4.45-23.61v-92.09zm-30.7-25.97c0 2.06.39 4 1.18 5.81.79 1.82 1.88 3.39 3.27 4.72s3 2.39 4.81 3.18c1.82.79 3.81 1.18 5.99 1.18s4.21-.39 6.08-1.18c1.88-.79 3.51-1.84 4.9-3.18 1.39-1.33 2.48-2.91 3.27-4.72.79-1.82 1.18-3.75 1.18-5.81s-.39-4-1.18-5.81c-.79-1.82-1.88-3.39-3.27-4.72s-3.03-2.39-4.9-3.18c-1.88-.79-3.91-1.18-6.08-1.18s-4.18.39-5.99 1.18c-1.82.79-3.42 1.85-4.81 3.18s-2.48 2.91-3.27 4.72c-.79 1.82-1.18 3.75-1.18 5.81zm106.81 136.23c0-1.94-.39-3.81-1.18-5.63s-1.88-3.42-3.27-4.81-3-2.51-4.81-3.36c-1.82-.85-3.81-1.27-5.99-1.27s-4.21.43-6.08 1.27c-1.88.85-3.51 1.97-4.9 3.36s-2.48 3-3.27 4.81c-.79 1.82-1.18 3.7-1.18 5.63s.39 3.81 1.18 5.63 1.88 3.42 3.27 4.81 3.03 2.51 4.9 3.36c1.88.85 3.91 1.27 6.08 1.27s4.18-.42 5.99-1.27c1.82-.85 3.42-1.97 4.81-3.36s2.48-3 3.27-4.81c.79-1.82 1.18-3.69 1.18-5.63z"/><g fill="none"><path d="m120.1 22.48c-6.42 0-12.44.58-18.07 1.73s-10.87 2.57-15.71 4.27c7.87 1.7 14.08 5.3 18.62 10.81s6.81 12.87 6.81 22.07c0 4.24-.85 8.24-2.54 11.99s-4.12 7.06-7.27 9.9c-3.15 2.85-6.93 5.12-11.35 6.81-4.42 1.7-9.29 2.54-14.62 2.54s-10.29-.85-14.89-2.54-8.6-4.12-11.99-7.27-6.05-6.93-7.99-11.35-2.91-9.29-2.91-14.62c0-9.45 2.36-17.59 7.08-24.43s10.96-12.47 18.71-16.89 16.5-7.69 26.25-9.81 19.71-3.18 29.88-3.18c11.02 0 21.65 1.33 31.88 4s19.29 6.39 27.16 11.17c7.87 4.79 14.2 10.57 18.98 17.35 4.79 6.78 7.17 14.23 7.17 22.34 0 4.6-.57 8.81-1.73 12.62-1.15 3.81-2.63 7.3-4.45 10.44-1.82 3.15-3.78 5.97-5.9 8.45s-4.15 4.63-6.08 6.45l-29.24-21.07c1.58-1.69 2.97-3.24 4.18-4.63s2.21-2.82 3-4.27 1.39-3.03 1.82-4.72.64-3.69.64-5.99c0-3.27-.6-6.78-1.82-10.54-1.21-3.75-3.54-7.23-6.99-10.44s-8.26-5.87-14.44-7.99-14.23-3.18-24.16-3.18zm-60.12 36.33c0 4.24 1.52 7.87 4.54 10.9s6.66 4.54 10.9 4.54 7.87-1.51 10.9-4.54 4.54-6.66 4.54-10.9-1.51-7.87-4.54-10.9-6.66-4.54-10.9-4.54-7.87 1.52-10.9 4.54c-3.03 3.03-4.54 6.66-4.54 10.9z"/><path d="m445.86 294.21c0 10.42-1.7 20.53-5.09 30.33-3.39 9.81-8.66 18.53-15.8 26.16-7.15 7.63-16.29 13.74-27.43 18.35-11.14 4.6-24.52 6.9-40.14 6.9-9.33 0-18.38-.79-27.16-2.36-8.78-1.58-17.01-4-24.7-7.27s-14.59-7.42-20.71-12.44c-6.12-5.03-11.17-10.99-15.17-17.89l43.23-25.25c5.09 11.87 11.41 21.16 18.98 27.88s16.5 10.08 26.79 10.08c6.54 0 12.38-1.24 17.53-3.72s9.54-6.08 13.17-10.81 6.39-10.44 8.26-17.17c1.88-6.72 2.82-14.32 2.82-22.8v-96.81c0-15.86-4.12-28.06-12.35-36.6-8.24-8.54-20.83-12.81-37.78-12.81-5.33 0-10.99.79-16.98 2.36-5.99 1.58-11.57 4.27-16.71 8.08-5.15 3.81-9.42 8.87-12.81 15.17s-5.09 14.17-5.09 23.61c3.87-6.78 8.81-11.68 14.8-14.71s11.96-4.54 17.89-4.54c5.57 0 10.32.91 14.26 2.72 3.93 1.82 7.14 4.18 9.63 7.08 2.48 2.91 4.3 6.21 5.45 9.9 1.15 3.7 1.73 7.48 1.73 11.35 0 4.48-.85 8.69-2.54 12.62-1.7 3.94-4.3 7.39-7.81 10.35-3.51 2.97-7.93 5.3-13.26 6.99-5.33 1.7-11.62 2.54-18.89 2.54-6.18 0-12.44-1.06-18.8-3.18s-12.14-5.3-17.35-9.54-9.45-9.5-12.71-15.8c-3.27-6.29-4.9-13.62-4.9-21.98s1.24-16.1 3.72-22.89c2.48-6.78 5.84-12.77 10.08-17.98s9.2-9.66 14.89-13.35 11.78-6.75 18.25-9.17c6.48-2.42 13.14-4.18 19.98-5.27s13.59-1.63 20.25-1.63c11.38 0 22.61 1.24 33.69 3.72s20.98 6.93 29.7 13.35 15.74 15.17 21.07 26.25 7.99 25.28 7.99 42.59v87.55zm-130.6-84.46c0 4.24 1.51 7.87 4.54 10.9s6.66 4.54 10.9 4.54 7.87-1.51 10.9-4.54 4.54-6.66 4.54-10.9-1.45-7.87-4.36-10.9-6.48-4.54-10.72-4.54c-2.18 0-4.21.39-6.08 1.18-1.88.79-3.54 1.88-5 3.27-1.45 1.39-2.61 3.03-3.45 4.9-.85 1.88-1.27 3.91-1.27 6.08z"/></g></g></svg>