<svg height="249.92999" viewBox="0 0 206.16001 249.93" width="206.16" xmlns="http://www.w3.org/2000/svg"><path d="m47.06 57.22c-1.82 1.7-4.36 3-7.63 3.91s-6.06 1.36-8.36 1.36c-4.72 0-8.99-.79-12.81-2.36-3.81-1.57-7.08-3.72-9.81-6.45s-4.81-5.99-6.27-9.81-2.18-7.96-2.18-12.44c0-4.72.91-9.02 2.72-12.9 1.82-3.87 4.24-7.17 7.27-9.9 3.03-2.72 6.54-4.84 10.54-6.36 4-1.51 8.23-2.27 12.71-2.27 3.27 0 6.72.33 10.35 1s7.14 2 10.54 4c3.39 2 6.54 4.75 9.45 8.26s5.27 8.17 7.08 13.99c2.42-3.75 5.54-7.29 9.35-10.63 3.81-3.33 8.2-6.2 13.17-8.63 4.96-2.42 10.44-4.36 16.44-5.81s12.38-2.18 19.16-2.18c9.69 0 19.16 1.09 28.43 3.27s17.53 5.63 24.79 10.35 13.11 10.81 17.53 18.25c4.42 7.45 6.63 16.44 6.63 26.97v191.09h-45.41v-191.09c0-5.33-.94-9.99-2.82-13.99s-4.3-7.29-7.27-9.9c-2.97-2.6-6.36-4.54-10.17-5.81s-7.72-1.91-11.72-1.91-7.93.54-12.17 1.63-8.15 2.88-11.72 5.36-6.54 5.75-8.9 9.81-3.54 8.99-3.54 14.8v81.38c1.82-1.57 4.36-2.66 7.63-3.27 3.27-.6 6.05-.91 8.36-.91 4 0 7.87.76 11.62 2.27 3.75 1.52 7.08 3.57 9.99 6.18s5.21 5.75 6.9 9.45 2.54 7.72 2.54 12.08c0 3.63-.73 7.51-2.18 11.62-1.45 4.12-3.88 7.87-7.27 11.26s-7.87 6.21-13.44 8.45-12.47 3.36-20.71 3.36c-5.69 0-11.44-.94-17.26-2.82s-11.05-4.87-15.71-8.99-8.48-9.45-11.44-15.98c-2.97-6.54-4.45-14.41-4.45-23.61v-92.09zm-30.7-25.97c0 2.06.39 4 1.18 5.81.79 1.82 1.88 3.39 3.27 4.72s3 2.39 4.81 3.18c1.82.79 3.81 1.18 5.99 1.18s4.21-.39 6.08-1.18c1.88-.79 3.51-1.84 4.9-3.18 1.39-1.33 2.48-2.91 3.27-4.72.79-1.82 1.18-3.75 1.18-5.81s-.39-4-1.18-5.81c-.79-1.82-1.88-3.39-3.27-4.72s-3.03-2.39-4.9-3.18c-1.88-.79-3.91-1.18-6.08-1.18s-4.18.39-5.99 1.18c-1.82.79-3.42 1.85-4.81 3.18s-2.48 2.91-3.27 4.72c-.79 1.82-1.18 3.75-1.18 5.81zm106.81 136.23c0-1.94-.39-3.81-1.18-5.63s-1.88-3.42-3.27-4.81-3-2.51-4.81-3.36c-1.82-.85-3.81-1.27-5.99-1.27s-4.21.43-6.08 1.27c-1.88.85-3.51 1.97-4.9 3.36s-2.48 3-3.27 4.81c-.79 1.82-1.18 3.7-1.18 5.63s.39 3.81 1.18 5.63 1.88 3.42 3.27 4.81 3.03 2.51 4.9 3.36c1.88.85 3.91 1.27 6.08 1.27s4.18-.42 5.99-1.27c1.82-.85 3.42-1.97 4.81-3.36s2.48-3 3.27-4.81c.79-1.82 1.18-3.69 1.18-5.63z"/></svg>