<svg xmlns="http://www.w3.org/2000/svg" version="1.1" viewBox="-5.0 -10.0 110.0 135.0">
 <path d="m90.602 40.199c-1.1016-1.3984-2.8008-2.1992-4.6016-2.1992h-12v-6c0-13.199-10.801-24-24-24s-24 10.801-24 24v6h-12c-1.8008 0-3.5 0.80078-4.6016 2.1992-1.1016 1.3984-1.6016 3.1992-1.1992 5l8.3984 42c0.60156 2.8008 3 4.8008 5.8984 4.8008h55.199c2.8984 0 5.3008-2 5.8984-4.8008l8.3984-42c0.20703-1.8008-0.19141-3.5977-1.3906-5zm-60.602-8.1992c0-11 9-20 20-20s20 9 20 20v6h-40z"/>
<text x="0.0" y="117.5" font-size="5.0" font-weight="bold" font-family="Arbeit Regular, Helvetica, Arial-Unicode, Arial, Sans-serif" fill="#000000">Created by sandy</text><text x="0.0" y="122.5" font-size="5.0" font-weight="bold" font-family="Arbeit Regular, Helvetica, Arial-Unicode, Arial, Sans-serif" fill="#000000">from Noun Project</text></svg>