<svg height="349.95279" viewBox="0 0 451.62001 349.95279" width="451.62" xmlns="http://www.w3.org/2000/svg"><g stroke="#000" stroke-miterlimit="10" stroke-width="5" transform="translate(-12.72 -111.13)"><path d="m58.63 171.97c-1.7 1.33-3.42 2.42-5.18 3.27s-4.27 1.27-7.54 1.27c-4 0-7.87-.66-11.62-2-3.75-1.33-7.02-3.3-9.81-5.9s-5.03-5.81-6.72-9.63c-1.7-3.81-2.54-8.14-2.54-12.99 0-4.48.79-8.69 2.36-12.62s3.91-7.36 6.99-10.26 6.9-5.21 11.44-6.9 9.72-2.54 15.53-2.54c6.29 0 11.96.91 16.98 2.72 5.02 1.82 9.32 4.39 12.9 7.72 3.57 3.33 6.33 7.33 8.26 11.99 1.94 4.66 2.91 9.9 2.91 15.71 0 8.72-.79 16.17-2.36 22.34-1.58 6.18-3.54 11.69-5.9 16.53s-4.94 9.33-7.72 13.44c-2.79 4.12-5.36 8.42-7.72 12.9s-4.33 9.51-5.9 15.08c-1.58 5.57-2.36 12.17-2.36 19.8 0 10.9 2.24 19.5 6.72 25.79 4.48 6.3 10.96 9.45 19.44 9.45 3.75 0 7.08-.88 9.99-2.63s5.36-4.02 7.36-6.81c2-2.78 3.51-5.99 4.54-9.63 1.03-3.63 1.54-7.27 1.54-10.9v-84.83c0-8.11 1.33-15.74 4-22.89 2.66-7.14 6.66-13.35 11.99-18.62s12.02-9.45 20.07-12.53c8.05-3.09 17.53-4.63 28.43-4.63 9.2 0 17.65 1.36 25.34 4.09 7.69 2.72 14.29 6.6 19.8 11.62 5.51 5.03 9.81 11.17 12.9 18.44s4.63 15.44 4.63 24.52v139.14h-45.41v-139.32c0-6.54-.49-11.83-1.45-15.89-.97-4.06-2.27-7.23-3.91-9.54-1.63-2.3-3.48-3.84-5.54-4.63s-4.12-1.18-6.18-1.18c-2.67 0-5.15.54-7.45 1.63s-4.33 2.88-6.08 5.36c-1.76 2.48-3.15 5.69-4.18 9.63s-1.54 8.75-1.54 14.44v85.01c0 8.72-1.76 16.62-5.27 23.7s-8.36 13.11-14.53 18.07c-6.18 4.97-13.47 8.81-21.89 11.53s-17.47 4.09-27.16 4.09c-11.14 0-21.13-1.3-29.97-3.91-8.84-2.6-16.35-6.51-22.52-11.72-6.18-5.21-10.9-11.72-14.17-19.53s-4.9-16.92-4.9-27.34c0-7.87.91-14.71 2.72-20.53s4.18-10.99 7.08-15.53 6.05-8.6 9.45-12.17c3.39-3.57 6.72-6.99 9.99-10.26s6.18-6.63 8.72-10.08 4.36-7.23 5.45-11.35zm-27.07-26.88c0 1.94.39 3.81 1.18 5.63s1.88 3.42 3.27 4.81 3 2.51 4.81 3.36c1.82.85 3.81 1.27 5.99 1.27s4.21-.42 6.08-1.27c1.88-.85 3.51-1.97 4.9-3.36s2.48-3 3.27-4.81c.79-1.82 1.18-3.69 1.18-5.63s-.39-3.81-1.18-5.63-1.88-3.42-3.27-4.81-3.03-2.51-4.9-3.36c-1.88-.85-3.91-1.27-6.08-1.27s-4.18.43-5.99 1.27c-1.82.85-3.42 1.97-4.81 3.36s-2.48 3-3.27 4.81c-.79 1.82-1.18 3.7-1.18 5.63z"/><g fill="none"><path d="m123.73 405.2c-4.48 0-8.6-.7-12.35-2.09s-6.99-3.33-9.72-5.81c-2.72-2.48-4.84-5.36-6.36-8.63-1.51-3.27-2.27-6.78-2.27-10.54s.82-7.63 2.45-11.26 4.09-6.87 7.36-9.72 7.36-5.12 12.26-6.81c4.9-1.7 10.63-2.54 17.17-2.54s12.35.97 18.16 2.91 10.96 4.78 15.44 8.54c4.48 3.75 8.05 8.42 10.72 13.99s4 11.93 4 19.07c0 6.18-.85 11.93-2.54 17.26s-3.87 10.29-6.54 14.89c-2.66 4.6-5.63 8.78-8.9 12.53s-6.42 7.02-9.45 9.81c-3.03 2.78-5.81 5.11-8.36 6.99-2.54 1.88-4.42 3.24-5.63 4.09l-17.98-16.53c5.57-4.24 10.11-8.24 13.62-11.99s6.3-7.39 8.36-10.9 3.48-6.87 4.27-10.08 1.18-6.39 1.18-9.54c0-2.06-.18-4-.54-5.81-2.91 4.24-6.51 7.33-10.81 9.26-4.3 1.94-8.81 2.91-13.53 2.91zm-14.35-29.07c0 3.51 1.33 6.51 4 8.99s5.81 3.72 9.45 3.72 6.75-1.24 9.35-3.72c2.61-2.48 3.91-5.48 3.91-8.99s-1.15-6.48-3.45-8.9-5.57-3.63-9.81-3.63c-3.63 0-6.78 1.21-9.45 3.63-2.66 2.42-4 5.39-4 8.9z"/><path d="m461.84 287.13c0 10.42-1.7 20.53-5.09 30.33-3.39 9.81-8.66 18.53-15.8 26.16-7.15 7.63-16.29 13.74-27.43 18.35-11.14 4.6-24.52 6.9-40.14 6.9-9.33 0-18.38-.79-27.16-2.36-8.78-1.58-17.01-4-24.7-7.27s-14.59-7.42-20.71-12.44c-6.12-5.03-11.17-10.99-15.17-17.89l43.23-25.25c5.09 11.87 11.41 21.16 18.98 27.88s16.5 10.08 26.79 10.08c6.54 0 12.38-1.24 17.53-3.72s9.54-6.08 13.17-10.81 6.39-10.44 8.26-17.17c1.88-6.72 2.82-14.32 2.82-22.8v-96.81c0-15.86-4.12-28.06-12.35-36.6-8.24-8.54-20.83-12.81-37.78-12.81-5.33 0-10.99.79-16.98 2.36-5.99 1.58-11.57 4.27-16.71 8.08-5.15 3.81-9.42 8.87-12.81 15.17s-5.09 14.17-5.09 23.61c3.87-6.78 8.81-11.68 14.8-14.71s11.96-4.54 17.89-4.54c5.57 0 10.32.91 14.26 2.72 3.93 1.82 7.14 4.18 9.63 7.08 2.48 2.91 4.3 6.21 5.45 9.9 1.15 3.7 1.73 7.48 1.73 11.35 0 4.48-.85 8.69-2.54 12.62-1.7 3.94-4.3 7.39-7.81 10.35-3.51 2.97-7.93 5.3-13.26 6.99-5.33 1.7-11.62 2.54-18.89 2.54-6.18 0-12.44-1.06-18.8-3.18s-12.14-5.3-17.35-9.54-9.45-9.5-12.71-15.8c-3.27-6.29-4.9-13.62-4.9-21.98s1.24-16.1 3.72-22.89c2.48-6.78 5.84-12.77 10.08-17.98s9.2-9.66 14.89-13.35 11.78-6.75 18.25-9.17c6.48-2.42 13.14-4.18 19.98-5.27s13.59-1.63 20.25-1.63c11.38 0 22.61 1.24 33.69 3.72s20.98 6.93 29.7 13.35 15.74 15.17 21.07 26.25 7.99 25.28 7.99 42.59v87.55zm-130.59-84.46c0 4.24 1.51 7.87 4.54 10.9s6.66 4.54 10.9 4.54 7.87-1.51 10.9-4.54 4.54-6.66 4.54-10.9-1.45-7.87-4.36-10.9-6.48-4.54-10.72-4.54c-2.18 0-4.21.39-6.08 1.18-1.88.79-3.54 1.88-5 3.27-1.45 1.39-2.61 3.03-3.45 4.9-.85 1.88-1.27 3.91-1.27 6.08z"/></g></g></svg>