<svg height="200.71001" viewBox="0 0 222.16 200.71001" width="222.16" xmlns="http://www.w3.org/2000/svg"><path d="m43.41 58.3c-1.7 1.33-3.42 2.42-5.18 3.27s-4.27 1.27-7.54 1.27c-4 0-7.87-.66-11.62-2-3.75-1.33-7.02-3.3-9.81-5.9s-5.03-5.81-6.72-9.63c-1.7-3.81-2.54-8.14-2.54-12.99 0-4.48.79-8.69 2.36-12.62s3.91-7.36 6.99-10.26 6.9-5.21 11.44-6.9 9.72-2.54 15.53-2.54c6.29 0 11.96.91 16.98 2.72 5.02 1.82 9.32 4.39 12.9 7.72 3.57 3.33 6.33 7.33 8.26 11.99 1.94 4.66 2.91 9.9 2.91 15.71 0 8.72-.79 16.17-2.36 22.34-1.58 6.18-3.54 11.69-5.9 16.53s-4.94 9.33-7.72 13.44c-2.79 4.12-5.36 8.42-7.72 12.9s-4.33 9.51-5.9 15.08c-1.58 5.57-2.36 12.17-2.36 19.8 0 10.9 2.24 19.5 6.72 25.79 4.48 6.3 10.96 9.45 19.44 9.45 3.75 0 7.08-.88 9.99-2.63s5.36-4.02 7.36-6.81c2-2.78 3.51-5.99 4.54-9.63 1.03-3.63 1.54-7.27 1.54-10.9v-84.83c0-8.11 1.33-15.74 4-22.89 2.66-7.14 6.66-13.35 11.99-18.62s12.02-9.45 20.07-12.53c8.05-3.09 17.53-4.63 28.43-4.63 9.2 0 17.65 1.36 25.34 4.09 7.69 2.72 14.29 6.6 19.8 11.62 5.51 5.03 9.81 11.17 12.9 18.44s4.63 15.44 4.63 24.52v139.14h-45.41v-139.32c0-6.54-.49-11.83-1.45-15.89-.97-4.06-2.27-7.23-3.91-9.54-1.63-2.3-3.48-3.84-5.54-4.63s-4.12-1.18-6.18-1.18c-2.67 0-5.15.54-7.45 1.63s-4.33 2.88-6.08 5.36c-1.76 2.48-3.15 5.69-4.18 9.63s-1.54 8.75-1.54 14.44v85.01c0 8.72-1.76 16.62-5.27 23.7s-8.36 13.11-14.53 18.07c-6.18 4.97-13.47 8.81-21.89 11.53s-17.47 4.09-27.16 4.09c-11.14 0-21.13-1.3-29.97-3.91-8.84-2.6-16.35-6.51-22.52-11.72-6.18-5.21-10.9-11.72-14.17-19.53s-4.9-16.92-4.9-27.34c0-7.87.91-14.71 2.72-20.53s4.18-10.99 7.08-15.53 6.05-8.6 9.45-12.17c3.39-3.57 6.72-6.99 9.99-10.26s6.18-6.63 8.72-10.08 4.36-7.23 5.45-11.35zm-27.07-26.88c0 1.94.39 3.81 1.18 5.63s1.88 3.42 3.27 4.81 3 2.51 4.81 3.36c1.82.85 3.81 1.27 5.99 1.27s4.21-.42 6.08-1.27c1.88-.85 3.51-1.97 4.9-3.36s2.48-3 3.27-4.81c.79-1.82 1.18-3.69 1.18-5.63s-.39-3.81-1.18-5.63-1.88-3.42-3.27-4.81-3.03-2.51-4.9-3.36c-1.88-.85-3.91-1.27-6.08-1.27s-4.18.43-5.99 1.27c-1.82.85-3.42 1.97-4.81 3.36s-2.48 3-3.27 4.81c-.79 1.82-1.18 3.7-1.18 5.63z"/></svg>