<svg clip-rule="evenodd" fill-rule="evenodd" height="237" image-rendering="optimizeQuality" shape-rendering="geometricPrecision" text-rendering="geometricPrecision" viewBox="0 0 287 237" width="287" xmlns="http://www.w3.org/2000/svg"><path d="m271 38c1-18-5-30-16-38 4 16-245-35-255 127 36-143 209-65 271-89zm16 130c-33-42-84-76-137-73-22 2-43 10-59 24 0 1 1 2 1 3 17-13 36-21 56-22 59-4 97 26 139 68zm-168-1c-4 29 21 53 49 48 24-4 40-26 36-49 0-2-1-3-1-4 23 2 37 12 53 19-4 9 4 10 20 7-3-5-6-6-9-9 5-3 10-5 16-5-7-2-14-2-20 3-14-7 4-10 9-10-7-3-14-2-21 3-10-6 6-12 12-13-8-1-15 1-20 8-9-5 2-15 7-18-7 1-13 6-16 13-8-4-2-18 3-23-7 4-11 10-11 19-11-6-7-21-1-30-7 6-11 14-10 24-15-7-12-21-3-33-9 6-13 15-12 27-16-5-9-26-1-36-11 8-16 18-15 32-18-3-14-25-8-37-9 9-12 22-10 36-19 0-20-23-15-38-10 13-10 23-4 39-18 3-29-15-32-31-2 15 4 28 14 36-21 7-36-13-41-31-1 16 7 27 22 39-13 6-29-3-39-10 5-7 11-13 17-18 0-1-1-2-1-3-6 6-13 12-18 19-4-3-8-6-11-10 7 15 20 27 37 32-11 7-25 4-37-1 3-5 6-10 10-15l-2-2c-3 5-7 11-10 16-6-2-12-6-19-12 11 15 24 22 44 26-8 8-20 6-30 4 1-4 3-8 4-12 0 0 0-1-1-1-2 4-3 8-5 12-8-1-15-4-22-8 10 10 27 18 44 17-13 17-43 14-61 7 15 12 34 15 56 9-6 5-9 12-9 20 9-16 17-22 29-27 4-8 17-23 33-29zm48 6c-6 1-11 7-10 13s7 10 13 9 10-6 9-13c-1-6-6-10-12-9zm93 22c-18 4-22 9-40 15-2 2-3 4-3 7-1-2-1-4 0-6-3 1-7 2-10 3-2 3-4 5-4 8-1-2-1-4 1-7-7 2-12 2-13 11-1-3-1-5 1-8-8 2-13 2-14 12-1-3-1-6 0-9-6 1-15 1-18 13 0-3 0-7 2-10-5 0-16 0-20 13 0-5 1-9 4-12-5 0-15-3-20 11 0-5 1-9 4-12-7-2-17-3-22 12 0-6 2-11 6-16-10-3-15 3-18 13 0-6 2-12 7-17-10-3-17 4-22 13 1-7 4-12 10-17-11-4-16 2-22 13 1-6 4-14 9-18l-4-1c1-2 7-4 13-6 42 25 82 24 116 12 30-10 46-25 57-17z"/></svg>