<svg height="200.72" viewBox="0 0 195.27 200.72" width="195.27" xmlns="http://www.w3.org/2000/svg"><path d="m45.42 140.23c1.82-1.57 4.36-2.66 7.63-3.27 3.27-.6 6.05-.91 8.36-.91 4 0 7.87.76 11.62 2.27 3.75 1.52 7.08 3.57 9.99 6.18s5.21 5.75 6.9 9.45 2.54 7.72 2.54 12.08c0 3.63-.73 7.51-2.18 11.62-1.45 4.12-3.88 7.87-7.27 11.26s-7.87 6.21-13.44 8.45-12.47 3.36-20.71 3.36c-5.69 0-11.44-.94-17.26-2.82s-11.05-4.87-15.71-8.99-8.48-9.45-11.44-15.98c-2.97-6.54-4.45-14.41-4.45-23.61v-79.2c0-10.65 1.57-20.28 4.72-28.88s7.33-15.95 12.53-22.07c5.21-6.11 11.08-10.84 17.62-14.17s13.26-5 20.16-5c3.03 0 6.27.18 9.72.54s6.99 1.27 10.63 2.72 7.29 3.6 10.99 6.45c3.69 2.85 7.36 6.75 10.99 11.72 2.91-4.96 6.18-8.87 9.81-11.72 3.63-2.84 7.33-5 11.08-6.45 3.75-1.45 7.45-2.36 11.08-2.72s6.96-.54 9.99-.54c7.87 0 15.23 1.67 22.07 5s12.77 8.05 17.8 14.17c5.02 6.12 8.96 13.47 11.81 22.07 2.84 8.6 4.27 18.23 4.27 28.88v127.69h-45.59v-127.69c0-13.2-1.63-23.07-4.9-29.61s-8.96-9.81-17.07-9.81c-4 0-7.69 1.27-11.08 3.81s-6.39 5.48-8.99 8.81c-2.61 3.33-4.79 6.69-6.54 10.08-1.76 3.39-3 5.93-3.72 7.63-.73-1.69-1.88-4.24-3.45-7.63-1.58-3.39-3.63-6.75-6.18-10.08-2.54-3.33-5.57-6.27-9.08-8.81s-7.57-3.81-12.17-3.81c-6.66 0-11.84 3.36-15.53 10.08-3.7 6.72-5.54 16.5-5.54 29.33v70.11zm30.7 27.25c0-1.94-.39-3.81-1.18-5.63s-1.88-3.42-3.27-4.81-3-2.51-4.81-3.36c-1.82-.85-3.81-1.27-5.99-1.27s-4.21.43-6.08 1.27c-1.88.85-3.51 1.97-4.9 3.36s-2.48 3-3.27 4.81c-.79 1.82-1.18 3.7-1.18 5.63s.39 3.81 1.18 5.63 1.88 3.42 3.27 4.81 3.03 2.51 4.9 3.36c1.88.85 3.91 1.27 6.08 1.27s4.18-.42 5.99-1.27c1.82-.85 3.42-1.97 4.81-3.36s2.48-3 3.27-4.81c.79-1.82 1.18-3.69 1.18-5.63z"/></svg>