<svg height="205.74001" viewBox="0 0 403.08999 205.74001" width="403.09" xmlns="http://www.w3.org/2000/svg"><g transform="translate(-12.7 -111.14)"><path d="m60.62 253.89c1.82-1.57 4.36-2.66 7.63-3.27 3.27-.6 6.05-.91 8.36-.91 4 0 7.87.76 11.62 2.27 3.75 1.52 7.08 3.57 9.99 6.18s5.21 5.75 6.9 9.45 2.54 7.72 2.54 12.08c0 3.63-.73 7.51-2.18 11.62-1.45 4.12-3.88 7.87-7.27 11.26s-7.87 6.21-13.44 8.45-12.47 3.36-20.71 3.36c-5.69 0-11.44-.94-17.26-2.82s-11.05-4.87-15.71-8.99-8.48-9.45-11.44-15.98c-2.97-6.54-4.45-14.41-4.45-23.61v-79.2c0-10.65 1.57-20.28 4.72-28.88s7.33-15.95 12.53-22.07c5.21-6.11 11.08-10.84 17.62-14.17s13.26-5 20.16-5c3.03 0 6.27.18 9.72.54s6.99 1.27 10.63 2.72 7.29 3.6 10.99 6.45c3.69 2.85 7.36 6.75 10.99 11.72 2.91-4.96 6.18-8.87 9.81-11.72 3.63-2.84 7.33-5 11.08-6.45s7.45-2.36 11.08-2.72 6.96-.54 9.99-.54c7.87 0 15.23 1.67 22.07 5s12.77 8.05 17.8 14.17c5.02 6.12 8.96 13.47 11.81 22.07 2.84 8.6 4.27 18.23 4.27 28.88v127.69h-45.59v-127.69c0-13.2-1.63-23.07-4.9-29.61s-8.96-9.81-17.07-9.81c-4 0-7.69 1.27-11.08 3.81s-6.39 5.48-8.99 8.81c-2.61 3.33-4.79 6.69-6.54 10.08-1.76 3.39-3 5.93-3.72 7.63-.73-1.69-1.88-4.24-3.45-7.63-1.58-3.39-3.63-6.75-6.18-10.08-2.54-3.33-5.57-6.27-9.08-8.81s-7.57-3.81-12.17-3.81c-6.66 0-11.84 3.36-15.53 10.08-3.7 6.72-5.54 16.5-5.54 29.33v70.11zm30.7 27.25c0-1.94-.39-3.81-1.18-5.63s-1.88-3.42-3.27-4.81-3-2.51-4.81-3.36c-1.82-.85-3.81-1.27-5.99-1.27s-4.21.43-6.08 1.27c-1.88.85-3.51 1.97-4.9 3.36s-2.48 3-3.27 4.81c-.79 1.82-1.18 3.7-1.18 5.63s.39 3.81 1.18 5.63 1.88 3.42 3.27 4.81 3.03 2.51 4.9 3.36c1.88.85 3.91 1.27 6.08 1.27s4.18-.42 5.99-1.27c1.82-.85 3.42-1.97 4.81-3.36s2.48-3 3.27-4.81c.79-1.82 1.18-3.69 1.18-5.63z"/><path d="m413.27 311.47h-45.41v-126.24c0-5.93-.88-11.59-2.63-16.98-1.76-5.39-4.42-10.11-7.99-14.17s-8.08-7.27-13.53-9.63-11.81-3.54-19.07-3.54c-4.48 0-9.29.76-14.44 2.27-5.15 1.52-9.93 4.03-14.35 7.54s-8.08 8.15-10.99 13.9-4.36 12.93-4.36 21.52v3c0 1.03.06 2.03.18 3 1.82-4.12 4-7.54 6.54-10.26s5.27-4.9 8.17-6.54 5.9-2.78 8.99-3.45c3.09-.66 6.08-1 8.99-1 5.57 0 10.32.91 14.26 2.72 3.93 1.82 7.14 4.18 9.63 7.08 2.48 2.91 4.3 6.21 5.45 9.9 1.15 3.7 1.73 7.48 1.73 11.35 0 4.48-.85 8.69-2.54 12.62-1.7 3.94-4.3 7.39-7.81 10.35-3.51 2.97-7.93 5.3-13.26 6.99-5.33 1.7-11.62 2.54-18.89 2.54-6.18 0-12.26-1.3-18.25-3.91-5.99-2.6-11.32-6.29-15.98-11.08-4.66-4.78-8.45-10.54-11.35-17.26s-4.36-14.26-4.36-22.61c0-11.02 2.24-20.64 6.72-28.88 4.48-8.23 10.41-15.1 17.8-20.62 7.38-5.51 15.89-9.63 25.52-12.35s19.53-4.09 29.7-4.09c11.02 0 21.46 1.42 31.33 4.27s18.53 7.57 25.97 14.17c7.45 6.6 13.35 15.29 17.71 26.07s6.54 24.16 6.54 40.14v113.16zm-116.07-108.8c0 4.24 1.51 7.87 4.54 10.9s6.66 4.54 10.9 4.54 7.87-1.51 10.9-4.54 4.54-6.66 4.54-10.9-1.45-7.87-4.36-10.9-6.48-4.54-10.72-4.54c-2.18 0-4.21.39-6.08 1.18-1.88.79-3.54 1.88-5 3.27-1.45 1.39-2.61 3.03-3.45 4.9-.85 1.88-1.27 3.91-1.27 6.08z" fill="none" stroke="#000" stroke-miterlimit="10" stroke-width="5"/></g></svg>