<svg xmlns="http://www.w3.org/2000/svg" version="1.1" viewBox="-5.0 -10.0 110.0 135.0">
 <path d="m96.316 75.691c-0.082031-4.7891-0.71484-9.5469-1.875-14.168l-52.863 14.168zm-62.34 9.9453c1.2422 0 2.4648-0.25781 3.5898-0.74609l-0.83594-12.863-11.641 5.6641c0.13672 1.2227 0.52734 2.4102 1.1484 3.4844 0.75781 1.3164 1.8633 2.4531 3.2695 3.2656 1.4062 0.80859 2.9453 1.1953 4.4648 1.1953zm-2.918-16.012-14.168-52.871c-4.582 1.3047-9.0156 3.1328-13.203 5.4609zm-12.234-53.387 14.168 52.879v-54.754c-4.7891 0.082031-9.5469 0.71484-14.168 1.875zm16.16-1.8789v54.766l14.176-52.906c-4.6836-1.1797-9.4414-1.793-14.176-1.8633zm16.105 2.3789-14.172 52.887 27.367-47.402c-4.2656-2.375-8.6914-4.1953-13.199-5.4844zm14.926 6.4805-27.367 47.398 38.711-38.711c-3.3711-3.2578-7.1562-6.1836-11.344-8.6875zm12.758 10.102-38.711 38.711 47.406-27.371c-2.4258-4.0625-5.332-7.8711-8.6953-11.34zm9.6914 13.07-47.41 27.375 52.871-14.168c-1.3047-4.582-3.1367-9.0156-5.4609-13.203z"/>
<text x="0.0" y="117.5" font-size="5.0" font-weight="bold" font-family="Arbeit Regular, Helvetica, Arial-Unicode, Arial, Sans-serif" fill="#000000">Created by Suminah Wulandari</text><text x="0.0" y="122.5" font-size="5.0" font-weight="bold" font-family="Arbeit Regular, Helvetica, Arial-Unicode, Arial, Sans-serif" fill="#000000">from Noun Project</text></svg>