<svg viewBox="0 0 92.63 71.28" xmlns="http://www.w3.org/2000/svg"><path d="m92.63 61.34c-.08-4.79-.71-9.55-1.88-14.17l-52.86 14.17zm-62.34 9.94c1.24 0 2.46-.26 3.59-.75l-.84-12.86-11.64 5.66c.14 1.22.53 2.41 1.15 3.48.76 1.32 1.86 2.45 3.27 3.27 1.41.81 2.95 1.2 4.46 1.2zm-2.92-16.01-14.17-52.87c-4.58 1.3-9.01 3.13-13.2 5.46zm-12.23-53.39 14.17 52.88v-54.76c-4.79.08-9.55.71-14.17 1.87zm16.16-1.88v54.77l14.17-52.91c-4.68-1.18-9.44-1.79-14.18-1.86zm16.1 2.38-14.17 52.89 27.37-47.4c-4.27-2.38-8.69-4.2-13.2-5.48zm14.93 6.48-27.37 47.4 38.71-38.71c-3.37-3.26-7.16-6.18-11.34-8.69zm12.76 10.1-38.71 38.71 47.41-27.37c-2.43-4.06-5.33-7.87-8.7-11.34zm9.69 13.07-47.41 27.38 52.87-14.17c-1.3-4.58-3.14-9.02-5.46-13.2z"/></svg>