<svg height="200.75" viewBox="0 0 179.64 200.75" width="179.64" xmlns="http://www.w3.org/2000/svg"><path d="m179.62 114.84c0 17.32-2.67 31.51-7.99 42.59-5.33 11.08-12.35 19.83-21.07 26.25s-18.62 10.87-29.7 13.35-22.31 3.72-33.69 3.72c-6.66 0-13.41-.54-20.25-1.63s-13.5-2.84-19.98-5.27c-6.48-2.42-12.56-5.48-18.25-9.17s-10.66-8.14-14.89-13.35c-4.24-5.21-7.6-11.2-10.08-17.98s-3.72-14.41-3.72-22.89 1.63-15.68 4.9-21.98c3.27-6.29 7.51-11.56 12.71-15.8 5.21-4.24 10.99-7.42 17.35-9.54s12.62-3.18 18.8-3.18c7.27 0 13.56.85 18.89 2.54 5.33 1.7 9.75 4.03 13.26 6.99 3.51 2.97 6.11 6.42 7.81 10.35 1.69 3.94 2.54 8.15 2.54 12.62 0 3.88-.58 7.66-1.73 11.35-1.15 3.7-2.97 6.99-5.45 9.9s-5.69 5.27-9.63 7.08c-3.94 1.82-8.69 2.72-14.26 2.72-5.93 0-11.9-1.51-17.89-4.54s-10.93-7.93-14.8-14.71c0 9.45 1.69 17.32 5.09 23.61 3.39 6.3 7.66 11.35 12.81 15.17 5.15 3.81 10.72 6.51 16.71 8.08 5.99 1.58 11.65 2.36 16.98 2.36 16.95 0 29.54-4.27 37.78-12.81 8.23-8.54 12.35-20.74 12.35-36.6v-42.32c0-8.47-.94-16.08-2.82-22.8s-4.63-12.44-8.26-17.17-8.02-8.32-13.17-10.81c-5.15-2.48-10.99-3.72-17.53-3.72-10.29 0-19.23 3.36-26.79 10.08-7.57 6.72-13.9 16.02-18.98 27.88l-43.23-25.25c4-6.9 9.05-12.87 15.17-17.89 6.11-5.02 13.02-9.17 20.71-12.44s15.92-5.69 24.7-7.27c8.78-1.57 17.83-2.36 27.16-2.36 15.62 0 29 2.3 40.14 6.9s20.28 10.72 27.43 18.35c7.14 7.63 12.41 16.35 15.8 26.16s5.09 19.92 5.09 30.33v33.06zm-130.6-3.09c0 2.18.42 4.21 1.27 6.08.85 1.88 2 3.51 3.45 4.9s3.12 2.48 5 3.27 3.91 1.18 6.08 1.18c4.24 0 7.81-1.51 10.72-4.54s4.36-6.66 4.36-10.9-1.52-7.87-4.54-10.9c-3.03-3.03-6.66-4.54-10.9-4.54s-7.87 1.52-10.9 4.54-4.54 6.66-4.54 10.9z" fill="#070808"/></svg>