<svg height="315.42999" viewBox="0 0 216.82349 315.43" width="216.82349" xmlns="http://www.w3.org/2000/svg"><g stroke="#000" stroke-miterlimit="10" stroke-width="5" transform="translate(-1.65 -1.44)"><path d="m194.86 228.46c0 17.32-2.67 31.51-7.99 42.59-5.33 11.08-12.35 19.83-21.07 26.25s-18.62 10.87-29.7 13.35-22.31 3.72-33.69 3.72c-6.66 0-13.41-.54-20.25-1.63s-13.5-2.84-19.98-5.27c-6.48-2.42-12.56-5.48-18.25-9.17s-10.66-8.14-14.89-13.35c-4.24-5.21-7.6-11.2-10.08-17.98s-3.72-14.41-3.72-22.89 1.63-15.68 4.9-21.98c3.27-6.29 7.51-11.56 12.71-15.8 5.21-4.24 10.99-7.42 17.35-9.54s12.62-3.18 18.8-3.18c7.27 0 13.56.85 18.89 2.54 5.33 1.7 9.75 4.03 13.26 6.99 3.51 2.97 6.11 6.42 7.81 10.35 1.69 3.94 2.54 8.15 2.54 12.62 0 3.88-.58 7.66-1.73 11.35-1.15 3.7-2.97 6.99-5.45 9.9s-5.69 5.27-9.63 7.08c-3.94 1.82-8.69 2.72-14.26 2.72-5.93 0-11.9-1.51-17.89-4.54s-10.93-7.93-14.8-14.71c0 9.45 1.69 17.32 5.09 23.61 3.39 6.3 7.66 11.35 12.81 15.17 5.15 3.81 10.72 6.51 16.71 8.08 5.99 1.58 11.65 2.36 16.98 2.36 16.95 0 29.54-4.27 37.78-12.81 8.23-8.54 12.35-20.74 12.35-36.6v-42.32c0-8.47-.94-16.08-2.82-22.8s-4.63-12.44-8.26-17.17-8.02-8.32-13.17-10.81c-5.15-2.48-10.99-3.72-17.53-3.72-10.29 0-19.23 3.36-26.79 10.08-7.57 6.72-13.9 16.02-18.98 27.88l-43.23-25.25c4-6.9 9.05-12.87 15.17-17.89 6.11-5.02 13.02-9.17 20.71-12.44s15.92-5.69 24.7-7.27c8.78-1.57 17.83-2.36 27.16-2.36 15.62 0 29 2.3 40.14 6.9s20.28 10.72 27.43 18.35c7.14 7.63 12.41 16.35 15.8 26.16s5.09 19.92 5.09 30.33v33.06zm-130.6-3.09c0 2.18.42 4.21 1.27 6.08.85 1.88 2 3.51 3.45 4.9s3.12 2.48 5 3.27 3.91 1.18 6.08 1.18c4.24 0 7.81-1.51 10.72-4.54s4.36-6.66 4.36-10.9-1.52-7.87-4.54-10.9c-3.03-3.03-6.66-4.54-10.9-4.54s-7.87 1.52-10.9 4.54-4.54 6.66-4.54 10.9z" fill="#070808"/><path d="m90.23 24.84c-8.84 0-16.35.91-22.52 2.72s-11.17 4.12-14.99 6.9c-3.81 2.79-6.57 5.9-8.26 9.35s-2.54 6.87-2.54 10.26c0 1.82.21 3.75.64 5.81s1.09 4.15 2 6.27 2 4.12 3.27 5.99c1.27 1.88 2.76 3.54 4.45 5l-31.24 19.8c-1.94-2.06-3.91-4.48-5.9-7.27-2-2.78-3.81-5.84-5.45-9.17-1.63-3.33-2.97-6.93-4-10.81-1.03-3.87-1.54-7.99-1.54-12.35 0-7.63 2.15-14.71 6.45-21.25s10.29-12.2 17.98-16.98 16.8-8.51 27.34-11.17 21.98-4 34.33-4 23.98 1.33 34.51 4c10.54 2.67 19.62 6.42 27.25 11.26s13.59 10.66 17.89 17.44 6.45 14.23 6.45 22.34c0 1.82-.12 3.6-.36 5.36s-.54 3.48-.91 5.18c6.54-.6 12.93-1.6 19.16-3 6.24-1.39 12.32-3.3 18.25-5.72l3.27 23.07c-4.24 2.42-8.93 4.45-14.08 6.08s-10.32 2.97-15.53 4-10.14 1.79-14.8 2.27c-4.66.49-8.63.73-11.9.73l-33.42-19.8c3.39-2.42 6.33-5.39 8.81-8.9s3.72-8.05 3.72-13.62c0-3.39-.94-6.87-2.82-10.44s-4.81-6.78-8.81-9.63c-4-2.84-9.02-5.18-15.08-6.99-6.05-1.82-13.26-2.72-21.62-2.72z" fill="none"/></g></svg>