<svg xmlns="http://www.w3.org/2000/svg" data-name="Layer 1" viewBox="0 0 100 125" x="0px" y="0px"><title>a</title><path d="M61.06079,86.6666,81.25914,66.46825a10.50052,10.50052,0,1,0-14.85-14.85L46.21081,71.81662a10.50052,10.50052,0,1,0,14.85,14.85ZM79.07033,53.806a7.41515,7.41515,0,0,1,0,10.47345l-9.00476,9.00476L59.59321,62.81185,68.598,53.80708A7.41382,7.41382,0,0,1,79.07033,53.806Z"/><path d="M83.82212,69.03116,81.3335,71.51977c.37262-.03662.75007-.05644,1.13213-.05644a11.51252,11.51252,0,0,1,11.39545,9.97339H71.41669l-3.37,3.37a14.53943,14.53943,0,1,0,16.2467-16.27038Q84.06422,68.78836,83.82212,69.03116Z"/><path d="M12.53324,12.31726v2.29392a17.10749,17.10749,0,0,1,2.95692-.2614H47.06a17.11367,17.11367,0,0,1,2.95871.26169v-2.2942A4.93048,4.93048,0,0,0,49.361,2.5H13.191a4.93048,4.93048,0,0,0-.65775,9.81726Z"/><path d="M47.06079,18.94307H15.4905A12.50076,12.50076,0,0,0,2.99212,31.44146v33.1376H46.95175L59.55917,51.97163V31.44146A12.49708,12.49708,0,0,0,47.06079,18.94307Zm.333,29.06711h-9.869v9.869H25.02646v-9.869H15.16322V35.51187h9.86324v-9.869H37.52484v9.869h9.869Z"/><path d="M38.5467,79.24184a15.04739,15.04739,0,0,0,1.02193,5.48271H12.20086a9.2114,9.2114,0,0,1-9.20874-9.20867V70.82531H41.10728A14.96073,14.96073,0,0,0,38.5467,79.24184Z"/><text x="0" y="115" fill="#000000" font-size="5px" font-weight="bold" font-family="'Helvetica Neue', Helvetica, Arial-Unicode, Arial, Sans-serif">Created by MOHAMMED SALIM</text><text x="0" y="120" fill="#000000" font-size="5px" font-weight="bold" font-family="'Helvetica Neue', Helvetica, Arial-Unicode, Arial, Sans-serif">from the Noun Project</text></svg>