<svg height="95.115532" viewBox="0 0 94.015533 95.115532" width="94.015533" xmlns="http://www.w3.org/2000/svg"><path d="m58.1 84.2 20.2-20.2c4.1-4.1 4.1-10.7 0-14.8s-10.7-4.1-14.8 0l-20.2 20.2c-4.1 4.1-4.1 10.7 0 14.8s10.7 4.1 14.8 0zm18-32.9c2.9 2.9 2.9 7.6 0 10.5l-9 9-10.5-10.5 9-9c2.9-2.9 7.6-2.9 10.5 0z"/><path d="m80.8 66.5-2.5 2.5h1.1c5.8 0 10.6 4.3 11.4 10h-22.4l-3.4 3.4c1 8 8.3 13.6 16.3 12.6s13.6-8.3 12.6-16.3c-.8-6.6-6-11.7-12.6-12.6-.2.2-.3.3-.5.5z"/><path d="m9.5 9.8v2.3c1-.2 2-.3 3-.3h31.6c1 0 2 0 3 .3v-2.3c2.7-.4 4.6-2.8 4.2-5.5-.3-2.4-2.4-4.3-4.9-4.3h-36.2c-2.7 0-4.9 2.2-4.9 4.9 0 2.5 1.8 4.6 4.3 4.9z"/><path d="m44.1 16.4h-31.6c-6.9 0-12.5 5.6-12.5 12.5v33.1h44l12.6-12.6v-20.5c0-6.9-5.6-12.5-12.5-12.5zm.3 29.1h-9.9v9.9h-12.5v-9.9h-9.9v-12.5h9.9v-9.9h12.5v9.9h9.9z"/><path d="m35.5 76.7c0 1.9.3 3.7 1 5.5h-27.3c-5.1 0-9.2-4.1-9.2-9.2v-4.7h38.1c-1.7 2.5-2.6 5.4-2.6 8.4z"/></svg>