<svg height="260.82999" viewBox="0 0 191.63001 260.83" width="191.63" xmlns="http://www.w3.org/2000/svg"><path d="m76.12 197.82c-6.18 0-12.26-.7-18.25-2.09s-11.72-3.42-17.17-6.08c0 7.87 1.48 14.56 4.45 20.07s6.9 10.05 11.81 13.62c4.9 3.57 10.59 6.18 17.07 7.81s13.29 2.45 20.43 2.45c7.99 0 15.17-1.3 21.52-3.91 6.36-2.6 11.78-6.24 16.26-10.9s7.93-10.17 10.35-16.53 3.63-13.29 3.63-20.8v-181.46h45.41v181.46c0 13.69-2.45 25.49-7.36 35.42-4.9 9.93-11.62 18.16-20.16 24.7s-18.62 11.38-30.24 14.53-24.16 4.72-37.6 4.72c-12.6 0-24.67-1.09-36.24-3.27s-21.8-5.75-30.7-10.72c-8.9-4.96-16.02-11.47-21.34-19.53-5.33-8.05-7.99-17.89-7.99-29.52 0-6.42 1-12.44 3-18.07s4.81-10.75 8.45-15.35c-3.63-5.45-6.45-11.44-8.45-17.98s-3-13.56-3-21.07c0-10.65 2.06-20.04 6.18-28.15s9.32-14.92 15.62-20.43c6.29-5.51 13.23-9.66 20.8-12.44s14.8-4.18 21.71-4.18c7.38 0 13.74.79 19.07 2.36 5.33 1.58 9.72 3.79 13.17 6.63 3.45 2.85 6.02 6.24 7.72 10.17 1.69 3.94 2.54 8.33 2.54 13.17 0 4-.7 7.72-2.09 11.17s-3.39 6.48-5.99 9.08-5.75 4.66-9.45 6.18-7.84 2.27-12.44 2.27c-2.18 0-4.54-.27-7.08-.82s-5.12-1.54-7.72-3c-2.61-1.45-5.12-3.42-7.54-5.9s-4.6-5.66-6.54-9.54c-1.21 1.7-2.27 3.75-3.18 6.18-.91 2.42-1.67 5.03-2.27 7.81-.61 2.79-1.06 5.57-1.36 8.36s-.45 5.27-.45 7.45c0 3.75.36 7.63 1.09 11.62 4.96-1.69 10.17-3.03 15.62-4s11.26-1.45 17.44-1.45c5.57 0 10.35.88 14.35 2.63 4 1.76 7.29 4.03 9.9 6.81 2.6 2.79 4.54 5.97 5.81 9.54s1.91 7.24 1.91 10.99-.61 7.24-1.82 10.81-3.09 6.78-5.63 9.63-5.75 5.15-9.63 6.9c-3.88 1.76-8.42 2.63-13.62 2.63zm0-16.35c4.6 0 8.14-1.27 10.63-3.81 2.48-2.54 3.72-5.81 3.72-9.81s-1.39-7.11-4.18-9.72c-2.79-2.6-6.18-3.91-10.17-3.91-5.45 0-10.35 1.03-14.71 3.09s-8.11 4.79-11.26 8.17c2.91 4.6 6.51 8.42 10.81 11.44 4.3 3.03 9.35 4.54 15.17 4.54zm14.35-90.82c0-3.87-1.48-7.2-4.45-9.99-2.97-2.78-6.57-4.18-10.81-4.18s-7.87 1.39-10.9 4.18-4.54 6.12-4.54 9.99 1.51 7.21 4.54 9.99c3.03 2.79 6.66 4.18 10.9 4.18s7.84-1.39 10.81-4.18c2.97-2.78 4.45-6.11 4.45-9.99z"/></svg>