<svg height="265.82999" viewBox="0 0 396.10998 265.82998" width="396.10999" xmlns="http://www.w3.org/2000/svg"><g stroke="#000" stroke-miterlimit="10" stroke-width="5" transform="translate(-12.7 -51.04)"><path d="m91.32 251.35c-6.18 0-12.26-.7-18.25-2.09s-11.72-3.42-17.17-6.08c0 7.87 1.48 14.56 4.45 20.07s6.9 10.05 11.81 13.62c4.9 3.57 10.59 6.18 17.07 7.81s13.29 2.45 20.43 2.45c7.99 0 15.17-1.3 21.52-3.91 6.36-2.6 11.78-6.24 16.26-10.9s7.93-10.17 10.35-16.53 3.63-13.29 3.63-20.8v-181.45h45.41v181.46c0 13.69-2.45 25.49-7.36 35.42-4.9 9.93-11.62 18.16-20.16 24.7s-18.62 11.38-30.24 14.53-24.16 4.72-37.6 4.72c-12.6 0-24.67-1.09-36.24-3.27s-21.8-5.75-30.7-10.72c-8.9-4.96-16.02-11.47-21.34-19.53-5.33-8.05-7.99-17.89-7.99-29.52 0-6.42 1-12.44 3-18.07s4.81-10.75 8.45-15.35c-3.63-5.45-6.45-11.44-8.45-17.98s-3-13.56-3-21.07c0-10.65 2.06-20.04 6.18-28.15s9.32-14.92 15.62-20.43c6.29-5.51 13.23-9.66 20.8-12.44s14.8-4.18 21.71-4.18c7.38 0 13.74.79 19.07 2.36 5.33 1.58 9.72 3.79 13.17 6.63 3.45 2.85 6.02 6.24 7.72 10.17 1.69 3.94 2.54 8.33 2.54 13.17 0 4-.7 7.72-2.09 11.17s-3.39 6.48-5.99 9.08-5.75 4.66-9.45 6.18-7.84 2.27-12.44 2.27c-2.18 0-4.54-.27-7.08-.82s-5.12-1.54-7.72-3c-2.61-1.45-5.12-3.42-7.54-5.9s-4.6-5.66-6.54-9.54c-1.21 1.7-2.27 3.75-3.18 6.18-.91 2.42-1.67 5.03-2.27 7.81-.61 2.79-1.06 5.57-1.36 8.36s-.45 5.27-.45 7.45c0 3.75.36 7.63 1.09 11.62 4.96-1.69 10.17-3.03 15.62-4s11.26-1.45 17.44-1.45c5.57 0 10.35.88 14.35 2.63 4 1.76 7.29 4.03 9.9 6.81 2.6 2.79 4.54 5.97 5.81 9.54s1.91 7.24 1.91 10.99-.61 7.24-1.82 10.81-3.09 6.78-5.63 9.63-5.75 5.15-9.63 6.9c-3.88 1.76-8.42 2.63-13.62 2.63zm0-16.35c4.6 0 8.14-1.27 10.63-3.81 2.48-2.54 3.72-5.81 3.72-9.81s-1.39-7.11-4.18-9.72c-2.79-2.6-6.18-3.91-10.17-3.91-5.45 0-10.35 1.03-14.71 3.09s-8.11 4.79-11.26 8.17c2.91 4.6 6.51 8.42 10.81 11.44 4.3 3.03 9.35 4.54 15.17 4.54zm14.35-90.82c0-3.87-1.48-7.2-4.45-9.99-2.97-2.78-6.57-4.18-10.81-4.18s-7.87 1.39-10.9 4.18-4.54 6.12-4.54 9.99 1.51 7.21 4.54 9.99c3.03 2.79 6.66 4.18 10.9 4.18s7.84-1.39 10.81-4.18c2.97-2.78 4.45-6.11 4.45-9.99z"/><path d="m406.29 311.47h-45.41v-126.24c0-5.93-.88-11.59-2.63-16.98-1.76-5.39-4.42-10.11-7.99-14.17s-8.08-7.27-13.53-9.63-11.81-3.54-19.07-3.54c-4.48 0-9.29.76-14.44 2.27-5.15 1.52-9.93 4.03-14.35 7.54s-8.08 8.15-10.99 13.9-4.36 12.93-4.36 21.52v3c0 1.03.06 2.03.18 3 1.82-4.12 4-7.54 6.54-10.26s5.27-4.9 8.17-6.54 5.9-2.78 8.99-3.45c3.09-.66 6.08-1 8.99-1 5.57 0 10.32.91 14.26 2.72 3.93 1.82 7.14 4.18 9.63 7.08 2.48 2.91 4.3 6.21 5.45 9.9 1.15 3.7 1.73 7.48 1.73 11.35 0 4.48-.85 8.69-2.54 12.62-1.7 3.94-4.3 7.39-7.81 10.35-3.51 2.97-7.93 5.3-13.26 6.99-5.33 1.7-11.62 2.54-18.89 2.54-6.18 0-12.26-1.3-18.25-3.91-5.99-2.6-11.32-6.29-15.98-11.08-4.66-4.78-8.45-10.54-11.35-17.26s-4.36-14.26-4.36-22.61c0-11.02 2.24-20.64 6.72-28.88 4.48-8.23 10.41-15.1 17.8-20.62 7.38-5.51 15.89-9.63 25.52-12.35s19.53-4.09 29.7-4.09c11.02 0 21.46 1.42 31.33 4.27s18.53 7.57 25.97 14.17c7.45 6.6 13.35 15.29 17.71 26.07s6.54 24.16 6.54 40.14v113.16zm-116.07-108.8c0 4.24 1.51 7.87 4.54 10.9s6.66 4.54 10.9 4.54 7.87-1.51 10.9-4.54 4.54-6.66 4.54-10.9-1.45-7.87-4.36-10.9-6.48-4.54-10.72-4.54c-2.18 0-4.21.39-6.08 1.18-1.88.79-3.54 1.88-5 3.27-1.45 1.39-2.61 3.03-3.45 4.9-.85 1.88-1.27 3.91-1.27 6.08z" fill="none"/></g></svg>